<svg width="72" height="71" viewBox="0 0 72 71" fill="none" xmlns="http://www.w3.org/2000/svg">
<g clip-path="url(#clip0_1956_10787)">
<path d="M42.7526 41.8182C42.9715 44.6637 43.7157 47.2466 44.8539 49.5668C46.0359 51.8432 47.8307 53.0251 50.2822 53.0251C51.3767 53.0251 52.5587 52.6749 53.872 51.9307C54.9687 51.3256 56.2614 50.2959 57.6937 48.8414C58.0545 48.4749 58.6615 48.5119 58.962 48.9293L65.2872 57.7164C65.5204 58.0404 65.4849 58.4865 65.1979 58.7639C62.5027 61.3688 59.6976 63.3472 56.8926 64.626C53.872 65.9831 50.9827 66.6835 48.2247 66.6835C44.635 66.6835 41.6144 65.5891 39.0754 63.3565C36.5801 61.1239 34.7852 58.1908 33.647 54.6011C30.2762 58.2346 26.5552 61.3865 22.4839 64.1445C18.6721 66.7133 14.7426 68.7724 10.7326 70.3217C10.3456 70.4711 9.91017 70.2994 9.72361 69.9289L4.25077 59.0604C4.03015 58.6222 4.24471 58.0902 4.70449 57.9191C11.5 55.3911 17.2093 51.7752 21.871 47.0715C26.5732 42.327 30.3325 36.3118 33.149 29.0655C33.3072 28.6583 33.7558 28.4431 34.1707 28.5801L46.0303 32.4945C46.4652 32.638 46.6966 33.1123 46.5369 33.5416C45.3872 36.63 44.1258 39.3546 42.7526 41.8182Z" fill="white"/>
<path d="M41.4565 1.16034C41.4566 0.595853 42.0175 0.202729 42.5483 0.39471L51.4155 3.60174C51.7379 3.71846 51.9526 4.02449 51.9526 4.36737V12.2306C51.9525 16.6776 50.6631 20.0129 48.1284 22.2365C45.5935 24.4601 41.9908 25.5724 37.3657 25.5724C35.0531 25.5724 33.0065 25.0831 31.1831 24.1047C29.3599 23.1263 27.9374 21.7916 26.9146 20.1017C25.8917 18.4117 25.3579 16.6328 25.3579 14.676C25.3579 13.7866 25.4911 12.8529 25.7134 11.9191C26.336 9.47307 27.6257 7.60482 29.5825 6.35955C31.5394 5.06983 34.0749 4.44744 37.188 4.44744C38.5219 4.44747 39.9448 4.58061 41.4565 4.80291V1.16034Z" fill="white"/>
<ellipse cx="30.264" cy="12.7855" rx="1.65369" ry="3.02779" transform="rotate(7.94956 30.264 12.7855)" fill="#555A56"/>
</g>
<defs>
<clipPath id="clip0_1956_10787">
<rect width="70.5793" height="70.5793" fill="white" transform="translate(0.628662)"/>
</clipPath>
</defs>
</svg>
