<svg width="33" height="33" viewBox="0 0 33 33" fill="none" xmlns="http://www.w3.org/2000/svg">
<path d="M9.95898 16.2387C9.54477 16.2387 9.20898 16.5745 9.20898 16.9887C9.20898 17.4029 9.54477 17.7387 9.95898 17.7387V16.2387ZM16.6257 17.7387C17.0399 17.7387 17.3757 17.4029 17.3757 16.9887C17.3757 16.5745 17.0399 16.2387 16.6257 16.2387V17.7387ZM16.6257 16.2387C16.2114 16.2387 15.8757 16.5745 15.8757 16.9887C15.8757 17.4029 16.2114 17.7387 16.6257 17.7387V16.2387ZM23.2923 17.7387C23.7065 17.7387 24.0423 17.4029 24.0423 16.9887C24.0423 16.5745 23.7065 16.2387 23.2923 16.2387V17.7387ZM17.3757 16.9887C17.3757 16.5745 17.0399 16.2387 16.6257 16.2387C16.2114 16.2387 15.8757 16.5745 15.8757 16.9887H17.3757ZM15.8757 23.6554C15.8757 24.0696 16.2114 24.4054 16.6257 24.4054C17.0399 24.4054 17.3757 24.0696 17.3757 23.6554H15.8757ZM15.8757 16.9887C15.8757 17.4029 16.2114 17.7387 16.6257 17.7387C17.0399 17.7387 17.3757 17.4029 17.3757 16.9887H15.8757ZM17.3757 10.322C17.3757 9.90781 17.0399 9.57202 16.6257 9.57202C16.2114 9.57202 15.8757 9.90781 15.8757 10.322H17.3757ZM9.95898 17.7387H16.6257V16.2387H9.95898V17.7387ZM16.6257 17.7387H23.2923V16.2387H16.6257V17.7387ZM16.6257 16.9887H15.8757C15.8757 16.9887 15.8757 16.9887 15.8757 16.9887C15.8757 16.9887 15.8757 16.9887 15.8757 16.9887C15.8757 16.9887 15.8757 16.9887 15.8757 16.9887C15.8757 16.9887 15.8757 16.9887 15.8757 16.9887C15.8757 16.9887 15.8757 16.9887 15.8757 16.9887C15.8757 16.9887 15.8757 16.9887 15.8757 16.9887C15.8757 16.9887 15.8757 16.9887 15.8757 16.9887C15.8757 16.9887 15.8757 16.9887 15.8757 16.9887C15.8757 16.9887 15.8757 16.9887 15.8757 16.9887C15.8757 16.9887 15.8757 16.9887 15.8757 16.9888C15.8757 16.9888 15.8757 16.9888 15.8757 16.9888C15.8757 16.9888 15.8757 16.9888 15.8757 16.9888C15.8757 16.9888 15.8757 16.9888 15.8757 16.9888C15.8757 16.9888 15.8757 16.9888 15.8757 16.9889C15.8757 16.9889 15.8757 16.9889 15.8757 16.9889C15.8757 16.9889 15.8757 16.9889 15.8757 16.9889C15.8757 16.9889 15.8757 16.989 15.8757 16.989C15.8757 16.989 15.8757 16.989 15.8757 16.989C15.8757 16.989 15.8757 16.9891 15.8757 16.9891C15.8757 16.9891 15.8757 16.9891 15.8757 16.9891C15.8757 16.9892 15.8757 16.9892 15.8757 16.9892C15.8757 16.9892 15.8757 16.9893 15.8757 16.9893C15.8757 16.9893 15.8757 16.9893 15.8757 16.9894C15.8757 16.9894 15.8757 16.9894 15.8757 16.9895C15.8757 16.9895 15.8757 16.9895 15.8757 16.9896C15.8757 16.9896 15.8757 16.9896 15.8757 16.9897C15.8757 16.9897 15.8757 16.9897 15.8757 16.9898C15.8757 16.9898 15.8757 16.9899 15.8757 16.9899C15.8757 16.9899 15.8757 16.99 15.8757 16.99C15.8757 16.9901 15.8757 16.9901 15.8757 16.9902C15.8757 16.9902 15.8757 16.9903 15.8757 16.9903C15.8757 16.9904 15.8757 16.9904 15.8757 16.9905C15.8757 16.9905 15.8757 16.9906 15.8757 16.9906C15.8757 16.9907 15.8757 16.9908 15.8757 16.9908C15.8757 16.9909 15.8757 16.9909 15.8757 16.991C15.8757 16.9911 15.8757 16.9911 15.8757 16.9912C15.8757 16.9913 15.8757 16.9913 15.8757 16.9914C15.8757 16.9915 15.8757 16.9916 15.8757 16.9916C15.8757 16.9917 15.8757 16.9918 15.8757 16.9919C15.8757 16.9919 15.8757 16.992 15.8757 16.9921C15.8757 16.9922 15.8757 16.9923 15.8757 16.9924C15.8757 16.9925 15.8757 16.9925 15.8757 16.9926C15.8757 16.9927 15.8757 16.9928 15.8757 16.9929C15.8757 16.993 15.8757 16.9931 15.8757 16.9932C15.8757 16.9933 15.8757 16.9934 15.8757 16.9935C15.8757 16.9936 15.8757 16.9937 15.8757 16.9938C15.8757 16.994 15.8757 16.9941 15.8757 16.9942C15.8757 16.9943 15.8757 16.9944 15.8757 16.9945C15.8757 16.9947 15.8757 16.9948 15.8757 16.9949C15.8757 16.995 15.8757 16.9951 15.8757 16.9953C15.8757 16.9954 15.8757 16.9955 15.8757 16.9957C15.8757 16.9958 15.8757 16.9959 15.8757 16.9961C15.8757 16.9962 15.8757 16.9964 15.8757 16.9965C15.8757 16.9967 15.8757 16.9968 15.8757 16.997C15.8757 16.9971 15.8757 16.9973 15.8757 16.9974C15.8757 16.9976 15.8757 16.9977 15.8757 16.9979C15.8757 16.998 15.8757 16.9982 15.8757 16.9984C15.8757 16.9985 15.8757 16.9987 15.8757 16.9989C15.8757 16.9991 15.8757 16.9992 15.8757 16.9994C15.8757 16.9996 15.8757 16.9998 15.8757 17C15.8757 17.0001 15.8757 17.0003 15.8757 17.0005C15.8757 17.0007 15.8757 17.0009 15.8757 17.0011C15.8757 17.0013 15.8757 17.0015 15.8757 17.0017C15.8757 17.0019 15.8757 17.0021 15.8757 17.0023C15.8757 17.0025 15.8757 17.0028 15.8757 17.003C15.8757 17.0032 15.8757 17.0034 15.8757 17.0036C15.8757 17.0039 15.8757 17.0041 15.8757 17.0043C15.8757 17.0045 15.8757 17.0048 15.8757 17.005C15.8757 17.0052 15.8757 17.0055 15.8757 17.0057C15.8757 17.006 15.8757 17.0062 15.8757 17.0065C15.8757 17.0067 15.8757 17.007 15.8757 17.0072C15.8757 17.0075 15.8757 17.0077 15.8757 17.008C15.8757 17.0083 15.8757 17.0085 15.8757 17.0088C15.8757 17.0091 15.8757 17.0094 15.8757 17.0096C15.8757 17.0099 15.8757 17.0102 15.8757 17.0105C15.8757 17.0108 15.8757 17.0111 15.8757 17.0114C15.8757 17.0117 15.8757 17.012 15.8757 17.0123C15.8757 17.0126 15.8757 17.0129 15.8757 17.0132C15.8757 17.0135 15.8757 17.0138 15.8757 17.0141C15.8757 17.0144 15.8757 17.0148 15.8757 17.0151C15.8757 17.0154 15.8757 17.0157 15.8757 17.0161C15.8757 17.0164 15.8757 17.0167 15.8757 17.0171C15.8757 17.0174 15.8757 17.0178 15.8757 17.0181C15.8757 17.0185 15.8757 17.0188 15.8757 17.0192C15.8757 17.0196 15.8757 17.0199 15.8757 17.0203C15.8757 17.0206 15.8757 17.021 15.8757 17.0214C15.8757 17.0218 15.8757 17.0222 15.8757 17.0225C15.8757 17.0229 15.8757 17.0233 15.8757 17.0237C15.8757 17.0241 15.8757 17.0245 15.8757 17.0249C15.8757 17.0253 15.8757 17.0257 15.8757 17.0261C15.8757 17.0265 15.8757 17.0269 15.8757 17.0274C15.8757 17.0278 15.8757 17.0282 15.8757 17.0286C15.8757 17.0291 15.8757 17.0295 15.8757 17.0299C15.8757 17.0304 15.8757 17.0308 15.8757 17.0313C15.8757 17.0317 15.8757 17.0322 15.8757 17.0326C15.8757 17.0331 15.8757 17.0336 15.8757 17.034C15.8757 17.0345 15.8757 17.035 15.8757 17.0354C15.8757 17.0359 15.8757 17.0364 15.8757 17.0369C15.8757 17.0374 15.8757 17.0379 15.8757 17.0384C15.8757 17.0389 15.8757 17.0394 15.8757 17.0399C15.8757 17.0404 15.8757 17.0409 15.8757 17.0414C15.8757 17.0419 15.8757 17.0424 15.8757 17.043C15.8757 17.0435 15.8757 17.044 15.8757 17.0446C15.8757 17.0451 15.8757 17.0456 15.8757 17.0462C15.8757 17.0467 15.8757 17.0473 15.8757 17.0478C15.8757 17.0484 15.8757 17.049 15.8757 17.0495C15.8757 17.0501 15.8757 17.0507 15.8757 17.0513C15.8757 17.0518 15.8757 17.0524 15.8757 17.053C15.8757 17.0536 15.8757 17.0542 15.8757 17.0548C15.8757 17.0554 15.8757 17.056 15.8757 17.0566C15.8757 17.0572 15.8757 17.0578 15.8757 17.0585C15.8757 17.0591 15.8757 17.0597 15.8757 17.0604C15.8757 17.061 15.8757 17.0616 15.8757 17.0623C15.8757 17.0629 15.8757 17.0636 15.8757 17.0642C15.8757 17.0649 15.8757 17.0656 15.8757 17.0662C15.8757 17.0669 15.8757 17.0676 15.8757 17.0682C15.8757 17.0689 15.8757 17.0696 15.8757 17.0703C15.8757 17.071 15.8757 17.0717 15.8757 17.0724C15.8757 17.0731 15.8757 17.0738 15.8757 17.0745C15.8757 17.0752 15.8757 17.076 15.8757 17.0767C15.8757 17.0774 15.8757 17.0781 15.8757 17.0789C15.8757 17.0796 15.8757 17.0804 15.8757 17.0811C15.8757 17.0819 15.8757 17.0826 15.8757 17.0834C15.8757 17.0842 15.8757 17.0849 15.8757 17.0857C15.8757 17.0865 15.8757 17.0873 15.8757 17.088C15.8757 17.0888 15.8757 17.0896 15.8757 17.0904C15.8757 17.0912 15.8757 17.092 15.8757 17.0929C15.8757 17.0937 15.8757 17.0945 15.8757 17.0953C15.8757 17.0961 15.8757 17.097 15.8757 17.0978C15.8757 17.0987 15.8757 17.0995 15.8757 17.1004C15.8757 17.1012 15.8757 17.1021 15.8757 17.1029C15.8757 17.1038 15.8757 17.1047 15.8757 17.1055C15.8757 17.1064 15.8757 17.1073 15.8757 17.1082C15.8757 17.1091 15.8757 17.11 15.8757 17.1109C15.8757 17.1118 15.8757 17.1127 15.8757 17.1136C15.8757 17.1146 15.8757 17.1155 15.8757 17.1164C15.8757 17.1173 15.8757 17.1183 15.8757 17.1192C15.8757 17.1202 15.8757 17.1211 15.8757 17.1221C15.8757 17.123 15.8757 17.124 15.8757 17.125C15.8757 17.126 15.8757 17.1269 15.8757 17.1279C15.8757 17.1289 15.8757 17.1299 15.8757 17.1309C15.8757 17.1319 15.8757 17.1329 15.8757 17.1339C15.8757 17.135 15.8757 17.136 15.8757 17.137C15.8757 17.138 15.8757 17.1391 15.8757 17.1401C15.8757 17.1412 15.8757 17.1422 15.8757 17.1433C15.8757 17.1443 15.8757 17.1454 15.8757 17.1465C15.8757 17.1475 15.8757 17.1486 15.8757 17.1497C15.8757 17.1508 15.8757 17.1519 15.8757 17.153C15.8757 17.1541 15.8757 17.1552 15.8757 17.1563C15.8757 17.1574 15.8757 17.1586 15.8757 17.1597C15.8757 17.1608 15.8757 17.162 15.8757 17.1631C15.8757 17.1643 15.8757 17.1654 15.8757 17.1666C15.8757 17.1677 15.8757 17.1689 15.8757 17.1701C15.8757 17.1713 15.8757 17.1725 15.8757 17.1737C15.8757 17.1748 15.8757 17.176 15.8757 17.1773C15.8757 17.1785 15.8757 17.1797 15.8757 17.1809C15.8757 17.1821 15.8757 17.1834 15.8757 17.1846C15.8757 17.1858 15.8757 17.1871 15.8757 17.1883C15.8757 17.1896 15.8757 17.1909 15.8757 17.1921C15.8757 17.1934 15.8757 17.1947 15.8757 17.196C15.8757 17.1973 15.8757 17.1986 15.8757 17.1999C15.8757 17.2012 15.8757 17.2025 15.8757 17.2038C15.8757 17.2051 15.8757 17.2064 15.8757 17.2078C15.8757 17.2091 15.8757 17.2105 15.8757 17.2118C15.8757 17.2132 15.8757 17.2145 15.8757 17.2159C15.8757 17.2173 15.8757 17.2186 15.8757 17.22C15.8757 17.2214 15.8757 17.2228 15.8757 17.2242C15.8757 17.2256 15.8757 17.227 15.8757 17.2284C15.8757 17.2299 15.8757 17.2313 15.8757 17.2327C15.8757 17.2342 15.8757 17.2356 15.8757 17.2371C15.8757 17.2385 15.8757 17.24 15.8757 17.2414C15.8757 17.2429 15.8757 17.2444 15.8757 17.2459C15.8757 17.2474 15.8757 17.2489 15.8757 17.2504C15.8757 17.2519 15.8757 17.2534 15.8757 17.2549C15.8757 17.2564 15.8757 17.2579 15.8757 17.2595C15.8757 17.261 15.8757 17.2626 15.8757 17.2641C15.8757 17.2657 15.8757 17.2672 15.8757 17.2688C15.8757 17.2704 15.8757 17.272 15.8757 17.2736C15.8757 17.2752 15.8757 17.2768 15.8757 17.2784C15.8757 17.28 15.8757 17.2816 15.8757 17.2832C15.8757 17.2848 15.8757 17.2865 15.8757 17.2881C15.8757 17.2898 15.8757 17.2914 15.8757 17.2931C15.8757 17.2948 15.8757 17.2964 15.8757 17.2981C15.8757 17.2998 15.8757 17.3015 15.8757 17.3032C15.8757 17.3049 15.8757 17.3066 15.8757 17.3083C15.8757 17.31 15.8757 17.3118 15.8757 17.3135C15.8757 17.3152 15.8757 17.317 15.8757 17.3187C15.8757 17.3205 15.8757 17.3223 15.8757 17.324C15.8757 17.3258 15.8757 17.3276 15.8757 17.3294C15.8757 17.3312 15.8757 17.333 15.8757 17.3348C15.8757 17.3366 15.8757 17.3384 15.8757 17.3403C15.8757 17.3421 15.8757 17.3439 15.8757 17.3458C15.8757 17.3476 15.8757 17.3495 15.8757 17.3514C15.8757 17.3532 15.8757 17.3551 15.8757 17.357C15.8757 17.3589 15.8757 17.3608 15.8757 17.3627C15.8757 17.3646 15.8757 17.3665 15.8757 17.3684C15.8757 17.3704 15.8757 17.3723 15.8757 17.3743C15.8757 17.3762 15.8757 17.3782 15.8757 17.3801C15.8757 17.3821 15.8757 17.3841 15.8757 17.3861C15.8757 17.388 15.8757 17.39 15.8757 17.392C15.8757 17.394 15.8757 17.3961 15.8757 17.3981C15.8757 17.4001 15.8757 17.4022 15.8757 17.4042C15.8757 17.4063 15.8757 17.4083 15.8757 17.4104C15.8757 17.4124 15.8757 17.4145 15.8757 17.4166C15.8757 17.4187 15.8757 17.4208 15.8757 17.4229C15.8757 17.425 15.8757 17.4271 15.8757 17.4293C15.8757 17.4314 15.8757 17.4335 15.8757 17.4357C15.8757 17.4378 15.8757 17.44 15.8757 17.4421C15.8757 17.4443 15.8757 17.4465 15.8757 17.4487C15.8757 17.4509 15.8757 17.4531 15.8757 17.4553C15.8757 17.4575 15.8757 17.4597 15.8757 17.462C15.8757 17.4642 15.8757 17.4664 15.8757 17.4687C15.8757 17.4709 15.8757 17.4732 15.8757 17.4755C15.8757 17.4778 15.8757 17.48 15.8757 17.4823C15.8757 17.4846 15.8757 17.4869 15.8757 17.4893C15.8757 17.4916 15.8757 17.4939 15.8757 17.4962C15.8757 17.4986 15.8757 17.5009 15.8757 17.5033C15.8757 17.5056 15.8757 17.508 15.8757 17.5104C15.8757 17.5128 15.8757 17.5152 15.8757 17.5176C15.8757 17.52 15.8757 17.5224 15.8757 17.5248C15.8757 17.5273 15.8757 17.5297 15.8757 17.5321C15.8757 17.5346 15.8757 17.537 15.8757 17.5395C15.8757 17.542 15.8757 17.5445 15.8757 17.547C15.8757 17.5494 15.8757 17.552 15.8757 17.5545C15.8757 17.557 15.8757 17.5595 15.8757 17.562C15.8757 17.5646 15.8757 17.5671 15.8757 17.5697C15.8757 17.5722 15.8757 17.5748 15.8757 17.5774C15.8757 17.58 15.8757 17.5826 15.8757 17.5852C15.8757 17.5878 15.8757 17.5904 15.8757 17.593C15.8757 17.5957 15.8757 17.5983 15.8757 17.6009C15.8757 17.6036 15.8757 17.6063 15.8757 17.6089C15.8757 17.6116 15.8757 17.6143 15.8757 17.617C15.8757 17.6197 15.8757 17.6224 15.8757 17.6251C15.8757 17.6278 15.8757 17.6306 15.8757 17.6333C15.8757 17.636 15.8757 17.6388 15.8757 17.6416C15.8757 17.6443 15.8757 17.6471 15.8757 17.6499C15.8757 17.6527 15.8757 17.6555 15.8757 17.6583C15.8757 17.6611 15.8757 17.6639 15.8757 17.6668C15.8757 17.6696 15.8757 17.6725 15.8757 17.6753C15.8757 17.6782 15.8757 17.6811 15.8757 17.684C15.8757 17.6868 15.8757 17.6897 15.8757 17.6926C15.8757 17.6956 15.8757 17.6985 15.8757 17.7014C15.8757 17.7043 15.8757 17.7073 15.8757 17.7102C15.8757 17.7132 15.8757 17.7162 15.8757 17.7191C15.8757 17.7221 15.8757 17.7251 15.8757 17.7281C15.8757 17.7311 15.8757 17.7342 15.8757 17.7372C15.8757 17.7402 15.8757 17.7433 15.8757 17.7463C15.8757 17.7494 15.8757 17.7524 15.8757 17.7555C15.8757 17.7586 15.8757 17.7617 15.8757 17.7648C15.8757 17.7679 15.8757 17.771 15.8757 17.7741C15.8757 17.7773 15.8757 17.7804 15.8757 17.7836C15.8757 17.7867 15.8757 17.7899 15.8757 17.7931C15.8757 17.7962 15.8757 17.7994 15.8757 17.8026C15.8757 17.8058 15.8757 17.8091 15.8757 17.8123C15.8757 17.8155 15.8757 17.8188 15.8757 17.822C15.8757 17.8253 15.8757 17.8285 15.8757 17.8318C15.8757 17.8351 15.8757 17.8384 15.8757 17.8417C15.8757 17.845 15.8757 17.8483 15.8757 17.8517C15.8757 17.855 15.8757 17.8583 15.8757 17.8617C15.8757 17.8651 15.8757 17.8684 15.8757 17.8718C15.8757 17.8752 15.8757 17.8786 15.8757 17.882C15.8757 17.8854 15.8757 17.8888 15.8757 17.8923C15.8757 17.8957 15.8757 17.8992 15.8757 17.9026C15.8757 17.9061 15.8757 17.9096 15.8757 17.913C15.8757 17.9165 15.8757 17.92 15.8757 17.9235C15.8757 17.9271 15.8757 17.9306 15.8757 17.9341C15.8757 17.9377 15.8757 17.9412 15.8757 17.9448C15.8757 17.9484 15.8757 17.9519 15.8757 17.9555C15.8757 17.9591 15.8757 17.9627 15.8757 17.9664C15.8757 17.97 15.8757 17.9736 15.8757 17.9773C15.8757 17.9809 15.8757 17.9846 15.8757 17.9882C15.8757 17.9919 15.8757 17.9956 15.8757 17.9993C15.8757 18.003 15.8757 18.0067 15.8757 18.0105C15.8757 18.0142 15.8757 18.0179 15.8757 18.0217C15.8757 18.0254 15.8757 18.0292 15.8757 18.033C15.8757 18.0368 15.8757 18.0406 15.8757 18.0444C15.8757 18.0482 15.8757 18.052 15.8757 18.0559C15.8757 18.0597 15.8757 18.0635 15.8757 18.0674C15.8757 18.0713 15.8757 18.0752 15.8757 18.0791C15.8757 18.083 15.8757 18.0869 15.8757 18.0908C15.8757 18.0947 15.8757 18.0986 15.8757 18.1026C15.8757 18.1065 15.8757 18.1105 15.8757 18.1145C15.8757 18.1185 15.8757 18.1225 15.8757 18.1265C15.8757 18.1305 15.8757 18.1345 15.8757 18.1385C15.8757 18.1426 15.8757 18.1466 15.8757 18.1507C15.8757 18.1547 15.8757 18.1588 15.8757 18.1629C15.8757 18.167 15.8757 18.1711 15.8757 18.1752C15.8757 18.1793 15.8757 18.1835 15.8757 18.1876C15.8757 18.1918 15.8757 18.1959 15.8757 18.2001C15.8757 18.2043 15.8757 18.2085 15.8757 18.2127C15.8757 18.2169 15.8757 18.2211 15.8757 18.2253C15.8757 18.2296 15.8757 18.2338 15.8757 18.2381C15.8757 18.2424 15.8757 18.2466 15.8757 18.2509C15.8757 18.2552 15.8757 18.2595 15.8757 18.2638C15.8757 18.2682 15.8757 18.2725 15.8757 18.2769C15.8757 18.2812 15.8757 18.2856 15.8757 18.29C15.8757 18.2943 15.8757 18.2987 15.8757 18.3031C15.8757 18.3076 15.8757 18.312 15.8757 18.3164C15.8757 18.3209 15.8757 18.3253 15.8757 18.3298C15.8757 18.3343 15.8757 18.3387 15.8757 18.3432C15.8757 18.3477 15.8757 18.3523 15.8757 18.3568C15.8757 18.3613 15.8757 18.3659 15.8757 18.3704C15.8757 18.375 15.8757 18.3796 15.8757 18.3842C15.8757 18.3887 15.8757 18.3934 15.8757 18.398C15.8757 18.4026 15.8757 18.4072 15.8757 18.4119C15.8757 18.4165 15.8757 18.4212 15.8757 18.4259C15.8757 18.4306 15.8757 18.4353 15.8757 18.44C15.8757 18.4447 15.8757 18.4494 15.8757 18.4541C15.8757 18.4589 15.8757 18.4636 15.8757 18.4684C15.8757 18.4732 15.8757 18.478 15.8757 18.4828C15.8757 18.4876 15.8757 18.4924 15.8757 18.4972C15.8757 18.5021 15.8757 18.5069 15.8757 18.5118C15.8757 18.5167 15.8757 18.5215 15.8757 18.5264C15.8757 18.5313 15.8757 18.5363 15.8757 18.5412C15.8757 18.5461 15.8757 18.5511 15.8757 18.556C15.8757 18.561 15.8757 18.566 15.8757 18.5709C15.8757 18.5759 15.8757 18.5809 15.8757 18.586C15.8757 18.591 15.8757 18.596 15.8757 18.6011C15.8757 18.6061 15.8757 18.6112 15.8757 18.6163C15.8757 18.6214 15.8757 18.6265 15.8757 18.6316C15.8757 18.6367 15.8757 18.6419 15.8757 18.647C15.8757 18.6522 15.8757 18.6573 15.8757 18.6625C15.8757 18.6677 15.8757 18.6729 15.8757 18.6781C15.8757 18.6833 15.8757 18.6885 15.8757 18.6938C15.8757 18.699 15.8757 18.7043 15.8757 18.7096C15.8757 18.7149 15.8757 18.7201 15.8757 18.7255C15.8757 18.7308 15.8757 18.7361 15.8757 18.7414C15.8757 18.7468 15.8757 18.7521 15.8757 18.7575C15.8757 18.7629 15.8757 18.7683 15.8757 18.7737C15.8757 18.7791 15.8757 18.7845 15.8757 18.79C15.8757 18.7954 15.8757 18.8009 15.8757 18.8063C15.8757 18.8118 15.8757 18.8173 15.8757 18.8228C15.8757 18.8283 15.8757 18.8339 15.8757 18.8394C15.8757 18.8449 15.8757 18.8505 15.8757 18.8561C15.8757 18.8616 15.8757 18.8672 15.8757 18.8728C15.8757 18.8785 15.8757 18.8841 15.8757 18.8897C15.8757 18.8954 15.8757 18.901 15.8757 18.9067C15.8757 18.9124 15.8757 18.9181 15.8757 18.9238C15.8757 18.9295 15.8757 18.9352 15.8757 18.9409C15.8757 18.9467 15.8757 18.9524 15.8757 18.9582C15.8757 18.964 15.8757 18.9698 15.8757 18.9756C15.8757 18.9814 15.8757 18.9872 15.8757 18.9931C15.8757 18.9989 15.8757 19.0048 15.8757 19.0107C15.8757 19.0165 15.8757 19.0224 15.8757 19.0283C15.8757 19.0343 15.8757 19.0402 15.8757 19.0461C15.8757 19.0521 15.8757 19.058 15.8757 19.064C15.8757 19.07 15.8757 19.076 15.8757 19.082C15.8757 19.088 15.8757 19.0941 15.8757 19.1001C15.8757 19.1062 15.8757 19.1122 15.8757 19.1183C15.8757 19.1244 15.8757 19.1305 15.8757 19.1366C15.8757 19.1427 15.8757 19.1489 15.8757 19.155C15.8757 19.1612 15.8757 19.1674 15.8757 19.1735C15.8757 19.1797 15.8757 19.1859 15.8757 19.1922C15.8757 19.1984 15.8757 19.2046 15.8757 19.2109C15.8757 19.2172 15.8757 19.2234 15.8757 19.2297C15.8757 19.236 15.8757 19.2423 15.8757 19.2487C15.8757 19.255 15.8757 19.2613 15.8757 19.2677C15.8757 19.2741 15.8757 19.2805 15.8757 19.2869C15.8757 19.2933 15.8757 19.2997 15.8757 19.3061C15.8757 19.3126 15.8757 19.319 15.8757 19.3255C15.8757 19.332 15.8757 19.3384 15.8757 19.345C15.8757 19.3515 15.8757 19.358 15.8757 19.3645C15.8757 19.3711 15.8757 19.3776 15.8757 19.3842C15.8757 19.3908 15.8757 19.3974 15.8757 19.404C15.8757 19.4106 15.8757 19.4173 15.8757 19.4239C15.8757 19.4306 15.8757 19.4373 15.8757 19.4439C15.8757 19.4506 15.8757 19.4573 15.8757 19.4641C15.8757 19.4708 15.8757 19.4775 15.8757 19.4843C15.8757 19.4911 15.8757 19.4979 15.8757 19.5047C15.8757 19.5114 15.8757 19.5183 15.8757 19.5251C15.8757 19.5319 15.8757 19.5388 15.8757 19.5457C15.8757 19.5525 15.8757 19.5594 15.8757 19.5663C15.8757 19.5733 15.8757 19.5802 15.8757 19.5871C15.8757 19.5941 15.8757 19.601 15.8757 19.608C15.8757 19.615 15.8757 19.622 15.8757 19.629C15.8757 19.6361 15.8757 19.6431 15.8757 19.6502C15.8757 19.6572 15.8757 19.6643 15.8757 19.6714C15.8757 19.6785 15.8757 19.6856 15.8757 19.6927C15.8757 19.6999 15.8757 19.707 15.8757 19.7142C15.8757 19.7214 15.8757 19.7286 15.8757 19.7358C15.8757 19.743 15.8757 19.7502 15.8757 19.7575C15.8757 19.7647 15.8757 19.772 15.8757 19.7793C15.8757 19.7866 15.8757 19.7939 15.8757 19.8012C15.8757 19.8085 15.8757 19.8159 15.8757 19.8232C15.8757 19.8306 15.8757 19.838 15.8757 19.8454C15.8757 19.8528 15.8757 19.8602 15.8757 19.8676C15.8757 19.8751 15.8757 19.8825 15.8757 19.89C15.8757 19.8975 15.8757 19.905 15.8757 19.9125C15.8757 19.92 15.8757 19.9275 15.8757 19.9351C15.8757 19.9426 15.8757 19.9502 15.8757 19.9578C15.8757 19.9654 15.8757 19.973 15.8757 19.9807C15.8757 19.9883 15.8757 19.9959 15.8757 20.0036C15.8757 20.0113 15.8757 20.019 15.8757 20.0267C15.8757 20.0344 15.8757 20.0421 15.8757 20.0499C15.8757 20.0576 15.8757 20.0654 15.8757 20.0732C15.8757 20.081 15.8757 20.0888 15.8757 20.0966C15.8757 20.1044 15.8757 20.1123 15.8757 20.1202C15.8757 20.128 15.8757 20.1359 15.8757 20.1438C15.8757 20.1517 15.8757 20.1597 15.8757 20.1676C15.8757 20.1755 15.8757 20.1835 15.8757 20.1915C15.8757 20.1995 15.8757 20.2075 15.8757 20.2155C15.8757 20.2236 15.8757 20.2316 15.8757 20.2397C15.8757 20.2477 15.8757 20.2558 15.8757 20.2639C15.8757 20.272 15.8757 20.2802 15.8757 20.2883C15.8757 20.2965 15.8757 20.3046 15.8757 20.3128C15.8757 20.321 15.8757 20.3292 15.8757 20.3374C15.8757 20.3457 15.8757 20.3539 15.8757 20.3622C15.8757 20.3704 15.8757 20.3787 15.8757 20.387C15.8757 20.3954 15.8757 20.4037 15.8757 20.412C15.8757 20.4204 15.8757 20.4288 15.8757 20.4371C15.8757 20.4455 15.8757 20.4539 15.8757 20.4624C15.8757 20.4708 15.8757 20.4793 15.8757 20.4877C15.8757 20.4962 15.8757 20.5047 15.8757 20.5132C15.8757 20.5217 15.8757 20.5303 15.8757 20.5388C15.8757 20.5474 15.8757 20.5559 15.8757 20.5645C15.8757 20.5731 15.8757 20.5817 15.8757 20.5904C15.8757 20.599 15.8757 20.6077 15.8757 20.6164C15.8757 20.625 15.8757 20.6337 15.8757 20.6425C15.8757 20.6512 15.8757 20.6599 15.8757 20.6687C15.8757 20.6774 15.8757 20.6862 15.8757 20.695C15.8757 20.7038 15.8757 20.7127 15.8757 20.7215C15.8757 20.7303 15.8757 20.7392 15.8757 20.7481C15.8757 20.757 15.8757 20.7659 15.8757 20.7748C15.8757 20.7838 15.8757 20.7927 15.8757 20.8017C15.8757 20.8106 15.8757 20.8196 15.8757 20.8287C15.8757 20.8377 15.8757 20.8467 15.8757 20.8558C15.8757 20.8648 15.8757 20.8739 15.8757 20.883C15.8757 20.8921 15.8757 20.9012 15.8757 20.9104C15.8757 20.9195 15.8757 20.9287 15.8757 20.9378C15.8757 20.947 15.8757 20.9562 15.8757 20.9655C15.8757 20.9747 15.8757 20.9839 15.8757 20.9932C15.8757 21.0025 15.8757 21.0118 15.8757 21.0211C15.8757 21.0304 15.8757 21.0397 15.8757 21.0491C15.8757 21.0584 15.8757 21.0678 15.8757 21.0772C15.8757 21.0866 15.8757 21.096 15.8757 21.1055C15.8757 21.1149 15.8757 21.1244 15.8757 21.1339C15.8757 21.1434 15.8757 21.1529 15.8757 21.1624C15.8757 21.1719 15.8757 21.1815 15.8757 21.191C15.8757 21.2006 15.8757 21.2102 15.8757 21.2198C15.8757 21.2294 15.8757 21.2391 15.8757 21.2487C15.8757 21.2584 15.8757 21.2681 15.8757 21.2778C15.8757 21.2875 15.8757 21.2972 15.8757 21.307C15.8757 21.3167 15.8757 21.3265 15.8757 21.3363C15.8757 21.3461 15.8757 21.3559 15.8757 21.3657C15.8757 21.3755 15.8757 21.3854 15.8757 21.3953C15.8757 21.4052 15.8757 21.4151 15.8757 21.425C15.8757 21.4349 15.8757 21.4449 15.8757 21.4548C15.8757 21.4648 15.8757 21.4748 15.8757 21.4848C15.8757 21.4948 15.8757 21.5049 15.8757 21.5149C15.8757 21.525 15.8757 21.5351 15.8757 21.5452C15.8757 21.5553 15.8757 21.5654 15.8757 21.5755C15.8757 21.5857 15.8757 21.5959 15.8757 21.606C15.8757 21.6162 15.8757 21.6265 15.8757 21.6367C15.8757 21.6469 15.8757 21.6572 15.8757 21.6675C15.8757 21.6778 15.8757 21.6881 15.8757 21.6984C15.8757 21.7087 15.8757 21.7191 15.8757 21.7294C15.8757 21.7398 15.8757 21.7502 15.8757 21.7606C15.8757 21.7711 15.8757 21.7815 15.8757 21.792C15.8757 21.8024 15.8757 21.8129 15.8757 21.8234C15.8757 21.8339 15.8757 21.8445 15.8757 21.855C15.8757 21.8656 15.8757 21.8762 15.8757 21.8868C15.8757 21.8974 15.8757 21.908 15.8757 21.9186C15.8757 21.9293 15.8757 21.9399 15.8757 21.9506C15.8757 21.9613 15.8757 21.9721 15.8757 21.9828C15.8757 21.9935 15.8757 22.0043 15.8757 22.0151C15.8757 22.0259 15.8757 22.0367 15.8757 22.0475C15.8757 22.0583 15.8757 22.0692 15.8757 22.0801C15.8757 22.091 15.8757 22.1019 15.8757 22.1128C15.8757 22.1237 15.8757 22.1347 15.8757 22.1456C15.8757 22.1566 15.8757 22.1676 15.8757 22.1786C15.8757 22.1896 15.8757 22.2007 15.8757 22.2117C15.8757 22.2228 15.8757 22.2339 15.8757 22.245C15.8757 22.2561 15.8757 22.2673 15.8757 22.2784C15.8757 22.2896 15.8757 22.3008 15.8757 22.312C15.8757 22.3232 15.8757 22.3344 15.8757 22.3457C15.8757 22.3569 15.8757 22.3682 15.8757 22.3795C15.8757 22.3908 15.8757 22.4021 15.8757 22.4135C15.8757 22.4248 15.8757 22.4362 15.8757 22.4476C15.8757 22.459 15.8757 22.4704 15.8757 22.4819C15.8757 22.4933 15.8757 22.5048 15.8757 22.5163C15.8757 22.5277 15.8757 22.5393 15.8757 22.5508C15.8757 22.5623 15.8757 22.5739 15.8757 22.5855C15.8757 22.5971 15.8757 22.6087 15.8757 22.6203C15.8757 22.632 15.8757 22.6436 15.8757 22.6553C15.8757 22.667 15.8757 22.6787 15.8757 22.6904C15.8757 22.7022 15.8757 22.7139 15.8757 22.7257C15.8757 22.7375 15.8757 22.7493 15.8757 22.7611C15.8757 22.7729 15.8757 22.7848 15.8757 22.7967C15.8757 22.8085 15.8757 22.8205 15.8757 22.8324C15.8757 22.8443 15.8757 22.8563 15.8757 22.8682C15.8757 22.8802 15.8757 22.8922 15.8757 22.9042C15.8757 22.9162 15.8757 22.9283 15.8757 22.9404C15.8757 22.9524 15.8757 22.9645 15.8757 22.9767C15.8757 22.9888 15.8757 23.0009 15.8757 23.0131C15.8757 23.0253 15.8757 23.0375 15.8757 23.0497C15.8757 23.0619 15.8757 23.0741 15.8757 23.0864C15.8757 23.0987 15.8757 23.111 15.8757 23.1233C15.8757 23.1356 15.8757 23.148 15.8757 23.1603C15.8757 23.1727 15.8757 23.1851 15.8757 23.1975C15.8757 23.2099 15.8757 23.2224 15.8757 23.2348C15.8757 23.2473 15.8757 23.2598 15.8757 23.2723C15.8757 23.2848 15.8757 23.2974 15.8757 23.3099C15.8757 23.3225 15.8757 23.3351 15.8757 23.3477C15.8757 23.3603 15.8757 23.373 15.8757 23.3856C15.8757 23.3983 15.8757 23.411 15.8757 23.4237C15.8757 23.4364 15.8757 23.4492 15.8757 23.4619C15.8757 23.4747 15.8757 23.4875 15.8757 23.5003C15.8757 23.5131 15.8757 23.526 15.8757 23.5389C15.8757 23.5517 15.8757 23.5646 15.8757 23.5775C15.8757 23.5905 15.8757 23.6034 15.8757 23.6164C15.8757 23.6293 15.8757 23.6423 15.8757 23.6554H17.3757C17.3757 23.6423 17.3757 23.6293 17.3757 23.6164C17.3757 23.6034 17.3757 23.5905 17.3757 23.5775C17.3757 23.5646 17.3757 23.5517 17.3757 23.5389C17.3757 23.526 17.3757 23.5131 17.3757 23.5003C17.3757 23.4875 17.3757 23.4747 17.3757 23.4619C17.3757 23.4492 17.3757 23.4364 17.3757 23.4237C17.3757 23.411 17.3757 23.3983 17.3757 23.3856C17.3757 23.373 17.3757 23.3603 17.3757 23.3477C17.3757 23.3351 17.3757 23.3225 17.3757 23.3099C17.3757 23.2974 17.3757 23.2848 17.3757 23.2723C17.3757 23.2598 17.3757 23.2473 17.3757 23.2348C17.3757 23.2224 17.3757 23.2099 17.3757 23.1975C17.3757 23.1851 17.3757 23.1727 17.3757 23.1603C17.3757 23.148 17.3757 23.1356 17.3757 23.1233C17.3757 23.111 17.3757 23.0987 17.3757 23.0864C17.3757 23.0741 17.3757 23.0619 17.3757 23.0497C17.3757 23.0375 17.3757 23.0253 17.3757 23.0131C17.3757 23.0009 17.3757 22.9888 17.3757 22.9767C17.3757 22.9645 17.3757 22.9524 17.3757 22.9404C17.3757 22.9283 17.3757 22.9162 17.3757 22.9042C17.3757 22.8922 17.3757 22.8802 17.3757 22.8682C17.3757 22.8563 17.3757 22.8443 17.3757 22.8324C17.3757 22.8205 17.3757 22.8085 17.3757 22.7967C17.3757 22.7848 17.3757 22.7729 17.3757 22.7611C17.3757 22.7493 17.3757 22.7375 17.3757 22.7257C17.3757 22.7139 17.3757 22.7022 17.3757 22.6904C17.3757 22.6787 17.3757 22.667 17.3757 22.6553C17.3757 22.6436 17.3757 22.632 17.3757 22.6203C17.3757 22.6087 17.3757 22.5971 17.3757 22.5855C17.3757 22.5739 17.3757 22.5623 17.3757 22.5508C17.3757 22.5393 17.3757 22.5277 17.3757 22.5163C17.3757 22.5048 17.3757 22.4933 17.3757 22.4819C17.3757 22.4704 17.3757 22.459 17.3757 22.4476C17.3757 22.4362 17.3757 22.4248 17.3757 22.4135C17.3757 22.4021 17.3757 22.3908 17.3757 22.3795C17.3757 22.3682 17.3757 22.3569 17.3757 22.3457C17.3757 22.3344 17.3757 22.3232 17.3757 22.312C17.3757 22.3008 17.3757 22.2896 17.3757 22.2784C17.3757 22.2673 17.3757 22.2561 17.3757 22.245C17.3757 22.2339 17.3757 22.2228 17.3757 22.2117C17.3757 22.2007 17.3757 22.1896 17.3757 22.1786C17.3757 22.1676 17.3757 22.1566 17.3757 22.1456C17.3757 22.1347 17.3757 22.1237 17.3757 22.1128C17.3757 22.1019 17.3757 22.091 17.3757 22.0801C17.3757 22.0692 17.3757 22.0583 17.3757 22.0475C17.3757 22.0367 17.3757 22.0259 17.3757 22.0151C17.3757 22.0043 17.3757 21.9935 17.3757 21.9828C17.3757 21.9721 17.3757 21.9613 17.3757 21.9506C17.3757 21.9399 17.3757 21.9293 17.3757 21.9186C17.3757 21.908 17.3757 21.8974 17.3757 21.8868C17.3757 21.8762 17.3757 21.8656 17.3757 21.855C17.3757 21.8445 17.3757 21.8339 17.3757 21.8234C17.3757 21.8129 17.3757 21.8024 17.3757 21.792C17.3757 21.7815 17.3757 21.7711 17.3757 21.7606C17.3757 21.7502 17.3757 21.7398 17.3757 21.7294C17.3757 21.7191 17.3757 21.7087 17.3757 21.6984C17.3757 21.6881 17.3757 21.6778 17.3757 21.6675C17.3757 21.6572 17.3757 21.6469 17.3757 21.6367C17.3757 21.6265 17.3757 21.6162 17.3757 21.606C17.3757 21.5959 17.3757 21.5857 17.3757 21.5755C17.3757 21.5654 17.3757 21.5553 17.3757 21.5452C17.3757 21.5351 17.3757 21.525 17.3757 21.5149C17.3757 21.5049 17.3757 21.4948 17.3757 21.4848C17.3757 21.4748 17.3757 21.4648 17.3757 21.4548C17.3757 21.4449 17.3757 21.4349 17.3757 21.425C17.3757 21.4151 17.3757 21.4052 17.3757 21.3953C17.3757 21.3854 17.3757 21.3755 17.3757 21.3657C17.3757 21.3559 17.3757 21.3461 17.3757 21.3363C17.3757 21.3265 17.3757 21.3167 17.3757 21.307C17.3757 21.2972 17.3757 21.2875 17.3757 21.2778C17.3757 21.2681 17.3757 21.2584 17.3757 21.2487C17.3757 21.2391 17.3757 21.2294 17.3757 21.2198C17.3757 21.2102 17.3757 21.2006 17.3757 21.191C17.3757 21.1815 17.3757 21.1719 17.3757 21.1624C17.3757 21.1529 17.3757 21.1434 17.3757 21.1339C17.3757 21.1244 17.3757 21.1149 17.3757 21.1055C17.3757 21.096 17.3757 21.0866 17.3757 21.0772C17.3757 21.0678 17.3757 21.0584 17.3757 21.0491C17.3757 21.0397 17.3757 21.0304 17.3757 21.0211C17.3757 21.0118 17.3757 21.0025 17.3757 20.9932C17.3757 20.9839 17.3757 20.9747 17.3757 20.9655C17.3757 20.9562 17.3757 20.947 17.3757 20.9378C17.3757 20.9287 17.3757 20.9195 17.3757 20.9104C17.3757 20.9012 17.3757 20.8921 17.3757 20.883C17.3757 20.8739 17.3757 20.8648 17.3757 20.8558C17.3757 20.8467 17.3757 20.8377 17.3757 20.8287C17.3757 20.8196 17.3757 20.8106 17.3757 20.8017C17.3757 20.7927 17.3757 20.7838 17.3757 20.7748C17.3757 20.7659 17.3757 20.757 17.3757 20.7481C17.3757 20.7392 17.3757 20.7303 17.3757 20.7215C17.3757 20.7127 17.3757 20.7038 17.3757 20.695C17.3757 20.6862 17.3757 20.6774 17.3757 20.6687C17.3757 20.6599 17.3757 20.6512 17.3757 20.6425C17.3757 20.6337 17.3757 20.625 17.3757 20.6164C17.3757 20.6077 17.3757 20.599 17.3757 20.5904C17.3757 20.5817 17.3757 20.5731 17.3757 20.5645C17.3757 20.5559 17.3757 20.5474 17.3757 20.5388C17.3757 20.5303 17.3757 20.5217 17.3757 20.5132C17.3757 20.5047 17.3757 20.4962 17.3757 20.4877C17.3757 20.4793 17.3757 20.4708 17.3757 20.4624C17.3757 20.4539 17.3757 20.4455 17.3757 20.4371C17.3757 20.4288 17.3757 20.4204 17.3757 20.412C17.3757 20.4037 17.3757 20.3954 17.3757 20.387C17.3757 20.3787 17.3757 20.3704 17.3757 20.3622C17.3757 20.3539 17.3757 20.3457 17.3757 20.3374C17.3757 20.3292 17.3757 20.321 17.3757 20.3128C17.3757 20.3046 17.3757 20.2965 17.3757 20.2883C17.3757 20.2802 17.3757 20.272 17.3757 20.2639C17.3757 20.2558 17.3757 20.2477 17.3757 20.2397C17.3757 20.2316 17.3757 20.2236 17.3757 20.2155C17.3757 20.2075 17.3757 20.1995 17.3757 20.1915C17.3757 20.1835 17.3757 20.1755 17.3757 20.1676C17.3757 20.1597 17.3757 20.1517 17.3757 20.1438C17.3757 20.1359 17.3757 20.128 17.3757 20.1202C17.3757 20.1123 17.3757 20.1044 17.3757 20.0966C17.3757 20.0888 17.3757 20.081 17.3757 20.0732C17.3757 20.0654 17.3757 20.0576 17.3757 20.0499C17.3757 20.0421 17.3757 20.0344 17.3757 20.0267C17.3757 20.019 17.3757 20.0113 17.3757 20.0036C17.3757 19.9959 17.3757 19.9883 17.3757 19.9807C17.3757 19.973 17.3757 19.9654 17.3757 19.9578C17.3757 19.9502 17.3757 19.9426 17.3757 19.9351C17.3757 19.9275 17.3757 19.92 17.3757 19.9125C17.3757 19.905 17.3757 19.8975 17.3757 19.89C17.3757 19.8825 17.3757 19.8751 17.3757 19.8676C17.3757 19.8602 17.3757 19.8528 17.3757 19.8454C17.3757 19.838 17.3757 19.8306 17.3757 19.8232C17.3757 19.8159 17.3757 19.8085 17.3757 19.8012C17.3757 19.7939 17.3757 19.7866 17.3757 19.7793C17.3757 19.772 17.3757 19.7647 17.3757 19.7575C17.3757 19.7502 17.3757 19.743 17.3757 19.7358C17.3757 19.7286 17.3757 19.7214 17.3757 19.7142C17.3757 19.707 17.3757 19.6999 17.3757 19.6927C17.3757 19.6856 17.3757 19.6785 17.3757 19.6714C17.3757 19.6643 17.3757 19.6572 17.3757 19.6502C17.3757 19.6431 17.3757 19.6361 17.3757 19.629C17.3757 19.622 17.3757 19.615 17.3757 19.608C17.3757 19.601 17.3757 19.5941 17.3757 19.5871C17.3757 19.5802 17.3757 19.5733 17.3757 19.5663C17.3757 19.5594 17.3757 19.5525 17.3757 19.5457C17.3757 19.5388 17.3757 19.5319 17.3757 19.5251C17.3757 19.5183 17.3757 19.5114 17.3757 19.5047C17.3757 19.4979 17.3757 19.4911 17.3757 19.4843C17.3757 19.4775 17.3757 19.4708 17.3757 19.4641C17.3757 19.4573 17.3757 19.4506 17.3757 19.4439C17.3757 19.4373 17.3757 19.4306 17.3757 19.4239C17.3757 19.4173 17.3757 19.4106 17.3757 19.404C17.3757 19.3974 17.3757 19.3908 17.3757 19.3842C17.3757 19.3776 17.3757 19.3711 17.3757 19.3645C17.3757 19.358 17.3757 19.3515 17.3757 19.345C17.3757 19.3384 17.3757 19.332 17.3757 19.3255C17.3757 19.319 17.3757 19.3126 17.3757 19.3061C17.3757 19.2997 17.3757 19.2933 17.3757 19.2869C17.3757 19.2805 17.3757 19.2741 17.3757 19.2677C17.3757 19.2613 17.3757 19.255 17.3757 19.2487C17.3757 19.2423 17.3757 19.236 17.3757 19.2297C17.3757 19.2234 17.3757 19.2172 17.3757 19.2109C17.3757 19.2046 17.3757 19.1984 17.3757 19.1922C17.3757 19.1859 17.3757 19.1797 17.3757 19.1735C17.3757 19.1674 17.3757 19.1612 17.3757 19.155C17.3757 19.1489 17.3757 19.1427 17.3757 19.1366C17.3757 19.1305 17.3757 19.1244 17.3757 19.1183C17.3757 19.1122 17.3757 19.1062 17.3757 19.1001C17.3757 19.0941 17.3757 19.088 17.3757 19.082C17.3757 19.076 17.3757 19.07 17.3757 19.064C17.3757 19.058 17.3757 19.0521 17.3757 19.0461C17.3757 19.0402 17.3757 19.0343 17.3757 19.0283C17.3757 19.0224 17.3757 19.0165 17.3757 19.0107C17.3757 19.0048 17.3757 18.9989 17.3757 18.9931C17.3757 18.9872 17.3757 18.9814 17.3757 18.9756C17.3757 18.9698 17.3757 18.964 17.3757 18.9582C17.3757 18.9524 17.3757 18.9467 17.3757 18.9409C17.3757 18.9352 17.3757 18.9295 17.3757 18.9238C17.3757 18.9181 17.3757 18.9124 17.3757 18.9067C17.3757 18.901 17.3757 18.8954 17.3757 18.8897C17.3757 18.8841 17.3757 18.8785 17.3757 18.8728C17.3757 18.8672 17.3757 18.8616 17.3757 18.8561C17.3757 18.8505 17.3757 18.8449 17.3757 18.8394C17.3757 18.8339 17.3757 18.8283 17.3757 18.8228C17.3757 18.8173 17.3757 18.8118 17.3757 18.8063C17.3757 18.8009 17.3757 18.7954 17.3757 18.79C17.3757 18.7845 17.3757 18.7791 17.3757 18.7737C17.3757 18.7683 17.3757 18.7629 17.3757 18.7575C17.3757 18.7521 17.3757 18.7468 17.3757 18.7414C17.3757 18.7361 17.3757 18.7308 17.3757 18.7255C17.3757 18.7201 17.3757 18.7149 17.3757 18.7096C17.3757 18.7043 17.3757 18.699 17.3757 18.6938C17.3757 18.6885 17.3757 18.6833 17.3757 18.6781C17.3757 18.6729 17.3757 18.6677 17.3757 18.6625C17.3757 18.6573 17.3757 18.6522 17.3757 18.647C17.3757 18.6419 17.3757 18.6367 17.3757 18.6316C17.3757 18.6265 17.3757 18.6214 17.3757 18.6163C17.3757 18.6112 17.3757 18.6061 17.3757 18.6011C17.3757 18.596 17.3757 18.591 17.3757 18.586C17.3757 18.5809 17.3757 18.5759 17.3757 18.5709C17.3757 18.566 17.3757 18.561 17.3757 18.556C17.3757 18.5511 17.3757 18.5461 17.3757 18.5412C17.3757 18.5363 17.3757 18.5313 17.3757 18.5264C17.3757 18.5215 17.3757 18.5167 17.3757 18.5118C17.3757 18.5069 17.3757 18.5021 17.3757 18.4972C17.3757 18.4924 17.3757 18.4876 17.3757 18.4828C17.3757 18.478 17.3757 18.4732 17.3757 18.4684C17.3757 18.4636 17.3757 18.4589 17.3757 18.4541C17.3757 18.4494 17.3757 18.4447 17.3757 18.44C17.3757 18.4353 17.3757 18.4306 17.3757 18.4259C17.3757 18.4212 17.3757 18.4165 17.3757 18.4119C17.3757 18.4072 17.3757 18.4026 17.3757 18.398C17.3757 18.3934 17.3757 18.3887 17.3757 18.3842C17.3757 18.3796 17.3757 18.375 17.3757 18.3704C17.3757 18.3659 17.3757 18.3613 17.3757 18.3568C17.3757 18.3523 17.3757 18.3477 17.3757 18.3432C17.3757 18.3387 17.3757 18.3343 17.3757 18.3298C17.3757 18.3253 17.3757 18.3209 17.3757 18.3164C17.3757 18.312 17.3757 18.3076 17.3757 18.3031C17.3757 18.2987 17.3757 18.2943 17.3757 18.29C17.3757 18.2856 17.3757 18.2812 17.3757 18.2769C17.3757 18.2725 17.3757 18.2682 17.3757 18.2638C17.3757 18.2595 17.3757 18.2552 17.3757 18.2509C17.3757 18.2466 17.3757 18.2424 17.3757 18.2381C17.3757 18.2338 17.3757 18.2296 17.3757 18.2253C17.3757 18.2211 17.3757 18.2169 17.3757 18.2127C17.3757 18.2085 17.3757 18.2043 17.3757 18.2001C17.3757 18.1959 17.3757 18.1918 17.3757 18.1876C17.3757 18.1835 17.3757 18.1793 17.3757 18.1752C17.3757 18.1711 17.3757 18.167 17.3757 18.1629C17.3757 18.1588 17.3757 18.1547 17.3757 18.1507C17.3757 18.1466 17.3757 18.1426 17.3757 18.1385C17.3757 18.1345 17.3757 18.1305 17.3757 18.1265C17.3757 18.1225 17.3757 18.1185 17.3757 18.1145C17.3757 18.1105 17.3757 18.1065 17.3757 18.1026C17.3757 18.0986 17.3757 18.0947 17.3757 18.0908C17.3757 18.0869 17.3757 18.083 17.3757 18.0791C17.3757 18.0752 17.3757 18.0713 17.3757 18.0674C17.3757 18.0635 17.3757 18.0597 17.3757 18.0559C17.3757 18.052 17.3757 18.0482 17.3757 18.0444C17.3757 18.0406 17.3757 18.0368 17.3757 18.033C17.3757 18.0292 17.3757 18.0254 17.3757 18.0217C17.3757 18.0179 17.3757 18.0142 17.3757 18.0105C17.3757 18.0067 17.3757 18.003 17.3757 17.9993C17.3757 17.9956 17.3757 17.9919 17.3757 17.9882C17.3757 17.9846 17.3757 17.9809 17.3757 17.9773C17.3757 17.9736 17.3757 17.97 17.3757 17.9664C17.3757 17.9627 17.3757 17.9591 17.3757 17.9555C17.3757 17.9519 17.3757 17.9484 17.3757 17.9448C17.3757 17.9412 17.3757 17.9377 17.3757 17.9341C17.3757 17.9306 17.3757 17.9271 17.3757 17.9235C17.3757 17.92 17.3757 17.9165 17.3757 17.913C17.3757 17.9096 17.3757 17.9061 17.3757 17.9026C17.3757 17.8992 17.3757 17.8957 17.3757 17.8923C17.3757 17.8888 17.3757 17.8854 17.3757 17.882C17.3757 17.8786 17.3757 17.8752 17.3757 17.8718C17.3757 17.8684 17.3757 17.8651 17.3757 17.8617C17.3757 17.8583 17.3757 17.855 17.3757 17.8517C17.3757 17.8483 17.3757 17.845 17.3757 17.8417C17.3757 17.8384 17.3757 17.8351 17.3757 17.8318C17.3757 17.8285 17.3757 17.8253 17.3757 17.822C17.3757 17.8188 17.3757 17.8155 17.3757 17.8123C17.3757 17.8091 17.3757 17.8058 17.3757 17.8026C17.3757 17.7994 17.3757 17.7962 17.3757 17.7931C17.3757 17.7899 17.3757 17.7867 17.3757 17.7836C17.3757 17.7804 17.3757 17.7773 17.3757 17.7741C17.3757 17.771 17.3757 17.7679 17.3757 17.7648C17.3757 17.7617 17.3757 17.7586 17.3757 17.7555C17.3757 17.7524 17.3757 17.7494 17.3757 17.7463C17.3757 17.7433 17.3757 17.7402 17.3757 17.7372C17.3757 17.7342 17.3757 17.7311 17.3757 17.7281C17.3757 17.7251 17.3757 17.7221 17.3757 17.7191C17.3757 17.7162 17.3757 17.7132 17.3757 17.7102C17.3757 17.7073 17.3757 17.7043 17.3757 17.7014C17.3757 17.6985 17.3757 17.6956 17.3757 17.6926C17.3757 17.6897 17.3757 17.6868 17.3757 17.684C17.3757 17.6811 17.3757 17.6782 17.3757 17.6753C17.3757 17.6725 17.3757 17.6696 17.3757 17.6668C17.3757 17.6639 17.3757 17.6611 17.3757 17.6583C17.3757 17.6555 17.3757 17.6527 17.3757 17.6499C17.3757 17.6471 17.3757 17.6443 17.3757 17.6416C17.3757 17.6388 17.3757 17.636 17.3757 17.6333C17.3757 17.6306 17.3757 17.6278 17.3757 17.6251C17.3757 17.6224 17.3757 17.6197 17.3757 17.617C17.3757 17.6143 17.3757 17.6116 17.3757 17.6089C17.3757 17.6063 17.3757 17.6036 17.3757 17.6009C17.3757 17.5983 17.3757 17.5957 17.3757 17.593C17.3757 17.5904 17.3757 17.5878 17.3757 17.5852C17.3757 17.5826 17.3757 17.58 17.3757 17.5774C17.3757 17.5748 17.3757 17.5722 17.3757 17.5697C17.3757 17.5671 17.3757 17.5646 17.3757 17.562C17.3757 17.5595 17.3757 17.557 17.3757 17.5545C17.3757 17.552 17.3757 17.5494 17.3757 17.547C17.3757 17.5445 17.3757 17.542 17.3757 17.5395C17.3757 17.537 17.3757 17.5346 17.3757 17.5321C17.3757 17.5297 17.3757 17.5273 17.3757 17.5248C17.3757 17.5224 17.3757 17.52 17.3757 17.5176C17.3757 17.5152 17.3757 17.5128 17.3757 17.5104C17.3757 17.508 17.3757 17.5056 17.3757 17.5033C17.3757 17.5009 17.3757 17.4986 17.3757 17.4962C17.3757 17.4939 17.3757 17.4916 17.3757 17.4893C17.3757 17.4869 17.3757 17.4846 17.3757 17.4823C17.3757 17.48 17.3757 17.4778 17.3757 17.4755C17.3757 17.4732 17.3757 17.4709 17.3757 17.4687C17.3757 17.4664 17.3757 17.4642 17.3757 17.462C17.3757 17.4597 17.3757 17.4575 17.3757 17.4553C17.3757 17.4531 17.3757 17.4509 17.3757 17.4487C17.3757 17.4465 17.3757 17.4443 17.3757 17.4421C17.3757 17.44 17.3757 17.4378 17.3757 17.4357C17.3757 17.4335 17.3757 17.4314 17.3757 17.4293C17.3757 17.4271 17.3757 17.425 17.3757 17.4229C17.3757 17.4208 17.3757 17.4187 17.3757 17.4166C17.3757 17.4145 17.3757 17.4124 17.3757 17.4104C17.3757 17.4083 17.3757 17.4063 17.3757 17.4042C17.3757 17.4022 17.3757 17.4001 17.3757 17.3981C17.3757 17.3961 17.3757 17.394 17.3757 17.392C17.3757 17.39 17.3757 17.388 17.3757 17.3861C17.3757 17.3841 17.3757 17.3821 17.3757 17.3801C17.3757 17.3782 17.3757 17.3762 17.3757 17.3743C17.3757 17.3723 17.3757 17.3704 17.3757 17.3684C17.3757 17.3665 17.3757 17.3646 17.3757 17.3627C17.3757 17.3608 17.3757 17.3589 17.3757 17.357C17.3757 17.3551 17.3757 17.3532 17.3757 17.3514C17.3757 17.3495 17.3757 17.3476 17.3757 17.3458C17.3757 17.3439 17.3757 17.3421 17.3757 17.3403C17.3757 17.3384 17.3757 17.3366 17.3757 17.3348C17.3757 17.333 17.3757 17.3312 17.3757 17.3294C17.3757 17.3276 17.3757 17.3258 17.3757 17.324C17.3757 17.3223 17.3757 17.3205 17.3757 17.3187C17.3757 17.317 17.3757 17.3152 17.3757 17.3135C17.3757 17.3118 17.3757 17.31 17.3757 17.3083C17.3757 17.3066 17.3757 17.3049 17.3757 17.3032C17.3757 17.3015 17.3757 17.2998 17.3757 17.2981C17.3757 17.2964 17.3757 17.2948 17.3757 17.2931C17.3757 17.2914 17.3757 17.2898 17.3757 17.2881C17.3757 17.2865 17.3757 17.2848 17.3757 17.2832C17.3757 17.2816 17.3757 17.28 17.3757 17.2784C17.3757 17.2768 17.3757 17.2752 17.3757 17.2736C17.3757 17.272 17.3757 17.2704 17.3757 17.2688C17.3757 17.2672 17.3757 17.2657 17.3757 17.2641C17.3757 17.2626 17.3757 17.261 17.3757 17.2595C17.3757 17.2579 17.3757 17.2564 17.3757 17.2549C17.3757 17.2534 17.3757 17.2519 17.3757 17.2504C17.3757 17.2489 17.3757 17.2474 17.3757 17.2459C17.3757 17.2444 17.3757 17.2429 17.3757 17.2414C17.3757 17.24 17.3757 17.2385 17.3757 17.2371C17.3757 17.2356 17.3757 17.2342 17.3757 17.2327C17.3757 17.2313 17.3757 17.2299 17.3757 17.2284C17.3757 17.227 17.3757 17.2256 17.3757 17.2242C17.3757 17.2228 17.3757 17.2214 17.3757 17.22C17.3757 17.2186 17.3757 17.2173 17.3757 17.2159C17.3757 17.2145 17.3757 17.2132 17.3757 17.2118C17.3757 17.2105 17.3757 17.2091 17.3757 17.2078C17.3757 17.2064 17.3757 17.2051 17.3757 17.2038C17.3757 17.2025 17.3757 17.2012 17.3757 17.1999C17.3757 17.1986 17.3757 17.1973 17.3757 17.196C17.3757 17.1947 17.3757 17.1934 17.3757 17.1921C17.3757 17.1909 17.3757 17.1896 17.3757 17.1883C17.3757 17.1871 17.3757 17.1858 17.3757 17.1846C17.3757 17.1834 17.3757 17.1821 17.3757 17.1809C17.3757 17.1797 17.3757 17.1785 17.3757 17.1773C17.3757 17.176 17.3757 17.1748 17.3757 17.1737C17.3757 17.1725 17.3757 17.1713 17.3757 17.1701C17.3757 17.1689 17.3757 17.1677 17.3757 17.1666C17.3757 17.1654 17.3757 17.1643 17.3757 17.1631C17.3757 17.162 17.3757 17.1608 17.3757 17.1597C17.3757 17.1586 17.3757 17.1574 17.3757 17.1563C17.3757 17.1552 17.3757 17.1541 17.3757 17.153C17.3757 17.1519 17.3757 17.1508 17.3757 17.1497C17.3757 17.1486 17.3757 17.1475 17.3757 17.1465C17.3757 17.1454 17.3757 17.1443 17.3757 17.1433C17.3757 17.1422 17.3757 17.1412 17.3757 17.1401C17.3757 17.1391 17.3757 17.138 17.3757 17.137C17.3757 17.136 17.3757 17.135 17.3757 17.1339C17.3757 17.1329 17.3757 17.1319 17.3757 17.1309C17.3757 17.1299 17.3757 17.1289 17.3757 17.1279C17.3757 17.1269 17.3757 17.126 17.3757 17.125C17.3757 17.124 17.3757 17.123 17.3757 17.1221C17.3757 17.1211 17.3757 17.1202 17.3757 17.1192C17.3757 17.1183 17.3757 17.1173 17.3757 17.1164C17.3757 17.1155 17.3757 17.1146 17.3757 17.1136C17.3757 17.1127 17.3757 17.1118 17.3757 17.1109C17.3757 17.11 17.3757 17.1091 17.3757 17.1082C17.3757 17.1073 17.3757 17.1064 17.3757 17.1055C17.3757 17.1047 17.3757 17.1038 17.3757 17.1029C17.3757 17.1021 17.3757 17.1012 17.3757 17.1004C17.3757 17.0995 17.3757 17.0987 17.3757 17.0978C17.3757 17.097 17.3757 17.0961 17.3757 17.0953C17.3757 17.0945 17.3757 17.0937 17.3757 17.0929C17.3757 17.092 17.3757 17.0912 17.3757 17.0904C17.3757 17.0896 17.3757 17.0888 17.3757 17.088C17.3757 17.0873 17.3757 17.0865 17.3757 17.0857C17.3757 17.0849 17.3757 17.0842 17.3757 17.0834C17.3757 17.0826 17.3757 17.0819 17.3757 17.0811C17.3757 17.0804 17.3757 17.0796 17.3757 17.0789C17.3757 17.0781 17.3757 17.0774 17.3757 17.0767C17.3757 17.076 17.3757 17.0752 17.3757 17.0745C17.3757 17.0738 17.3757 17.0731 17.3757 17.0724C17.3757 17.0717 17.3757 17.071 17.3757 17.0703C17.3757 17.0696 17.3757 17.0689 17.3757 17.0682C17.3757 17.0676 17.3757 17.0669 17.3757 17.0662C17.3757 17.0656 17.3757 17.0649 17.3757 17.0642C17.3757 17.0636 17.3757 17.0629 17.3757 17.0623C17.3757 17.0616 17.3757 17.061 17.3757 17.0604C17.3757 17.0597 17.3757 17.0591 17.3757 17.0585C17.3757 17.0578 17.3757 17.0572 17.3757 17.0566C17.3757 17.056 17.3757 17.0554 17.3757 17.0548C17.3757 17.0542 17.3757 17.0536 17.3757 17.053C17.3757 17.0524 17.3757 17.0518 17.3757 17.0513C17.3757 17.0507 17.3757 17.0501 17.3757 17.0495C17.3757 17.049 17.3757 17.0484 17.3757 17.0478C17.3757 17.0473 17.3757 17.0467 17.3757 17.0462C17.3757 17.0456 17.3757 17.0451 17.3757 17.0446C17.3757 17.044 17.3757 17.0435 17.3757 17.043C17.3757 17.0424 17.3757 17.0419 17.3757 17.0414C17.3757 17.0409 17.3757 17.0404 17.3757 17.0399C17.3757 17.0394 17.3757 17.0389 17.3757 17.0384C17.3757 17.0379 17.3757 17.0374 17.3757 17.0369C17.3757 17.0364 17.3757 17.0359 17.3757 17.0354C17.3757 17.035 17.3757 17.0345 17.3757 17.034C17.3757 17.0336 17.3757 17.0331 17.3757 17.0326C17.3757 17.0322 17.3757 17.0317 17.3757 17.0313C17.3757 17.0308 17.3757 17.0304 17.3757 17.0299C17.3757 17.0295 17.3757 17.0291 17.3757 17.0286C17.3757 17.0282 17.3757 17.0278 17.3757 17.0274C17.3757 17.0269 17.3757 17.0265 17.3757 17.0261C17.3757 17.0257 17.3757 17.0253 17.3757 17.0249C17.3757 17.0245 17.3757 17.0241 17.3757 17.0237C17.3757 17.0233 17.3757 17.0229 17.3757 17.0225C17.3757 17.0222 17.3757 17.0218 17.3757 17.0214C17.3757 17.021 17.3757 17.0206 17.3757 17.0203C17.3757 17.0199 17.3757 17.0196 17.3757 17.0192C17.3757 17.0188 17.3757 17.0185 17.3757 17.0181C17.3757 17.0178 17.3757 17.0174 17.3757 17.0171C17.3757 17.0167 17.3757 17.0164 17.3757 17.0161C17.3757 17.0157 17.3757 17.0154 17.3757 17.0151C17.3757 17.0148 17.3757 17.0144 17.3757 17.0141C17.3757 17.0138 17.3757 17.0135 17.3757 17.0132C17.3757 17.0129 17.3757 17.0126 17.3757 17.0123C17.3757 17.012 17.3757 17.0117 17.3757 17.0114C17.3757 17.0111 17.3757 17.0108 17.3757 17.0105C17.3757 17.0102 17.3757 17.0099 17.3757 17.0096C17.3757 17.0094 17.3757 17.0091 17.3757 17.0088C17.3757 17.0085 17.3757 17.0083 17.3757 17.008C17.3757 17.0077 17.3757 17.0075 17.3757 17.0072C17.3757 17.007 17.3757 17.0067 17.3757 17.0065C17.3757 17.0062 17.3757 17.006 17.3757 17.0057C17.3757 17.0055 17.3757 17.0052 17.3757 17.005C17.3757 17.0048 17.3757 17.0045 17.3757 17.0043C17.3757 17.0041 17.3757 17.0039 17.3757 17.0036C17.3757 17.0034 17.3757 17.0032 17.3757 17.003C17.3757 17.0028 17.3757 17.0025 17.3757 17.0023C17.3757 17.0021 17.3757 17.0019 17.3757 17.0017C17.3757 17.0015 17.3757 17.0013 17.3757 17.0011C17.3757 17.0009 17.3757 17.0007 17.3757 17.0005C17.3757 17.0003 17.3757 17.0001 17.3757 17C17.3757 16.9998 17.3757 16.9996 17.3757 16.9994C17.3757 16.9992 17.3757 16.9991 17.3757 16.9989C17.3757 16.9987 17.3757 16.9985 17.3757 16.9984C17.3757 16.9982 17.3757 16.998 17.3757 16.9979C17.3757 16.9977 17.3757 16.9976 17.3757 16.9974C17.3757 16.9973 17.3757 16.9971 17.3757 16.997C17.3757 16.9968 17.3757 16.9967 17.3757 16.9965C17.3757 16.9964 17.3757 16.9962 17.3757 16.9961C17.3757 16.9959 17.3757 16.9958 17.3757 16.9957C17.3757 16.9955 17.3757 16.9954 17.3757 16.9953C17.3757 16.9951 17.3757 16.995 17.3757 16.9949C17.3757 16.9948 17.3757 16.9947 17.3757 16.9945C17.3757 16.9944 17.3757 16.9943 17.3757 16.9942C17.3757 16.9941 17.3757 16.994 17.3757 16.9938C17.3757 16.9937 17.3757 16.9936 17.3757 16.9935C17.3757 16.9934 17.3757 16.9933 17.3757 16.9932C17.3757 16.9931 17.3757 16.993 17.3757 16.9929C17.3757 16.9928 17.3757 16.9927 17.3757 16.9926C17.3757 16.9925 17.3757 16.9925 17.3757 16.9924C17.3757 16.9923 17.3757 16.9922 17.3757 16.9921C17.3757 16.992 17.3757 16.9919 17.3757 16.9919C17.3757 16.9918 17.3757 16.9917 17.3757 16.9916C17.3757 16.9916 17.3757 16.9915 17.3757 16.9914C17.3757 16.9913 17.3757 16.9913 17.3757 16.9912C17.3757 16.9911 17.3757 16.9911 17.3757 16.991C17.3757 16.9909 17.3757 16.9909 17.3757 16.9908C17.3757 16.9908 17.3757 16.9907 17.3757 16.9906C17.3757 16.9906 17.3757 16.9905 17.3757 16.9905C17.3757 16.9904 17.3757 16.9904 17.3757 16.9903C17.3757 16.9903 17.3757 16.9902 17.3757 16.9902C17.3757 16.9901 17.3757 16.9901 17.3757 16.99C17.3757 16.99 17.3757 16.9899 17.3757 16.9899C17.3757 16.9899 17.3757 16.9898 17.3757 16.9898C17.3757 16.9897 17.3757 16.9897 17.3757 16.9897C17.3757 16.9896 17.3757 16.9896 17.3757 16.9896C17.3757 16.9895 17.3757 16.9895 17.3757 16.9895C17.3757 16.9894 17.3757 16.9894 17.3757 16.9894C17.3757 16.9893 17.3757 16.9893 17.3757 16.9893C17.3757 16.9893 17.3757 16.9892 17.3757 16.9892C17.3757 16.9892 17.3757 16.9892 17.3757 16.9891C17.3757 16.9891 17.3757 16.9891 17.3757 16.9891C17.3757 16.9891 17.3757 16.989 17.3757 16.989C17.3757 16.989 17.3757 16.989 17.3757 16.989C17.3757 16.989 17.3757 16.9889 17.3757 16.9889C17.3757 16.9889 17.3757 16.9889 17.3757 16.9889C17.3757 16.9889 17.3757 16.9889 17.3757 16.9889C17.3757 16.9888 17.3757 16.9888 17.3757 16.9888C17.3757 16.9888 17.3757 16.9888 17.3757 16.9888C17.3757 16.9888 17.3757 16.9888 17.3757 16.9888C17.3757 16.9888 17.3757 16.9888 17.3757 16.9888C17.3757 16.9887 17.3757 16.9887 17.3757 16.9887C17.3757 16.9887 17.3757 16.9887 17.3757 16.9887C17.3757 16.9887 17.3757 16.9887 17.3757 16.9887C17.3757 16.9887 17.3757 16.9887 17.3757 16.9887C17.3757 16.9887 17.3757 16.9887 17.3757 16.9887C17.3757 16.9887 17.3757 16.9887 17.3757 16.9887C17.3757 16.9887 17.3757 16.9887 17.3757 16.9887C17.3757 16.9887 17.3757 16.9887 17.3757 16.9887C17.3757 16.9887 17.3757 16.9887 17.3757 16.9887C17.3757 16.9887 17.3757 16.9887 17.3757 16.9887H16.6257ZM17.3757 16.9887V10.322H15.8757V16.9887H17.3757Z" fill="black"/>
</svg>
