<svg width="25" height="25" viewBox="0 0 25 25" fill="none" xmlns="http://www.w3.org/2000/svg">
<rect x="0.393066" y="0.847168" width="24" height="24" rx="12" fill="#02CCDA"/>
<path d="M8.2439 12.2043C7.88886 12.2043 7.60104 12.4922 7.60104 12.8472C7.60104 13.2022 7.88886 13.4901 8.2439 13.4901V12.2043ZM12.3932 13.4901C12.7482 13.4901 13.036 13.2022 13.036 12.8472C13.036 12.4922 12.7482 12.2043 12.3932 12.2043V13.4901ZM12.3932 12.2043C12.0381 12.2043 11.7503 12.4922 11.7503 12.8472C11.7503 13.2022 12.0381 13.4901 12.3932 13.4901V12.2043ZM16.5424 13.4901C16.8975 13.4901 17.1853 13.2022 17.1853 12.8472C17.1853 12.4922 16.8975 12.2043 16.5424 12.2043V13.4901ZM13.036 12.847C13.036 12.492 12.7482 12.2042 12.3931 12.2042C12.0381 12.2042 11.7503 12.492 11.7503 12.847H13.036ZM11.7503 16.9963C11.7503 17.3513 12.0381 17.6392 12.3931 17.6392C12.7482 17.6392 13.036 17.3513 13.036 16.9963H11.7503ZM11.7503 12.847C11.7503 13.2021 12.0381 13.4899 12.3931 13.4899C12.7482 13.4899 13.036 13.2021 13.036 12.847H11.7503ZM13.036 8.69775C13.036 8.34271 12.7482 8.0549 12.3931 8.0549C12.0381 8.0549 11.7503 8.34271 11.7503 8.69775H13.036ZM8.2439 12.8472V13.4901H12.3932V12.8472V12.2043H8.2439V12.8472ZM12.3932 12.8472V13.4901H16.5424V12.8472V12.2043H12.3932V12.8472ZM12.3931 12.847H11.7503C11.7503 12.847 11.7503 12.847 11.7503 12.847V12.847C11.7503 12.847 11.7503 12.847 11.7503 12.847C11.7503 12.847 11.7503 12.847 11.7503 12.847C11.7503 12.847 11.7503 12.847 11.7503 12.847C11.7503 12.847 11.7503 12.847 11.7503 12.847C11.7503 12.847 11.7503 12.847 11.7503 12.847C11.7503 12.847 11.7503 12.847 11.7503 12.8471C11.7503 12.8471 11.7503 12.8471 11.7503 12.8471C11.7503 12.8471 11.7503 12.8471 11.7503 12.8471C11.7503 12.8471 11.7503 12.8471 11.7503 12.8471C11.7503 12.8471 11.7503 12.8471 11.7503 12.8471C11.7503 12.8471 11.7503 12.8471 11.7503 12.8471C11.7503 12.8471 11.7503 12.8471 11.7503 12.8471C11.7503 12.8471 11.7503 12.8471 11.7503 12.8472C11.7503 12.8472 11.7503 12.8472 11.7503 12.8472C11.7503 12.8472 11.7503 12.8472 11.7503 12.8472C11.7503 12.8472 11.7503 12.8472 11.7503 12.8472C11.7503 12.8473 11.7503 12.8473 11.7503 12.8473C11.7503 12.8473 11.7503 12.8473 11.7503 12.8473C11.7503 12.8473 11.7503 12.8473 11.7503 12.8474C11.7503 12.8474 11.7503 12.8474 11.7503 12.8474C11.7503 12.8474 11.7503 12.8474 11.7503 12.8475C11.7503 12.8475 11.7503 12.8475 11.7503 12.8475C11.7503 12.8475 11.7503 12.8476 11.7503 12.8476C11.7503 12.8476 11.7503 12.8476 11.7503 12.8476C11.7503 12.8477 11.7503 12.8477 11.7503 12.8477C11.7503 12.8477 11.7503 12.8478 11.7503 12.8478C11.7503 12.8478 11.7503 12.8478 11.7503 12.8479C11.7503 12.8479 11.7503 12.8479 11.7503 12.8479C11.7503 12.848 11.7503 12.848 11.7503 12.848C11.7503 12.8481 11.7503 12.8481 11.7503 12.8481C11.7503 12.8482 11.7503 12.8482 11.7503 12.8482C11.7503 12.8483 11.7503 12.8483 11.7503 12.8484C11.7503 12.8484 11.7503 12.8484 11.7503 12.8485C11.7503 12.8485 11.7503 12.8486 11.7503 12.8486C11.7503 12.8486 11.7503 12.8487 11.7503 12.8487C11.7503 12.8488 11.7503 12.8488 11.7503 12.8489C11.7503 12.8489 11.7503 12.849 11.7503 12.849C11.7503 12.8491 11.7503 12.8491 11.7503 12.8492C11.7503 12.8492 11.7503 12.8493 11.7503 12.8493C11.7503 12.8494 11.7503 12.8494 11.7503 12.8495C11.7503 12.8495 11.7503 12.8496 11.7503 12.8497C11.7503 12.8497 11.7503 12.8498 11.7503 12.8498C11.7503 12.8499 11.7503 12.85 11.7503 12.85C11.7503 12.8501 11.7503 12.8502 11.7503 12.8502C11.7503 12.8503 11.7503 12.8504 11.7503 12.8504C11.7503 12.8505 11.7503 12.8506 11.7503 12.8507C11.7503 12.8507 11.7503 12.8508 11.7503 12.8509C11.7503 12.851 11.7503 12.851 11.7503 12.8511C11.7503 12.8512 11.7503 12.8513 11.7503 12.8514C11.7503 12.8515 11.7503 12.8515 11.7503 12.8516C11.7503 12.8517 11.7503 12.8518 11.7503 12.8519C11.7503 12.852 11.7503 12.8521 11.7503 12.8522C11.7503 12.8523 11.7503 12.8524 11.7503 12.8525C11.7503 12.8526 11.7503 12.8527 11.7503 12.8528C11.7503 12.8529 11.7503 12.853 11.7503 12.8531C11.7503 12.8532 11.7503 12.8533 11.7503 12.8534C11.7503 12.8535 11.7503 12.8536 11.7503 12.8537C11.7503 12.8538 11.7503 12.8539 11.7503 12.854C11.7503 12.8542 11.7503 12.8543 11.7503 12.8544C11.7503 12.8545 11.7503 12.8546 11.7503 12.8548C11.7503 12.8549 11.7503 12.855 11.7503 12.8551C11.7503 12.8553 11.7503 12.8554 11.7503 12.8555C11.7503 12.8556 11.7503 12.8558 11.7503 12.8559C11.7503 12.8561 11.7503 12.8562 11.7503 12.8563C11.7503 12.8565 11.7503 12.8566 11.7503 12.8567C11.7503 12.8569 11.7503 12.857 11.7503 12.8572C11.7503 12.8573 11.7503 12.8575 11.7503 12.8576C11.7503 12.8578 11.7503 12.8579 11.7503 12.8581C11.7503 12.8582 11.7503 12.8584 11.7503 12.8586C11.7503 12.8587 11.7503 12.8589 11.7503 12.8591C11.7503 12.8592 11.7503 12.8594 11.7503 12.8596C11.7503 12.8597 11.7503 12.8599 11.7503 12.8601C11.7503 12.8602 11.7503 12.8604 11.7503 12.8606C11.7503 12.8608 11.7503 12.861 11.7503 12.8611C11.7503 12.8613 11.7503 12.8615 11.7503 12.8617C11.7503 12.8619 11.7503 12.8621 11.7503 12.8623C11.7503 12.8625 11.7503 12.8627 11.7503 12.8629C11.7503 12.8631 11.7503 12.8633 11.7503 12.8635C11.7503 12.8637 11.7503 12.8639 11.7503 12.8641C11.7503 12.8643 11.7503 12.8645 11.7503 12.8647C11.7503 12.8649 11.7503 12.8651 11.7503 12.8654C11.7503 12.8656 11.7503 12.8658 11.7503 12.866C11.7503 12.8662 11.7503 12.8665 11.7503 12.8667C11.7503 12.8669 11.7503 12.8672 11.7503 12.8674C11.7503 12.8676 11.7503 12.8679 11.7503 12.8681C11.7503 12.8683 11.7503 12.8686 11.7503 12.8688C11.7503 12.8691 11.7503 12.8693 11.7503 12.8696C11.7503 12.8698 11.7503 12.8701 11.7503 12.8703C11.7503 12.8706 11.7503 12.8708 11.7503 12.8711C11.7503 12.8714 11.7503 12.8716 11.7503 12.8719C11.7503 12.8722 11.7503 12.8724 11.7503 12.8727C11.7503 12.873 11.7503 12.8733 11.7503 12.8735C11.7503 12.8738 11.7503 12.8741 11.7503 12.8744C11.7503 12.8747 11.7503 12.875 11.7503 12.8752C11.7503 12.8755 11.7503 12.8758 11.7503 12.8761C11.7503 12.8764 11.7503 12.8767 11.7503 12.877C11.7503 12.8773 11.7503 12.8776 11.7503 12.8779C11.7503 12.8783 11.7503 12.8786 11.7503 12.8789C11.7503 12.8792 11.7503 12.8795 11.7503 12.8798C11.7503 12.8802 11.7503 12.8805 11.7503 12.8808C11.7503 12.8811 11.7503 12.8815 11.7503 12.8818C11.7503 12.8821 11.7503 12.8825 11.7503 12.8828C11.7503 12.8832 11.7503 12.8835 11.7503 12.8838C11.7503 12.8842 11.7503 12.8845 11.7503 12.8849C11.7503 12.8853 11.7503 12.8856 11.7503 12.886C11.7503 12.8863 11.7503 12.8867 11.7503 12.8871C11.7503 12.8874 11.7503 12.8878 11.7503 12.8882C11.7503 12.8885 11.7503 12.8889 11.7503 12.8893C11.7503 12.8897 11.7503 12.8901 11.7503 12.8905C11.7503 12.8908 11.7503 12.8912 11.7503 12.8916C11.7503 12.892 11.7503 12.8924 11.7503 12.8928C11.7503 12.8932 11.7503 12.8936 11.7503 12.894C11.7503 12.8945 11.7503 12.8949 11.7503 12.8953C11.7503 12.8957 11.7503 12.8961 11.7503 12.8965C11.7503 12.897 11.7503 12.8974 11.7503 12.8978C11.7503 12.8983 11.7503 12.8987 11.7503 12.8991C11.7503 12.8996 11.7503 12.9 11.7503 12.9004C11.7503 12.9009 11.7503 12.9013 11.7503 12.9018C11.7503 12.9022 11.7503 12.9027 11.7503 12.9032C11.7503 12.9036 11.7503 12.9041 11.7503 12.9046C11.7503 12.905 11.7503 12.9055 11.7503 12.906C11.7503 12.9064 11.7503 12.9069 11.7503 12.9074C11.7503 12.9079 11.7503 12.9084 11.7503 12.9089C11.7503 12.9094 11.7503 12.9099 11.7503 12.9104C11.7503 12.9109 11.7503 12.9114 11.7503 12.9119C11.7503 12.9124 11.7503 12.9129 11.7503 12.9134C11.7503 12.9139 11.7503 12.9144 11.7503 12.9149C11.7503 12.9155 11.7503 12.916 11.7503 12.9165C11.7503 12.9171 11.7503 12.9176 11.7503 12.9181C11.7503 12.9187 11.7503 12.9192 11.7503 12.9198C11.7503 12.9203 11.7503 12.9209 11.7503 12.9214C11.7503 12.922 11.7503 12.9225 11.7503 12.9231C11.7503 12.9237 11.7503 12.9242 11.7503 12.9248C11.7503 12.9254 11.7503 12.9259 11.7503 12.9265C11.7503 12.9271 11.7503 12.9277 11.7503 12.9283C11.7503 12.9289 11.7503 12.9295 11.7503 12.9301C11.7503 12.9307 11.7503 12.9313 11.7503 12.9319C11.7503 12.9325 11.7503 12.9331 11.7503 12.9337C11.7503 12.9343 11.7503 12.9349 11.7503 12.9355C11.7503 12.9362 11.7503 12.9368 11.7503 12.9374C11.7503 12.9381 11.7503 12.9387 11.7503 12.9393C11.7503 12.94 11.7503 12.9406 11.7503 12.9413C11.7503 12.9419 11.7503 12.9426 11.7503 12.9432C11.7503 12.9439 11.7503 12.9446 11.7503 12.9452C11.7503 12.9459 11.7503 12.9466 11.7503 12.9472C11.7503 12.9479 11.7503 12.9486 11.7503 12.9493C11.7503 12.95 11.7503 12.9507 11.7503 12.9514C11.7503 12.9521 11.7503 12.9528 11.7503 12.9535C11.7503 12.9542 11.7503 12.9549 11.7503 12.9556C11.7503 12.9563 11.7503 12.957 11.7503 12.9578C11.7503 12.9585 11.7503 12.9592 11.7503 12.9599C11.7503 12.9607 11.7503 12.9614 11.7503 12.9622C11.7503 12.9629 11.7503 12.9636 11.7503 12.9644C11.7503 12.9651 11.7503 12.9659 11.7503 12.9667C11.7503 12.9674 11.7503 12.9682 11.7503 12.969C11.7503 12.9697 11.7503 12.9705 11.7503 12.9713C11.7503 12.9721 11.7503 12.9729 11.7503 12.9737C11.7503 12.9744 11.7503 12.9752 11.7503 12.976C11.7503 12.9768 11.7503 12.9777 11.7503 12.9785C11.7503 12.9793 11.7503 12.9801 11.7503 12.9809C11.7503 12.9817 11.7503 12.9826 11.7503 12.9834C11.7503 12.9842 11.7503 12.9851 11.7503 12.9859C11.7503 12.9867 11.7503 12.9876 11.7503 12.9884C11.7503 12.9893 11.7503 12.9901 11.7503 12.991C11.7503 12.9919 11.7503 12.9927 11.7503 12.9936C11.7503 12.9945 11.7503 12.9954 11.7503 12.9962C11.7503 12.9971 11.7503 12.998 11.7503 12.9989C11.7503 12.9998 11.7503 13.0007 11.7503 13.0016C11.7503 13.0025 11.7503 13.0034 11.7503 13.0043C11.7503 13.0052 11.7503 13.0062 11.7503 13.0071C11.7503 13.008 11.7503 13.009 11.7503 13.0099C11.7503 13.0108 11.7503 13.0118 11.7503 13.0127C11.7503 13.0137 11.7503 13.0146 11.7503 13.0156C11.7503 13.0165 11.7503 13.0175 11.7503 13.0185C11.7503 13.0194 11.7503 13.0204 11.7503 13.0214C11.7503 13.0224 11.7503 13.0233 11.7503 13.0243C11.7503 13.0253 11.7503 13.0263 11.7503 13.0273C11.7503 13.0283 11.7503 13.0293 11.7503 13.0303C11.7503 13.0314 11.7503 13.0324 11.7503 13.0334C11.7503 13.0344 11.7503 13.0355 11.7503 13.0365C11.7503 13.0375 11.7503 13.0386 11.7503 13.0396C11.7503 13.0407 11.7503 13.0417 11.7503 13.0428C11.7503 13.0438 11.7503 13.0449 11.7503 13.046C11.7503 13.047 11.7503 13.0481 11.7503 13.0492C11.7503 13.0503 11.7503 13.0514 11.7503 13.0524C11.7503 13.0535 11.7503 13.0546 11.7503 13.0557C11.7503 13.0568 11.7503 13.058 11.7503 13.0591C11.7503 13.0602 11.7503 13.0613 11.7503 13.0624C11.7503 13.0636 11.7503 13.0647 11.7503 13.0658C11.7503 13.067 11.7503 13.0681 11.7503 13.0693C11.7503 13.0704 11.7503 13.0716 11.7503 13.0727C11.7503 13.0739 11.7503 13.0751 11.7503 13.0763C11.7503 13.0774 11.7503 13.0786 11.7503 13.0798C11.7503 13.081 11.7503 13.0822 11.7503 13.0834C11.7503 13.0846 11.7503 13.0858 11.7503 13.087C11.7503 13.0882 11.7503 13.0894 11.7503 13.0907C11.7503 13.0919 11.7503 13.0931 11.7503 13.0943C11.7503 13.0956 11.7503 13.0968 11.7503 13.0981C11.7503 13.0993 11.7503 13.1006 11.7503 13.1018C11.7503 13.1031 11.7503 13.1044 11.7503 13.1056C11.7503 13.1069 11.7503 13.1082 11.7503 13.1095C11.7503 13.1108 11.7503 13.1121 11.7503 13.1134C11.7503 13.1147 11.7503 13.116 11.7503 13.1173C11.7503 13.1186 11.7503 13.1199 11.7503 13.1212C11.7503 13.1226 11.7503 13.1239 11.7503 13.1252C11.7503 13.1266 11.7503 13.1279 11.7503 13.1293C11.7503 13.1306 11.7503 13.132 11.7503 13.1333C11.7503 13.1347 11.7503 13.1361 11.7503 13.1374C11.7503 13.1388 11.7503 13.1402 11.7503 13.1416C11.7503 13.143 11.7503 13.1444 11.7503 13.1458C11.7503 13.1472 11.7503 13.1486 11.7503 13.15C11.7503 13.1514 11.7503 13.1528 11.7503 13.1543C11.7503 13.1557 11.7503 13.1571 11.7503 13.1586C11.7503 13.16 11.7503 13.1615 11.7503 13.1629C11.7503 13.1644 11.7503 13.1658 11.7503 13.1673C11.7503 13.1688 11.7503 13.1703 11.7503 13.1717C11.7503 13.1732 11.7503 13.1747 11.7503 13.1762C11.7503 13.1777 11.7503 13.1792 11.7503 13.1807C11.7503 13.1822 11.7503 13.1837 11.7503 13.1853C11.7503 13.1868 11.7503 13.1883 11.7503 13.1899C11.7503 13.1914 11.7503 13.1929 11.7503 13.1945C11.7503 13.196 11.7503 13.1976 11.7503 13.1992C11.7503 13.2007 11.7503 13.2023 11.7503 13.2039C11.7503 13.2055 11.7503 13.207 11.7503 13.2086C11.7503 13.2102 11.7503 13.2118 11.7503 13.2134C11.7503 13.215 11.7503 13.2167 11.7503 13.2183C11.7503 13.2199 11.7503 13.2215 11.7503 13.2232C11.7503 13.2248 11.7503 13.2264 11.7503 13.2281C11.7503 13.2297 11.7503 13.2314 11.7503 13.2331C11.7503 13.2347 11.7503 13.2364 11.7503 13.2381C11.7503 13.2398 11.7503 13.2414 11.7503 13.2431C11.7503 13.2448 11.7503 13.2465 11.7503 13.2482C11.7503 13.2499 11.7503 13.2517 11.7503 13.2534C11.7503 13.2551 11.7503 13.2568 11.7503 13.2586C11.7503 13.2603 11.7503 13.262 11.7503 13.2638C11.7503 13.2655 11.7503 13.2673 11.7503 13.2691C11.7503 13.2708 11.7503 13.2726 11.7503 13.2744C11.7503 13.2762 11.7503 13.278 11.7503 13.2798C11.7503 13.2816 11.7503 13.2834 11.7503 13.2852C11.7503 13.287 11.7503 13.2888 11.7503 13.2906C11.7503 13.2924 11.7503 13.2943 11.7503 13.2961C11.7503 13.298 11.7503 13.2998 11.7503 13.3017C11.7503 13.3035 11.7503 13.3054 11.7503 13.3073C11.7503 13.3091 11.7503 13.311 11.7503 13.3129C11.7503 13.3148 11.7503 13.3167 11.7503 13.3186C11.7503 13.3205 11.7503 13.3224 11.7503 13.3243C11.7503 13.3262 11.7503 13.3281 11.7503 13.3301C11.7503 13.332 11.7503 13.3339 11.7503 13.3359C11.7503 13.3378 11.7503 13.3398 11.7503 13.3418C11.7503 13.3437 11.7503 13.3457 11.7503 13.3477C11.7503 13.3496 11.7503 13.3516 11.7503 13.3536C11.7503 13.3556 11.7503 13.3576 11.7503 13.3596C11.7503 13.3616 11.7503 13.3637 11.7503 13.3657C11.7503 13.3677 11.7503 13.3697 11.7503 13.3718C11.7503 13.3738 11.7503 13.3759 11.7503 13.3779C11.7503 13.38 11.7503 13.3821 11.7503 13.3841C11.7503 13.3862 11.7503 13.3883 11.7503 13.3904C11.7503 13.3925 11.7503 13.3946 11.7503 13.3967C11.7503 13.3988 11.7503 13.4009 11.7503 13.403C11.7503 13.4051 11.7503 13.4073 11.7503 13.4094C11.7503 13.4115 11.7503 13.4137 11.7503 13.4158C11.7503 13.418 11.7503 13.4202 11.7503 13.4223C11.7503 13.4245 11.7503 13.4267 11.7503 13.4289C11.7503 13.4311 11.7503 13.4333 11.7503 13.4355C11.7503 13.4377 11.7503 13.4399 11.7503 13.4421C11.7503 13.4443 11.7503 13.4465 11.7503 13.4488C11.7503 13.451 11.7503 13.4533 11.7503 13.4555C11.7503 13.4578 11.7503 13.46 11.7503 13.4623C11.7503 13.4646 11.7503 13.4669 11.7503 13.4691C11.7503 13.4714 11.7503 13.4737 11.7503 13.476C11.7503 13.4783 11.7503 13.4806 11.7503 13.483C11.7503 13.4853 11.7503 13.4876 11.7503 13.49C11.7503 13.4923 11.7503 13.4946 11.7503 13.497C11.7503 13.4993 11.7503 13.5017 11.7503 13.5041C11.7503 13.5065 11.7503 13.5088 11.7503 13.5112C11.7503 13.5136 11.7503 13.516 11.7503 13.5184C11.7503 13.5208 11.7503 13.5232 11.7503 13.5257C11.7503 13.5281 11.7503 13.5305 11.7503 13.533C11.7503 13.5354 11.7503 13.5379 11.7503 13.5403C11.7503 13.5428 11.7503 13.5452 11.7503 13.5477C11.7503 13.5502 11.7503 13.5527 11.7503 13.5552C11.7503 13.5577 11.7503 13.5602 11.7503 13.5627C11.7503 13.5652 11.7503 13.5677 11.7503 13.5702C11.7503 13.5728 11.7503 13.5753 11.7503 13.5778C11.7503 13.5804 11.7503 13.5829 11.7503 13.5855C11.7503 13.5881 11.7503 13.5906 11.7503 13.5932C11.7503 13.5958 11.7503 13.5984 11.7503 13.601C11.7503 13.6036 11.7503 13.6062 11.7503 13.6088C11.7503 13.6114 11.7503 13.6141 11.7503 13.6167C11.7503 13.6193 11.7503 13.622 11.7503 13.6246C11.7503 13.6273 11.7503 13.63 11.7503 13.6326C11.7503 13.6353 11.7503 13.638 11.7503 13.6407C11.7503 13.6434 11.7503 13.6461 11.7503 13.6488C11.7503 13.6515 11.7503 13.6542 11.7503 13.6569C11.7503 13.6597 11.7503 13.6624 11.7503 13.6651C11.7503 13.6679 11.7503 13.6706 11.7503 13.6734C11.7503 13.6762 11.7503 13.6789 11.7503 13.6817C11.7503 13.6845 11.7503 13.6873 11.7503 13.6901C11.7503 13.6929 11.7503 13.6957 11.7503 13.6985C11.7503 13.7013 11.7503 13.7042 11.7503 13.707C11.7503 13.7099 11.7503 13.7127 11.7503 13.7156C11.7503 13.7184 11.7503 13.7213 11.7503 13.7242C11.7503 13.727 11.7503 13.7299 11.7503 13.7328C11.7503 13.7357 11.7503 13.7386 11.7503 13.7415C11.7503 13.7444 11.7503 13.7474 11.7503 13.7503C11.7503 13.7532 11.7503 13.7562 11.7503 13.7591C11.7503 13.7621 11.7503 13.765 11.7503 13.768C11.7503 13.771 11.7503 13.774 11.7503 13.7769C11.7503 13.7799 11.7503 13.7829 11.7503 13.7859C11.7503 13.789 11.7503 13.792 11.7503 13.795C11.7503 13.798 11.7503 13.8011 11.7503 13.8041C11.7503 13.8072 11.7503 13.8102 11.7503 13.8133C11.7503 13.8164 11.7503 13.8194 11.7503 13.8225C11.7503 13.8256 11.7503 13.8287 11.7503 13.8318C11.7503 13.8349 11.7503 13.838 11.7503 13.8412C11.7503 13.8443 11.7503 13.8474 11.7503 13.8506C11.7503 13.8537 11.7503 13.8569 11.7503 13.86C11.7503 13.8632 11.7503 13.8664 11.7503 13.8696C11.7503 13.8727 11.7503 13.8759 11.7503 13.8791C11.7503 13.8824 11.7503 13.8856 11.7503 13.8888C11.7503 13.892 11.7503 13.8953 11.7503 13.8985C11.7503 13.9017 11.7503 13.905 11.7503 13.9083C11.7503 13.9115 11.7503 13.9148 11.7503 13.9181C11.7503 13.9214 11.7503 13.9247 11.7503 13.928C11.7503 13.9313 11.7503 13.9346 11.7503 13.9379C11.7503 13.9413 11.7503 13.9446 11.7503 13.9479C11.7503 13.9513 11.7503 13.9546 11.7503 13.958C11.7503 13.9614 11.7503 13.9647 11.7503 13.9681C11.7503 13.9715 11.7503 13.9749 11.7503 13.9783C11.7503 13.9817 11.7503 13.9852 11.7503 13.9886C11.7503 13.992 11.7503 13.9954 11.7503 13.9989C11.7503 14.0023 11.7503 14.0058 11.7503 14.0093C11.7503 14.0127 11.7503 14.0162 11.7503 14.0197C11.7503 14.0232 11.7503 14.0267 11.7503 14.0302C11.7503 14.0337 11.7503 14.0372 11.7503 14.0408C11.7503 14.0443 11.7503 14.0478 11.7503 14.0514C11.7503 14.055 11.7503 14.0585 11.7503 14.0621C11.7503 14.0657 11.7503 14.0693 11.7503 14.0728C11.7503 14.0764 11.7503 14.08 11.7503 14.0837C11.7503 14.0873 11.7503 14.0909 11.7503 14.0945C11.7503 14.0982 11.7503 14.1018 11.7503 14.1055C11.7503 14.1091 11.7503 14.1128 11.7503 14.1165C11.7503 14.1202 11.7503 14.1239 11.7503 14.1276C11.7503 14.1313 11.7503 14.135 11.7503 14.1387C11.7503 14.1424 11.7503 14.1462 11.7503 14.1499C11.7503 14.1536 11.7503 14.1574 11.7503 14.1612C11.7503 14.1649 11.7503 14.1687 11.7503 14.1725C11.7503 14.1763 11.7503 14.1801 11.7503 14.1839C11.7503 14.1877 11.7503 14.1915 11.7503 14.1953C11.7503 14.1992 11.7503 14.203 11.7503 14.2069C11.7503 14.2107 11.7503 14.2146 11.7503 14.2185C11.7503 14.2223 11.7503 14.2262 11.7503 14.2301C11.7503 14.234 11.7503 14.2379 11.7503 14.2418C11.7503 14.2457 11.7503 14.2497 11.7503 14.2536C11.7503 14.2576 11.7503 14.2615 11.7503 14.2655C11.7503 14.2694 11.7503 14.2734 11.7503 14.2774C11.7503 14.2814 11.7503 14.2854 11.7503 14.2894C11.7503 14.2934 11.7503 14.2974 11.7503 14.3014C11.7503 14.3055 11.7503 14.3095 11.7503 14.3135C11.7503 14.3176 11.7503 14.3217 11.7503 14.3257C11.7503 14.3298 11.7503 14.3339 11.7503 14.338C11.7503 14.3421 11.7503 14.3462 11.7503 14.3503C11.7503 14.3544 11.7503 14.3586 11.7503 14.3627C11.7503 14.3668 11.7503 14.371 11.7503 14.3752C11.7503 14.3793 11.7503 14.3835 11.7503 14.3877C11.7503 14.3919 11.7503 14.3961 11.7503 14.4003C11.7503 14.4045 11.7503 14.4087 11.7503 14.4129C11.7503 14.4172 11.7503 14.4214 11.7503 14.4257C11.7503 14.4299 11.7503 14.4342 11.7503 14.4385C11.7503 14.4427 11.7503 14.447 11.7503 14.4513C11.7503 14.4556 11.7503 14.46 11.7503 14.4643C11.7503 14.4686 11.7503 14.4729 11.7503 14.4773C11.7503 14.4816 11.7503 14.486 11.7503 14.4904C11.7503 14.4947 11.7503 14.4991 11.7503 14.5035C11.7503 14.5079 11.7503 14.5123 11.7503 14.5167C11.7503 14.5211 11.7503 14.5256 11.7503 14.53C11.7503 14.5345 11.7503 14.5389 11.7503 14.5434C11.7503 14.5478 11.7503 14.5523 11.7503 14.5568C11.7503 14.5613 11.7503 14.5658 11.7503 14.5703C11.7503 14.5748 11.7503 14.5793 11.7503 14.5839C11.7503 14.5884 11.7503 14.5929 11.7503 14.5975C11.7503 14.6021 11.7503 14.6066 11.7503 14.6112C11.7503 14.6158 11.7503 14.6204 11.7503 14.625C11.7503 14.6296 11.7503 14.6342 11.7503 14.6389C11.7503 14.6435 11.7503 14.6481 11.7503 14.6528C11.7503 14.6574 11.7503 14.6621 11.7503 14.6668C11.7503 14.6715 11.7503 14.6761 11.7503 14.6808C11.7503 14.6855 11.7503 14.6903 11.7503 14.695C11.7503 14.6997 11.7503 14.7045 11.7503 14.7092C11.7503 14.714 11.7503 14.7187 11.7503 14.7235C11.7503 14.7283 11.7503 14.7331 11.7503 14.7379C11.7503 14.7427 11.7503 14.7475 11.7503 14.7523C11.7503 14.7571 11.7503 14.7619 11.7503 14.7668C11.7503 14.7716 11.7503 14.7765 11.7503 14.7814C11.7503 14.7862 11.7503 14.7911 11.7503 14.796C11.7503 14.8009 11.7503 14.8058 11.7503 14.8108C11.7503 14.8157 11.7503 14.8206 11.7503 14.8256C11.7503 14.8305 11.7503 14.8355 11.7503 14.8404C11.7503 14.8454 11.7503 14.8504 11.7503 14.8554C11.7503 14.8604 11.7503 14.8654 11.7503 14.8704C11.7503 14.8754 11.7503 14.8805 11.7503 14.8855C11.7503 14.8906 11.7503 14.8956 11.7503 14.9007C11.7503 14.9058 11.7503 14.9108 11.7503 14.9159C11.7503 14.921 11.7503 14.9261 11.7503 14.9313C11.7503 14.9364 11.7503 14.9415 11.7503 14.9467C11.7503 14.9518 11.7503 14.957 11.7503 14.9621C11.7503 14.9673 11.7503 14.9725 11.7503 14.9777C11.7503 14.9829 11.7503 14.9881 11.7503 14.9933C11.7503 14.9985 11.7503 15.0038 11.7503 15.009C11.7503 15.0143 11.7503 15.0195 11.7503 15.0248C11.7503 15.0301 11.7503 15.0354 11.7503 15.0407C11.7503 15.046 11.7503 15.0513 11.7503 15.0566C11.7503 15.0619 11.7503 15.0673 11.7503 15.0726C11.7503 15.078 11.7503 15.0833 11.7503 15.0887C11.7503 15.0941 11.7503 15.0995 11.7503 15.1049C11.7503 15.1103 11.7503 15.1157 11.7503 15.1211C11.7503 15.1265 11.7503 15.132 11.7503 15.1374C11.7503 15.1429 11.7503 15.1483 11.7503 15.1538C11.7503 15.1593 11.7503 15.1648 11.7503 15.1703C11.7503 15.1758 11.7503 15.1813 11.7503 15.1869C11.7503 15.1924 11.7503 15.1979 11.7503 15.2035C11.7503 15.209 11.7503 15.2146 11.7503 15.2202C11.7503 15.2258 11.7503 15.2314 11.7503 15.237C11.7503 15.2426 11.7503 15.2482 11.7503 15.2539C11.7503 15.2595 11.7503 15.2651 11.7503 15.2708C11.7503 15.2765 11.7503 15.2821 11.7503 15.2878C11.7503 15.2935 11.7503 15.2992 11.7503 15.3049C11.7503 15.3107 11.7503 15.3164 11.7503 15.3221C11.7503 15.3279 11.7503 15.3336 11.7503 15.3394C11.7503 15.3452 11.7503 15.351 11.7503 15.3568C11.7503 15.3625 11.7503 15.3684 11.7503 15.3742C11.7503 15.38 11.7503 15.3858 11.7503 15.3917C11.7503 15.3975 11.7503 15.4034 11.7503 15.4093C11.7503 15.4152 11.7503 15.421 11.7503 15.427C11.7503 15.4329 11.7503 15.4388 11.7503 15.4447C11.7503 15.4506 11.7503 15.4566 11.7503 15.4625C11.7503 15.4685 11.7503 15.4745 11.7503 15.4804C11.7503 15.4864 11.7503 15.4924 11.7503 15.4984C11.7503 15.5045 11.7503 15.5105 11.7503 15.5165C11.7503 15.5226 11.7503 15.5286 11.7503 15.5347C11.7503 15.5408 11.7503 15.5468 11.7503 15.5529C11.7503 15.559 11.7503 15.5651 11.7503 15.5712C11.7503 15.5774 11.7503 15.5835 11.7503 15.5897C11.7503 15.5958 11.7503 15.602 11.7503 15.6081C11.7503 15.6143 11.7503 15.6205 11.7503 15.6267C11.7503 15.6329 11.7503 15.6391 11.7503 15.6454C11.7503 15.6516 11.7503 15.6579 11.7503 15.6641C11.7503 15.6704 11.7503 15.6766 11.7503 15.6829C11.7503 15.6892 11.7503 15.6955 11.7503 15.7018C11.7503 15.7082 11.7503 15.7145 11.7503 15.7208C11.7503 15.7272 11.7503 15.7335 11.7503 15.7399C11.7503 15.7463 11.7503 15.7527 11.7503 15.7591C11.7503 15.7655 11.7503 15.7719 11.7503 15.7783C11.7503 15.7847 11.7503 15.7912 11.7503 15.7976C11.7503 15.8041 11.7503 15.8106 11.7503 15.817C11.7503 15.8235 11.7503 15.83 11.7503 15.8365C11.7503 15.8431 11.7503 15.8496 11.7503 15.8561C11.7503 15.8627 11.7503 15.8692 11.7503 15.8758C11.7503 15.8824 11.7503 15.8889 11.7503 15.8955C11.7503 15.9021 11.7503 15.9088 11.7503 15.9154C11.7503 15.922 11.7503 15.9286 11.7503 15.9353C11.7503 15.942 11.7503 15.9486 11.7503 15.9553C11.7503 15.962 11.7503 15.9687 11.7503 15.9754C11.7503 15.9821 11.7503 15.9889 11.7503 15.9956C11.7503 16.0023 11.7503 16.0091 11.7503 16.0159C11.7503 16.0226 11.7503 16.0294 11.7503 16.0362C11.7503 16.043 11.7503 16.0498 11.7503 16.0567C11.7503 16.0635 11.7503 16.0703 11.7503 16.0772C11.7503 16.0841 11.7503 16.0909 11.7503 16.0978C11.7503 16.1047 11.7503 16.1116 11.7503 16.1185C11.7503 16.1254 11.7503 16.1324 11.7503 16.1393C11.7503 16.1463 11.7503 16.1532 11.7503 16.1602C11.7503 16.1672 11.7503 16.1742 11.7503 16.1812C11.7503 16.1882 11.7503 16.1952 11.7503 16.2022C11.7503 16.2093 11.7503 16.2163 11.7503 16.2234C11.7503 16.2304 11.7503 16.2375 11.7503 16.2446C11.7503 16.2517 11.7503 16.2588 11.7503 16.2659C11.7503 16.273 11.7503 16.2802 11.7503 16.2873C11.7503 16.2945 11.7503 16.3017 11.7503 16.3088C11.7503 16.316 11.7503 16.3232 11.7503 16.3304C11.7503 16.3376 11.7503 16.3449 11.7503 16.3521C11.7503 16.3594 11.7503 16.3666 11.7503 16.3739C11.7503 16.3812 11.7503 16.3884 11.7503 16.3957C11.7503 16.403 11.7503 16.4104 11.7503 16.4177C11.7503 16.425 11.7503 16.4324 11.7503 16.4397C11.7503 16.4471 11.7503 16.4545 11.7503 16.4619C11.7503 16.4693 11.7503 16.4767 11.7503 16.4841C11.7503 16.4915 11.7503 16.4989 11.7503 16.5064C11.7503 16.5139 11.7503 16.5213 11.7503 16.5288C11.7503 16.5363 11.7503 16.5438 11.7503 16.5513C11.7503 16.5588 11.7503 16.5663 11.7503 16.5739C11.7503 16.5814 11.7503 16.589 11.7503 16.5966C11.7503 16.6041 11.7503 16.6117 11.7503 16.6193C11.7503 16.6269 11.7503 16.6346 11.7503 16.6422C11.7503 16.6498 11.7503 16.6575 11.7503 16.6652C11.7503 16.6728 11.7503 16.6805 11.7503 16.6882C11.7503 16.6959 11.7503 16.7036 11.7503 16.7113C11.7503 16.7191 11.7503 16.7268 11.7503 16.7346C11.7503 16.7423 11.7503 16.7501 11.7503 16.7579C11.7503 16.7657 11.7503 16.7735 11.7503 16.7813C11.7503 16.7891 11.7503 16.797 11.7503 16.8048C11.7503 16.8127 11.7503 16.8205 11.7503 16.8284C11.7503 16.8363 11.7503 16.8442 11.7503 16.8521C11.7503 16.86 11.7503 16.868 11.7503 16.8759C11.7503 16.8839 11.7503 16.8918 11.7503 16.8998C11.7503 16.9078 11.7503 16.9158 11.7503 16.9238C11.7503 16.9318 11.7503 16.9398 11.7503 16.9479C11.7503 16.9559 11.7503 16.964 11.7503 16.972C11.7503 16.9801 11.7503 16.9882 11.7503 16.9963H12.3931H13.036C13.036 16.9882 13.036 16.9801 13.036 16.972C13.036 16.964 13.036 16.9559 13.036 16.9479C13.036 16.9398 13.036 16.9318 13.036 16.9238C13.036 16.9158 13.036 16.9078 13.036 16.8998C13.036 16.8918 13.036 16.8839 13.036 16.8759C13.036 16.868 13.036 16.86 13.036 16.8521C13.036 16.8442 13.036 16.8363 13.036 16.8284C13.036 16.8205 13.036 16.8127 13.036 16.8048C13.036 16.797 13.036 16.7891 13.036 16.7813C13.036 16.7735 13.036 16.7657 13.036 16.7579C13.036 16.7501 13.036 16.7423 13.036 16.7346C13.036 16.7268 13.036 16.7191 13.036 16.7113C13.036 16.7036 13.036 16.6959 13.036 16.6882C13.036 16.6805 13.036 16.6728 13.036 16.6652C13.036 16.6575 13.036 16.6498 13.036 16.6422C13.036 16.6346 13.036 16.6269 13.036 16.6193C13.036 16.6117 13.036 16.6041 13.036 16.5966C13.036 16.589 13.036 16.5814 13.036 16.5739C13.036 16.5663 13.036 16.5588 13.036 16.5513C13.036 16.5438 13.036 16.5363 13.036 16.5288C13.036 16.5213 13.036 16.5139 13.036 16.5064C13.036 16.4989 13.036 16.4915 13.036 16.4841C13.036 16.4767 13.036 16.4693 13.036 16.4619C13.036 16.4545 13.036 16.4471 13.036 16.4397C13.036 16.4324 13.036 16.425 13.036 16.4177C13.036 16.4104 13.036 16.403 13.036 16.3957C13.036 16.3884 13.036 16.3812 13.036 16.3739C13.036 16.3666 13.036 16.3594 13.036 16.3521C13.036 16.3449 13.036 16.3376 13.036 16.3304C13.036 16.3232 13.036 16.316 13.036 16.3088C13.036 16.3017 13.036 16.2945 13.036 16.2873C13.036 16.2802 13.036 16.273 13.036 16.2659C13.036 16.2588 13.036 16.2517 13.036 16.2446C13.036 16.2375 13.036 16.2304 13.036 16.2234C13.036 16.2163 13.036 16.2093 13.036 16.2022C13.036 16.1952 13.036 16.1882 13.036 16.1812C13.036 16.1742 13.036 16.1672 13.036 16.1602C13.036 16.1532 13.036 16.1463 13.036 16.1393C13.036 16.1324 13.036 16.1254 13.036 16.1185C13.036 16.1116 13.036 16.1047 13.036 16.0978C13.036 16.0909 13.036 16.0841 13.036 16.0772C13.036 16.0703 13.036 16.0635 13.036 16.0567C13.036 16.0498 13.036 16.043 13.036 16.0362C13.036 16.0294 13.036 16.0226 13.036 16.0159C13.036 16.0091 13.036 16.0023 13.036 15.9956C13.036 15.9889 13.036 15.9821 13.036 15.9754C13.036 15.9687 13.036 15.962 13.036 15.9553C13.036 15.9486 13.036 15.942 13.036 15.9353C13.036 15.9286 13.036 15.922 13.036 15.9154C13.036 15.9088 13.036 15.9021 13.036 15.8955C13.036 15.8889 13.036 15.8824 13.036 15.8758C13.036 15.8692 13.036 15.8627 13.036 15.8561C13.036 15.8496 13.036 15.8431 13.036 15.8365C13.036 15.83 13.036 15.8235 13.036 15.817C13.036 15.8106 13.036 15.8041 13.036 15.7976C13.036 15.7912 13.036 15.7847 13.036 15.7783C13.036 15.7719 13.036 15.7655 13.036 15.7591C13.036 15.7527 13.036 15.7463 13.036 15.7399C13.036 15.7335 13.036 15.7272 13.036 15.7208C13.036 15.7145 13.036 15.7082 13.036 15.7018C13.036 15.6955 13.036 15.6892 13.036 15.6829C13.036 15.6766 13.036 15.6704 13.036 15.6641C13.036 15.6579 13.036 15.6516 13.036 15.6454C13.036 15.6391 13.036 15.6329 13.036 15.6267C13.036 15.6205 13.036 15.6143 13.036 15.6081C13.036 15.602 13.036 15.5958 13.036 15.5897C13.036 15.5835 13.036 15.5774 13.036 15.5712C13.036 15.5651 13.036 15.559 13.036 15.5529C13.036 15.5468 13.036 15.5408 13.036 15.5347C13.036 15.5286 13.036 15.5226 13.036 15.5165C13.036 15.5105 13.036 15.5045 13.036 15.4984C13.036 15.4924 13.036 15.4864 13.036 15.4804C13.036 15.4745 13.036 15.4685 13.036 15.4625C13.036 15.4566 13.036 15.4506 13.036 15.4447C13.036 15.4388 13.036 15.4329 13.036 15.427C13.036 15.421 13.036 15.4152 13.036 15.4093C13.036 15.4034 13.036 15.3975 13.036 15.3917C13.036 15.3858 13.036 15.38 13.036 15.3742C13.036 15.3684 13.036 15.3625 13.036 15.3568C13.036 15.351 13.036 15.3452 13.036 15.3394C13.036 15.3336 13.036 15.3279 13.036 15.3221C13.036 15.3164 13.036 15.3107 13.036 15.3049C13.036 15.2992 13.036 15.2935 13.036 15.2878C13.036 15.2821 13.036 15.2765 13.036 15.2708C13.036 15.2651 13.036 15.2595 13.036 15.2539C13.036 15.2482 13.036 15.2426 13.036 15.237C13.036 15.2314 13.036 15.2258 13.036 15.2202C13.036 15.2146 13.036 15.209 13.036 15.2035C13.036 15.1979 13.036 15.1924 13.036 15.1869C13.036 15.1813 13.036 15.1758 13.036 15.1703C13.036 15.1648 13.036 15.1593 13.036 15.1538C13.036 15.1483 13.036 15.1429 13.036 15.1374C13.036 15.132 13.036 15.1265 13.036 15.1211C13.036 15.1157 13.036 15.1103 13.036 15.1049C13.036 15.0995 13.036 15.0941 13.036 15.0887C13.036 15.0833 13.036 15.078 13.036 15.0726C13.036 15.0673 13.036 15.0619 13.036 15.0566C13.036 15.0513 13.036 15.046 13.036 15.0407C13.036 15.0354 13.036 15.0301 13.036 15.0248C13.036 15.0195 13.036 15.0143 13.036 15.009C13.036 15.0038 13.036 14.9985 13.036 14.9933C13.036 14.9881 13.036 14.9829 13.036 14.9777C13.036 14.9725 13.036 14.9673 13.036 14.9621C13.036 14.957 13.036 14.9518 13.036 14.9467C13.036 14.9415 13.036 14.9364 13.036 14.9313C13.036 14.9261 13.036 14.921 13.036 14.9159C13.036 14.9108 13.036 14.9058 13.036 14.9007C13.036 14.8956 13.036 14.8906 13.036 14.8855C13.036 14.8805 13.036 14.8754 13.036 14.8704C13.036 14.8654 13.036 14.8604 13.036 14.8554C13.036 14.8504 13.036 14.8454 13.036 14.8404C13.036 14.8355 13.036 14.8305 13.036 14.8256C13.036 14.8206 13.036 14.8157 13.036 14.8108C13.036 14.8058 13.036 14.8009 13.036 14.796C13.036 14.7911 13.036 14.7862 13.036 14.7814C13.036 14.7765 13.036 14.7716 13.036 14.7668C13.036 14.7619 13.036 14.7571 13.036 14.7523C13.036 14.7475 13.036 14.7427 13.036 14.7379C13.036 14.7331 13.036 14.7283 13.036 14.7235C13.036 14.7187 13.036 14.714 13.036 14.7092C13.036 14.7045 13.036 14.6997 13.036 14.695C13.036 14.6903 13.036 14.6855 13.036 14.6808C13.036 14.6761 13.036 14.6715 13.036 14.6668C13.036 14.6621 13.036 14.6574 13.036 14.6528C13.036 14.6481 13.036 14.6435 13.036 14.6389C13.036 14.6342 13.036 14.6296 13.036 14.625C13.036 14.6204 13.036 14.6158 13.036 14.6112C13.036 14.6066 13.036 14.6021 13.036 14.5975C13.036 14.5929 13.036 14.5884 13.036 14.5839C13.036 14.5793 13.036 14.5748 13.036 14.5703C13.036 14.5658 13.036 14.5613 13.036 14.5568C13.036 14.5523 13.036 14.5478 13.036 14.5434C13.036 14.5389 13.036 14.5345 13.036 14.53C13.036 14.5256 13.036 14.5211 13.036 14.5167C13.036 14.5123 13.036 14.5079 13.036 14.5035C13.036 14.4991 13.036 14.4947 13.036 14.4904C13.036 14.486 13.036 14.4816 13.036 14.4773C13.036 14.4729 13.036 14.4686 13.036 14.4643C13.036 14.46 13.036 14.4556 13.036 14.4513C13.036 14.447 13.036 14.4427 13.036 14.4385C13.036 14.4342 13.036 14.4299 13.036 14.4257C13.036 14.4214 13.036 14.4172 13.036 14.4129C13.036 14.4087 13.036 14.4045 13.036 14.4003C13.036 14.3961 13.036 14.3919 13.036 14.3877C13.036 14.3835 13.036 14.3793 13.036 14.3752C13.036 14.371 13.036 14.3668 13.036 14.3627C13.036 14.3586 13.036 14.3544 13.036 14.3503C13.036 14.3462 13.036 14.3421 13.036 14.338C13.036 14.3339 13.036 14.3298 13.036 14.3257C13.036 14.3217 13.036 14.3176 13.036 14.3135C13.036 14.3095 13.036 14.3055 13.036 14.3014C13.036 14.2974 13.036 14.2934 13.036 14.2894C13.036 14.2854 13.036 14.2814 13.036 14.2774C13.036 14.2734 13.036 14.2694 13.036 14.2655C13.036 14.2615 13.036 14.2576 13.036 14.2536C13.036 14.2497 13.036 14.2457 13.036 14.2418C13.036 14.2379 13.036 14.234 13.036 14.2301C13.036 14.2262 13.036 14.2223 13.036 14.2185C13.036 14.2146 13.036 14.2107 13.036 14.2069C13.036 14.203 13.036 14.1992 13.036 14.1953C13.036 14.1915 13.036 14.1877 13.036 14.1839C13.036 14.1801 13.036 14.1763 13.036 14.1725C13.036 14.1687 13.036 14.1649 13.036 14.1612C13.036 14.1574 13.036 14.1536 13.036 14.1499C13.036 14.1462 13.036 14.1424 13.036 14.1387C13.036 14.135 13.036 14.1313 13.036 14.1276C13.036 14.1239 13.036 14.1202 13.036 14.1165C13.036 14.1128 13.036 14.1091 13.036 14.1055C13.036 14.1018 13.036 14.0982 13.036 14.0945C13.036 14.0909 13.036 14.0873 13.036 14.0837C13.036 14.08 13.036 14.0764 13.036 14.0728C13.036 14.0693 13.036 14.0657 13.036 14.0621C13.036 14.0585 13.036 14.055 13.036 14.0514C13.036 14.0478 13.036 14.0443 13.036 14.0408C13.036 14.0372 13.036 14.0337 13.036 14.0302C13.036 14.0267 13.036 14.0232 13.036 14.0197C13.036 14.0162 13.036 14.0127 13.036 14.0093C13.036 14.0058 13.036 14.0023 13.036 13.9989C13.036 13.9954 13.036 13.992 13.036 13.9886C13.036 13.9852 13.036 13.9817 13.036 13.9783C13.036 13.9749 13.036 13.9715 13.036 13.9681C13.036 13.9647 13.036 13.9614 13.036 13.958C13.036 13.9546 13.036 13.9513 13.036 13.9479C13.036 13.9446 13.036 13.9413 13.036 13.9379C13.036 13.9346 13.036 13.9313 13.036 13.928C13.036 13.9247 13.036 13.9214 13.036 13.9181C13.036 13.9148 13.036 13.9115 13.036 13.9083C13.036 13.905 13.036 13.9017 13.036 13.8985C13.036 13.8953 13.036 13.892 13.036 13.8888C13.036 13.8856 13.036 13.8824 13.036 13.8791C13.036 13.8759 13.036 13.8727 13.036 13.8696C13.036 13.8664 13.036 13.8632 13.036 13.86C13.036 13.8569 13.036 13.8537 13.036 13.8506C13.036 13.8474 13.036 13.8443 13.036 13.8412C13.036 13.838 13.036 13.8349 13.036 13.8318C13.036 13.8287 13.036 13.8256 13.036 13.8225C13.036 13.8194 13.036 13.8164 13.036 13.8133C13.036 13.8102 13.036 13.8072 13.036 13.8041C13.036 13.8011 13.036 13.798 13.036 13.795C13.036 13.792 13.036 13.789 13.036 13.7859C13.036 13.7829 13.036 13.7799 13.036 13.7769C13.036 13.774 13.036 13.771 13.036 13.768C13.036 13.765 13.036 13.7621 13.036 13.7591C13.036 13.7562 13.036 13.7532 13.036 13.7503C13.036 13.7474 13.036 13.7444 13.036 13.7415C13.036 13.7386 13.036 13.7357 13.036 13.7328C13.036 13.7299 13.036 13.727 13.036 13.7242C13.036 13.7213 13.036 13.7184 13.036 13.7156C13.036 13.7127 13.036 13.7099 13.036 13.707C13.036 13.7042 13.036 13.7013 13.036 13.6985C13.036 13.6957 13.036 13.6929 13.036 13.6901C13.036 13.6873 13.036 13.6845 13.036 13.6817C13.036 13.6789 13.036 13.6762 13.036 13.6734C13.036 13.6706 13.036 13.6679 13.036 13.6651C13.036 13.6624 13.036 13.6597 13.036 13.6569C13.036 13.6542 13.036 13.6515 13.036 13.6488C13.036 13.6461 13.036 13.6434 13.036 13.6407C13.036 13.638 13.036 13.6353 13.036 13.6326C13.036 13.63 13.036 13.6273 13.036 13.6246C13.036 13.622 13.036 13.6193 13.036 13.6167C13.036 13.6141 13.036 13.6114 13.036 13.6088C13.036 13.6062 13.036 13.6036 13.036 13.601C13.036 13.5984 13.036 13.5958 13.036 13.5932C13.036 13.5906 13.036 13.5881 13.036 13.5855C13.036 13.5829 13.036 13.5804 13.036 13.5778C13.036 13.5753 13.036 13.5728 13.036 13.5702C13.036 13.5677 13.036 13.5652 13.036 13.5627C13.036 13.5602 13.036 13.5577 13.036 13.5552C13.036 13.5527 13.036 13.5502 13.036 13.5477C13.036 13.5452 13.036 13.5428 13.036 13.5403C13.036 13.5379 13.036 13.5354 13.036 13.533C13.036 13.5305 13.036 13.5281 13.036 13.5257C13.036 13.5232 13.036 13.5208 13.036 13.5184C13.036 13.516 13.036 13.5136 13.036 13.5112C13.036 13.5088 13.036 13.5065 13.036 13.5041C13.036 13.5017 13.036 13.4993 13.036 13.497C13.036 13.4946 13.036 13.4923 13.036 13.49C13.036 13.4876 13.036 13.4853 13.036 13.483C13.036 13.4806 13.036 13.4783 13.036 13.476C13.036 13.4737 13.036 13.4714 13.036 13.4691C13.036 13.4669 13.036 13.4646 13.036 13.4623C13.036 13.46 13.036 13.4578 13.036 13.4555C13.036 13.4533 13.036 13.451 13.036 13.4488C13.036 13.4465 13.036 13.4443 13.036 13.4421C13.036 13.4399 13.036 13.4377 13.036 13.4355C13.036 13.4333 13.036 13.4311 13.036 13.4289C13.036 13.4267 13.036 13.4245 13.036 13.4223C13.036 13.4202 13.036 13.418 13.036 13.4158C13.036 13.4137 13.036 13.4115 13.036 13.4094C13.036 13.4073 13.036 13.4051 13.036 13.403C13.036 13.4009 13.036 13.3988 13.036 13.3967C13.036 13.3946 13.036 13.3925 13.036 13.3904C13.036 13.3883 13.036 13.3862 13.036 13.3841C13.036 13.3821 13.036 13.38 13.036 13.3779C13.036 13.3759 13.036 13.3738 13.036 13.3718C13.036 13.3697 13.036 13.3677 13.036 13.3657C13.036 13.3637 13.036 13.3616 13.036 13.3596C13.036 13.3576 13.036 13.3556 13.036 13.3536C13.036 13.3516 13.036 13.3496 13.036 13.3477C13.036 13.3457 13.036 13.3437 13.036 13.3418C13.036 13.3398 13.036 13.3378 13.036 13.3359C13.036 13.3339 13.036 13.332 13.036 13.3301C13.036 13.3281 13.036 13.3262 13.036 13.3243C13.036 13.3224 13.036 13.3205 13.036 13.3186C13.036 13.3167 13.036 13.3148 13.036 13.3129C13.036 13.311 13.036 13.3091 13.036 13.3073C13.036 13.3054 13.036 13.3035 13.036 13.3017C13.036 13.2998 13.036 13.298 13.036 13.2961C13.036 13.2943 13.036 13.2924 13.036 13.2906C13.036 13.2888 13.036 13.287 13.036 13.2852C13.036 13.2834 13.036 13.2816 13.036 13.2798C13.036 13.278 13.036 13.2762 13.036 13.2744C13.036 13.2726 13.036 13.2708 13.036 13.2691C13.036 13.2673 13.036 13.2655 13.036 13.2638C13.036 13.262 13.036 13.2603 13.036 13.2586C13.036 13.2568 13.036 13.2551 13.036 13.2534C13.036 13.2517 13.036 13.2499 13.036 13.2482C13.036 13.2465 13.036 13.2448 13.036 13.2431C13.036 13.2414 13.036 13.2398 13.036 13.2381C13.036 13.2364 13.036 13.2347 13.036 13.2331C13.036 13.2314 13.036 13.2297 13.036 13.2281C13.036 13.2264 13.036 13.2248 13.036 13.2232C13.036 13.2215 13.036 13.2199 13.036 13.2183C13.036 13.2167 13.036 13.215 13.036 13.2134C13.036 13.2118 13.036 13.2102 13.036 13.2086C13.036 13.207 13.036 13.2055 13.036 13.2039C13.036 13.2023 13.036 13.2007 13.036 13.1992C13.036 13.1976 13.036 13.196 13.036 13.1945C13.036 13.1929 13.036 13.1914 13.036 13.1899C13.036 13.1883 13.036 13.1868 13.036 13.1853C13.036 13.1837 13.036 13.1822 13.036 13.1807C13.036 13.1792 13.036 13.1777 13.036 13.1762C13.036 13.1747 13.036 13.1732 13.036 13.1717C13.036 13.1703 13.036 13.1688 13.036 13.1673C13.036 13.1658 13.036 13.1644 13.036 13.1629C13.036 13.1615 13.036 13.16 13.036 13.1586C13.036 13.1571 13.036 13.1557 13.036 13.1543C13.036 13.1528 13.036 13.1514 13.036 13.15C13.036 13.1486 13.036 13.1472 13.036 13.1458C13.036 13.1444 13.036 13.143 13.036 13.1416C13.036 13.1402 13.036 13.1388 13.036 13.1374C13.036 13.1361 13.036 13.1347 13.036 13.1333C13.036 13.132 13.036 13.1306 13.036 13.1293C13.036 13.1279 13.036 13.1266 13.036 13.1252C13.036 13.1239 13.036 13.1226 13.036 13.1212C13.036 13.1199 13.036 13.1186 13.036 13.1173C13.036 13.116 13.036 13.1147 13.036 13.1134C13.036 13.1121 13.036 13.1108 13.036 13.1095C13.036 13.1082 13.036 13.1069 13.036 13.1056C13.036 13.1044 13.036 13.1031 13.036 13.1018C13.036 13.1006 13.036 13.0993 13.036 13.0981C13.036 13.0968 13.036 13.0956 13.036 13.0943C13.036 13.0931 13.036 13.0919 13.036 13.0907C13.036 13.0894 13.036 13.0882 13.036 13.087C13.036 13.0858 13.036 13.0846 13.036 13.0834C13.036 13.0822 13.036 13.081 13.036 13.0798C13.036 13.0786 13.036 13.0774 13.036 13.0763C13.036 13.0751 13.036 13.0739 13.036 13.0727C13.036 13.0716 13.036 13.0704 13.036 13.0693C13.036 13.0681 13.036 13.067 13.036 13.0658C13.036 13.0647 13.036 13.0636 13.036 13.0624C13.036 13.0613 13.036 13.0602 13.036 13.0591C13.036 13.058 13.036 13.0568 13.036 13.0557C13.036 13.0546 13.036 13.0535 13.036 13.0524C13.036 13.0514 13.036 13.0503 13.036 13.0492C13.036 13.0481 13.036 13.047 13.036 13.046C13.036 13.0449 13.036 13.0438 13.036 13.0428C13.036 13.0417 13.036 13.0407 13.036 13.0396C13.036 13.0386 13.036 13.0375 13.036 13.0365C13.036 13.0355 13.036 13.0344 13.036 13.0334C13.036 13.0324 13.036 13.0314 13.036 13.0303C13.036 13.0293 13.036 13.0283 13.036 13.0273C13.036 13.0263 13.036 13.0253 13.036 13.0243C13.036 13.0233 13.036 13.0224 13.036 13.0214C13.036 13.0204 13.036 13.0194 13.036 13.0185C13.036 13.0175 13.036 13.0165 13.036 13.0156C13.036 13.0146 13.036 13.0137 13.036 13.0127C13.036 13.0118 13.036 13.0108 13.036 13.0099C13.036 13.009 13.036 13.008 13.036 13.0071C13.036 13.0062 13.036 13.0052 13.036 13.0043C13.036 13.0034 13.036 13.0025 13.036 13.0016C13.036 13.0007 13.036 12.9998 13.036 12.9989C13.036 12.998 13.036 12.9971 13.036 12.9962C13.036 12.9954 13.036 12.9945 13.036 12.9936C13.036 12.9927 13.036 12.9919 13.036 12.991C13.036 12.9901 13.036 12.9893 13.036 12.9884C13.036 12.9876 13.036 12.9867 13.036 12.9859C13.036 12.9851 13.036 12.9842 13.036 12.9834C13.036 12.9826 13.036 12.9817 13.036 12.9809C13.036 12.9801 13.036 12.9793 13.036 12.9785C13.036 12.9777 13.036 12.9768 13.036 12.976C13.036 12.9752 13.036 12.9744 13.036 12.9737C13.036 12.9729 13.036 12.9721 13.036 12.9713C13.036 12.9705 13.036 12.9697 13.036 12.969C13.036 12.9682 13.036 12.9674 13.036 12.9667C13.036 12.9659 13.036 12.9651 13.036 12.9644C13.036 12.9636 13.036 12.9629 13.036 12.9622C13.036 12.9614 13.036 12.9607 13.036 12.9599C13.036 12.9592 13.036 12.9585 13.036 12.9578C13.036 12.957 13.036 12.9563 13.036 12.9556C13.036 12.9549 13.036 12.9542 13.036 12.9535C13.036 12.9528 13.036 12.9521 13.036 12.9514C13.036 12.9507 13.036 12.95 13.036 12.9493C13.036 12.9486 13.036 12.9479 13.036 12.9472C13.036 12.9466 13.036 12.9459 13.036 12.9452C13.036 12.9446 13.036 12.9439 13.036 12.9432C13.036 12.9426 13.036 12.9419 13.036 12.9413C13.036 12.9406 13.036 12.94 13.036 12.9393C13.036 12.9387 13.036 12.9381 13.036 12.9374C13.036 12.9368 13.036 12.9362 13.036 12.9355C13.036 12.9349 13.036 12.9343 13.036 12.9337C13.036 12.9331 13.036 12.9325 13.036 12.9319C13.036 12.9313 13.036 12.9307 13.036 12.9301C13.036 12.9295 13.036 12.9289 13.036 12.9283C13.036 12.9277 13.036 12.9271 13.036 12.9265C13.036 12.9259 13.036 12.9254 13.036 12.9248C13.036 12.9242 13.036 12.9237 13.036 12.9231C13.036 12.9225 13.036 12.922 13.036 12.9214C13.036 12.9209 13.036 12.9203 13.036 12.9198C13.036 12.9192 13.036 12.9187 13.036 12.9181C13.036 12.9176 13.036 12.9171 13.036 12.9165C13.036 12.916 13.036 12.9155 13.036 12.9149C13.036 12.9144 13.036 12.9139 13.036 12.9134C13.036 12.9129 13.036 12.9124 13.036 12.9119C13.036 12.9114 13.036 12.9109 13.036 12.9104C13.036 12.9099 13.036 12.9094 13.036 12.9089C13.036 12.9084 13.036 12.9079 13.036 12.9074C13.036 12.9069 13.036 12.9064 13.036 12.906C13.036 12.9055 13.036 12.905 13.036 12.9046C13.036 12.9041 13.036 12.9036 13.036 12.9032C13.036 12.9027 13.036 12.9022 13.036 12.9018C13.036 12.9013 13.036 12.9009 13.036 12.9004C13.036 12.9 13.036 12.8996 13.036 12.8991C13.036 12.8987 13.036 12.8983 13.036 12.8978C13.036 12.8974 13.036 12.897 13.036 12.8965C13.036 12.8961 13.036 12.8957 13.036 12.8953C13.036 12.8949 13.036 12.8945 13.036 12.894C13.036 12.8936 13.036 12.8932 13.036 12.8928C13.036 12.8924 13.036 12.892 13.036 12.8916C13.036 12.8912 13.036 12.8908 13.036 12.8905C13.036 12.8901 13.036 12.8897 13.036 12.8893C13.036 12.8889 13.036 12.8885 13.036 12.8882C13.036 12.8878 13.036 12.8874 13.036 12.8871C13.036 12.8867 13.036 12.8863 13.036 12.886C13.036 12.8856 13.036 12.8853 13.036 12.8849C13.036 12.8845 13.036 12.8842 13.036 12.8838C13.036 12.8835 13.036 12.8832 13.036 12.8828C13.036 12.8825 13.036 12.8821 13.036 12.8818C13.036 12.8815 13.036 12.8811 13.036 12.8808C13.036 12.8805 13.036 12.8802 13.036 12.8798C13.036 12.8795 13.036 12.8792 13.036 12.8789C13.036 12.8786 13.036 12.8783 13.036 12.8779C13.036 12.8776 13.036 12.8773 13.036 12.877C13.036 12.8767 13.036 12.8764 13.036 12.8761C13.036 12.8758 13.036 12.8755 13.036 12.8752C13.036 12.875 13.036 12.8747 13.036 12.8744C13.036 12.8741 13.036 12.8738 13.036 12.8735C13.036 12.8733 13.036 12.873 13.036 12.8727C13.036 12.8724 13.036 12.8722 13.036 12.8719C13.036 12.8716 13.036 12.8714 13.036 12.8711C13.036 12.8708 13.036 12.8706 13.036 12.8703C13.036 12.8701 13.036 12.8698 13.036 12.8696C13.036 12.8693 13.036 12.8691 13.036 12.8688C13.036 12.8686 13.036 12.8683 13.036 12.8681C13.036 12.8679 13.036 12.8676 13.036 12.8674C13.036 12.8672 13.036 12.8669 13.036 12.8667C13.036 12.8665 13.036 12.8662 13.036 12.866C13.036 12.8658 13.036 12.8656 13.036 12.8654C13.036 12.8651 13.036 12.8649 13.036 12.8647C13.036 12.8645 13.036 12.8643 13.036 12.8641C13.036 12.8639 13.036 12.8637 13.036 12.8635C13.036 12.8633 13.036 12.8631 13.036 12.8629C13.036 12.8627 13.036 12.8625 13.036 12.8623C13.036 12.8621 13.036 12.8619 13.036 12.8617C13.036 12.8615 13.036 12.8613 13.036 12.8611C13.036 12.861 13.036 12.8608 13.036 12.8606C13.036 12.8604 13.036 12.8602 13.036 12.8601C13.036 12.8599 13.036 12.8597 13.036 12.8596C13.036 12.8594 13.036 12.8592 13.036 12.8591C13.036 12.8589 13.036 12.8587 13.036 12.8586C13.036 12.8584 13.036 12.8582 13.036 12.8581C13.036 12.8579 13.036 12.8578 13.036 12.8576C13.036 12.8575 13.036 12.8573 13.036 12.8572C13.036 12.857 13.036 12.8569 13.036 12.8567C13.036 12.8566 13.036 12.8565 13.036 12.8563C13.036 12.8562 13.036 12.8561 13.036 12.8559C13.036 12.8558 13.036 12.8556 13.036 12.8555C13.036 12.8554 13.036 12.8553 13.036 12.8551C13.036 12.855 13.036 12.8549 13.036 12.8548C13.036 12.8546 13.036 12.8545 13.036 12.8544C13.036 12.8543 13.036 12.8542 13.036 12.854C13.036 12.8539 13.036 12.8538 13.036 12.8537C13.036 12.8536 13.036 12.8535 13.036 12.8534C13.036 12.8533 13.036 12.8532 13.036 12.8531C13.036 12.853 13.036 12.8529 13.036 12.8528C13.036 12.8527 13.036 12.8526 13.036 12.8525C13.036 12.8524 13.036 12.8523 13.036 12.8522C13.036 12.8521 13.036 12.852 13.036 12.8519C13.036 12.8518 13.036 12.8517 13.036 12.8516C13.036 12.8515 13.036 12.8515 13.036 12.8514C13.036 12.8513 13.036 12.8512 13.036 12.8511C13.036 12.851 13.036 12.851 13.036 12.8509C13.036 12.8508 13.036 12.8507 13.036 12.8507C13.036 12.8506 13.036 12.8505 13.036 12.8504C13.036 12.8504 13.036 12.8503 13.036 12.8502C13.036 12.8502 13.036 12.8501 13.036 12.85C13.036 12.85 13.036 12.8499 13.036 12.8498C13.036 12.8498 13.036 12.8497 13.036 12.8497C13.036 12.8496 13.036 12.8495 13.036 12.8495C13.036 12.8494 13.036 12.8494 13.036 12.8493C13.036 12.8493 13.036 12.8492 13.036 12.8492C13.036 12.8491 13.036 12.8491 13.036 12.849C13.036 12.849 13.036 12.8489 13.036 12.8489C13.036 12.8488 13.036 12.8488 13.036 12.8487C13.036 12.8487 13.036 12.8486 13.036 12.8486C13.036 12.8486 13.036 12.8485 13.036 12.8485C13.036 12.8484 13.036 12.8484 13.036 12.8484C13.036 12.8483 13.036 12.8483 13.036 12.8482C13.036 12.8482 13.036 12.8482 13.036 12.8481C13.036 12.8481 13.036 12.8481 13.036 12.848C13.036 12.848 13.036 12.848 13.036 12.8479C13.036 12.8479 13.036 12.8479 13.036 12.8479C13.036 12.8478 13.036 12.8478 13.036 12.8478C13.036 12.8478 13.036 12.8477 13.036 12.8477C13.036 12.8477 13.036 12.8477 13.036 12.8476C13.036 12.8476 13.036 12.8476 13.036 12.8476C13.036 12.8476 13.036 12.8475 13.036 12.8475C13.036 12.8475 13.036 12.8475 13.036 12.8475C13.036 12.8474 13.036 12.8474 13.036 12.8474C13.036 12.8474 13.036 12.8474 13.036 12.8474C13.036 12.8473 13.036 12.8473 13.036 12.8473C13.036 12.8473 13.036 12.8473 13.036 12.8473C13.036 12.8473 13.036 12.8473 13.036 12.8472C13.036 12.8472 13.036 12.8472 13.036 12.8472C13.036 12.8472 13.036 12.8472 13.036 12.8472C13.036 12.8472 13.036 12.8472 13.036 12.8472C13.036 12.8471 13.036 12.8471 13.036 12.8471C13.036 12.8471 13.036 12.8471 13.036 12.8471C13.036 12.8471 13.036 12.8471 13.036 12.8471C13.036 12.8471 13.036 12.8471 13.036 12.8471C13.036 12.8471 13.036 12.8471 13.036 12.8471C13.036 12.8471 13.036 12.8471 13.036 12.8471C13.036 12.8471 13.036 12.8471 13.036 12.8471C13.036 12.847 13.036 12.847 13.036 12.847C13.036 12.847 13.036 12.847 13.036 12.847C13.036 12.847 13.036 12.847 13.036 12.847C13.036 12.847 13.036 12.847 13.036 12.847C13.036 12.847 13.036 12.847 13.036 12.847C13.036 12.847 13.036 12.847 13.036 12.847V12.847C13.036 12.847 13.036 12.847 13.036 12.847H12.3931ZM12.3931 12.847H13.036V8.69775H12.3931H11.7503V12.847H12.3931Z" fill="white"/>
</svg>
