<svg width="25" height="24" viewBox="0 0 25 24" fill="none" xmlns="http://www.w3.org/2000/svg">
<path fill-rule="evenodd" clip-rule="evenodd" d="M7.07275 7V17C7.07275 18.1046 7.96818 19 9.07275 19H17.0728C18.1773 19 19.0728 18.1046 19.0728 17V7C19.0728 5.89543 18.1773 5 17.0728 5H9.07275C7.96818 5 7.07275 5.89543 7.07275 7Z" stroke="#606060" stroke-width="1.5" stroke-linecap="round" stroke-linejoin="round"/>
<path fill-rule="evenodd" clip-rule="evenodd" d="M15.0725 10C15.0725 11.1046 14.1771 12 13.0725 12C11.9679 12 11.0725 11.1046 11.0725 10C11.0725 8.89543 11.9679 8 13.0725 8C14.1771 8 15.0725 8.89543 15.0725 10Z" stroke="#606060" stroke-width="1.5" stroke-linecap="round" stroke-linejoin="round"/>
<path d="M6.62383 16.3993C6.29202 16.6472 6.22401 17.1172 6.47195 17.449C6.71988 17.7808 7.18986 17.8488 7.52168 17.6009L6.62383 16.3993ZM18.6238 17.6009C18.9556 17.8488 19.4256 17.7808 19.6736 17.449C19.9215 17.1172 19.8535 16.6472 19.5217 16.3993L18.6238 17.6009ZM5.07251 8.25C4.6583 8.25 4.32251 8.58579 4.32251 9C4.32251 9.41421 4.6583 9.75 5.07251 9.75V8.25ZM7.07251 9.75C7.48672 9.75 7.82251 9.41421 7.82251 9C7.82251 8.58579 7.48672 8.25 7.07251 8.25V9.75ZM5.07251 11.25C4.6583 11.25 4.32251 11.5858 4.32251 12C4.32251 12.4142 4.6583 12.75 5.07251 12.75V11.25ZM7.07251 12.75C7.48672 12.75 7.82251 12.4142 7.82251 12C7.82251 11.5858 7.48672 11.25 7.07251 11.25V12.75ZM5.07251 14.25C4.6583 14.25 4.32251 14.5858 4.32251 15C4.32251 15.4142 4.6583 15.75 5.07251 15.75V14.25ZM7.07251 15.75C7.48672 15.75 7.82251 15.4142 7.82251 15C7.82251 14.5858 7.48672 14.25 7.07251 14.25V15.75ZM7.07275 17.0001L7.52168 17.6009C10.8137 15.1411 15.3318 15.1411 18.6238 17.6009L19.0728 17.0001L19.5217 16.3993C15.6972 13.5416 10.4483 13.5416 6.62383 16.3993L7.07275 17.0001ZM5.07251 9V9.75H7.07251V9V8.25H5.07251V9ZM5.07251 12V12.75H7.07251V12V11.25H5.07251V12ZM5.07251 15V15.75H7.07251V15V14.25H5.07251V15Z" fill="#606060"/>
</svg>
