<svg width="21" height="20" viewBox="0 0 21 20" fill="none" xmlns="http://www.w3.org/2000/svg">
<rect x="0.504883" width="20" height="20" rx="10" fill="#02CCDA"/>
<path d="M5.82105 8.04941C5.54899 8.33507 5.56001 8.7872 5.84568 9.05926C6.13134 9.33132 6.58347 9.32029 6.85553 9.03463L5.82105 8.04941ZM11.0222 4.65963C11.2943 4.37397 11.2832 3.92184 10.9976 3.64978C10.7119 3.37772 10.2598 3.38874 9.98771 3.67441L11.0222 4.65963ZM11.0224 3.67442C10.7504 3.38876 10.2983 3.37773 10.0126 3.64979C9.72693 3.92185 9.71591 4.37398 9.98797 4.65964L11.0224 3.67442ZM14.1546 9.03464C14.4267 9.32031 14.8788 9.33134 15.1645 9.05927C15.4502 8.78721 15.4612 8.33509 15.1891 8.04942L14.1546 9.03464ZM11.2194 4.16702C11.2194 3.77253 10.8996 3.45273 10.5051 3.45273C10.1106 3.45273 9.79083 3.77253 9.79083 4.16702H11.2194ZM9.79083 15.8337C9.79083 16.2282 10.1106 16.548 10.5051 16.548C10.8996 16.548 11.2194 16.2282 11.2194 15.8337H9.79083ZM6.33829 8.54202L6.85553 9.03463L11.0222 4.65963L10.505 4.16702L9.98771 3.67441L5.82105 8.04941L6.33829 8.54202ZM10.5052 4.16703L9.98797 4.65964L14.1546 9.03464L14.6719 8.54203L15.1891 8.04942L11.0224 3.67442L10.5052 4.16703ZM10.5051 4.16702H9.79083V15.8337H10.5051H11.2194V4.16702H10.5051Z" fill="white"/>
</svg>
