<svg width="33" height="32" viewBox="0 0 33 32" fill="none" xmlns="http://www.w3.org/2000/svg">
<path fill-rule="evenodd" clip-rule="evenodd" d="M11.1391 23.1448C10.2616 23.2961 9.3612 23.0674 8.66228 22.5157C7.96335 21.964 7.53176 21.1414 7.47508 20.2528V10.7034C7.43425 9.7014 8.04374 8.78717 8.98441 8.43945C11.7473 7.42553 14.8491 8.20205 16.8084 10.3981V24.0261C15.4951 22.9221 13.2257 22.8554 11.1391 23.1448Z" stroke="#111111" stroke-width="1.5" stroke-linecap="round" stroke-linejoin="round"/>
<path fill-rule="evenodd" clip-rule="evenodd" d="M22.4779 23.1448C23.3554 23.2961 24.2558 23.0674 24.9547 22.5157C25.6537 21.964 26.0852 21.1414 26.1419 20.2528V10.7034C26.1828 9.7014 25.5733 8.78717 24.6326 8.43945C21.8697 7.42553 18.7679 8.20205 16.8086 10.3981V24.0261C18.1219 22.9221 20.3913 22.8554 22.4779 23.1448Z" stroke="#111111" stroke-width="1.5" stroke-linecap="round" stroke-linejoin="round"/>
<path d="M13.4753 15.4426C13.8895 15.4426 14.2253 15.1068 14.2253 14.6926C14.2253 14.2784 13.8895 13.9426 13.4753 13.9426V15.4426ZM10.8086 13.9426C10.3944 13.9426 10.0586 14.2784 10.0586 14.6926C10.0586 15.1068 10.3944 15.4426 10.8086 15.4426V13.9426ZM13.4753 18.1093C13.8895 18.1093 14.2253 17.7735 14.2253 17.3593C14.2253 16.9451 13.8895 16.6093 13.4753 16.6093V18.1093ZM10.8086 16.6093C10.3944 16.6093 10.0586 16.9451 10.0586 17.3593C10.0586 17.7735 10.3944 18.1093 10.8086 18.1093V16.6093ZM22.8086 15.4426C23.2228 15.4426 23.5586 15.1068 23.5586 14.6926C23.5586 14.2784 23.2228 13.9426 22.8086 13.9426V15.4426ZM20.1419 13.9426C19.7277 13.9426 19.3919 14.2784 19.3919 14.6926C19.3919 15.1068 19.7277 15.4426 20.1419 15.4426V13.9426ZM22.8086 18.1093C23.2228 18.1093 23.5586 17.7735 23.5586 17.3593C23.5586 16.9451 23.2228 16.6093 22.8086 16.6093V18.1093ZM20.1419 16.6093C19.7277 16.6093 19.3919 16.9451 19.3919 17.3593C19.3919 17.7735 19.7277 18.1093 20.1419 18.1093V16.6093ZM13.4753 13.9426H10.8086V15.4426H13.4753V13.9426ZM13.4753 16.6093H10.8086V18.1093H13.4753V16.6093ZM22.8086 13.9426H20.1419V15.4426H22.8086V13.9426ZM22.8086 16.6093H20.1419V18.1093H22.8086V16.6093Z" fill="#111111"/>
</svg>
