<svg width="25" height="25" viewBox="0 0 25 25" fill="none" xmlns="http://www.w3.org/2000/svg">
<path d="M9.07275 7.25C9.48697 7.25 9.82275 6.91421 9.82275 6.5C9.82275 6.08579 9.48697 5.75 9.07275 5.75V7.25ZM15.0728 5.75C14.6585 5.75 14.3228 6.08579 14.3228 6.5C14.3228 6.91421 14.6585 7.25 15.0728 7.25V5.75ZM9.073 5.75C8.65878 5.75 8.323 6.08579 8.323 6.5C8.323 6.91421 8.65878 7.25 9.073 7.25V5.75ZM15.073 7.25C15.4872 7.25 15.823 6.91421 15.823 6.5C15.823 6.08579 15.4872 5.75 15.073 5.75V7.25ZM9.82251 6.50006C9.82251 6.08585 9.48672 5.75006 9.07251 5.75006C8.6583 5.75006 8.32251 6.08585 8.32251 6.50006H9.82251ZM8.32251 7.50006C8.32251 7.91427 8.6583 8.25006 9.07251 8.25006C9.48672 8.25006 9.82251 7.91427 9.82251 7.50006H8.32251ZM8.32251 6.5C8.32251 6.91421 8.6583 7.25 9.07251 7.25C9.48672 7.25 9.82251 6.91421 9.82251 6.5H8.32251ZM9.82251 4.5C9.82251 4.08579 9.48672 3.75 9.07251 3.75C8.6583 3.75 8.32251 4.08579 8.32251 4.5H9.82251ZM15.8225 6.50006C15.8225 6.08585 15.4867 5.75006 15.0725 5.75006C14.6583 5.75006 14.3225 6.08585 14.3225 6.50006H15.8225ZM14.3225 7.50006C14.3225 7.91427 14.6583 8.25006 15.0725 8.25006C15.4867 8.25006 15.8225 7.91427 15.8225 7.50006H14.3225ZM14.3225 6.5C14.3225 6.91421 14.6583 7.25 15.0725 7.25C15.4867 7.25 15.8225 6.91421 15.8225 6.5H14.3225ZM15.8225 4.5C15.8225 4.08579 15.4867 3.75 15.0725 3.75C14.6583 3.75 14.3225 4.08579 14.3225 4.5H15.8225ZM9.07275 6.5V5.75C6.4494 5.75 4.32275 7.87665 4.32275 10.5H5.07275H5.82275C5.82275 8.70507 7.27783 7.25 9.07275 7.25V6.5ZM5.07275 10.5H4.32275V16.5H5.07275H5.82275V10.5H5.07275ZM5.07275 16.5H4.32275C4.32275 19.1234 6.4494 21.25 9.07275 21.25V20.5V19.75C7.27783 19.75 5.82275 18.2949 5.82275 16.5H5.07275ZM9.07275 20.5V21.25H15.0728V20.5V19.75H9.07275V20.5ZM15.0728 20.5V21.25C17.6961 21.25 19.8228 19.1234 19.8228 16.5H19.0728H18.3228C18.3228 18.2949 16.8677 19.75 15.0728 19.75V20.5ZM19.0728 16.5H19.8228V10.5H19.0728H18.3228V16.5H19.0728ZM19.0728 10.5H19.8228C19.8228 7.87665 17.6961 5.75 15.0728 5.75V6.5V7.25C16.8677 7.25 18.3228 8.70507 18.3228 10.5H19.0728ZM9.073 6.5V7.25H15.073V6.5V5.75L9.073 5.75V6.5ZM9.07251 6.50006H8.32251V7.50006H9.07251H9.82251V6.50006H9.07251ZM9.07251 6.5H9.82251V4.5H9.07251H8.32251V6.5H9.07251ZM15.0725 6.50006H14.3225V7.50006H15.0725H15.8225V6.50006H15.0725ZM15.0725 6.5H15.8225V4.5H15.0725H14.3225V6.5H15.0725Z" fill="#606060"/>
<path d="M8.07251 13.5L10.0725 16.5L16.0725 11.5" stroke="#606060" stroke-width="1.5" stroke-linecap="round" stroke-linejoin="round"/>
</svg>
