<svg width="21" height="21" viewBox="0 0 21 21" fill="none" xmlns="http://www.w3.org/2000/svg">
<path fill-rule="evenodd" clip-rule="evenodd" d="M2.31823 2.6028C3.49157 1.3668 3.90623 1.02013 4.40623 0.858801C4.75226 0.768131 5.11516 0.763097 5.46357 0.844134C5.92223 0.977468 6.04357 1.0788 7.54757 2.57747C8.8689 3.89347 9.0009 4.03613 9.12757 4.29347C9.36977 4.74517 9.40761 5.27878 9.23157 5.76013C9.09823 6.1268 8.9089 6.36947 8.10757 7.17347L7.5849 7.69747C7.44764 7.83696 7.41538 8.04878 7.5049 8.2228C8.66615 10.2039 10.3137 11.856 12.2916 13.0228C12.5192 13.1447 12.7996 13.1053 12.9849 12.9255L13.4876 12.4308C13.7983 12.1123 14.1273 11.8123 14.4729 11.5321C15.0158 11.1988 15.6922 11.1691 16.2622 11.4535C16.5409 11.5868 16.6329 11.6695 17.9956 13.0295C19.4009 14.4308 19.4409 14.4748 19.5956 14.7961C19.8866 15.3281 19.8836 15.9723 19.5876 16.5015C19.4369 16.8001 19.3449 16.9081 18.5542 17.7161C18.0769 18.2041 17.6276 18.6495 17.5556 18.7148C16.9033 19.2548 16.0664 19.5198 15.2222 19.4535C13.6776 19.3127 12.1826 18.8353 10.8422 18.0548C7.87308 16.4817 5.34543 14.1897 3.49023 11.3881C3.08616 10.8018 2.72692 10.1859 2.41557 9.54547C1.58034 8.11396 1.14903 6.48272 1.16757 4.82547C1.23133 3.95848 1.64711 3.15536 2.31823 2.6028Z" stroke="#111111" stroke-width="1.5" stroke-linecap="round" stroke-linejoin="round"/>
</svg>
