<svg width="33" height="32" viewBox="0 0 33 32" fill="none" xmlns="http://www.w3.org/2000/svg">
<path fill-rule="evenodd" clip-rule="evenodd" d="M8.08239 8.48268C9.25573 7.24668 9.67039 6.90002 10.1704 6.73868C10.5164 6.64801 10.8793 6.64298 11.2277 6.72402C11.6864 6.85735 11.8077 6.95868 13.3117 8.45735C14.6331 9.77335 14.7651 9.91602 14.8917 10.1734C15.1339 10.625 15.1718 11.1587 14.9957 11.64C14.8624 12.0067 14.6731 12.2494 13.8717 13.0534L13.3491 13.5774C13.2118 13.7168 13.1795 13.9287 13.2691 14.1027C14.4303 16.0838 16.0778 17.7359 18.0557 18.9027C18.2834 19.0246 18.5638 18.9852 18.7491 18.8054L19.2517 18.3107C19.5624 17.9922 19.8914 17.6922 20.2371 17.412C20.7799 17.0787 21.4564 17.049 22.0264 17.3334C22.3051 17.4667 22.3971 17.5494 23.7597 18.9094C25.1651 20.3107 25.2051 20.3547 25.3597 20.676C25.6508 21.2079 25.6477 21.8522 25.3517 22.3814C25.2011 22.68 25.1091 22.788 24.3184 23.596C23.8411 24.084 23.3917 24.5294 23.3197 24.5947C22.6675 25.1347 21.8306 25.3997 20.9864 25.3334C19.4418 25.1926 17.9467 24.7152 16.6064 23.9347C13.6372 22.3616 11.1096 20.0696 9.25439 17.268C8.85032 16.6817 8.49108 16.0657 8.17973 15.4254C7.3445 13.9938 6.91319 12.3626 6.93173 10.7054C6.99549 9.83837 7.41127 9.03524 8.08239 8.48268Z" stroke="#111111" stroke-width="1.5" stroke-linecap="round" stroke-linejoin="round"/>
</svg>
