<svg width="33" height="33" viewBox="0 0 33 33" fill="none" xmlns="http://www.w3.org/2000/svg">
<path fill-rule="evenodd" clip-rule="evenodd" d="M7.11084 14.5889V20.3662C7.11648 21.5981 7.61137 22.7773 8.48658 23.6442C9.36179 24.5112 10.5456 24.9949 11.7775 24.9889H21.1108C22.3427 24.9949 23.5266 24.5112 24.4018 23.6442C25.277 22.7773 25.7719 21.5981 25.7775 20.3662V14.5889C25.7719 13.357 25.277 12.1778 24.4018 11.3108C23.5266 10.4439 22.3427 9.96017 21.1108 9.96619C20.4638 9.88037 19.911 9.45752 19.6588 8.85553C19.2454 8.11265 18.461 7.65305 17.6108 7.65553H15.2775C14.4273 7.65305 13.6429 8.11265 13.2295 8.85553C12.9773 9.45752 12.4245 9.88037 11.7775 9.96619C10.5456 9.96017 9.36179 10.4439 8.48658 11.3108C7.61137 12.1778 7.11648 13.357 7.11084 14.5889Z" stroke="#111111" stroke-width="1.5" stroke-linecap="round" stroke-linejoin="round"/>
<path fill-rule="evenodd" clip-rule="evenodd" d="M16.4443 20.3662C14.8522 20.3507 13.5726 19.0501 13.5831 17.4579C13.5936 15.8657 14.8902 14.5821 16.4825 14.5877C18.0747 14.5932 19.3623 15.8859 19.3617 17.4782C19.3578 18.248 19.0483 18.9848 18.5011 19.5264C17.954 20.068 17.2142 20.3701 16.4443 20.3662Z" stroke="#111111" stroke-width="1.5" stroke-linecap="round" stroke-linejoin="round"/>
</svg>
