<svg width="43" height="41" viewBox="0 0 43 41" fill="none" xmlns="http://www.w3.org/2000/svg">
<circle cx="19.5891" cy="19.3832" r="18.362" fill="white" stroke="#B3B3B3"/>
<path fill-rule="evenodd" clip-rule="evenodd" d="M12.0292 17.4392V22.1189C12.0337 23.1167 12.4346 24.0719 13.1435 24.7741C13.8524 25.4763 14.8113 25.8681 15.8092 25.8633H23.3692C24.367 25.8681 25.3259 25.4763 26.0348 24.7741C26.7437 24.0719 27.1446 23.1167 27.1492 22.1189V17.4392C27.1446 16.4414 26.7437 15.4863 26.0348 14.784C25.3259 14.0818 24.367 13.69 23.3692 13.6949C22.8451 13.6254 22.3973 13.2829 22.1931 12.7953C21.8582 12.1935 21.2228 11.8212 20.5342 11.8233H18.6442C17.9555 11.8212 17.3202 12.1935 16.9853 12.7953C16.781 13.2829 16.3333 13.6254 15.8092 13.6949C14.8113 13.69 13.8524 14.0818 13.1435 14.784C12.4346 15.4863 12.0337 16.4414 12.0292 17.4392Z" fill="#B3B3B3" stroke="#B3B3B3" stroke-linecap="round" stroke-linejoin="round"/>
<path fill-rule="evenodd" clip-rule="evenodd" d="M19.5892 22.1188C18.2995 22.1063 17.263 21.0528 17.2715 19.7631C17.28 18.4735 18.3303 17.4337 19.6201 17.4382C20.9098 17.4428 21.9527 18.4898 21.9522 19.7796C21.9491 20.4031 21.6983 20.9999 21.2552 21.4386C20.812 21.8773 20.2127 22.122 19.5892 22.1188Z" stroke="white" stroke-width="1.5" stroke-linecap="round" stroke-linejoin="round"/>
<circle cx="33.8557" cy="31.3543" r="8.57578" fill="white" stroke="#B3B3B3"/>
<path d="M30.1561 30.8405C29.8723 30.8405 29.6423 31.0706 29.6423 31.3543C29.6423 31.6381 29.8723 31.8681 30.1561 31.8681V30.8405ZM33.8554 31.8681C34.1392 31.8681 34.3692 31.6381 34.3692 31.3543C34.3692 31.0706 34.1392 30.8405 33.8554 30.8405V31.8681ZM33.8557 30.8405C33.5719 30.8405 33.3419 31.0706 33.3419 31.3543C33.3419 31.6381 33.5719 31.8681 33.8557 31.8681V30.8405ZM37.555 31.8681C37.8388 31.8681 38.0688 31.6381 38.0688 31.3543C38.0688 31.0706 37.8388 30.8405 37.555 30.8405V31.8681ZM34.3694 31.3542C34.3694 31.0704 34.1394 30.8404 33.8556 30.8404C33.5719 30.8404 33.3419 31.0704 33.3419 31.3542H34.3694ZM33.3419 35.0535C33.3419 35.3373 33.5719 35.5673 33.8556 35.5673C34.1394 35.5673 34.3694 35.3373 34.3694 35.0535H33.3419ZM33.3419 31.3543C33.3419 31.638 33.5719 31.8681 33.8556 31.8681C34.1394 31.8681 34.3694 31.638 34.3694 31.3543H33.3419ZM34.3694 27.6549C34.3694 27.3712 34.1394 27.1412 33.8556 27.1412C33.5719 27.1412 33.3419 27.3712 33.3419 27.6549H34.3694ZM30.1561 31.8681H33.8554V30.8405H30.1561V31.8681ZM33.8557 31.8681H37.555V30.8405H33.8557V31.8681ZM33.8556 31.3542C33.8556 31.3542 33.3419 31.3542 33.3419 31.3542C33.3419 31.3542 33.3419 31.3542 33.3419 31.3542C33.3419 31.3542 33.3419 31.3542 33.3419 31.3542C33.3419 31.3542 33.3419 31.3542 33.3419 31.3542C33.3419 31.3542 33.3419 31.3542 33.3419 31.3542C33.3419 31.3542 33.3419 31.3542 33.3419 31.3542C33.3419 31.3542 33.3419 31.3542 33.3419 31.3542C33.3419 31.3542 33.3419 31.3542 33.3419 31.3542C33.3419 31.3542 33.3419 31.3542 33.3419 31.3542C33.3419 31.3542 33.3419 31.3542 33.3419 31.3542C33.3419 31.3542 33.3419 31.3542 33.3419 31.3542C33.3419 31.3542 33.3419 31.3543 33.3419 31.3543C33.3419 31.3543 33.3419 31.3543 33.3419 31.3543C33.3419 31.3543 33.3419 31.3543 33.3419 31.3543C33.3419 31.3543 33.3419 31.3543 33.3419 31.3543C33.3419 31.3543 33.3419 31.3543 33.3419 31.3543C33.3419 31.3543 33.3419 31.3543 33.3419 31.3544C33.3419 31.3544 33.3419 31.3544 33.3419 31.3544C33.3419 31.3544 33.3419 31.3544 33.3419 31.3544C33.3419 31.3544 33.3419 31.3544 33.3419 31.3545C33.3419 31.3545 33.3419 31.3545 33.3419 31.3545C33.3419 31.3545 33.3419 31.3545 33.3419 31.3545C33.3419 31.3545 33.3419 31.3546 33.3419 31.3546C33.3419 31.3546 33.3419 31.3546 33.3419 31.3546C33.3419 31.3546 33.3419 31.3547 33.3419 31.3547C33.3419 31.3547 33.3419 31.3547 33.3419 31.3547C33.3419 31.3548 33.3419 31.3548 33.3419 31.3548C33.3419 31.3548 33.3419 31.3548 33.3419 31.3549C33.3419 31.3549 33.3419 31.3549 33.3419 31.3549C33.3419 31.355 33.3419 31.355 33.3419 31.355C33.3419 31.355 33.3419 31.3551 33.3419 31.3551C33.3419 31.3551 33.3419 31.3552 33.3419 31.3552C33.3419 31.3552 33.3419 31.3552 33.3419 31.3553C33.3419 31.3553 33.3419 31.3553 33.3419 31.3554C33.3419 31.3554 33.3419 31.3554 33.3419 31.3555C33.3419 31.3555 33.3419 31.3556 33.3419 31.3556C33.3419 31.3556 33.3419 31.3557 33.3419 31.3557C33.3419 31.3557 33.3419 31.3558 33.3419 31.3558C33.3419 31.3559 33.3419 31.3559 33.3419 31.356C33.3419 31.356 33.3419 31.356 33.3419 31.3561C33.3419 31.3561 33.3419 31.3562 33.3419 31.3562C33.3419 31.3563 33.3419 31.3563 33.3419 31.3564C33.3419 31.3564 33.3419 31.3565 33.3419 31.3565C33.3419 31.3566 33.3419 31.3567 33.3419 31.3567C33.3419 31.3568 33.3419 31.3568 33.3419 31.3569C33.3419 31.3569 33.3419 31.357 33.3419 31.3571C33.3419 31.3571 33.3419 31.3572 33.3419 31.3572C33.3419 31.3573 33.3419 31.3574 33.3419 31.3574C33.3419 31.3575 33.3419 31.3576 33.3419 31.3576C33.3419 31.3577 33.3419 31.3578 33.3419 31.3579C33.3419 31.3579 33.3419 31.358 33.3419 31.3581C33.3419 31.3581 33.3419 31.3582 33.3419 31.3583C33.3419 31.3584 33.3419 31.3585 33.3419 31.3585C33.3419 31.3586 33.3419 31.3587 33.3419 31.3588C33.3419 31.3589 33.3419 31.3589 33.3419 31.359C33.3419 31.3591 33.3419 31.3592 33.3419 31.3593C33.3419 31.3594 33.3419 31.3595 33.3419 31.3596C33.3419 31.3597 33.3419 31.3598 33.3419 31.3599C33.3419 31.36 33.3419 31.3601 33.3419 31.3601C33.3419 31.3602 33.3419 31.3603 33.3419 31.3605C33.3419 31.3606 33.3419 31.3607 33.3419 31.3608C33.3419 31.3609 33.3419 31.361 33.3419 31.3611C33.3419 31.3612 33.3419 31.3613 33.3419 31.3614C33.3419 31.3615 33.3419 31.3616 33.3419 31.3618C33.3419 31.3619 33.3419 31.362 33.3419 31.3621C33.3419 31.3622 33.3419 31.3624 33.3419 31.3625C33.3419 31.3626 33.3419 31.3627 33.3419 31.3629C33.3419 31.363 33.3419 31.3631 33.3419 31.3633C33.3419 31.3634 33.3419 31.3635 33.3419 31.3636C33.3419 31.3638 33.3419 31.3639 33.3419 31.3641C33.3419 31.3642 33.3419 31.3643 33.3419 31.3645C33.3419 31.3646 33.3419 31.3648 33.3419 31.3649C33.3419 31.3651 33.3419 31.3652 33.3419 31.3654C33.3419 31.3655 33.3419 31.3657 33.3419 31.3658C33.3419 31.366 33.3419 31.3661 33.3419 31.3663C33.3419 31.3665 33.3419 31.3666 33.3419 31.3668C33.3419 31.3669 33.3419 31.3671 33.3419 31.3673C33.3419 31.3674 33.3419 31.3676 33.3419 31.3678C33.3419 31.368 33.3419 31.3681 33.3419 31.3683C33.3419 31.3685 33.3419 31.3687 33.3419 31.3688C33.3419 31.369 33.3419 31.3692 33.3419 31.3694C33.3419 31.3696 33.3419 31.3698 33.3419 31.37C33.3419 31.3701 33.3419 31.3703 33.3419 31.3705C33.3419 31.3707 33.3419 31.3709 33.3419 31.3711C33.3419 31.3713 33.3419 31.3715 33.3419 31.3717C33.3419 31.3719 33.3419 31.3721 33.3419 31.3723C33.3419 31.3726 33.3419 31.3728 33.3419 31.373C33.3419 31.3732 33.3419 31.3734 33.3419 31.3736C33.3419 31.3738 33.3419 31.3741 33.3419 31.3743C33.3419 31.3745 33.3419 31.3747 33.3419 31.375C33.3419 31.3752 33.3419 31.3754 33.3419 31.3757C33.3419 31.3759 33.3419 31.3761 33.3419 31.3764C33.3419 31.3766 33.3419 31.3768 33.3419 31.3771C33.3419 31.3773 33.3419 31.3776 33.3419 31.3778C33.3419 31.3781 33.3419 31.3783 33.3419 31.3786C33.3419 31.3788 33.3419 31.3791 33.3419 31.3794C33.3419 31.3796 33.3419 31.3799 33.3419 31.3801C33.3419 31.3804 33.3419 31.3807 33.3419 31.3809C33.3419 31.3812 33.3419 31.3815 33.3419 31.3818C33.3419 31.382 33.3419 31.3823 33.3419 31.3826C33.3419 31.3829 33.3419 31.3832 33.3419 31.3834C33.3419 31.3837 33.3419 31.384 33.3419 31.3843C33.3419 31.3846 33.3419 31.3849 33.3419 31.3852C33.3419 31.3855 33.3419 31.3858 33.3419 31.3861C33.3419 31.3864 33.3419 31.3867 33.3419 31.387C33.3419 31.3873 33.3419 31.3876 33.3419 31.388C33.3419 31.3883 33.3419 31.3886 33.3419 31.3889C33.3419 31.3892 33.3419 31.3896 33.3419 31.3899C33.3419 31.3902 33.3419 31.3905 33.3419 31.3909C33.3419 31.3912 33.3419 31.3916 33.3419 31.3919C33.3419 31.3922 33.3419 31.3926 33.3419 31.3929C33.3419 31.3933 33.3419 31.3936 33.3419 31.394C33.3419 31.3943 33.3419 31.3947 33.3419 31.395C33.3419 31.3954 33.3419 31.3957 33.3419 31.3961C33.3419 31.3965 33.3419 31.3968 33.3419 31.3972C33.3419 31.3976 33.3419 31.398 33.3419 31.3983C33.3419 31.3987 33.3419 31.3991 33.3419 31.3995C33.3419 31.3999 33.3419 31.4003 33.3419 31.4006C33.3419 31.401 33.3419 31.4014 33.3419 31.4018C33.3419 31.4022 33.3419 31.4026 33.3419 31.403C33.3419 31.4034 33.3419 31.4038 33.3419 31.4042C33.3419 31.4047 33.3419 31.4051 33.3419 31.4055C33.3419 31.4059 33.3419 31.4063 33.3419 31.4067C33.3419 31.4072 33.3419 31.4076 33.3419 31.408C33.3419 31.4085 33.3419 31.4089 33.3419 31.4093C33.3419 31.4098 33.3419 31.4102 33.3419 31.4107C33.3419 31.4111 33.3419 31.4115 33.3419 31.412C33.3419 31.4124 33.3419 31.4129 33.3419 31.4134C33.3419 31.4138 33.3419 31.4143 33.3419 31.4147C33.3419 31.4152 33.3419 31.4157 33.3419 31.4162C33.3419 31.4166 33.3419 31.4171 33.3419 31.4176C33.3419 31.4181 33.3419 31.4186 33.3419 31.419C33.3419 31.4195 33.3419 31.42 33.3419 31.4205C33.3419 31.421 33.3419 31.4215 33.3419 31.422C33.3419 31.4225 33.3419 31.423 33.3419 31.4235C33.3419 31.424 33.3419 31.4246 33.3419 31.4251C33.3419 31.4256 33.3419 31.4261 33.3419 31.4266C33.3419 31.4272 33.3419 31.4277 33.3419 31.4282C33.3419 31.4287 33.3419 31.4293 33.3419 31.4298C33.3419 31.4304 33.3419 31.4309 33.3419 31.4315C33.3419 31.432 33.3419 31.4326 33.3419 31.4331C33.3419 31.4337 33.3419 31.4342 33.3419 31.4348C33.3419 31.4354 33.3419 31.4359 33.3419 31.4365C33.3419 31.4371 33.3419 31.4376 33.3419 31.4382C33.3419 31.4388 33.3419 31.4394 33.3419 31.44C33.3419 31.4406 33.3419 31.4412 33.3419 31.4417C33.3419 31.4423 33.3419 31.4429 33.3419 31.4435C33.3419 31.4442 33.3419 31.4448 33.3419 31.4454C33.3419 31.446 33.3419 31.4466 33.3419 31.4472C33.3419 31.4478 33.3419 31.4485 33.3419 31.4491C33.3419 31.4497 33.3419 31.4504 33.3419 31.451C33.3419 31.4516 33.3419 31.4523 33.3419 31.4529C33.3419 31.4536 33.3419 31.4542 33.3419 31.4549C33.3419 31.4555 33.3419 31.4562 33.3419 31.4568C33.3419 31.4575 33.3419 31.4582 33.3419 31.4588C33.3419 31.4595 33.3419 31.4602 33.3419 31.4609C33.3419 31.4615 33.3419 31.4622 33.3419 31.4629C33.3419 31.4636 33.3419 31.4643 33.3419 31.465C33.3419 31.4657 33.3419 31.4664 33.3419 31.4671C33.3419 31.4678 33.3419 31.4685 33.3419 31.4692C33.3419 31.4699 33.3419 31.4707 33.3419 31.4714C33.3419 31.4721 33.3419 31.4728 33.3419 31.4736C33.3419 31.4743 33.3419 31.475 33.3419 31.4758C33.3419 31.4765 33.3419 31.4773 33.3419 31.478C33.3419 31.4788 33.3419 31.4795 33.3419 31.4803C33.3419 31.481 33.3419 31.4818 33.3419 31.4826C33.3419 31.4833 33.3419 31.4841 33.3419 31.4849C33.3419 31.4857 33.3419 31.4864 33.3419 31.4872C33.3419 31.488 33.3419 31.4888 33.3419 31.4896C33.3419 31.4904 33.3419 31.4912 33.3419 31.492C33.3419 31.4928 33.3419 31.4936 33.3419 31.4944C33.3419 31.4953 33.3419 31.4961 33.3419 31.4969C33.3419 31.4977 33.3419 31.4986 33.3419 31.4994C33.3419 31.5002 33.3419 31.5011 33.3419 31.5019C33.3419 31.5028 33.3419 31.5036 33.3419 31.5045C33.3419 31.5053 33.3419 31.5062 33.3419 31.507C33.3419 31.5079 33.3419 31.5088 33.3419 31.5096C33.3419 31.5105 33.3419 31.5114 33.3419 31.5123C33.3419 31.5132 33.3419 31.514 33.3419 31.5149C33.3419 31.5158 33.3419 31.5167 33.3419 31.5176C33.3419 31.5185 33.3419 31.5194 33.3419 31.5204C33.3419 31.5213 33.3419 31.5222 33.3419 31.5231C33.3419 31.524 33.3419 31.525 33.3419 31.5259C33.3419 31.5268 33.3419 31.5278 33.3419 31.5287C33.3419 31.5297 33.3419 31.5306 33.3419 31.5316C33.3419 31.5325 33.3419 31.5335 33.3419 31.5344C33.3419 31.5354 33.3419 31.5364 33.3419 31.5373C33.3419 31.5383 33.3419 31.5393 33.3419 31.5403C33.3419 31.5413 33.3419 31.5422 33.3419 31.5432C33.3419 31.5442 33.3419 31.5452 33.3419 31.5462C33.3419 31.5473 33.3419 31.5483 33.3419 31.5493C33.3419 31.5503 33.3419 31.5513 33.3419 31.5523C33.3419 31.5534 33.3419 31.5544 33.3419 31.5554C33.3419 31.5565 33.3419 31.5575 33.3419 31.5586C33.3419 31.5596 33.3419 31.5607 33.3419 31.5617C33.3419 31.5628 33.3419 31.5638 33.3419 31.5649C33.3419 31.566 33.3419 31.5671 33.3419 31.5681C33.3419 31.5692 33.3419 31.5703 33.3419 31.5714C33.3419 31.5725 33.3419 31.5736 33.3419 31.5747C33.3419 31.5758 33.3419 31.5769 33.3419 31.578C33.3419 31.5791 33.3419 31.5802 33.3419 31.5814C33.3419 31.5825 33.3419 31.5836 33.3419 31.5848C33.3419 31.5859 33.3419 31.587 33.3419 31.5882C33.3419 31.5893 33.3419 31.5905 33.3419 31.5916C33.3419 31.5928 33.3419 31.594 33.3419 31.5951C33.3419 31.5963 33.3419 31.5975 33.3419 31.5987C33.3419 31.5998 33.3419 31.601 33.3419 31.6022C33.3419 31.6034 33.3419 31.6046 33.3419 31.6058C33.3419 31.607 33.3419 31.6082 33.3419 31.6094C33.3419 31.6107 33.3419 31.6119 33.3419 31.6131C33.3419 31.6143 33.3419 31.6156 33.3419 31.6168C33.3419 31.618 33.3419 31.6193 33.3419 31.6205C33.3419 31.6218 33.3419 31.6231 33.3419 31.6243C33.3419 31.6256 33.3419 31.6268 33.3419 31.6281C33.3419 31.6294 33.3419 31.6307 33.3419 31.632C33.3419 31.6332 33.3419 31.6345 33.3419 31.6358C33.3419 31.6371 33.3419 31.6384 33.3419 31.6397C33.3419 31.6411 33.3419 31.6424 33.3419 31.6437C33.3419 31.645 33.3419 31.6463 33.3419 31.6477C33.3419 31.649 33.3419 31.6504 33.3419 31.6517C33.3419 31.653 33.3419 31.6544 33.3419 31.6558C33.3419 31.6571 33.3419 31.6585 33.3419 31.6598C33.3419 31.6612 33.3419 31.6626 33.3419 31.664C33.3419 31.6654 33.3419 31.6667 33.3419 31.6681C33.3419 31.6695 33.3419 31.6709 33.3419 31.6723C33.3419 31.6738 33.3419 31.6752 33.3419 31.6766C33.3419 31.678 33.3419 31.6794 33.3419 31.6809C33.3419 31.6823 33.3419 31.6837 33.3419 31.6852C33.3419 31.6866 33.3419 31.6881 33.3419 31.6895C33.3419 31.691 33.3419 31.6925 33.3419 31.6939C33.3419 31.6954 33.3419 31.6969 33.3419 31.6984C33.3419 31.6999 33.3419 31.7013 33.3419 31.7028C33.3419 31.7043 33.3419 31.7058 33.3419 31.7073C33.3419 31.7089 33.3419 31.7104 33.3419 31.7119C33.3419 31.7134 33.3419 31.7149 33.3419 31.7165C33.3419 31.718 33.3419 31.7196 33.3419 31.7211C33.3419 31.7227 33.3419 31.7242 33.3419 31.7258C33.3419 31.7273 33.3419 31.7289 33.3419 31.7305C33.3419 31.732 33.3419 31.7336 33.3419 31.7352C33.3419 31.7368 33.3419 31.7384 33.3419 31.74C33.3419 31.7416 33.3419 31.7432 33.3419 31.7448C33.3419 31.7464 33.3419 31.7481 33.3419 31.7497C33.3419 31.7513 33.3419 31.7529 33.3419 31.7546C33.3419 31.7562 33.3419 31.7579 33.3419 31.7595C33.3419 31.7612 33.3419 31.7628 33.3419 31.7645C33.3419 31.7662 33.3419 31.7679 33.3419 31.7695C33.3419 31.7712 33.3419 31.7729 33.3419 31.7746C33.3419 31.7763 33.3419 31.778 33.3419 31.7797C33.3419 31.7814 33.3419 31.7831 33.3419 31.7849C33.3419 31.7866 33.3419 31.7883 33.3419 31.79C33.3419 31.7918 33.3419 31.7935 33.3419 31.7953C33.3419 31.797 33.3419 31.7988 33.3419 31.8005C33.3419 31.8023 33.3419 31.8041 33.3419 31.8059C33.3419 31.8076 33.3419 31.8094 33.3419 31.8112C33.3419 31.813 33.3419 31.8148 33.3419 31.8166C33.3419 31.8184 33.3419 31.8202 33.3419 31.8221C33.3419 31.8239 33.3419 31.8257 33.3419 31.8275C33.3419 31.8294 33.3419 31.8312 33.3419 31.8331C33.3419 31.8349 33.3419 31.8368 33.3419 31.8386C33.3419 31.8405 33.3419 31.8424 33.3419 31.8442C33.3419 31.8461 33.3419 31.848 33.3419 31.8499C33.3419 31.8518 33.3419 31.8537 33.3419 31.8556C33.3419 31.8575 33.3419 31.8594 33.3419 31.8613C33.3419 31.8633 33.3419 31.8652 33.3419 31.8671C33.3419 31.8691 33.3419 31.871 33.3419 31.8729C33.3419 31.8749 33.3419 31.8769 33.3419 31.8788C33.3419 31.8808 33.3419 31.8828 33.3419 31.8847C33.3419 31.8867 33.3419 31.8887 33.3419 31.8907C33.3419 31.8927 33.3419 31.8947 33.3419 31.8967C33.3419 31.8987 33.3419 31.9007 33.3419 31.9028C33.3419 31.9048 33.3419 31.9068 33.3419 31.9088C33.3419 31.9109 33.3419 31.9129 33.3419 31.915C33.3419 31.917 33.3419 31.9191 33.3419 31.9212C33.3419 31.9232 33.3419 31.9253 33.3419 31.9274C33.3419 31.9295 33.3419 31.9316 33.3419 31.9337C33.3419 31.9358 33.3419 31.9379 33.3419 31.94C33.3419 31.9421 33.3419 31.9442 33.3419 31.9464C33.3419 31.9485 33.3419 31.9506 33.3419 31.9528C33.3419 31.9549 33.3419 31.9571 33.3419 31.9592C33.3419 31.9614 33.3419 31.9636 33.3419 31.9657C33.3419 31.9679 33.3419 31.9701 33.3419 31.9723C33.3419 31.9745 33.3419 31.9767 33.3419 31.9789C33.3419 31.9811 33.3419 31.9833 33.3419 31.9855C33.3419 31.9878 33.3419 31.99 33.3419 31.9922C33.3419 31.9945 33.3419 31.9967 33.3419 31.999C33.3419 32.0012 33.3419 32.0035 33.3419 32.0058C33.3419 32.008 33.3419 32.0103 33.3419 32.0126C33.3419 32.0149 33.3419 32.0172 33.3419 32.0195C33.3419 32.0218 33.3419 32.0241 33.3419 32.0264C33.3419 32.0287 33.3419 32.0311 33.3419 32.0334C33.3419 32.0357 33.3419 32.0381 33.3419 32.0404C33.3419 32.0428 33.3419 32.0451 33.3419 32.0475C33.3419 32.0499 33.3419 32.0522 33.3419 32.0546C33.3419 32.057 33.3419 32.0594 33.3419 32.0618C33.3419 32.0642 33.3419 32.0666 33.3419 32.069C33.3419 32.0714 33.3419 32.0738 33.3419 32.0763C33.3419 32.0787 33.3419 32.0811 33.3419 32.0836C33.3419 32.086 33.3419 32.0885 33.3419 32.091C33.3419 32.0934 33.3419 32.0959 33.3419 32.0984C33.3419 32.1009 33.3419 32.1033 33.3419 32.1058C33.3419 32.1083 33.3419 32.1108 33.3419 32.1134C33.3419 32.1159 33.3419 32.1184 33.3419 32.1209C33.3419 32.1235 33.3419 32.126 33.3419 32.1285C33.3419 32.1311 33.3419 32.1336 33.3419 32.1362C33.3419 32.1388 33.3419 32.1413 33.3419 32.1439C33.3419 32.1465 33.3419 32.1491 33.3419 32.1517C33.3419 32.1543 33.3419 32.1569 33.3419 32.1595C33.3419 32.1621 33.3419 32.1647 33.3419 32.1674C33.3419 32.17 33.3419 32.1726 33.3419 32.1753C33.3419 32.1779 33.3419 32.1806 33.3419 32.1833C33.3419 32.1859 33.3419 32.1886 33.3419 32.1913C33.3419 32.194 33.3419 32.1967 33.3419 32.1994C33.3419 32.2021 33.3419 32.2048 33.3419 32.2075C33.3419 32.2102 33.3419 32.2129 33.3419 32.2157C33.3419 32.2184 33.3419 32.2212 33.3419 32.2239C33.3419 32.2267 33.3419 32.2294 33.3419 32.2322C33.3419 32.235 33.3419 32.2377 33.3419 32.2405C33.3419 32.2433 33.3419 32.2461 33.3419 32.2489C33.3419 32.2517 33.3419 32.2545 33.3419 32.2573C33.3419 32.2602 33.3419 32.263 33.3419 32.2658C33.3419 32.2687 33.3419 32.2715 33.3419 32.2744C33.3419 32.2772 33.3419 32.2801 33.3419 32.283C33.3419 32.2859 33.3419 32.2887 33.3419 32.2916C33.3419 32.2945 33.3419 32.2974 33.3419 32.3003C33.3419 32.3033 33.3419 32.3062 33.3419 32.3091C33.3419 32.312 33.3419 32.315 33.3419 32.3179C33.3419 32.3209 33.3419 32.3238 33.3419 32.3268C33.3419 32.3298 33.3419 32.3327 33.3419 32.3357C33.3419 32.3387 33.3419 32.3417 33.3419 32.3447C33.3419 32.3477 33.3419 32.3507 33.3419 32.3537C33.3419 32.3567 33.3419 32.3598 33.3419 32.3628C33.3419 32.3658 33.3419 32.3689 33.3419 32.372C33.3419 32.375 33.3419 32.3781 33.3419 32.3811C33.3419 32.3842 33.3419 32.3873 33.3419 32.3904C33.3419 32.3935 33.3419 32.3966 33.3419 32.3997C33.3419 32.4028 33.3419 32.4059 33.3419 32.4091C33.3419 32.4122 33.3419 32.4153 33.3419 32.4185C33.3419 32.4216 33.3419 32.4248 33.3419 32.428C33.3419 32.4311 33.3419 32.4343 33.3419 32.4375C33.3419 32.4407 33.3419 32.4439 33.3419 32.4471C33.3419 32.4503 33.3419 32.4535 33.3419 32.4567C33.3419 32.4599 33.3419 32.4632 33.3419 32.4664C33.3419 32.4697 33.3419 32.4729 33.3419 32.4762C33.3419 32.4794 33.3419 32.4827 33.3419 32.486C33.3419 32.4893 33.3419 32.4926 33.3419 32.4959C33.3419 32.4992 33.3419 32.5025 33.3419 32.5058C33.3419 32.5091 33.3419 32.5124 33.3419 32.5158C33.3419 32.5191 33.3419 32.5225 33.3419 32.5258C33.3419 32.5292 33.3419 32.5325 33.3419 32.5359C33.3419 32.5393 33.3419 32.5427 33.3419 32.5461C33.3419 32.5495 33.3419 32.5529 33.3419 32.5563C33.3419 32.5597 33.3419 32.5631 33.3419 32.5666C33.3419 32.57 33.3419 32.5734 33.3419 32.5769C33.3419 32.5804 33.3419 32.5838 33.3419 32.5873C33.3419 32.5908 33.3419 32.5942 33.3419 32.5977C33.3419 32.6012 33.3419 32.6047 33.3419 32.6082C33.3419 32.6118 33.3419 32.6153 33.3419 32.6188C33.3419 32.6224 33.3419 32.6259 33.3419 32.6294C33.3419 32.633 33.3419 32.6366 33.3419 32.6401C33.3419 32.6437 33.3419 32.6473 33.3419 32.6509C33.3419 32.6545 33.3419 32.6581 33.3419 32.6617C33.3419 32.6653 33.3419 32.6689 33.3419 32.6725C33.3419 32.6762 33.3419 32.6798 33.3419 32.6835C33.3419 32.6871 33.3419 32.6908 33.3419 32.6945C33.3419 32.6981 33.3419 32.7018 33.3419 32.7055C33.3419 32.7092 33.3419 32.7129 33.3419 32.7166C33.3419 32.7203 33.3419 32.724 33.3419 32.7278C33.3419 32.7315 33.3419 32.7353 33.3419 32.739C33.3419 32.7428 33.3419 32.7465 33.3419 32.7503C33.3419 32.7541 33.3419 32.7579 33.3419 32.7616C33.3419 32.7654 33.3419 32.7692 33.3419 32.7731C33.3419 32.7769 33.3419 32.7807 33.3419 32.7845C33.3419 32.7884 33.3419 32.7922 33.3419 32.7961C33.3419 32.7999 33.3419 32.8038 33.3419 32.8077C33.3419 32.8115 33.3419 32.8154 33.3419 32.8193C33.3419 32.8232 33.3419 32.8271 33.3419 32.831C33.3419 32.835 33.3419 32.8389 33.3419 32.8428C33.3419 32.8468 33.3419 32.8507 33.3419 32.8547C33.3419 32.8586 33.3419 32.8626 33.3419 32.8666C33.3419 32.8706 33.3419 32.8746 33.3419 32.8786C33.3419 32.8826 33.3419 32.8866 33.3419 32.8906C33.3419 32.8946 33.3419 32.8986 33.3419 32.9027C33.3419 32.9067 33.3419 32.9108 33.3419 32.9148C33.3419 32.9189 33.3419 32.923 33.3419 32.9271C33.3419 32.9312 33.3419 32.9353 33.3419 32.9394C33.3419 32.9435 33.3419 32.9476 33.3419 32.9517C33.3419 32.9558 33.3419 32.96 33.3419 32.9641C33.3419 32.9683 33.3419 32.9724 33.3419 32.9766C33.3419 32.9808 33.3419 32.985 33.3419 32.9891C33.3419 32.9933 33.3419 32.9975 33.3419 33.0018C33.3419 33.006 33.3419 33.0102 33.3419 33.0144C33.3419 33.0187 33.3419 33.0229 33.3419 33.0272C33.3419 33.0314 33.3419 33.0357 33.3419 33.04C33.3419 33.0443 33.3419 33.0485 33.3419 33.0528C33.3419 33.0571 33.3419 33.0615 33.3419 33.0658C33.3419 33.0701 33.3419 33.0744 33.3419 33.0788C33.3419 33.0831 33.3419 33.0875 33.3419 33.0918C33.3419 33.0962 33.3419 33.1006 33.3419 33.105C33.3419 33.1094 33.3419 33.1138 33.3419 33.1182C33.3419 33.1226 33.3419 33.127 33.3419 33.1314C33.3419 33.1359 33.3419 33.1403 33.3419 33.1448C33.3419 33.1492 33.3419 33.1537 33.3419 33.1582C33.3419 33.1626 33.3419 33.1671 33.3419 33.1716C33.3419 33.1761 33.3419 33.1806 33.3419 33.1851C33.3419 33.1897 33.3419 33.1942 33.3419 33.1987C33.3419 33.2033 33.3419 33.2078 33.3419 33.2124C33.3419 33.217 33.3419 33.2215 33.3419 33.2261C33.3419 33.2307 33.3419 33.2353 33.3419 33.2399C33.3419 33.2445 33.3419 33.2492 33.3419 33.2538C33.3419 33.2584 33.3419 33.2631 33.3419 33.2677C33.3419 33.2724 33.3419 33.2771 33.3419 33.2817C33.3419 33.2864 33.3419 33.2911 33.3419 33.2958C33.3419 33.3005 33.3419 33.3052 33.3419 33.3099C33.3419 33.3147 33.3419 33.3194 33.3419 33.3241C33.3419 33.3289 33.3419 33.3337 33.3419 33.3384C33.3419 33.3432 33.3419 33.348 33.3419 33.3528C33.3419 33.3576 33.3419 33.3624 33.3419 33.3672C33.3419 33.372 33.3419 33.3768 33.3419 33.3817C33.3419 33.3865 33.3419 33.3914 33.3419 33.3962C33.3419 33.4011 33.3419 33.4059 33.3419 33.4108C33.3419 33.4157 33.3419 33.4206 33.3419 33.4255C33.3419 33.4304 33.3419 33.4354 33.3419 33.4403C33.3419 33.4452 33.3419 33.4502 33.3419 33.4551C33.3419 33.4601 33.3419 33.465 33.3419 33.47C33.3419 33.475 33.3419 33.48 33.3419 33.485C33.3419 33.49 33.3419 33.495 33.3419 33.5C33.3419 33.5051 33.3419 33.5101 33.3419 33.5151C33.3419 33.5202 33.3419 33.5252 33.3419 33.5303C33.3419 33.5354 33.3419 33.5405 33.3419 33.5456C33.3419 33.5507 33.3419 33.5558 33.3419 33.5609C33.3419 33.566 33.3419 33.5711 33.3419 33.5763C33.3419 33.5814 33.3419 33.5866 33.3419 33.5918C33.3419 33.5969 33.3419 33.6021 33.3419 33.6073C33.3419 33.6125 33.3419 33.6177 33.3419 33.6229C33.3419 33.6281 33.3419 33.6334 33.3419 33.6386C33.3419 33.6438 33.3419 33.6491 33.3419 33.6543C33.3419 33.6596 33.3419 33.6649 33.3419 33.6702C33.3419 33.6755 33.3419 33.6808 33.3419 33.6861C33.3419 33.6914 33.3419 33.6967 33.3419 33.702C33.3419 33.7074 33.3419 33.7127 33.3419 33.7181C33.3419 33.7234 33.3419 33.7288 33.3419 33.7342C33.3419 33.7396 33.3419 33.745 33.3419 33.7504C33.3419 33.7558 33.3419 33.7612 33.3419 33.7667C33.3419 33.7721 33.3419 33.7775 33.3419 33.783C33.3419 33.7885 33.3419 33.7939 33.3419 33.7994C33.3419 33.8049 33.3419 33.8104 33.3419 33.8159C33.3419 33.8214 33.3419 33.8269 33.3419 33.8324C33.3419 33.838 33.3419 33.8435 33.3419 33.8491C33.3419 33.8546 33.3419 33.8602 33.3419 33.8658C33.3419 33.8714 33.3419 33.877 33.3419 33.8826C33.3419 33.8882 33.3419 33.8938 33.3419 33.8994C33.3419 33.9051 33.3419 33.9107 33.3419 33.9164C33.3419 33.922 33.3419 33.9277 33.3419 33.9334C33.3419 33.939 33.3419 33.9447 33.3419 33.9504C33.3419 33.9561 33.3419 33.9619 33.3419 33.9676C33.3419 33.9733 33.3419 33.9791 33.3419 33.9848C33.3419 33.9906 33.3419 33.9964 33.3419 34.0021C33.3419 34.0079 33.3419 34.0137 33.3419 34.0195C33.3419 34.0253 33.3419 34.0311 33.3419 34.037C33.3419 34.0428 33.3419 34.0487 33.3419 34.0545C33.3419 34.0604 33.3419 34.0662 33.3419 34.0721C33.3419 34.078 33.3419 34.0839 33.3419 34.0898C33.3419 34.0957 33.3419 34.1016 33.3419 34.1076C33.3419 34.1135 33.3419 34.1195 33.3419 34.1254C33.3419 34.1314 33.3419 34.1373 33.3419 34.1433C33.3419 34.1493 33.3419 34.1553 33.3419 34.1613C33.3419 34.1673 33.3419 34.1734 33.3419 34.1794C33.3419 34.1854 33.3419 34.1915 33.3419 34.1975C33.3419 34.2036 33.3419 34.2097 33.3419 34.2158C33.3419 34.2219 33.3419 34.228 33.3419 34.2341C33.3419 34.2402 33.3419 34.2463 33.3419 34.2525C33.3419 34.2586 33.3419 34.2648 33.3419 34.2709C33.3419 34.2771 33.3419 34.2833 33.3419 34.2895C33.3419 34.2956 33.3419 34.3019 33.3419 34.3081C33.3419 34.3143 33.3419 34.3205 33.3419 34.3268C33.3419 34.333 33.3419 34.3393 33.3419 34.3455C33.3419 34.3518 33.3419 34.3581 33.3419 34.3644C33.3419 34.3707 33.3419 34.377 33.3419 34.3833C33.3419 34.3897 33.3419 34.396 33.3419 34.4023C33.3419 34.4087 33.3419 34.4151 33.3419 34.4214C33.3419 34.4278 33.3419 34.4342 33.3419 34.4406C33.3419 34.447 33.3419 34.4534 33.3419 34.4598C33.3419 34.4663 33.3419 34.4727 33.3419 34.4792C33.3419 34.4856 33.3419 34.4921 33.3419 34.4986C33.3419 34.5051 33.3419 34.5116 33.3419 34.5181C33.3419 34.5246 33.3419 34.5311 33.3419 34.5376C33.3419 34.5442 33.3419 34.5507 33.3419 34.5573C33.3419 34.5639 33.3419 34.5704 33.3419 34.577C33.3419 34.5836 33.3419 34.5902 33.3419 34.5968C33.3419 34.6035 33.3419 34.6101 33.3419 34.6167C33.3419 34.6234 33.3419 34.63 33.3419 34.6367C33.3419 34.6434 33.3419 34.6501 33.3419 34.6568C33.3419 34.6635 33.3419 34.6702 33.3419 34.6769C33.3419 34.6836 33.3419 34.6904 33.3419 34.6971C33.3419 34.7039 33.3419 34.7106 33.3419 34.7174C33.3419 34.7242 33.3419 34.731 33.3419 34.7378C33.3419 34.7446 33.3419 34.7514 33.3419 34.7583C33.3419 34.7651 33.3419 34.772 33.3419 34.7788C33.3419 34.7857 33.3419 34.7926 33.3419 34.7995C33.3419 34.8063 33.3419 34.8132 33.3419 34.8202C33.3419 34.8271 33.3419 34.834 33.3419 34.841C33.3419 34.8479 33.3419 34.8549 33.3419 34.8618C33.3419 34.8688 33.3419 34.8758 33.3419 34.8828C33.3419 34.8898 33.3419 34.8968 33.3419 34.9038C33.3419 34.9109 33.3419 34.9179 33.3419 34.925C33.3419 34.932 33.3419 34.9391 33.3419 34.9462C33.3419 34.9533 33.3419 34.9604 33.3419 34.9675C33.3419 34.9746 33.3419 34.9817 33.3419 34.9889C33.3419 34.996 33.3419 35.0032 33.3419 35.0103C33.3419 35.0175 33.3419 35.0247 33.3419 35.0319C33.3419 35.0391 33.3419 35.0463 33.3419 35.0535H34.3694C34.3694 35.0463 34.3694 35.0391 34.3694 35.0319C34.3694 35.0247 34.3694 35.0175 34.3694 35.0103C34.3694 35.0032 34.3694 34.996 34.3694 34.9889C34.3694 34.9817 34.3694 34.9746 34.3694 34.9675C34.3694 34.9604 34.3694 34.9533 34.3694 34.9462C34.3694 34.9391 34.3694 34.932 34.3694 34.925C34.3694 34.9179 34.3694 34.9109 34.3694 34.9038C34.3694 34.8968 34.3694 34.8898 34.3694 34.8828C34.3694 34.8758 34.3694 34.8688 34.3694 34.8618C34.3694 34.8549 34.3694 34.8479 34.3694 34.841C34.3694 34.834 34.3694 34.8271 34.3694 34.8202C34.3694 34.8132 34.3694 34.8063 34.3694 34.7995C34.3694 34.7926 34.3694 34.7857 34.3694 34.7788C34.3694 34.772 34.3694 34.7651 34.3694 34.7583C34.3694 34.7514 34.3694 34.7446 34.3694 34.7378C34.3694 34.731 34.3694 34.7242 34.3694 34.7174C34.3694 34.7106 34.3694 34.7039 34.3694 34.6971C34.3694 34.6904 34.3694 34.6836 34.3694 34.6769C34.3694 34.6702 34.3694 34.6635 34.3694 34.6568C34.3694 34.6501 34.3694 34.6434 34.3694 34.6367C34.3694 34.63 34.3694 34.6234 34.3694 34.6167C34.3694 34.6101 34.3694 34.6035 34.3694 34.5968C34.3694 34.5902 34.3694 34.5836 34.3694 34.577C34.3694 34.5704 34.3694 34.5639 34.3694 34.5573C34.3694 34.5507 34.3694 34.5442 34.3694 34.5376C34.3694 34.5311 34.3694 34.5246 34.3694 34.5181C34.3694 34.5116 34.3694 34.5051 34.3694 34.4986C34.3694 34.4921 34.3694 34.4856 34.3694 34.4792C34.3694 34.4727 34.3694 34.4663 34.3694 34.4598C34.3694 34.4534 34.3694 34.447 34.3694 34.4406C34.3694 34.4342 34.3694 34.4278 34.3694 34.4214C34.3694 34.4151 34.3694 34.4087 34.3694 34.4023C34.3694 34.396 34.3694 34.3897 34.3694 34.3833C34.3694 34.377 34.3694 34.3707 34.3694 34.3644C34.3694 34.3581 34.3694 34.3518 34.3694 34.3455C34.3694 34.3393 34.3694 34.333 34.3694 34.3268C34.3694 34.3205 34.3694 34.3143 34.3694 34.3081C34.3694 34.3019 34.3694 34.2956 34.3694 34.2895C34.3694 34.2833 34.3694 34.2771 34.3694 34.2709C34.3694 34.2648 34.3694 34.2586 34.3694 34.2525C34.3694 34.2463 34.3694 34.2402 34.3694 34.2341C34.3694 34.228 34.3694 34.2219 34.3694 34.2158C34.3694 34.2097 34.3694 34.2036 34.3694 34.1975C34.3694 34.1915 34.3694 34.1854 34.3694 34.1794C34.3694 34.1734 34.3694 34.1673 34.3694 34.1613C34.3694 34.1553 34.3694 34.1493 34.3694 34.1433C34.3694 34.1373 34.3694 34.1314 34.3694 34.1254C34.3694 34.1195 34.3694 34.1135 34.3694 34.1076C34.3694 34.1016 34.3694 34.0957 34.3694 34.0898C34.3694 34.0839 34.3694 34.078 34.3694 34.0721C34.3694 34.0662 34.3694 34.0604 34.3694 34.0545C34.3694 34.0487 34.3694 34.0428 34.3694 34.037C34.3694 34.0311 34.3694 34.0253 34.3694 34.0195C34.3694 34.0137 34.3694 34.0079 34.3694 34.0021C34.3694 33.9964 34.3694 33.9906 34.3694 33.9848C34.3694 33.9791 34.3694 33.9733 34.3694 33.9676C34.3694 33.9619 34.3694 33.9561 34.3694 33.9504C34.3694 33.9447 34.3694 33.939 34.3694 33.9334C34.3694 33.9277 34.3694 33.922 34.3694 33.9164C34.3694 33.9107 34.3694 33.9051 34.3694 33.8994C34.3694 33.8938 34.3694 33.8882 34.3694 33.8826C34.3694 33.877 34.3694 33.8714 34.3694 33.8658C34.3694 33.8602 34.3694 33.8546 34.3694 33.8491C34.3694 33.8435 34.3694 33.838 34.3694 33.8324C34.3694 33.8269 34.3694 33.8214 34.3694 33.8159C34.3694 33.8104 34.3694 33.8049 34.3694 33.7994C34.3694 33.7939 34.3694 33.7885 34.3694 33.783C34.3694 33.7775 34.3694 33.7721 34.3694 33.7667C34.3694 33.7612 34.3694 33.7558 34.3694 33.7504C34.3694 33.745 34.3694 33.7396 34.3694 33.7342C34.3694 33.7288 34.3694 33.7234 34.3694 33.7181C34.3694 33.7127 34.3694 33.7074 34.3694 33.702C34.3694 33.6967 34.3694 33.6914 34.3694 33.6861C34.3694 33.6808 34.3694 33.6755 34.3694 33.6702C34.3694 33.6649 34.3694 33.6596 34.3694 33.6543C34.3694 33.6491 34.3694 33.6438 34.3694 33.6386C34.3694 33.6334 34.3694 33.6281 34.3694 33.6229C34.3694 33.6177 34.3694 33.6125 34.3694 33.6073C34.3694 33.6021 34.3694 33.5969 34.3694 33.5918C34.3694 33.5866 34.3694 33.5814 34.3694 33.5763C34.3694 33.5711 34.3694 33.566 34.3694 33.5609C34.3694 33.5558 34.3694 33.5507 34.3694 33.5456C34.3694 33.5405 34.3694 33.5354 34.3694 33.5303C34.3694 33.5252 34.3694 33.5202 34.3694 33.5151C34.3694 33.5101 34.3694 33.5051 34.3694 33.5C34.3694 33.495 34.3694 33.49 34.3694 33.485C34.3694 33.48 34.3694 33.475 34.3694 33.47C34.3694 33.465 34.3694 33.4601 34.3694 33.4551C34.3694 33.4502 34.3694 33.4452 34.3694 33.4403C34.3694 33.4354 34.3694 33.4304 34.3694 33.4255C34.3694 33.4206 34.3694 33.4157 34.3694 33.4108C34.3694 33.4059 34.3694 33.4011 34.3694 33.3962C34.3694 33.3914 34.3694 33.3865 34.3694 33.3817C34.3694 33.3768 34.3694 33.372 34.3694 33.3672C34.3694 33.3624 34.3694 33.3576 34.3694 33.3528C34.3694 33.348 34.3694 33.3432 34.3694 33.3384C34.3694 33.3337 34.3694 33.3289 34.3694 33.3241C34.3694 33.3194 34.3694 33.3147 34.3694 33.3099C34.3694 33.3052 34.3694 33.3005 34.3694 33.2958C34.3694 33.2911 34.3694 33.2864 34.3694 33.2817C34.3694 33.2771 34.3694 33.2724 34.3694 33.2677C34.3694 33.2631 34.3694 33.2584 34.3694 33.2538C34.3694 33.2492 34.3694 33.2445 34.3694 33.2399C34.3694 33.2353 34.3694 33.2307 34.3694 33.2261C34.3694 33.2215 34.3694 33.217 34.3694 33.2124C34.3694 33.2078 34.3694 33.2033 34.3694 33.1987C34.3694 33.1942 34.3694 33.1897 34.3694 33.1851C34.3694 33.1806 34.3694 33.1761 34.3694 33.1716C34.3694 33.1671 34.3694 33.1626 34.3694 33.1582C34.3694 33.1537 34.3694 33.1492 34.3694 33.1448C34.3694 33.1403 34.3694 33.1359 34.3694 33.1314C34.3694 33.127 34.3694 33.1226 34.3694 33.1182C34.3694 33.1138 34.3694 33.1094 34.3694 33.105C34.3694 33.1006 34.3694 33.0962 34.3694 33.0918C34.3694 33.0875 34.3694 33.0831 34.3694 33.0788C34.3694 33.0744 34.3694 33.0701 34.3694 33.0658C34.3694 33.0615 34.3694 33.0571 34.3694 33.0528C34.3694 33.0485 34.3694 33.0443 34.3694 33.04C34.3694 33.0357 34.3694 33.0314 34.3694 33.0272C34.3694 33.0229 34.3694 33.0187 34.3694 33.0144C34.3694 33.0102 34.3694 33.006 34.3694 33.0018C34.3694 32.9975 34.3694 32.9933 34.3694 32.9891C34.3694 32.985 34.3694 32.9808 34.3694 32.9766C34.3694 32.9724 34.3694 32.9683 34.3694 32.9641C34.3694 32.96 34.3694 32.9558 34.3694 32.9517C34.3694 32.9476 34.3694 32.9435 34.3694 32.9394C34.3694 32.9353 34.3694 32.9312 34.3694 32.9271C34.3694 32.923 34.3694 32.9189 34.3694 32.9148C34.3694 32.9108 34.3694 32.9067 34.3694 32.9027C34.3694 32.8986 34.3694 32.8946 34.3694 32.8906C34.3694 32.8866 34.3694 32.8826 34.3694 32.8786C34.3694 32.8746 34.3694 32.8706 34.3694 32.8666C34.3694 32.8626 34.3694 32.8586 34.3694 32.8547C34.3694 32.8507 34.3694 32.8468 34.3694 32.8428C34.3694 32.8389 34.3694 32.835 34.3694 32.831C34.3694 32.8271 34.3694 32.8232 34.3694 32.8193C34.3694 32.8154 34.3694 32.8115 34.3694 32.8077C34.3694 32.8038 34.3694 32.7999 34.3694 32.7961C34.3694 32.7922 34.3694 32.7884 34.3694 32.7845C34.3694 32.7807 34.3694 32.7769 34.3694 32.7731C34.3694 32.7692 34.3694 32.7654 34.3694 32.7616C34.3694 32.7579 34.3694 32.7541 34.3694 32.7503C34.3694 32.7465 34.3694 32.7428 34.3694 32.739C34.3694 32.7353 34.3694 32.7315 34.3694 32.7278C34.3694 32.724 34.3694 32.7203 34.3694 32.7166C34.3694 32.7129 34.3694 32.7092 34.3694 32.7055C34.3694 32.7018 34.3694 32.6981 34.3694 32.6945C34.3694 32.6908 34.3694 32.6871 34.3694 32.6835C34.3694 32.6798 34.3694 32.6762 34.3694 32.6725C34.3694 32.6689 34.3694 32.6653 34.3694 32.6617C34.3694 32.6581 34.3694 32.6545 34.3694 32.6509C34.3694 32.6473 34.3694 32.6437 34.3694 32.6401C34.3694 32.6366 34.3694 32.633 34.3694 32.6294C34.3694 32.6259 34.3694 32.6224 34.3694 32.6188C34.3694 32.6153 34.3694 32.6118 34.3694 32.6082C34.3694 32.6047 34.3694 32.6012 34.3694 32.5977C34.3694 32.5942 34.3694 32.5908 34.3694 32.5873C34.3694 32.5838 34.3694 32.5804 34.3694 32.5769C34.3694 32.5734 34.3694 32.57 34.3694 32.5666C34.3694 32.5631 34.3694 32.5597 34.3694 32.5563C34.3694 32.5529 34.3694 32.5495 34.3694 32.5461C34.3694 32.5427 34.3694 32.5393 34.3694 32.5359C34.3694 32.5325 34.3694 32.5292 34.3694 32.5258C34.3694 32.5225 34.3694 32.5191 34.3694 32.5158C34.3694 32.5124 34.3694 32.5091 34.3694 32.5058C34.3694 32.5025 34.3694 32.4992 34.3694 32.4959C34.3694 32.4926 34.3694 32.4893 34.3694 32.486C34.3694 32.4827 34.3694 32.4794 34.3694 32.4762C34.3694 32.4729 34.3694 32.4697 34.3694 32.4664C34.3694 32.4632 34.3694 32.4599 34.3694 32.4567C34.3694 32.4535 34.3694 32.4503 34.3694 32.4471C34.3694 32.4439 34.3694 32.4407 34.3694 32.4375C34.3694 32.4343 34.3694 32.4311 34.3694 32.428C34.3694 32.4248 34.3694 32.4216 34.3694 32.4185C34.3694 32.4153 34.3694 32.4122 34.3694 32.4091C34.3694 32.4059 34.3694 32.4028 34.3694 32.3997C34.3694 32.3966 34.3694 32.3935 34.3694 32.3904C34.3694 32.3873 34.3694 32.3842 34.3694 32.3811C34.3694 32.3781 34.3694 32.375 34.3694 32.372C34.3694 32.3689 34.3694 32.3658 34.3694 32.3628C34.3694 32.3598 34.3694 32.3567 34.3694 32.3537C34.3694 32.3507 34.3694 32.3477 34.3694 32.3447C34.3694 32.3417 34.3694 32.3387 34.3694 32.3357C34.3694 32.3327 34.3694 32.3298 34.3694 32.3268C34.3694 32.3238 34.3694 32.3209 34.3694 32.3179C34.3694 32.315 34.3694 32.312 34.3694 32.3091C34.3694 32.3062 34.3694 32.3033 34.3694 32.3003C34.3694 32.2974 34.3694 32.2945 34.3694 32.2916C34.3694 32.2887 34.3694 32.2859 34.3694 32.283C34.3694 32.2801 34.3694 32.2772 34.3694 32.2744C34.3694 32.2715 34.3694 32.2687 34.3694 32.2658C34.3694 32.263 34.3694 32.2602 34.3694 32.2573C34.3694 32.2545 34.3694 32.2517 34.3694 32.2489C34.3694 32.2461 34.3694 32.2433 34.3694 32.2405C34.3694 32.2377 34.3694 32.235 34.3694 32.2322C34.3694 32.2294 34.3694 32.2267 34.3694 32.2239C34.3694 32.2212 34.3694 32.2184 34.3694 32.2157C34.3694 32.2129 34.3694 32.2102 34.3694 32.2075C34.3694 32.2048 34.3694 32.2021 34.3694 32.1994C34.3694 32.1967 34.3694 32.194 34.3694 32.1913C34.3694 32.1886 34.3694 32.1859 34.3694 32.1833C34.3694 32.1806 34.3694 32.1779 34.3694 32.1753C34.3694 32.1726 34.3694 32.17 34.3694 32.1674C34.3694 32.1647 34.3694 32.1621 34.3694 32.1595C34.3694 32.1569 34.3694 32.1543 34.3694 32.1517C34.3694 32.1491 34.3694 32.1465 34.3694 32.1439C34.3694 32.1413 34.3694 32.1388 34.3694 32.1362C34.3694 32.1336 34.3694 32.1311 34.3694 32.1285C34.3694 32.126 34.3694 32.1235 34.3694 32.1209C34.3694 32.1184 34.3694 32.1159 34.3694 32.1134C34.3694 32.1108 34.3694 32.1083 34.3694 32.1058C34.3694 32.1033 34.3694 32.1009 34.3694 32.0984C34.3694 32.0959 34.3694 32.0934 34.3694 32.091C34.3694 32.0885 34.3694 32.086 34.3694 32.0836C34.3694 32.0811 34.3694 32.0787 34.3694 32.0763C34.3694 32.0738 34.3694 32.0714 34.3694 32.069C34.3694 32.0666 34.3694 32.0642 34.3694 32.0618C34.3694 32.0594 34.3694 32.057 34.3694 32.0546C34.3694 32.0522 34.3694 32.0499 34.3694 32.0475C34.3694 32.0451 34.3694 32.0428 34.3694 32.0404C34.3694 32.0381 34.3694 32.0357 34.3694 32.0334C34.3694 32.0311 34.3694 32.0287 34.3694 32.0264C34.3694 32.0241 34.3694 32.0218 34.3694 32.0195C34.3694 32.0172 34.3694 32.0149 34.3694 32.0126C34.3694 32.0103 34.3694 32.008 34.3694 32.0058C34.3694 32.0035 34.3694 32.0012 34.3694 31.999C34.3694 31.9967 34.3694 31.9945 34.3694 31.9922C34.3694 31.99 34.3694 31.9878 34.3694 31.9855C34.3694 31.9833 34.3694 31.9811 34.3694 31.9789C34.3694 31.9767 34.3694 31.9745 34.3694 31.9723C34.3694 31.9701 34.3694 31.9679 34.3694 31.9657C34.3694 31.9636 34.3694 31.9614 34.3694 31.9592C34.3694 31.9571 34.3694 31.9549 34.3694 31.9528C34.3694 31.9506 34.3694 31.9485 34.3694 31.9464C34.3694 31.9442 34.3694 31.9421 34.3694 31.94C34.3694 31.9379 34.3694 31.9358 34.3694 31.9337C34.3694 31.9316 34.3694 31.9295 34.3694 31.9274C34.3694 31.9253 34.3694 31.9232 34.3694 31.9212C34.3694 31.9191 34.3694 31.917 34.3694 31.915C34.3694 31.9129 34.3694 31.9109 34.3694 31.9088C34.3694 31.9068 34.3694 31.9048 34.3694 31.9028C34.3694 31.9007 34.3694 31.8987 34.3694 31.8967C34.3694 31.8947 34.3694 31.8927 34.3694 31.8907C34.3694 31.8887 34.3694 31.8867 34.3694 31.8847C34.3694 31.8828 34.3694 31.8808 34.3694 31.8788C34.3694 31.8769 34.3694 31.8749 34.3694 31.8729C34.3694 31.871 34.3694 31.8691 34.3694 31.8671C34.3694 31.8652 34.3694 31.8633 34.3694 31.8613C34.3694 31.8594 34.3694 31.8575 34.3694 31.8556C34.3694 31.8537 34.3694 31.8518 34.3694 31.8499C34.3694 31.848 34.3694 31.8461 34.3694 31.8442C34.3694 31.8424 34.3694 31.8405 34.3694 31.8386C34.3694 31.8368 34.3694 31.8349 34.3694 31.8331C34.3694 31.8312 34.3694 31.8294 34.3694 31.8275C34.3694 31.8257 34.3694 31.8239 34.3694 31.8221C34.3694 31.8202 34.3694 31.8184 34.3694 31.8166C34.3694 31.8148 34.3694 31.813 34.3694 31.8112C34.3694 31.8094 34.3694 31.8076 34.3694 31.8059C34.3694 31.8041 34.3694 31.8023 34.3694 31.8005C34.3694 31.7988 34.3694 31.797 34.3694 31.7953C34.3694 31.7935 34.3694 31.7918 34.3694 31.79C34.3694 31.7883 34.3694 31.7866 34.3694 31.7849C34.3694 31.7831 34.3694 31.7814 34.3694 31.7797C34.3694 31.778 34.3694 31.7763 34.3694 31.7746C34.3694 31.7729 34.3694 31.7712 34.3694 31.7695C34.3694 31.7679 34.3694 31.7662 34.3694 31.7645C34.3694 31.7628 34.3694 31.7612 34.3694 31.7595C34.3694 31.7579 34.3694 31.7562 34.3694 31.7546C34.3694 31.7529 34.3694 31.7513 34.3694 31.7497C34.3694 31.7481 34.3694 31.7464 34.3694 31.7448C34.3694 31.7432 34.3694 31.7416 34.3694 31.74C34.3694 31.7384 34.3694 31.7368 34.3694 31.7352C34.3694 31.7336 34.3694 31.732 34.3694 31.7305C34.3694 31.7289 34.3694 31.7273 34.3694 31.7258C34.3694 31.7242 34.3694 31.7227 34.3694 31.7211C34.3694 31.7196 34.3694 31.718 34.3694 31.7165C34.3694 31.7149 34.3694 31.7134 34.3694 31.7119C34.3694 31.7104 34.3694 31.7089 34.3694 31.7073C34.3694 31.7058 34.3694 31.7043 34.3694 31.7028C34.3694 31.7013 34.3694 31.6999 34.3694 31.6984C34.3694 31.6969 34.3694 31.6954 34.3694 31.6939C34.3694 31.6925 34.3694 31.691 34.3694 31.6895C34.3694 31.6881 34.3694 31.6866 34.3694 31.6852C34.3694 31.6837 34.3694 31.6823 34.3694 31.6809C34.3694 31.6794 34.3694 31.678 34.3694 31.6766C34.3694 31.6752 34.3694 31.6738 34.3694 31.6723C34.3694 31.6709 34.3694 31.6695 34.3694 31.6681C34.3694 31.6667 34.3694 31.6654 34.3694 31.664C34.3694 31.6626 34.3694 31.6612 34.3694 31.6598C34.3694 31.6585 34.3694 31.6571 34.3694 31.6558C34.3694 31.6544 34.3694 31.653 34.3694 31.6517C34.3694 31.6504 34.3694 31.649 34.3694 31.6477C34.3694 31.6463 34.3694 31.645 34.3694 31.6437C34.3694 31.6424 34.3694 31.6411 34.3694 31.6397C34.3694 31.6384 34.3694 31.6371 34.3694 31.6358C34.3694 31.6345 34.3694 31.6332 34.3694 31.632C34.3694 31.6307 34.3694 31.6294 34.3694 31.6281C34.3694 31.6268 34.3694 31.6256 34.3694 31.6243C34.3694 31.6231 34.3694 31.6218 34.3694 31.6205C34.3694 31.6193 34.3694 31.618 34.3694 31.6168C34.3694 31.6156 34.3694 31.6143 34.3694 31.6131C34.3694 31.6119 34.3694 31.6107 34.3694 31.6094C34.3694 31.6082 34.3694 31.607 34.3694 31.6058C34.3694 31.6046 34.3694 31.6034 34.3694 31.6022C34.3694 31.601 34.3694 31.5998 34.3694 31.5987C34.3694 31.5975 34.3694 31.5963 34.3694 31.5951C34.3694 31.594 34.3694 31.5928 34.3694 31.5916C34.3694 31.5905 34.3694 31.5893 34.3694 31.5882C34.3694 31.587 34.3694 31.5859 34.3694 31.5848C34.3694 31.5836 34.3694 31.5825 34.3694 31.5814C34.3694 31.5802 34.3694 31.5791 34.3694 31.578C34.3694 31.5769 34.3694 31.5758 34.3694 31.5747C34.3694 31.5736 34.3694 31.5725 34.3694 31.5714C34.3694 31.5703 34.3694 31.5692 34.3694 31.5681C34.3694 31.5671 34.3694 31.566 34.3694 31.5649C34.3694 31.5638 34.3694 31.5628 34.3694 31.5617C34.3694 31.5607 34.3694 31.5596 34.3694 31.5586C34.3694 31.5575 34.3694 31.5565 34.3694 31.5554C34.3694 31.5544 34.3694 31.5534 34.3694 31.5523C34.3694 31.5513 34.3694 31.5503 34.3694 31.5493C34.3694 31.5483 34.3694 31.5473 34.3694 31.5462C34.3694 31.5452 34.3694 31.5442 34.3694 31.5432C34.3694 31.5422 34.3694 31.5413 34.3694 31.5403C34.3694 31.5393 34.3694 31.5383 34.3694 31.5373C34.3694 31.5364 34.3694 31.5354 34.3694 31.5344C34.3694 31.5335 34.3694 31.5325 34.3694 31.5316C34.3694 31.5306 34.3694 31.5297 34.3694 31.5287C34.3694 31.5278 34.3694 31.5268 34.3694 31.5259C34.3694 31.525 34.3694 31.524 34.3694 31.5231C34.3694 31.5222 34.3694 31.5213 34.3694 31.5204C34.3694 31.5194 34.3694 31.5185 34.3694 31.5176C34.3694 31.5167 34.3694 31.5158 34.3694 31.5149C34.3694 31.514 34.3694 31.5132 34.3694 31.5123C34.3694 31.5114 34.3694 31.5105 34.3694 31.5096C34.3694 31.5088 34.3694 31.5079 34.3694 31.507C34.3694 31.5062 34.3694 31.5053 34.3694 31.5045C34.3694 31.5036 34.3694 31.5028 34.3694 31.5019C34.3694 31.5011 34.3694 31.5002 34.3694 31.4994C34.3694 31.4986 34.3694 31.4977 34.3694 31.4969C34.3694 31.4961 34.3694 31.4953 34.3694 31.4944C34.3694 31.4936 34.3694 31.4928 34.3694 31.492C34.3694 31.4912 34.3694 31.4904 34.3694 31.4896C34.3694 31.4888 34.3694 31.488 34.3694 31.4872C34.3694 31.4864 34.3694 31.4857 34.3694 31.4849C34.3694 31.4841 34.3694 31.4833 34.3694 31.4826C34.3694 31.4818 34.3694 31.481 34.3694 31.4803C34.3694 31.4795 34.3694 31.4788 34.3694 31.478C34.3694 31.4773 34.3694 31.4765 34.3694 31.4758C34.3694 31.475 34.3694 31.4743 34.3694 31.4736C34.3694 31.4728 34.3694 31.4721 34.3694 31.4714C34.3694 31.4707 34.3694 31.4699 34.3694 31.4692C34.3694 31.4685 34.3694 31.4678 34.3694 31.4671C34.3694 31.4664 34.3694 31.4657 34.3694 31.465C34.3694 31.4643 34.3694 31.4636 34.3694 31.4629C34.3694 31.4622 34.3694 31.4615 34.3694 31.4609C34.3694 31.4602 34.3694 31.4595 34.3694 31.4588C34.3694 31.4582 34.3694 31.4575 34.3694 31.4568C34.3694 31.4562 34.3694 31.4555 34.3694 31.4549C34.3694 31.4542 34.3694 31.4536 34.3694 31.4529C34.3694 31.4523 34.3694 31.4516 34.3694 31.451C34.3694 31.4504 34.3694 31.4497 34.3694 31.4491C34.3694 31.4485 34.3694 31.4478 34.3694 31.4472C34.3694 31.4466 34.3694 31.446 34.3694 31.4454C34.3694 31.4448 34.3694 31.4442 34.3694 31.4435C34.3694 31.4429 34.3694 31.4423 34.3694 31.4417C34.3694 31.4412 34.3694 31.4406 34.3694 31.44C34.3694 31.4394 34.3694 31.4388 34.3694 31.4382C34.3694 31.4376 34.3694 31.4371 34.3694 31.4365C34.3694 31.4359 34.3694 31.4354 34.3694 31.4348C34.3694 31.4342 34.3694 31.4337 34.3694 31.4331C34.3694 31.4326 34.3694 31.432 34.3694 31.4315C34.3694 31.4309 34.3694 31.4304 34.3694 31.4298C34.3694 31.4293 34.3694 31.4287 34.3694 31.4282C34.3694 31.4277 34.3694 31.4272 34.3694 31.4266C34.3694 31.4261 34.3694 31.4256 34.3694 31.4251C34.3694 31.4246 34.3694 31.424 34.3694 31.4235C34.3694 31.423 34.3694 31.4225 34.3694 31.422C34.3694 31.4215 34.3694 31.421 34.3694 31.4205C34.3694 31.42 34.3694 31.4195 34.3694 31.419C34.3694 31.4186 34.3694 31.4181 34.3694 31.4176C34.3694 31.4171 34.3694 31.4166 34.3694 31.4162C34.3694 31.4157 34.3694 31.4152 34.3694 31.4147C34.3694 31.4143 34.3694 31.4138 34.3694 31.4134C34.3694 31.4129 34.3694 31.4124 34.3694 31.412C34.3694 31.4115 34.3694 31.4111 34.3694 31.4107C34.3694 31.4102 34.3694 31.4098 34.3694 31.4093C34.3694 31.4089 34.3694 31.4085 34.3694 31.408C34.3694 31.4076 34.3694 31.4072 34.3694 31.4067C34.3694 31.4063 34.3694 31.4059 34.3694 31.4055C34.3694 31.4051 34.3694 31.4047 34.3694 31.4042C34.3694 31.4038 34.3694 31.4034 34.3694 31.403C34.3694 31.4026 34.3694 31.4022 34.3694 31.4018C34.3694 31.4014 34.3694 31.401 34.3694 31.4006C34.3694 31.4003 34.3694 31.3999 34.3694 31.3995C34.3694 31.3991 34.3694 31.3987 34.3694 31.3983C34.3694 31.398 34.3694 31.3976 34.3694 31.3972C34.3694 31.3968 34.3694 31.3965 34.3694 31.3961C34.3694 31.3957 34.3694 31.3954 34.3694 31.395C34.3694 31.3947 34.3694 31.3943 34.3694 31.394C34.3694 31.3936 34.3694 31.3933 34.3694 31.3929C34.3694 31.3926 34.3694 31.3922 34.3694 31.3919C34.3694 31.3916 34.3694 31.3912 34.3694 31.3909C34.3694 31.3905 34.3694 31.3902 34.3694 31.3899C34.3694 31.3896 34.3694 31.3892 34.3694 31.3889C34.3694 31.3886 34.3694 31.3883 34.3694 31.388C34.3694 31.3876 34.3694 31.3873 34.3694 31.387C34.3694 31.3867 34.3694 31.3864 34.3694 31.3861C34.3694 31.3858 34.3694 31.3855 34.3694 31.3852C34.3694 31.3849 34.3694 31.3846 34.3694 31.3843C34.3694 31.384 34.3694 31.3837 34.3694 31.3834C34.3694 31.3832 34.3694 31.3829 34.3694 31.3826C34.3694 31.3823 34.3694 31.382 34.3694 31.3818C34.3694 31.3815 34.3694 31.3812 34.3694 31.3809C34.3694 31.3807 34.3694 31.3804 34.3694 31.3801C34.3694 31.3799 34.3694 31.3796 34.3694 31.3794C34.3694 31.3791 34.3694 31.3788 34.3694 31.3786C34.3694 31.3783 34.3694 31.3781 34.3694 31.3778C34.3694 31.3776 34.3694 31.3773 34.3694 31.3771C34.3694 31.3768 34.3694 31.3766 34.3694 31.3764C34.3694 31.3761 34.3694 31.3759 34.3694 31.3757C34.3694 31.3754 34.3694 31.3752 34.3694 31.375C34.3694 31.3747 34.3694 31.3745 34.3694 31.3743C34.3694 31.3741 34.3694 31.3738 34.3694 31.3736C34.3694 31.3734 34.3694 31.3732 34.3694 31.373C34.3694 31.3728 34.3694 31.3726 34.3694 31.3723C34.3694 31.3721 34.3694 31.3719 34.3694 31.3717C34.3694 31.3715 34.3694 31.3713 34.3694 31.3711C34.3694 31.3709 34.3694 31.3707 34.3694 31.3705C34.3694 31.3703 34.3694 31.3701 34.3694 31.37C34.3694 31.3698 34.3694 31.3696 34.3694 31.3694C34.3694 31.3692 34.3694 31.369 34.3694 31.3688C34.3694 31.3687 34.3694 31.3685 34.3694 31.3683C34.3694 31.3681 34.3694 31.368 34.3694 31.3678C34.3694 31.3676 34.3694 31.3674 34.3694 31.3673C34.3694 31.3671 34.3694 31.3669 34.3694 31.3668C34.3694 31.3666 34.3694 31.3665 34.3694 31.3663C34.3694 31.3661 34.3694 31.366 34.3694 31.3658C34.3694 31.3657 34.3694 31.3655 34.3694 31.3654C34.3694 31.3652 34.3694 31.3651 34.3694 31.3649C34.3694 31.3648 34.3694 31.3646 34.3694 31.3645C34.3694 31.3643 34.3694 31.3642 34.3694 31.3641C34.3694 31.3639 34.3694 31.3638 34.3694 31.3636C34.3694 31.3635 34.3694 31.3634 34.3694 31.3633C34.3694 31.3631 34.3694 31.363 34.3694 31.3629C34.3694 31.3627 34.3694 31.3626 34.3694 31.3625C34.3694 31.3624 34.3694 31.3622 34.3694 31.3621C34.3694 31.362 34.3694 31.3619 34.3694 31.3618C34.3694 31.3616 34.3694 31.3615 34.3694 31.3614C34.3694 31.3613 34.3694 31.3612 34.3694 31.3611C34.3694 31.361 34.3694 31.3609 34.3694 31.3608C34.3694 31.3607 34.3694 31.3606 34.3694 31.3605C34.3694 31.3603 34.3694 31.3602 34.3694 31.3601C34.3694 31.3601 34.3694 31.36 34.3694 31.3599C34.3694 31.3598 34.3694 31.3597 34.3694 31.3596C34.3694 31.3595 34.3694 31.3594 34.3694 31.3593C34.3694 31.3592 34.3694 31.3591 34.3694 31.359C34.3694 31.3589 34.3694 31.3589 34.3694 31.3588C34.3694 31.3587 34.3694 31.3586 34.3694 31.3585C34.3694 31.3585 34.3694 31.3584 34.3694 31.3583C34.3694 31.3582 34.3694 31.3581 34.3694 31.3581C34.3694 31.358 34.3694 31.3579 34.3694 31.3579C34.3694 31.3578 34.3694 31.3577 34.3694 31.3576C34.3694 31.3576 34.3694 31.3575 34.3694 31.3574C34.3694 31.3574 34.3694 31.3573 34.3694 31.3572C34.3694 31.3572 34.3694 31.3571 34.3694 31.3571C34.3694 31.357 34.3694 31.3569 34.3694 31.3569C34.3694 31.3568 34.3694 31.3568 34.3694 31.3567C34.3694 31.3567 34.3694 31.3566 34.3694 31.3565C34.3694 31.3565 34.3694 31.3564 34.3694 31.3564C34.3694 31.3563 34.3694 31.3563 34.3694 31.3562C34.3694 31.3562 34.3694 31.3561 34.3694 31.3561C34.3694 31.356 34.3694 31.356 34.3694 31.356C34.3694 31.3559 34.3694 31.3559 34.3694 31.3558C34.3694 31.3558 34.3694 31.3557 34.3694 31.3557C34.3694 31.3557 34.3694 31.3556 34.3694 31.3556C34.3694 31.3556 34.3694 31.3555 34.3694 31.3555C34.3694 31.3554 34.3694 31.3554 34.3694 31.3554C34.3694 31.3553 34.3694 31.3553 34.3694 31.3553C34.3694 31.3552 34.3694 31.3552 34.3694 31.3552C34.3694 31.3552 34.3694 31.3551 34.3694 31.3551C34.3694 31.3551 34.3694 31.355 34.3694 31.355C34.3694 31.355 34.3694 31.355 34.3694 31.3549C34.3694 31.3549 34.3694 31.3549 34.3694 31.3549C34.3694 31.3548 34.3694 31.3548 34.3694 31.3548C34.3694 31.3548 34.3694 31.3548 34.3694 31.3547C34.3694 31.3547 34.3694 31.3547 34.3694 31.3547C34.3694 31.3547 34.3694 31.3546 34.3694 31.3546C34.3694 31.3546 34.3694 31.3546 34.3694 31.3546C34.3694 31.3546 34.3694 31.3545 34.3694 31.3545C34.3694 31.3545 34.3694 31.3545 34.3694 31.3545C34.3694 31.3545 34.3694 31.3545 34.3694 31.3545C34.3694 31.3544 34.3694 31.3544 34.3694 31.3544C34.3694 31.3544 34.3694 31.3544 34.3694 31.3544C34.3694 31.3544 34.3694 31.3544 34.3694 31.3544C34.3694 31.3543 34.3694 31.3543 34.3694 31.3543C34.3694 31.3543 34.3694 31.3543 34.3694 31.3543C34.3694 31.3543 34.3694 31.3543 34.3694 31.3543C34.3694 31.3543 34.3694 31.3543 34.3694 31.3543C34.3694 31.3543 34.3694 31.3543 34.3694 31.3543C34.3694 31.3543 34.3694 31.3542 34.3694 31.3542C34.3694 31.3542 34.3694 31.3542 34.3694 31.3542C34.3694 31.3542 34.3694 31.3542 34.3694 31.3542C34.3694 31.3542 34.3694 31.3542 34.3694 31.3542C34.3694 31.3542 34.3694 31.3542 34.3694 31.3542C34.3694 31.3542 34.3694 31.3542 34.3694 31.3542C34.3694 31.3542 34.3694 31.3542 34.3694 31.3542C34.3694 31.3542 34.3694 31.3542 34.3694 31.3542C34.3694 31.3542 34.3694 31.3542 34.3694 31.3542C34.3694 31.3542 34.3694 31.3542 34.3694 31.3542C34.3694 31.3542 34.3694 31.3542 34.3694 31.3542C34.3694 31.3542 33.8556 31.3542 33.8556 31.3542ZM34.3694 31.3543V27.6549H33.3419V31.3543H34.3694Z" fill="#B3B3B3"/>
</svg>
