<svg width="33" height="33" viewBox="0 0 33 33" fill="none" xmlns="http://www.w3.org/2000/svg">
<path d="M26.4823 13.0243C26.5002 13.5249 26.9204 13.9162 27.421 13.8984C27.9216 13.8806 28.3129 13.4603 28.2951 12.9597L26.4823 13.0243ZM21.6741 7.65867V8.56562C21.6842 8.56562 21.6943 8.56545 21.7044 8.56512L21.6741 7.65867ZM13.1034 7.65867L13.0731 8.56512C13.0832 8.56545 13.0933 8.56562 13.1034 8.56562V7.65867ZM6.48234 12.9597C6.46451 13.4603 6.85587 13.8806 7.35645 13.8984C7.85703 13.9162 8.27728 13.5249 8.29511 13.0243L6.48234 12.9597ZM28.2956 12.9921C28.2956 12.4912 27.8896 12.0851 27.3887 12.0851C26.8878 12.0851 26.4817 12.4912 26.4817 12.9921H28.2956ZM27.3887 20.9921L28.2951 21.0244C28.2954 21.0136 28.2956 21.0029 28.2956 20.9921H27.3887ZM21.674 26.3254L21.7043 25.419C21.6942 25.4186 21.6841 25.4185 21.674 25.4185V26.3254ZM13.1033 26.3254V25.4185C13.0932 25.4185 13.0831 25.4186 13.073 25.419L13.1033 26.3254ZM7.38867 20.9921H6.48171C6.48171 21.0029 6.48191 21.0136 6.48229 21.0244L7.38867 20.9921ZM8.29563 12.9921C8.29563 12.4912 7.88957 12.0851 7.38867 12.0851C6.88777 12.0851 6.48171 12.4912 6.48171 12.9921H8.29563ZM27.8461 13.7752C28.2787 13.5226 28.4245 12.9671 28.1718 12.5346C27.9191 12.1021 27.3637 11.9563 26.9312 12.209L27.8461 13.7752ZM20.37 17.0921L19.9125 16.3089L19.905 16.3134L20.37 17.0921ZM14.4073 17.0921L14.8724 16.3134L14.8648 16.309L14.4073 17.0921ZM7.84614 12.209C7.41363 11.9563 6.8582 12.1021 6.60554 12.5346C6.35289 12.9671 6.49869 13.5226 6.9312 13.7752L7.84614 12.209ZM28.2951 12.9597C28.1687 9.41059 25.1932 6.63358 21.6438 6.75221L21.7044 8.56512C24.2541 8.4799 26.3916 10.4748 26.4823 13.0243L28.2951 12.9597ZM21.6741 6.75171H13.1034V8.56562H21.6741V6.75171ZM13.1337 6.75221C9.58428 6.63358 6.60872 9.41059 6.48234 12.9597L8.29511 13.0243C8.38589 10.4748 10.5234 8.4799 13.0731 8.56512L13.1337 6.75221ZM26.4817 12.9921V20.9921H28.2956V12.9921H26.4817ZM26.4823 20.9598C26.3915 23.5093 24.254 25.5042 21.7043 25.419L21.6437 27.2319C25.1931 27.3505 28.1687 24.5735 28.2951 21.0244L26.4823 20.9598ZM21.674 25.4185H13.1033V27.2324H21.674V25.4185ZM13.073 25.419C10.5233 25.5042 8.38584 23.5093 8.29506 20.9598L6.48229 21.0244C6.60867 24.5735 9.58423 27.3505 13.1336 27.2319L13.073 25.419ZM8.29563 20.9921V12.9921H6.48171V20.9921H8.29563ZM26.9312 12.209L19.9125 16.309L20.8275 17.8752L27.8461 13.7752L26.9312 12.209ZM19.905 16.3134C18.3551 17.239 16.4222 17.239 14.8724 16.3134L13.9423 17.8708C16.065 19.1385 18.7123 19.1385 20.835 17.8708L19.905 16.3134ZM14.8648 16.309L7.84614 12.209L6.9312 13.7752L13.9499 17.8752L14.8648 16.309Z" fill="#111111"/>
</svg>
