<svg width="33" height="32" viewBox="0 0 33 32" fill="none" xmlns="http://www.w3.org/2000/svg">
<path fill-rule="evenodd" clip-rule="evenodd" d="M7.65381 16.0003C7.65413 11.5477 10.7997 7.71527 15.1669 6.84689C19.5341 5.97851 23.9065 8.31598 25.6102 12.4298C27.3139 16.5437 25.8744 21.2881 22.172 23.7617C18.4696 26.2352 13.5355 25.749 10.3871 22.6003C8.63684 20.8499 7.65363 18.4758 7.65381 16.0003Z" stroke="black" stroke-width="1.5" stroke-linecap="round" stroke-linejoin="round"/>
<path d="M13.4873 15.2502C13.0731 15.2502 12.7373 15.586 12.7373 16.0002C12.7373 16.4145 13.0731 16.7502 13.4873 16.7502V15.2502ZM16.9873 16.7502C17.4015 16.7502 17.7373 16.4145 17.7373 16.0002C17.7373 15.586 17.4015 15.2502 16.9873 15.2502V16.7502ZM16.9873 15.2502C16.5731 15.2502 16.2373 15.586 16.2373 16.0002C16.2373 16.4145 16.5731 16.7502 16.9873 16.7502V15.2502ZM20.4873 16.7502C20.9015 16.7502 21.2373 16.4145 21.2373 16.0002C21.2373 15.586 20.9015 15.2502 20.4873 15.2502V16.7502ZM17.7373 16.0002C17.7373 15.586 17.4015 15.2502 16.9873 15.2502C16.5731 15.2502 16.2373 15.586 16.2373 16.0002H17.7373ZM16.2373 19.5002C16.2373 19.9145 16.5731 20.2502 16.9873 20.2502C17.4015 20.2502 17.7373 19.9145 17.7373 19.5002H16.2373ZM16.2373 16.0002C16.2373 16.4145 16.5731 16.7502 16.9873 16.7502C17.4015 16.7502 17.7373 16.4145 17.7373 16.0002H16.2373ZM17.7373 12.5002C17.7373 12.086 17.4015 11.7502 16.9873 11.7502C16.5731 11.7502 16.2373 12.086 16.2373 12.5002H17.7373ZM13.4873 16.7502H16.9873V15.2502H13.4873V16.7502ZM16.9873 16.7502H20.4873V15.2502H16.9873V16.7502ZM16.2373 16.0002V19.5002H17.7373V16.0002H16.2373ZM17.7373 16.0002V12.5002H16.2373V16.0002H17.7373Z" fill="black"/>
</svg>
