<svg width="25" height="25" viewBox="0 0 25 25" fill="none" xmlns="http://www.w3.org/2000/svg">
<path fill-rule="evenodd" clip-rule="evenodd" d="M5.12012 12.3672C5.11999 14.9802 6.57523 17.3757 8.89421 18.5799C11.2132 19.7841 14.0098 19.5964 16.1471 18.0932L19.1201 18.3672V12.3672C19.1201 8.50119 15.9861 5.36719 12.1201 5.36719C8.25412 5.36719 5.12012 8.50119 5.12012 12.3672Z" stroke="#909090" stroke-width="1.2" stroke-linecap="round" stroke-linejoin="round"/>
<path d="M9.12008 13.7673C8.7887 13.7673 8.52008 14.036 8.52008 14.3673C8.52008 14.6987 8.7887 14.9673 9.12008 14.9673V13.7673ZM13.1201 14.9673C13.4514 14.9673 13.7201 14.6987 13.7201 14.3673C13.7201 14.036 13.4514 13.7673 13.1201 13.7673V14.9673ZM9.12008 10.7673C8.7887 10.7673 8.52008 11.036 8.52008 11.3673C8.52008 11.6987 8.7887 11.9673 9.12008 11.9673V10.7673ZM15.1201 11.9673C15.4514 11.9673 15.7201 11.6987 15.7201 11.3673C15.7201 11.036 15.4514 10.7673 15.1201 10.7673V11.9673ZM9.12008 14.3673V14.9673H13.1201V14.3673V13.7673H9.12008V14.3673ZM9.12008 11.3673V11.9673H15.1201V11.3673V10.7673H9.12008V11.3673Z" fill="#909090"/>
</svg>
