<svg width="33" height="33" viewBox="0 0 33 33" fill="none" xmlns="http://www.w3.org/2000/svg">
<path fill-rule="evenodd" clip-rule="evenodd" d="M7.20752 16.9889C7.20735 20.4728 9.14767 23.6669 12.2396 25.2725C15.3316 26.878 19.0604 26.6278 21.9102 24.6235L25.8742 24.9889V16.9889C25.8742 11.8342 21.6955 7.65552 16.5409 7.65552C11.3862 7.65552 7.20752 11.8342 7.20752 16.9889Z" stroke="#111111" stroke-width="1.81392" stroke-linecap="round" stroke-linejoin="round"/>
<path d="M12.541 18.7488C12.0401 18.7488 11.634 19.1548 11.634 19.6557C11.634 20.1566 12.0401 20.5627 12.541 20.5627V18.7488ZM17.8743 20.5627C18.3752 20.5627 18.7813 20.1566 18.7813 19.6557C18.7813 19.1548 18.3752 18.7488 17.8743 18.7488V20.5627ZM12.541 14.7488C12.0401 14.7488 11.634 15.1548 11.634 15.6557C11.634 16.1566 12.0401 16.5627 12.541 16.5627V14.7488ZM20.541 16.5627C21.0419 16.5627 21.4479 16.1566 21.4479 15.6557C21.4479 15.1548 21.0419 14.7488 20.541 14.7488V16.5627ZM12.541 20.5627H17.8743V18.7488H12.541V20.5627ZM12.541 16.5627H20.541V14.7488H12.541V16.5627Z" fill="#111111"/>
</svg>
