<svg width="25" height="25" viewBox="0 0 25 25" fill="none" xmlns="http://www.w3.org/2000/svg">
<g id="comment">
<g id="Vector">
<path id="Vector-12" fill-rule="evenodd" clip-rule="evenodd" d="M5.10742 12.7834C5.1073 15.3964 6.56254 17.792 8.88152 18.9962C11.2005 20.2003 13.9971 20.0127 16.1344 18.5094L19.1074 18.7834V12.7834C19.1074 8.91745 15.9734 5.78345 12.1074 5.78345C8.24143 5.78345 5.10742 8.91745 5.10742 12.7834Z" stroke="#02CCDA" stroke-width="1.2" stroke-linecap="round" stroke-linejoin="round"/>
<path id="Vector-13" d="M9.10734 14.1838C8.77597 14.1838 8.50734 14.4524 8.50734 14.7838C8.50734 15.1151 8.77597 15.3838 9.10734 15.3838V14.1838ZM13.1073 15.3838C13.4387 15.3838 13.7073 15.1151 13.7073 14.7838C13.7073 14.4524 13.4387 14.1838 13.1073 14.1838V15.3838ZM9.10734 11.1838C8.77597 11.1838 8.50734 11.4524 8.50734 11.7838C8.50734 12.1151 8.77597 12.3838 9.10734 12.3838V11.1838ZM15.1073 12.3838C15.4387 12.3838 15.7073 12.1151 15.7073 11.7838C15.7073 11.4524 15.4387 11.1838 15.1073 11.1838V12.3838ZM9.10734 14.7838V15.3838H13.1073V14.7838V14.1838H9.10734V14.7838ZM9.10734 11.7838V12.3838H15.1073V11.7838V11.1838H9.10734V11.7838Z" fill="#02CCDA"/>
</g>
</g>
</svg>
