<svg width="35" height="34" viewBox="0 0 35 34" fill="none" xmlns="http://www.w3.org/2000/svg">
<path fill-rule="evenodd" clip-rule="evenodd" d="M7.82373 17.3988C7.82356 21.0021 9.83037 24.3056 13.0283 25.9662C16.2262 27.6268 20.0828 27.368 23.0302 25.2951L27.1301 25.6729V17.3988C27.1301 12.0675 22.8082 7.74561 17.4769 7.74561C12.1456 7.74561 7.82373 12.0675 7.82373 17.3988Z" stroke="#111111" stroke-width="1.65483" stroke-linecap="round" stroke-linejoin="round"/>
<path d="M13.3398 19.3292C12.8829 19.3292 12.5124 19.6996 12.5124 20.1566C12.5124 20.6136 12.8829 20.984 13.3398 20.984V19.3292ZM18.8559 20.984C19.3129 20.984 19.6834 20.6136 19.6834 20.1566C19.6834 19.6996 19.3129 19.3292 18.8559 19.3292V20.984ZM13.3398 15.1921C12.8829 15.1921 12.5124 15.5626 12.5124 16.0195C12.5124 16.4765 12.8829 16.8469 13.3398 16.8469V15.1921ZM21.614 16.8469C22.071 16.8469 22.4414 16.4765 22.4414 16.0195C22.4414 15.5626 22.071 15.1921 21.614 15.1921V16.8469ZM13.3398 20.984H18.8559V19.3292H13.3398V20.984ZM13.3398 16.8469H21.614V15.1921H13.3398V16.8469Z" fill="#111111"/>
</svg>
