<svg width="95" height="95" viewBox="0 0 95 95" fill="none" xmlns="http://www.w3.org/2000/svg">
<rect x="0.505615" y="0.0771484" width="94" height="94" rx="4" fill="#F8F8F8"/>
<path fill-rule="evenodd" clip-rule="evenodd" d="M54.9458 50.5898H40.0636C35.6835 50.8073 31.8029 53.4827 30.042 57.4992C27.9182 61.6689 32.1569 65.6102 37.0866 65.6102H57.9229C62.8555 65.6102 67.0943 61.6689 64.9674 57.4992C63.2065 53.4827 59.3259 50.8073 54.9458 50.5898Z" fill="#909090"/>
<path fill-rule="evenodd" clip-rule="evenodd" d="M56.5171 37.5567C56.5171 42.534 52.4822 46.5689 47.5049 46.5689C42.5276 46.5689 38.4927 42.534 38.4927 37.5567C38.4927 32.5793 42.5276 28.5444 47.5049 28.5444C49.8951 28.5444 52.1874 29.4939 53.8775 31.1841C55.5676 32.8742 56.5171 35.1665 56.5171 37.5567Z" fill="#909090"/>
</svg>
