<svg width="18" height="18" viewBox="0 0 18 18" fill="none" xmlns="http://www.w3.org/2000/svg">
<circle cx="8.98944" cy="8.84735" r="8.4035" fill="#606060"/>
<path d="M5.72342 11.4861C5.55045 11.6591 5.55045 11.9395 5.72342 12.1125C5.8964 12.2855 6.17685 12.2855 6.34982 12.1125L5.72342 11.4861ZM9.3027 9.15964C9.47568 8.98666 9.47568 8.70621 9.3027 8.53324C9.12973 8.36026 8.84928 8.36026 8.6763 8.53324L9.3027 9.15964ZM8.6763 8.53324C8.50333 8.70621 8.50333 8.98666 8.6763 9.15964C8.84928 9.33261 9.12973 9.33261 9.3027 9.15964L8.6763 8.53324ZM12.2556 6.20675C12.4286 6.03378 12.4286 5.75333 12.2556 5.58035C12.0826 5.40738 11.8022 5.40738 11.6292 5.58035L12.2556 6.20675ZM9.3027 8.53324C9.12973 8.36026 8.84928 8.36026 8.6763 8.53324C8.50333 8.70621 8.50333 8.98666 8.6763 9.15964L9.3027 8.53324ZM11.6292 12.1125C11.8022 12.2855 12.0826 12.2855 12.2556 12.1125C12.4286 11.9395 12.4286 11.6591 12.2556 11.4861L11.6292 12.1125ZM8.6763 9.15964C8.84928 9.33261 9.12973 9.33261 9.3027 9.15964C9.47568 8.98666 9.47568 8.70621 9.3027 8.53324L8.6763 9.15964ZM6.34982 5.58035C6.17685 5.40738 5.8964 5.40738 5.72342 5.58035C5.55045 5.75333 5.55045 6.03378 5.72342 6.20675L6.34982 5.58035ZM6.03662 11.7993L6.34982 12.1125L9.3027 9.15964L8.9895 8.84644L8.6763 8.53324L5.72342 11.4861L6.03662 11.7993ZM8.9895 8.84644L9.3027 9.15964L12.2556 6.20675L11.9424 5.89355L11.6292 5.58035L8.6763 8.53324L8.9895 8.84644ZM8.9895 8.84644L8.6763 9.15964L11.6292 12.1125L11.9424 11.7993L12.2556 11.4861L9.3027 8.53324L8.9895 8.84644ZM8.9895 8.84644L9.3027 8.53324L6.34982 5.58035L6.03662 5.89355L5.72342 6.20675L8.6763 9.15964L8.9895 8.84644Z" fill="white"/>
</svg>
