<svg width="22" height="23" viewBox="0 0 22 23" fill="none" xmlns="http://www.w3.org/2000/svg">
<g id="Vector">
<path id="Vector-8" fill-rule="evenodd" clip-rule="evenodd" d="M17.8903 1.72016L19.9783 3.38283C20.18 3.5726 20.2937 3.83767 20.2921 4.11457C20.2906 4.39147 20.174 4.65527 19.9703 4.84283L18.3837 6.74149L12.985 13.1802C12.8906 13.2883 12.7647 13.3643 12.625 13.3975L9.825 14.0322C9.45765 14.0505 9.13785 13.7836 9.09033 13.4188V10.5415C9.09986 10.4028 9.15574 10.2713 9.249 10.1682L14.5477 4.17749L16.3663 2.00549C16.7261 1.53387 17.3843 1.41064 17.8903 1.72016Z" stroke="#02CCDA" stroke-width="1.5" stroke-linecap="round" stroke-linejoin="round"/>
<path id="Vector-9" d="M10.3342 4.7915C10.7484 4.7915 11.0842 4.45572 11.0842 4.0415C11.0842 3.62729 10.7484 3.2915 10.3342 3.2915V4.7915ZM6.60088 4.0415V3.2915L6.59908 3.29151L6.60088 4.0415ZM1.62355 9.0415H2.37355L2.37355 9.0399L1.62355 9.0415ZM1.62355 16.5415L2.37355 16.5431V16.5415H1.62355ZM6.60088 21.5415L6.59908 22.2915H6.60088V21.5415ZM14.0675 21.5415V22.2915L14.0693 22.2915L14.0675 21.5415ZM19.0449 16.5415H18.2949L18.2949 16.5431L19.0449 16.5415ZM19.7949 11.5415C19.7949 11.1273 19.4591 10.7915 19.0449 10.7915C18.6307 10.7915 18.2949 11.1273 18.2949 11.5415H19.7949ZM15.2408 3.89132C15.0827 3.50844 14.6442 3.3262 14.2614 3.48425C13.8785 3.64231 13.6962 4.08082 13.8543 4.46369L15.2408 3.89132ZM18.5454 7.46849C18.9499 7.37908 19.2053 6.97873 19.1159 6.57428C19.0265 6.16984 18.6261 5.91444 18.2217 6.00385L18.5454 7.46849ZM5.35688 17.0422C4.94267 17.0422 4.60688 17.378 4.60688 17.7922C4.60688 18.2064 4.94267 18.5422 5.35688 18.5422V17.0422ZM15.3129 18.5422C15.7271 18.5422 16.0629 18.2064 16.0629 17.7922C16.0629 17.378 15.7271 17.0422 15.3129 17.0422V18.5422ZM10.3342 3.2915H6.60088V4.7915H10.3342V3.2915ZM6.59908 3.29151C3.42993 3.29912 0.866764 5.87396 0.873549 9.04311L2.37355 9.0399C2.36853 6.69902 4.2618 4.79713 6.60268 4.7915L6.59908 3.29151ZM0.873547 9.0415V16.5415H2.37355V9.0415H0.873547ZM0.873549 16.5399C0.866764 19.7091 3.42993 22.2839 6.59908 22.2915L6.60268 20.7915C4.2618 20.7859 2.36853 18.884 2.37355 16.5431L0.873549 16.5399ZM6.60088 22.2915H14.0675V20.7915H6.60088V22.2915ZM14.0693 22.2915C17.2385 22.2839 19.8017 19.7091 19.7949 16.5399L18.2949 16.5431C18.2999 18.884 16.4066 20.7859 14.0657 20.7915L14.0693 22.2915ZM19.7949 16.5415V11.5415H18.2949V16.5415H19.7949ZM13.8543 4.46369C14.1029 5.06583 14.6129 5.92309 15.3697 6.58164C16.1402 7.25205 17.2266 7.76003 18.5454 7.46849L18.2217 6.00385C17.5018 6.16298 16.8849 5.91162 16.3544 5.45003C15.8102 4.97659 15.4216 4.32918 15.2408 3.89132L13.8543 4.46369ZM5.35688 18.5422H15.3129V17.0422H5.35688V18.5422Z" fill="#02CCDA"/>
</g>
</svg>
