<svg width="33" height="33" viewBox="0 0 33 33" fill="none" xmlns="http://www.w3.org/2000/svg">
<path fill-rule="evenodd" clip-rule="evenodd" d="M23.9196 7.82563L26.0076 9.48829C26.2093 9.67807 26.3229 9.94314 26.3214 10.22C26.3199 10.4969 26.2033 10.7607 25.9996 10.9483L24.413 12.847L19.0143 19.2856C18.9199 19.3938 18.794 19.4698 18.6543 19.503L15.8543 20.1376C15.4869 20.156 15.1671 19.889 15.1196 19.5243V16.647C15.1292 16.5082 15.185 16.3768 15.2783 16.2736L20.577 10.283L22.3956 8.11096C22.7554 7.63933 23.4136 7.51611 23.9196 7.82563Z" stroke="#111111" stroke-width="1.5" stroke-linecap="round" stroke-linejoin="round"/>
<path d="M16.3635 10.897C16.7777 10.897 17.1135 10.5612 17.1135 10.147C17.1135 9.73276 16.7777 9.39697 16.3635 9.39697V10.897ZM12.6302 10.147V9.39697L12.6284 9.39697L12.6302 10.147ZM7.65284 15.147H8.40285L8.40284 15.1454L7.65284 15.147ZM7.65284 22.647L8.40284 22.6486V22.647H7.65284ZM12.6302 27.647L12.6284 28.397H12.6302V27.647ZM20.0968 27.647V28.397L20.0986 28.397L20.0968 27.647ZM25.0742 22.647H24.3242L24.3242 22.6486L25.0742 22.647ZM25.8242 17.647C25.8242 17.2328 25.4884 16.897 25.0742 16.897C24.66 16.897 24.3242 17.2328 24.3242 17.647H25.8242ZM21.2701 9.99678C21.112 9.61391 20.6735 9.43166 20.2907 9.58972C19.9078 9.74778 19.7255 10.1863 19.8836 10.5692L21.2701 9.99678ZM24.5747 13.574C24.9792 13.4846 25.2346 13.0842 25.1452 12.6798C25.0558 12.2753 24.6554 12.0199 24.251 12.1093L24.5747 13.574ZM11.3862 23.1476C10.972 23.1476 10.6362 23.4834 10.6362 23.8976C10.6362 24.3119 10.972 24.6476 11.3862 24.6476V23.1476ZM21.3422 24.6476C21.7564 24.6476 22.0922 24.3119 22.0922 23.8976C22.0922 23.4834 21.7564 23.1476 21.3422 23.1476V24.6476ZM16.3635 9.39697H12.6302V10.897H16.3635V9.39697ZM12.6284 9.39697C9.45922 9.40459 6.89606 11.9794 6.90285 15.1486L8.40284 15.1454C8.39783 12.8045 10.2911 10.9026 12.632 10.897L12.6284 9.39697ZM6.90284 15.147V22.647H8.40284V15.147H6.90284ZM6.90285 22.6454C6.89606 25.8145 9.45922 28.3894 12.6284 28.397L12.632 26.897C10.2911 26.8914 8.39783 24.9895 8.40284 22.6486L6.90285 22.6454ZM12.6302 28.397H20.0968V26.897H12.6302V28.397ZM20.0986 28.397C23.2678 28.3894 25.831 25.8145 25.8242 22.6454L24.3242 22.6486C24.3292 24.9895 22.4359 26.8914 20.095 26.897L20.0986 28.397ZM25.8242 22.647V17.647H24.3242V22.647H25.8242ZM19.8836 10.5692C20.1322 11.1713 20.6422 12.0286 21.399 12.6871C22.1695 13.3575 23.2559 13.8655 24.5747 13.574L24.251 12.1093C23.5311 12.2684 22.9142 12.0171 22.3836 11.5555C21.8395 11.0821 21.4509 10.4347 21.2701 9.99678L19.8836 10.5692ZM11.3862 24.6476H21.3422V23.1476H11.3862V24.6476Z" fill="#111111"/>
</svg>
