<svg width="33" height="32" viewBox="0 0 33 32" fill="none" xmlns="http://www.w3.org/2000/svg">
<path fill-rule="evenodd" clip-rule="evenodd" d="M12.473 25.3294C9.63173 25.4186 7.25354 23.193 7.1543 20.3521V15.3734L7.14764 12.8854C6.97637 11.9841 7.43118 11.0799 8.25697 10.6801L13.6503 7.46275C15.3824 6.40141 17.5635 6.40141 19.2956 7.46275L24.689 10.6841C25.5148 11.0839 25.9696 11.9881 25.7983 12.8894L25.7916 15.3788V20.3561C25.6903 23.1954 23.3127 25.4186 20.473 25.3294H12.473Z" stroke="#111111" stroke-width="1.5" stroke-linecap="round" stroke-linejoin="round"/>
<path d="M7.52594 12.2378C7.16833 12.0288 6.70899 12.1493 6.49996 12.5069C6.29093 12.8645 6.41138 13.3238 6.76898 13.5328L7.52594 12.2378ZM13.6941 16.712L14.0791 16.0683L14.0726 16.0645L13.6941 16.712ZM19.2501 16.712L18.8716 16.0645L18.8652 16.0684L19.2501 16.712ZM26.1753 13.5328C26.5329 13.3238 26.6533 12.8645 26.4443 12.5069C26.2353 12.1493 25.7759 12.0288 25.4183 12.2378L26.1753 13.5328ZM18.9576 12.7236C19.3594 12.8241 19.7666 12.5798 19.8671 12.1779C19.9675 11.7761 19.7232 11.3689 19.3214 11.2684L18.9576 12.7236ZM16.4728 11.3293L16.6547 10.6017C16.5353 10.5719 16.4103 10.5719 16.2909 10.6017L16.4728 11.3293ZM13.6242 11.2684C13.2224 11.3689 12.9781 11.7761 13.0785 12.1779C13.179 12.5798 13.5862 12.8241 13.988 12.7236L13.6242 11.2684ZM6.76898 13.5328L13.3157 17.3595L14.0726 16.0645L7.52594 12.2378L6.76898 13.5328ZM13.3091 17.3557C15.2569 18.5206 17.6874 18.5206 19.6351 17.3557L18.8652 16.0684C17.3915 16.9497 15.5527 16.9497 14.0791 16.0684L13.3091 17.3557ZM19.6286 17.3595L26.1753 13.5328L25.4183 12.2378L18.8717 16.0645L19.6286 17.3595ZM19.3214 11.2684L16.6547 10.6017L16.2909 12.057L18.9576 12.7236L19.3214 11.2684ZM16.2909 10.6017L13.6242 11.2684L13.988 12.7236L16.6547 12.057L16.2909 10.6017Z" fill="#111111"/>
</svg>
