<svg width="22" height="22" viewBox="0 0 22 22" fill="none" xmlns="http://www.w3.org/2000/svg">
<path fill-rule="evenodd" clip-rule="evenodd" d="M21.5617 11.2481C21.5617 10.4734 21.4922 9.72852 21.3631 9.01343H11.0737V13.2394H16.9534C16.7001 14.605 15.9304 15.7621 14.7733 16.5368V19.278H18.3041C20.3699 17.376 21.5617 14.5752 21.5617 11.2481Z" fill="#4285F4"/>
<path fill-rule="evenodd" clip-rule="evenodd" d="M11.0738 21.9249C14.0235 21.9249 16.4965 20.9466 18.3041 19.2781L14.7734 16.5369C13.7951 17.1924 12.5437 17.5798 11.0738 17.5798C8.2283 17.5798 5.81984 15.658 4.96073 13.0757H1.31079V15.9063C3.10845 19.4767 6.80309 21.9249 11.0738 21.9249Z" fill="#34A853"/>
<path fill-rule="evenodd" clip-rule="evenodd" d="M4.96065 13.0756C4.74215 12.4201 4.618 11.7199 4.618 10.9998C4.618 10.2798 4.74215 9.57957 4.96065 8.92407V6.09351H1.3107C0.570784 7.56838 0.148682 9.23693 0.148682 10.9998C0.148682 12.7627 0.570784 14.4313 1.3107 15.9061L4.96065 13.0756Z" fill="#FBBC05"/>
<path fill-rule="evenodd" clip-rule="evenodd" d="M11.0738 4.42012C12.6778 4.42012 14.1179 4.97134 15.2501 6.05391L18.3836 2.92042C16.4916 1.15752 14.0186 0.0749512 11.0738 0.0749512C6.80309 0.0749512 3.10845 2.52314 1.31079 6.09363L4.96073 8.9242C5.81984 6.34193 8.2283 4.42012 11.0738 4.42012Z" fill="#EA4335"/>
</svg>
