<svg width="14" height="14" viewBox="0 0 14 14" fill="none" xmlns="http://www.w3.org/2000/svg">
<g id="GroupIcon" clip-path="url(#clip0_1460_1944)">
<path id="Vector" d="M0.987305 9.48154C0.987305 9.1746 1.0663 8.89248 1.22428 8.63519C1.38227 8.3779 1.59217 8.18154 1.85397 8.04613C2.41369 7.76627 2.98244 7.55637 3.56022 7.41644C4.138 7.27651 4.7248 7.20654 5.32064 7.20654C5.91647 7.20654 6.50328 7.27651 7.08105 7.41644C7.65883 7.55637 8.22758 7.76627 8.7873 8.04613C9.04911 8.18154 9.25901 8.3779 9.41699 8.63519C9.57498 8.89248 9.65397 9.1746 9.65397 9.48154V9.91488C9.65397 10.2128 9.5479 10.4678 9.33574 10.68C9.12359 10.8921 8.86855 10.9982 8.57064 10.9982H2.07064C1.77272 10.9982 1.51769 10.8921 1.30553 10.68C1.09338 10.4678 0.987305 10.2128 0.987305 9.91488V9.48154ZM10.4394 10.9982C10.5387 10.8357 10.6132 10.6619 10.6628 10.4769C10.7125 10.2918 10.7373 10.1045 10.7373 9.91488V9.37321C10.7373 8.97599 10.6267 8.59456 10.4055 8.22894C10.1844 7.86331 9.87064 7.5496 9.46439 7.28779C9.9248 7.34196 10.3581 7.43449 10.7644 7.5654C11.1706 7.6963 11.5498 7.85654 11.9019 8.04613C12.2269 8.22668 12.4752 8.42755 12.6467 8.64873C12.8182 8.86991 12.904 9.1114 12.904 9.37321V9.91488C12.904 10.2128 12.7979 10.4678 12.5857 10.68C12.3736 10.8921 12.1186 10.9982 11.8206 10.9982H10.4394ZM5.32064 6.66488C4.7248 6.66488 4.21474 6.45272 3.79043 6.02842C3.36612 5.60411 3.15397 5.09404 3.15397 4.49821C3.15397 3.90238 3.36612 3.39231 3.79043 2.968C4.21474 2.5437 4.7248 2.33154 5.32064 2.33154C5.91647 2.33154 6.42654 2.5437 6.85085 2.968C7.27515 3.39231 7.4873 3.90238 7.4873 4.49821C7.4873 5.09404 7.27515 5.60411 6.85085 6.02842C6.42654 6.45272 5.91647 6.66488 5.32064 6.66488ZM10.7373 4.49821C10.7373 5.09404 10.5252 5.60411 10.1008 6.02842C9.67654 6.45272 9.16647 6.66488 8.57064 6.66488C8.47133 6.66488 8.34494 6.65359 8.19147 6.63102C8.038 6.60845 7.91161 6.58363 7.8123 6.55654C8.05605 6.26765 8.24338 5.94717 8.37428 5.59508C8.50519 5.243 8.57064 4.87738 8.57064 4.49821C8.57064 4.11904 8.50519 3.75342 8.37428 3.40133C8.24338 3.04925 8.05605 2.72877 7.8123 2.43988C7.93869 2.39474 8.06508 2.3654 8.19147 2.35186C8.31786 2.33831 8.44425 2.33154 8.57064 2.33154C9.16647 2.33154 9.67654 2.5437 10.1008 2.968C10.5252 3.39231 10.7373 3.90238 10.7373 4.49821Z" fill="#02CCDA"/>
</g>
<defs>
<clipPath id="clip0_1460_1944">
<rect width="13" height="13" fill="white" transform="translate(0.445801 0.164795)"/>
</clipPath>
</defs>
</svg>
