<svg width="25" height="25" viewBox="0 0 25 25" fill="none" xmlns="http://www.w3.org/2000/svg">
<path d="M18.0723 19.75C18.4865 19.75 18.8223 19.4142 18.8223 19C18.8223 18.5858 18.4865 18.25 18.0723 18.25V19.75ZM6.07227 18.25C5.65805 18.25 5.32227 18.5858 5.32227 19C5.32227 19.4142 5.65805 19.75 6.07227 19.75V18.25ZM7.03627 19C7.03627 19.4142 7.37205 19.75 7.78627 19.75C8.20048 19.75 8.53627 19.4142 8.53627 19H7.03627ZM7.78627 15.938H8.53627C8.53627 15.9277 8.53605 15.9174 8.53563 15.9072L7.78627 15.938ZM8.78627 14.103L8.4472 13.434C8.43323 13.4411 8.41949 13.4486 8.40599 13.4566L8.78627 14.103ZM10.9803 12.991L11.3193 13.66L11.325 13.6571L10.9803 12.991ZM13.1653 12.991L12.8205 13.6571L12.8266 13.6602L13.1653 12.991ZM15.3563 14.1L15.7365 13.4536C15.7229 13.4455 15.7091 13.438 15.695 13.4308L15.3563 14.1ZM16.3563 15.935L15.6069 15.9042C15.6065 15.9144 15.6063 15.9247 15.6063 15.935L16.3563 15.935ZM15.6063 19C15.6063 19.4142 15.9421 19.75 16.3563 19.75C16.7705 19.75 17.1063 19.4142 17.1063 19H15.6063ZM17.1066 5C17.1066 4.58579 16.7708 4.25 16.3566 4.25C15.9424 4.25 15.6066 4.58579 15.6066 5H17.1066ZM16.3566 8.5H15.6066C15.6066 8.51028 15.6068 8.52057 15.6072 8.53084L16.3566 8.5ZM15.3566 10.335L15.6957 11.004C15.7096 10.9969 15.7234 10.9894 15.7369 10.9814L15.3566 10.335ZM13.1646 11.446L12.8255 10.777L12.8199 10.7799L13.1646 11.446ZM10.9796 11.446L11.3243 10.7799L11.3188 10.7771L10.9796 11.446ZM8.78859 10.335L8.40832 10.9814C8.42178 10.9894 8.43548 10.9969 8.4494 11.0039L8.78859 10.335ZM7.78859 8.5L8.53796 8.53084C8.53838 8.52057 8.53859 8.51028 8.53859 8.5L7.78859 8.5ZM8.53859 5C8.53859 4.58579 8.2028 4.25 7.78859 4.25C7.37438 4.25 7.03859 4.58579 7.03859 5H8.53859ZM16.3593 4.25C15.9451 4.25 15.6093 4.58579 15.6093 5C15.6093 5.41421 15.9451 5.75 16.3593 5.75V4.25ZM18.0723 5.75C18.4865 5.75 18.8223 5.41421 18.8223 5C18.8223 4.58579 18.4865 4.25 18.0723 4.25V5.75ZM16.3583 5.75C16.7725 5.75 17.1083 5.41421 17.1083 5C17.1083 4.58579 16.7725 4.25 16.3583 4.25V5.75ZM7.78627 4.25C7.37205 4.25 7.03627 4.58579 7.03627 5C7.03627 5.41421 7.37205 5.75 7.78627 5.75V4.25ZM7.78627 5.75C8.20048 5.75 8.53627 5.41421 8.53627 5C8.53627 4.58579 8.20048 4.25 7.78627 4.25V5.75ZM6.07227 4.25C5.65805 4.25 5.32227 4.58579 5.32227 5C5.32227 5.41421 5.65805 5.75 6.07227 5.75V4.25ZM10.7362 8.35219C10.3784 8.14346 9.91919 8.26428 9.71046 8.62205C9.50172 8.97982 9.62254 9.43907 9.98031 9.64781L10.7362 8.35219ZM12.0723 10L11.6943 10.6478C11.9279 10.7841 12.2167 10.7841 12.4502 10.6478L12.0723 10ZM14.1642 9.64781C14.522 9.43907 14.6428 8.97982 14.4341 8.62205C14.2253 8.26428 13.7661 8.14346 13.4083 8.35219L14.1642 9.64781ZM18.0723 19V18.25H6.07227V19V19.75H18.0723V19ZM7.78627 19H8.53627V15.938H7.78627H7.03627V19H7.78627ZM7.78627 15.938L8.53563 15.9072C8.51617 15.4344 8.7587 14.9894 9.16654 14.7494L8.78627 14.103L8.40599 13.4566C7.52098 13.9772 6.99468 14.9429 7.0369 15.9688L7.78627 15.938ZM8.78627 14.103L9.12533 14.772L11.3193 13.66L10.9803 12.991L10.6412 12.322L8.4472 13.434L8.78627 14.103ZM10.9803 12.991L11.325 13.6571C11.794 13.4144 12.3516 13.4144 12.8206 13.6571L13.1653 12.991L13.51 12.3249C12.6086 11.8584 11.5369 11.8584 10.6356 12.3249L10.9803 12.991ZM13.1653 12.991L12.8266 13.6602L15.0176 14.7692L15.3563 14.1L15.695 13.4308L13.504 12.3218L13.1653 12.991ZM15.3563 14.1L14.976 14.7464C15.3838 14.9864 15.6264 15.4314 15.6069 15.9042L16.3563 15.935L17.1056 15.9658C17.1479 14.9399 16.6216 13.9742 15.7365 13.4536L15.3563 14.1ZM16.3563 15.935H15.6063V19H16.3563H17.1063V15.935H16.3563ZM16.3566 5H15.6066V8.5H16.3566H17.1066V5H16.3566ZM16.3566 8.5L15.6072 8.53084C15.6267 9.0036 15.3842 9.44865 14.9763 9.68855L15.3566 10.335L15.7369 10.9814C16.6219 10.4608 17.1482 9.49507 17.106 8.46916L16.3566 8.5ZM15.3566 10.335L15.0175 9.66602L12.8255 10.777L13.1646 11.446L13.5037 12.115L15.6957 11.004L15.3566 10.335ZM13.1646 11.446L12.8199 10.7799C12.3509 11.0226 11.7933 11.0226 11.3243 10.7799L10.9796 11.446L10.6349 12.1121C11.5362 12.5786 12.6079 12.5786 13.5093 12.1121L13.1646 11.446ZM10.9796 11.446L11.3188 10.7771L9.12778 9.66608L8.78859 10.335L8.4494 11.0039L10.6404 12.1149L10.9796 11.446ZM8.78859 10.335L9.16886 9.68855C8.76103 9.44865 8.5185 9.0036 8.53796 8.53084L7.78859 8.5L7.03923 8.46916C6.997 9.49507 7.5233 10.4608 8.40832 10.9814L8.78859 10.335ZM7.78859 8.5H8.53859V5H7.78859H7.03859V8.5H7.78859ZM16.3593 5V5.75H18.0723V5V4.25H16.3593V5ZM16.3583 5V4.25H7.78627V5V5.75H16.3583V5ZM7.78627 5V4.25H6.07227V5V5.75H7.78627V5ZM10.3583 9L9.98031 9.64781L11.6943 10.6478L12.0723 10L12.4502 9.35219L10.7362 8.35219L10.3583 9ZM12.0723 10L12.4502 10.6478L14.1642 9.64781L13.7863 9L13.4083 8.35219L11.6943 9.35219L12.0723 10Z" fill="#606060"/>
</svg>
