<svg width="25" height="24" viewBox="0 0 25 24" fill="none" xmlns="http://www.w3.org/2000/svg">
<path d="M14.1179 9.95475C13.825 9.66186 13.3501 9.66188 13.0573 9.95478C12.7644 10.2477 12.7644 10.7226 13.0573 11.0154L14.1179 9.95475ZM13.5876 15.0291L13.0573 14.4987L13.0573 14.4988L13.5876 15.0291ZM10.5576 18.0591L11.0879 18.5894L11.0879 18.5894L10.5576 18.0591ZM6.0136 13.5151L6.54393 14.0454L6.54393 14.0454L6.0136 13.5151ZM8.05893 12.5304C8.35183 12.2375 8.35183 11.7627 8.05893 11.4698C7.76604 11.1769 7.29117 11.1769 6.99827 11.4698L8.05893 12.5304ZM10.0273 14.0454C10.3202 14.3383 10.7951 14.3383 11.0879 14.0454C11.3808 13.7525 11.3808 13.2776 11.0879 12.9847L10.0273 14.0454ZM10.5576 8.97109L11.0879 9.50144L11.0879 9.50142L10.5576 8.97109ZM13.5876 5.94109L14.1179 6.47142L14.1179 6.47142L13.5876 5.94109ZM18.1316 5.94109L17.6013 6.47142L17.6013 6.47142L18.1316 5.94109ZM18.1316 10.4851L18.6619 11.0154L18.6619 11.0154L18.1316 10.4851ZM16.0863 11.4698C15.7934 11.7627 15.7934 12.2375 16.0863 12.5304C16.3792 12.8233 16.854 12.8233 17.1469 12.5304L16.0863 11.4698ZM13.5876 10.4851L13.0573 11.0154C13.5192 11.4773 13.7787 12.1038 13.7787 12.7571H14.5287H15.2787C15.2787 11.706 14.8612 10.698 14.1179 9.95475L13.5876 10.4851ZM14.5287 12.7571H13.7787C13.7787 13.4103 13.5192 14.0368 13.0573 14.4987L13.5876 15.0291L14.1179 15.5594C14.8612 14.8162 15.2787 13.8082 15.2787 12.7571H14.5287ZM13.5876 15.0291L13.0573 14.4988L10.0273 17.5288L10.5576 18.0591L11.0879 18.5894L14.1179 15.5594L13.5876 15.0291ZM10.5576 18.0591L10.0273 17.5288C9.06537 18.4907 7.50583 18.4907 6.54393 17.5288L6.0136 18.0591L5.48327 18.5894C7.03096 20.1371 9.54025 20.1371 11.0879 18.5894L10.5576 18.0591ZM6.0136 18.0591L6.54393 17.5288C5.58204 16.5669 5.58204 15.0073 6.54393 14.0454L6.0136 13.5151L5.48327 12.9848C3.93559 14.5324 3.93559 17.0417 5.48327 18.5894L6.0136 18.0591ZM6.0136 13.5151L6.54393 14.0454L8.05893 12.5304L7.5286 12.0001L6.99827 11.4698L5.48327 12.9848L6.0136 13.5151ZM10.5576 13.5151L11.0879 12.9847C10.626 12.5228 10.3665 11.8963 10.3665 11.2431H9.61647H8.86647C8.86647 12.2942 9.28403 13.3022 10.0273 14.0454L10.5576 13.5151ZM9.61647 11.2431H10.3665C10.3665 10.5898 10.626 9.96334 11.0879 9.50144L10.5576 8.97109L10.0273 8.44075C9.28403 9.18396 8.86647 10.192 8.86647 11.2431H9.61647ZM10.5576 8.97109L11.0879 9.50142L14.1179 6.47142L13.5876 5.94109L13.0573 5.41076L10.0273 8.44076L10.5576 8.97109ZM13.5876 5.94109L14.1179 6.47142C15.0798 5.50953 16.6394 5.50953 17.6013 6.47142L18.1316 5.94109L18.6619 5.41076C17.1142 3.86308 14.605 3.86308 13.0573 5.41076L13.5876 5.94109ZM18.1316 5.94109L17.6013 6.47142C18.5632 7.43332 18.5632 8.99287 17.6013 9.95476L18.1316 10.4851L18.6619 11.0154C20.2096 9.46774 20.2096 6.95845 18.6619 5.41076L18.1316 5.94109ZM18.1316 10.4851L17.6013 9.95476L16.0863 11.4698L16.6166 12.0001L17.1469 12.5304L18.6619 11.0154L18.1316 10.4851Z" fill="#606060"/>
</svg>
