<svg width="33" height="32" viewBox="0 0 33 32" fill="none" xmlns="http://www.w3.org/2000/svg">
<path d="M18.7309 13.4499C18.438 13.157 17.9632 13.157 17.6703 13.4499C17.3774 13.7428 17.3774 14.2177 17.6703 14.5106L18.7309 13.4499ZM18.2006 20.0389L17.6703 19.5085L17.6703 19.5085L18.2006 20.0389ZM14.1606 24.0789L14.691 24.6092L14.1606 24.0789ZM8.10196 18.0202L8.63229 18.5505L8.63229 18.5505L8.10196 18.0202ZM10.6523 16.5305C10.9452 16.2376 10.9452 15.7628 10.6523 15.4699C10.3594 15.177 9.88452 15.177 9.59163 15.4699L10.6523 16.5305ZM13.6303 18.5506C13.9232 18.8434 14.3981 18.8434 14.691 18.5505C14.9839 18.2576 14.9838 17.7827 14.6909 17.4899L13.6303 18.5506ZM14.1606 11.9615L14.6909 12.4919L14.691 12.4919L14.1606 11.9615ZM18.2006 7.92154L18.731 8.45187L18.2006 7.92154ZM24.2593 7.92154L23.729 8.45187V8.45187L24.2593 7.92154ZM24.2593 13.9802L24.7896 14.5105V14.5105L24.2593 13.9802ZM21.709 15.4699C21.4161 15.7628 21.4161 16.2376 21.709 16.5305C22.0019 16.8234 22.4767 16.8234 22.7696 16.5305L21.709 15.4699ZM17.6703 14.5106C18.3331 15.1733 18.7055 16.0722 18.7055 17.0095H20.2055C20.2055 15.6744 19.6751 14.3939 18.7309 13.4499L17.6703 14.5106ZM18.7055 17.0095C18.7055 17.9468 18.3331 18.8458 17.6703 19.5085L18.7309 20.5692C19.6751 19.6252 20.2055 18.3447 20.2055 17.0095H18.7055ZM17.6703 19.5085L13.6303 23.5485L14.691 24.6092L18.731 20.5692L17.6703 19.5085ZM13.6303 23.5485C12.2501 24.9287 10.0125 24.9287 8.63229 23.5485L7.57163 24.6092C9.53758 26.5751 12.725 26.5751 14.691 24.6092L13.6303 23.5485ZM8.63229 23.5485C7.25213 22.1684 7.25213 19.9307 8.63229 18.5505L7.57163 17.4899C5.60568 19.4558 5.60568 22.6433 7.57163 24.6092L8.63229 23.5485ZM8.63229 18.5505L10.6523 16.5305L9.59163 15.4699L7.57163 17.4899L8.63229 18.5505ZM14.6909 17.4899C14.0281 16.8271 13.6558 15.9282 13.6558 14.9909H12.1558C12.1558 16.326 12.6862 17.6065 13.6303 18.5506L14.6909 17.4899ZM13.6558 14.9909C13.6558 14.0536 14.0281 13.1546 14.6909 12.4919L13.6303 11.4312C12.6862 12.3753 12.1558 13.6557 12.1558 14.9909H13.6558ZM14.691 12.4919L18.731 8.45187L17.6703 7.39121L13.6303 11.4312L14.691 12.4919ZM18.731 8.45187C20.1111 7.07171 22.3488 7.07171 23.729 8.45187L24.7896 7.39121C22.8237 5.42526 19.6362 5.42526 17.6703 7.39121L18.731 8.45187ZM23.729 8.45187C25.1091 9.83203 25.1091 12.0697 23.729 13.4499L24.7896 14.5105C26.7556 12.5446 26.7556 9.35716 24.7896 7.39121L23.729 8.45187ZM23.729 13.4499L21.709 15.4699L22.7696 16.5305L24.7896 14.5105L23.729 13.4499Z" fill="#111111"/>
</svg>
