<svg width="33" height="33" viewBox="0 0 33 33" fill="none" xmlns="http://www.w3.org/2000/svg">
<path fill-rule="evenodd" clip-rule="evenodd" d="M12.6742 6.32203H20.0355C20.112 6.32203 20.188 6.32692 20.2635 6.3367C23.26 6.54625 25.5867 9.03295 25.5968 12.0367V20.6087C25.5858 23.7715 23.0156 26.3279 19.8528 26.322H12.6742C9.51086 26.3279 6.94047 23.7707 6.93018 20.6074V12.0367C6.94047 8.87339 9.51086 6.31613 12.6742 6.32203Z" stroke="#111111" stroke-width="1.81392" stroke-linecap="round" stroke-linejoin="round"/>
<path d="M25.5968 12.9436C26.0977 12.9436 26.5038 12.5376 26.5038 12.0367C26.5038 11.5358 26.0977 11.1297 25.5968 11.1297V12.9436ZM20.2635 12.0367H19.3566C19.3566 12.5376 19.7626 12.9436 20.2635 12.9436V12.0367ZM21.1705 6.33667C21.1705 5.83577 20.7644 5.42971 20.2635 5.42971C19.7626 5.42971 19.3566 5.83577 19.3566 6.33667H21.1705ZM14.9302 21.8953C15.4311 21.8953 15.8371 21.4893 15.8371 20.9884C15.8371 20.4875 15.4311 20.0814 14.9302 20.0814V21.8953ZM10.9302 20.0814C10.4293 20.0814 10.0232 20.4875 10.0232 20.9884C10.0232 21.4893 10.4293 21.8953 10.9302 21.8953V20.0814ZM20.2635 17.8953C20.7644 17.8953 21.1705 17.4893 21.1705 16.9884C21.1705 16.4875 20.7644 16.0814 20.2635 16.0814V17.8953ZM10.9302 16.0814C10.4293 16.0814 10.0232 16.4875 10.0232 16.9884C10.0232 17.4893 10.4293 17.8953 10.9302 17.8953V16.0814ZM25.5968 11.1297H20.2635V12.9436H25.5968V11.1297ZM21.1705 12.0367V6.33667H19.3566V12.0367H21.1705ZM14.9302 20.0814H10.9302V21.8953H14.9302V20.0814ZM20.2635 16.0814H10.9302V17.8953H20.2635V16.0814Z" fill="#111111"/>
</svg>
