<svg width="21" height="22" viewBox="0 0 21 22" fill="none" xmlns="http://www.w3.org/2000/svg">
<path d="M2.07695 14.0311C2.10025 13.5319 1.71441 13.1082 1.21513 13.0849C0.715859 13.0616 0.292224 13.4475 0.268917 13.9467L2.07695 14.0311ZM6.91693 20.3263L6.87035 21.2301C6.88586 21.2309 6.9014 21.2313 6.91693 21.2313V20.3263ZM14.0956 20.3263V21.2313C14.1111 21.2313 14.1267 21.2309 14.1422 21.2301L14.0956 20.3263ZM20.7436 13.9467C20.7203 13.4475 20.2967 13.0616 19.7974 13.0849C19.2981 13.1082 18.9123 13.5319 18.9356 14.0311L20.7436 13.9467ZM0.267996 13.9891C0.267996 14.489 0.673178 14.8941 1.173 14.8941C1.67281 14.8941 2.078 14.489 2.078 13.9891H0.267996ZM1.173 12.1078H2.078C2.078 12.0937 2.07766 12.0795 2.077 12.0654L1.173 12.1078ZM6.917 5.76914V4.86414C6.90146 4.86414 6.88593 4.86454 6.87042 4.86534L6.917 5.76914ZM14.0957 5.76914L14.1422 4.86534C14.1267 4.86454 14.1112 4.86414 14.0957 4.86414V5.76914ZM19.8397 12.1078L18.9357 12.0654C18.935 12.0795 18.9347 12.0937 18.9347 12.1078H19.8397ZM18.9347 13.9891C18.9347 14.489 19.3398 14.8941 19.8397 14.8941C20.3395 14.8941 20.7447 14.489 20.7447 13.9891H18.9347ZM1.17269 13.0841C0.672874 13.0841 0.267692 13.4892 0.267692 13.9891C0.267692 14.4889 0.672874 14.8941 1.17269 14.8941V13.0841ZM5.83936 14.8941C6.33918 14.8941 6.74436 14.4889 6.74436 13.9891C6.74436 13.4892 6.33918 13.0841 5.83936 13.0841V14.8941ZM4.93484 13.989C4.93484 14.4888 5.34002 14.894 5.83984 14.894C6.33965 14.894 6.74484 14.4888 6.74484 13.989H4.93484ZM6.74484 12.6183C6.74484 12.1185 6.33965 11.7133 5.83984 11.7133C5.34002 11.7133 4.93484 12.1185 4.93484 12.6183H6.74484ZM6.74484 13.9876C6.74484 13.4878 6.33965 13.0826 5.83984 13.0826C5.34002 13.0826 4.93484 13.4878 4.93484 13.9876H6.74484ZM4.93484 15.357C4.93484 15.8568 5.34002 16.262 5.83984 16.262C6.33965 16.262 6.74484 15.8568 6.74484 15.357H4.93484ZM5.83938 13.0828C5.33956 13.0828 4.93438 13.488 4.93438 13.9878C4.93438 14.4876 5.33956 14.8928 5.83938 14.8928V13.0828ZM15.1727 14.8928C15.6725 14.8928 16.0777 14.4876 16.0777 13.9878C16.0777 13.488 15.6725 13.0828 15.1727 13.0828V14.8928ZM19.8394 14.8928C20.3392 14.8928 20.7444 14.4876 20.7444 13.9878C20.7444 13.488 20.3392 13.0828 19.8394 13.0828V14.8928ZM15.1727 13.0828C14.6729 13.0828 14.2677 13.488 14.2677 13.9878C14.2677 14.4876 14.6729 14.8928 15.1727 14.8928V13.0828ZM14.2682 13.9877C14.2682 14.4875 14.6734 14.8927 15.1732 14.8927C15.673 14.8927 16.0782 14.4875 16.0782 13.9877H14.2682ZM16.0782 12.6183C16.0782 12.1185 15.673 11.7133 15.1732 11.7133C14.6734 11.7133 14.2682 12.1185 14.2682 12.6183H16.0782ZM16.0782 13.9876C16.0782 13.4878 15.673 13.0826 15.1732 13.0826C14.6734 13.0826 14.2682 13.4878 14.2682 13.9876H16.0782ZM14.2682 15.357C14.2682 15.8568 14.6734 16.262 15.1732 16.262C15.673 16.262 16.0782 15.8568 16.0782 15.357H14.2682ZM5.60123 5.78504C5.60123 6.28485 6.00641 6.69004 6.50623 6.69004C7.00605 6.69004 7.41123 6.28485 7.41123 5.78504H5.60123ZM6.50623 5.76904H5.60123H6.50623ZM13.8066 5.80504C13.8066 6.30485 14.2117 6.71004 14.7116 6.71004C15.2114 6.71004 15.6166 6.30485 15.6166 5.80504H13.8066ZM0.268917 13.9467C0.0900923 17.7775 3.04049 21.0327 6.87035 21.2301L6.96352 19.4225C4.12854 19.2763 1.94458 16.8668 2.07695 14.0311L0.268917 13.9467ZM6.91693 21.2313H14.0956V19.4213H6.91693V21.2313ZM14.1422 21.2301C17.972 21.0327 20.9224 17.7775 20.7436 13.9467L18.9356 14.0311C19.068 16.8668 16.884 19.2763 14.049 19.4225L14.1422 21.2301ZM2.078 13.9891V12.1078H0.267996V13.9891H2.078ZM2.077 12.0654C1.94399 9.22933 4.12813 6.81906 6.96357 6.67294L6.87042 4.86534C3.03993 5.06273 0.0892944 8.31885 0.26899 12.1502L2.077 12.0654ZM6.917 6.67414H14.0957V4.86414H6.917V6.67414ZM14.0491 6.67294C16.8845 6.81906 19.0687 9.22933 18.9357 12.0654L20.7437 12.1502C20.9234 8.31885 17.9727 5.06273 14.1422 4.86534L14.0491 6.67294ZM18.9347 12.1078V13.9891H20.7447V12.1078H18.9347ZM1.17269 14.8941H5.83936V13.0841H1.17269V14.8941ZM6.74484 13.989V12.6183H4.93484V13.989H6.74484ZM4.93484 13.9876V15.357H6.74484V13.9876H4.93484ZM5.83938 14.8928H15.1727V13.0828H5.83938V14.8928ZM19.8394 13.0828H15.1727V14.8928H19.8394V13.0828ZM16.0782 13.9877V12.6183H14.2682V13.9877H16.0782ZM14.2682 13.9876V15.357H16.0782V13.9876H14.2682ZM7.41123 5.78504V5.76904H5.60123V5.78504H7.41123ZM7.41123 5.76904C7.41123 4.00301 8.84287 2.57137 10.6089 2.57137V0.76137C7.84324 0.76137 5.60123 3.00338 5.60123 5.76904H7.41123ZM10.6089 2.57137C12.3749 2.57137 13.8066 4.00301 13.8066 5.76904H15.6166C15.6166 3.00338 13.3746 0.76137 10.6089 0.76137V2.57137ZM13.8066 5.76904V5.80504H15.6166V5.76904H13.8066Z" fill="#CACACA"/>
</svg>
