<svg width="23" height="22" viewBox="0 0 23 22" fill="none" xmlns="http://www.w3.org/2000/svg">
<path d="M20.2662 7.03526C20.284 7.53584 20.7043 7.92719 21.2048 7.90937C21.7054 7.89154 22.0968 7.47129 22.079 6.97071L20.2662 7.03526ZM15.4579 1.66965V2.57661C15.468 2.57661 15.4781 2.57644 15.4882 2.5761L15.4579 1.66965ZM6.88724 1.66965L6.85694 2.5761C6.86703 2.57644 6.87714 2.57661 6.88724 2.57661V1.66965ZM0.266185 6.97071C0.24836 7.47129 0.639711 7.89154 1.14029 7.90937C1.64088 7.92719 2.06113 7.53584 2.07895 7.03526L0.266185 6.97071ZM22.0795 7.00309C22.0795 6.50219 21.6734 6.09613 21.1725 6.09613C20.6716 6.09613 20.2656 6.50219 20.2656 7.00309H22.0795ZM21.1725 15.0031L22.0789 15.0354C22.0793 15.0246 22.0795 15.0139 22.0795 15.0031H21.1725ZM15.4579 20.3364L15.4881 19.43C15.4781 19.4296 15.468 19.4295 15.4579 19.4295V20.3364ZM6.88718 20.3364V19.4295C6.87708 19.4295 6.86698 19.4296 6.85689 19.43L6.88718 20.3364ZM1.17252 15.0031H0.265559C0.265559 15.0139 0.265751 15.0246 0.266134 15.0354L1.17252 15.0031ZM2.07948 7.00309C2.07948 6.50219 1.67342 6.09613 1.17252 6.09613C0.671618 6.09613 0.265559 6.50219 0.265559 7.00309H2.07948ZM21.63 7.78622C22.0625 7.53357 22.2083 6.97813 21.9556 6.54562C21.703 6.11311 21.1476 5.96731 20.715 6.21996L21.63 7.78622ZM14.1539 11.1031L13.6964 10.3199L13.6888 10.3244L14.1539 11.1031ZM8.19118 11.1031L8.65623 10.3244L8.64866 10.32L8.19118 11.1031ZM1.62999 6.21996C1.19748 5.96731 0.642041 6.11311 0.389387 6.54562C0.136733 6.97813 0.282535 7.53357 0.715047 7.78622L1.62999 6.21996ZM22.079 6.97071C21.9526 3.42157 18.977 0.644568 15.4276 0.7632L15.4882 2.5761C18.0379 2.49088 20.1754 4.48574 20.2662 7.03526L22.079 6.97071ZM15.4579 0.762694H6.88724V2.57661H15.4579V0.762694ZM6.91753 0.7632C3.36813 0.644568 0.392566 3.42157 0.266185 6.97071L2.07895 7.03526C2.16974 4.48574 4.30723 2.49088 6.85694 2.5761L6.91753 0.7632ZM20.2656 7.00309V15.0031H22.0795V7.00309H20.2656ZM20.2661 14.9708C20.1753 17.5203 18.0379 19.5152 15.4881 19.43L15.4276 21.2429C18.977 21.3615 21.9525 18.5845 22.0789 15.0354L20.2661 14.9708ZM15.4579 19.4295H6.88718V21.2434H15.4579V19.4295ZM6.85689 19.43C4.30718 19.5152 2.16969 17.5203 2.0789 14.9708L0.266134 15.0354C0.392515 18.5845 3.36808 21.3615 6.91748 21.2429L6.85689 19.43ZM2.07948 15.0031V7.00309H0.265559V15.0031H2.07948ZM20.715 6.21996L13.6964 10.32L14.6113 11.8862L21.63 7.78622L20.715 6.21996ZM13.6888 10.3244C12.139 11.25 10.2061 11.25 8.65621 10.3244L7.72616 11.8818C9.84887 13.1494 12.4962 13.1494 14.6189 11.8818L13.6888 10.3244ZM8.64866 10.32L1.62999 6.21996L0.715047 7.78622L7.73371 11.8862L8.64866 10.32Z" fill="#02CCDA"/>
</svg>
