<svg width="22" height="23" viewBox="0 0 22 23" fill="none" xmlns="http://www.w3.org/2000/svg">
<path fill-rule="evenodd" clip-rule="evenodd" d="M7.43846 1.83351H14.7998C14.8762 1.83351 14.9522 1.8384 15.0278 1.84817C18.0242 2.05772 20.351 4.54443 20.3611 7.54817V16.1202C20.3501 19.283 17.7799 21.8394 14.6171 21.8335H7.43846C4.27514 21.8394 1.70475 19.2821 1.69446 16.1188V7.54817C1.70475 4.38486 4.27514 1.8276 7.43846 1.83351Z" stroke="#02CCDA" stroke-width="1.81392" stroke-linecap="round" stroke-linejoin="round"/>
<path d="M20.3611 8.45509C20.862 8.45509 21.2681 8.04903 21.2681 7.54813C21.2681 7.04723 20.862 6.64117 20.3611 6.64117V8.45509ZM15.0278 7.54813H14.1209C14.1209 8.04903 14.5269 8.45509 15.0278 8.45509V7.54813ZM15.9348 1.84813C15.9348 1.34723 15.5287 0.941174 15.0278 0.941174C14.5269 0.941174 14.1209 1.34723 14.1209 1.84813H15.9348ZM9.69448 17.4068C10.1954 17.4068 10.6014 17.0007 10.6014 16.4998C10.6014 15.9989 10.1954 15.5929 9.69448 15.5929V17.4068ZM5.69448 15.5929C5.19358 15.5929 4.78752 15.9989 4.78752 16.4998C4.78752 17.0007 5.19358 17.4068 5.69448 17.4068V15.5929ZM15.0278 13.4068C15.5287 13.4068 15.9348 13.0007 15.9348 12.4998C15.9348 11.9989 15.5287 11.5929 15.0278 11.5929V13.4068ZM5.69448 11.5929C5.19358 11.5929 4.78752 11.9989 4.78752 12.4998C4.78752 13.0007 5.19358 13.4068 5.69448 13.4068V11.5929ZM20.3611 6.64117H15.0278V8.45509H20.3611V6.64117ZM15.9348 7.54813V1.84813H14.1209V7.54813H15.9348ZM9.69448 15.5929H5.69448V17.4068H9.69448V15.5929ZM15.0278 11.5929H5.69448V13.4068H15.0278V11.5929Z" fill="#02CCDA"/>
</svg>
