<svg width="18" height="20" viewBox="0 0 18 20" fill="none" xmlns="http://www.w3.org/2000/svg">
<path fill-rule="evenodd" clip-rule="evenodd" d="M12.2342 12.3888H5.62889C3.68481 12.4853 1.96244 13.6728 1.18089 15.4554C0.23822 17.3061 2.11955 19.0554 4.30755 19.0554H13.5556C15.7449 19.0554 17.6262 17.3061 16.6822 15.4554C15.9007 13.6728 14.1783 12.4853 12.2342 12.3888Z" stroke="#02CCDA" stroke-width="1.81392" stroke-linecap="round" stroke-linejoin="round"/>
<path fill-rule="evenodd" clip-rule="evenodd" d="M12.9316 4.94409C12.9316 7.15323 11.1408 8.94409 8.93164 8.94409C6.7225 8.94409 4.93164 7.15323 4.93164 4.94409C4.93164 2.73495 6.7225 0.944092 8.93164 0.944092C9.99251 0.944092 11.0099 1.36552 11.7601 2.11566C12.5102 2.86581 12.9316 3.88323 12.9316 4.94409Z" stroke="#02CCDA" stroke-width="1.81392" stroke-linecap="round" stroke-linejoin="round"/>
</svg>
