<svg width="38" height="35" viewBox="0 0 38 35" fill="none" xmlns="http://www.w3.org/2000/svg">
<path fill-rule="evenodd" clip-rule="evenodd" d="M34.9205 11.5253C34.4457 12.0198 33.8651 12.4006 33.2224 12.6391C31.5487 13.2549 29.6691 12.8172 28.4397 11.5253C26.7647 9.7645 26.6435 7.03868 28.1555 5.13613C28.2456 5.02461 28.3403 4.9169 28.4397 4.81301L31.6801 1.45801L34.9205 4.81301C36.711 6.6922 36.711 9.6461 34.9205 11.5253V11.5253Z" stroke="#B3B3B3" stroke-width="2.5" stroke-linecap="round" stroke-linejoin="round"/>
<path d="M25.9642 22.6509C26.2222 22.0106 25.9121 21.2824 25.2717 21.0244C24.6314 20.7665 23.9032 21.0766 23.6453 21.717L25.9642 22.6509ZM22.7789 24.9477L23.5685 25.9167L23.5732 25.9129L22.7789 24.9477ZM13.0348 24.8766L12.2255 25.8294L12.2311 25.8341L13.0348 24.8766ZM12.2217 21.6351C11.9743 20.9906 11.2513 20.6687 10.6068 20.9161C9.96227 21.1636 9.64037 21.8866 9.88779 22.5311L12.2217 21.6351ZM23.6611 15.7127C23.9398 16.3443 24.6777 16.6304 25.3093 16.3517C25.9409 16.0731 26.2271 15.3352 25.9484 14.7035L23.6611 15.7127ZM19.0778 14.7035C18.7991 15.3352 19.0852 16.0731 19.7169 16.3517C20.3485 16.6304 21.0864 16.3443 21.3651 15.7127L19.0778 14.7035ZM14.4944 15.7127C14.7731 16.3443 15.511 16.6304 16.1427 16.3517C16.7743 16.0731 17.0604 15.3352 16.7817 14.7035L14.4944 15.7127ZM9.91111 14.7035C9.63245 15.3352 9.91857 16.0731 10.5502 16.3517C11.1818 16.6304 11.9197 16.3443 12.1984 15.7127L9.91111 14.7035ZM27.3575 6.10282C27.8901 6.5421 28.6779 6.46647 29.1172 5.93391C29.5565 5.40134 29.4808 4.6135 28.9483 4.17423L27.3575 6.10282ZM7.21378 5.64052L8.05445 6.5656L7.21378 5.64052ZM4.71702 26.4363L5.75278 25.7365L5.75278 25.7365L4.71702 26.4363ZM24.9422 31.8805L24.3977 30.7554L24.9422 31.8805ZM34.4135 12.2634C34.2047 11.6054 33.502 11.2412 32.844 11.45C32.186 11.6588 31.8218 12.3615 32.0306 13.0195L34.4135 12.2634ZM24.8048 22.1839L23.6453 21.717C23.2899 22.5992 22.719 23.3781 21.9846 23.9825L22.7789 24.9477L23.5732 25.9129C24.6306 25.0427 25.4527 23.9211 25.9642 22.6509L24.8048 22.1839ZM22.7789 24.9477L21.9893 23.9786C19.6101 25.9173 16.1891 25.8923 13.8384 23.9192L13.0348 24.8766L12.2311 25.8341C15.5008 28.5786 20.2591 28.6132 23.5685 25.9167L22.7789 24.9477ZM13.0348 24.8766L13.844 23.9239C13.12 23.309 12.5622 22.5219 12.2217 21.6351L11.0548 22.0831L9.88779 22.5311C10.3784 23.809 11.1822 24.9432 12.2255 25.8293L13.0348 24.8766ZM24.8048 15.2081L25.9484 14.7035C25.3479 13.3426 24.0006 12.4644 22.5131 12.4644V13.7144V14.9644C23.0102 14.9644 23.4604 15.2579 23.6611 15.7127L24.8048 15.2081ZM22.5131 13.7144V12.4644C21.0255 12.4644 19.6782 13.3426 19.0778 14.7035L20.2214 15.2081L21.3651 15.7127C21.5657 15.2579 22.016 14.9644 22.5131 14.9644V13.7144ZM15.6381 15.2081L16.7817 14.7035C16.1813 13.3426 14.834 12.4644 13.3464 12.4644V13.7144V14.9644C13.8435 14.9644 14.2938 15.2579 14.4944 15.7127L15.6381 15.2081ZM13.3464 13.7144V12.4644C11.8589 12.4644 10.5116 13.3426 9.91111 14.7035L11.0548 15.2081L12.1984 15.7127C12.3991 15.2579 12.8493 14.9644 13.3464 14.9644V13.7144ZM28.1529 5.13852L28.9483 4.17423C22.3345 -1.28101 12.7179 -1.05046 6.3731 4.71545L7.21378 5.64052L8.05445 6.5656C13.4796 1.63542 21.7023 1.43828 27.3575 6.10282L28.1529 5.13852ZM7.21378 5.64052L6.3731 4.71545C0.0283473 10.4814 -1.11833 20.0322 3.68126 27.1361L4.71702 26.4363L5.75278 25.7365C1.64886 19.6623 2.62933 11.4958 8.05445 6.5656L7.21378 5.64052ZM4.71702 26.4363L3.68126 27.1361C8.48084 34.24 17.7696 36.7404 25.4867 33.0057L24.9422 31.8805L24.3977 30.7554C17.7991 33.9487 9.8567 31.8108 5.75278 25.7365L4.71702 26.4363ZM24.9422 31.8805L25.4867 33.0057C33.2038 29.271 37.0065 20.4352 34.4135 12.2634L33.222 12.6414L32.0306 13.0195C34.2478 20.0068 30.9963 27.562 24.3977 30.7554L24.9422 31.8805Z" fill="#B3B3B3"/>
</svg>
