<svg width="33" height="33" viewBox="0 0 33 33" fill="none" xmlns="http://www.w3.org/2000/svg">
<path d="M16.8825 11.3387C17.1415 11.0155 17.0895 10.5435 16.7663 10.2844C16.4431 10.0254 15.971 10.0774 15.712 10.4006L16.8825 11.3387ZM8.43322 20.6816L9.00125 21.1714C9.00711 21.1646 9.01284 21.1577 9.01845 21.1507L8.43322 20.6816ZM8.20522 21.239L7.45668 21.1902L7.45602 21.2043L8.20522 21.239ZM8.01855 25.2696L7.26936 25.2349C7.26763 25.2722 7.26869 25.3095 7.27251 25.3466L8.01855 25.2696ZM9.06789 26.1856L9.09241 26.9352C9.14242 26.9336 9.19215 26.927 9.24085 26.9154L9.06789 26.1856ZM13.0679 25.2376L13.2409 25.9675L13.2525 25.9646L13.0679 25.2376ZM13.5812 24.9123L14.1598 25.3896L14.1663 25.3815L13.5812 24.9123ZM22.2197 15.3388C22.4788 15.0157 22.4269 14.5437 22.1038 14.2845C21.7806 14.0254 21.3086 14.0773 21.0494 14.4004L22.2197 15.3388ZM15.7161 10.4004C15.457 10.7235 15.5089 11.1956 15.832 11.4547C16.1551 11.7139 16.6271 11.662 16.8863 11.3389L15.7161 10.4004ZM18.4186 8.22964L19.0036 8.69888C19.0135 8.68659 19.023 8.674 19.032 8.66111L18.4186 8.22964ZM20.5906 7.80298L21.0704 7.22654C21.0465 7.20666 21.0214 7.18828 20.9952 7.17151L20.5906 7.80298ZM23.5732 10.2856L24.104 9.7558C24.0878 9.73949 24.0707 9.72394 24.053 9.7092L23.5732 10.2856ZM24.0225 11.3801L24.7725 11.3843V11.3843L24.0225 11.3801ZM23.5612 12.4696L23.0363 11.934C23.015 11.9548 22.995 11.9769 22.9764 12.0001L23.5612 12.4696ZM21.0497 14.4001C20.7904 14.7231 20.842 15.1952 21.165 15.4545C21.4881 15.7138 21.9601 15.6622 22.2194 15.3392L21.0497 14.4001ZM17.0429 10.7585C16.9816 10.3489 16.5997 10.0665 16.1901 10.1279C15.7804 10.1893 15.4981 10.5712 15.5595 10.9808L17.0429 10.7585ZM21.7355 15.6128C22.146 15.557 22.4335 15.1791 22.3777 14.7687C22.322 14.3582 21.944 14.0707 21.5336 14.1265L21.7355 15.6128ZM16.2972 10.8696L15.712 10.4006L7.84799 20.2126L8.43322 20.6816L9.01845 21.1507L16.8825 11.3387L16.2972 10.8696ZM8.43322 20.6816L7.86519 20.1919C7.62419 20.4714 7.48083 20.8219 7.45681 21.1902L8.20522 21.239L8.95363 21.2878C8.95643 21.2448 8.97315 21.204 9.00125 21.1714L8.43322 20.6816ZM8.20522 21.239L7.45602 21.2043L7.26936 25.2349L8.01855 25.2696L8.76775 25.3043L8.95442 21.2737L8.20522 21.239ZM8.01855 25.2696L7.27251 25.3466C7.36794 26.2718 8.16276 26.9657 9.09241 26.9352L9.06789 26.1856L9.04337 25.436C8.90096 25.4407 8.77921 25.3344 8.7646 25.1927L8.01855 25.2696ZM9.06789 26.1856L9.24085 26.9154L13.2408 25.9674L13.0679 25.2376L12.8949 24.5079L8.89493 25.4559L9.06789 26.1856ZM13.0679 25.2376L13.2525 25.9646C13.6083 25.8742 13.9261 25.6728 14.1598 25.3896L13.5812 24.9123L13.0027 24.435C12.9719 24.4723 12.9301 24.4988 12.8833 24.5107L13.0679 25.2376ZM13.5812 24.9123L14.1663 25.3815L22.2197 15.3388L21.6346 14.8696L21.0494 14.4004L12.9961 24.4431L13.5812 24.9123ZM16.3012 10.8696L16.8863 11.3389L19.0036 8.69888L18.4186 8.22964L17.8335 7.7604L15.7161 10.4004L16.3012 10.8696ZM18.4186 8.22964L19.032 8.66111C19.2939 8.28877 19.8026 8.18883 20.1859 8.43444L20.5906 7.80298L20.9952 7.17151C19.9356 6.49247 18.5291 6.76876 17.8051 7.79818L18.4186 8.22964ZM20.5906 7.80298L20.1107 8.37942L23.0934 10.8621L23.5732 10.2856L24.053 9.7092L21.0704 7.22654L20.5906 7.80298ZM23.5732 10.2856L23.0424 10.8155C23.1908 10.9642 23.2736 11.166 23.2725 11.376L24.0225 11.3801L24.7725 11.3843C24.7758 10.774 24.5352 10.1877 24.104 9.7558L23.5732 10.2856ZM24.0225 11.3801L23.2725 11.376C23.2713 11.5861 23.1863 11.787 23.0363 11.934L23.5612 12.4696L24.0862 13.0053C24.522 12.5781 24.7691 11.9945 24.7725 11.3843L24.0225 11.3801ZM23.5612 12.4696L22.9764 12.0001L21.0497 14.4001L21.6346 14.8696L22.2194 15.3392L24.1461 12.9392L23.5612 12.4696ZM16.3012 10.8696L15.5595 10.9808C16.005 13.954 18.7565 16.0176 21.7355 15.6128L21.6346 14.8696L21.5336 14.1265C19.3675 14.4208 17.3669 12.9203 17.0429 10.7585L16.3012 10.8696Z" fill="#111111"/>
</svg>
