<svg width="33" height="33" viewBox="0 0 33 33" fill="none" xmlns="http://www.w3.org/2000/svg">
<path d="M17.3512 11.3388C17.6102 11.0156 17.5582 10.5435 17.235 10.2845C16.9118 10.0255 16.4398 10.0775 16.1807 10.4007L17.3512 11.3388ZM8.90197 20.6817L9.47 21.1715C9.47586 21.1647 9.48159 21.1578 9.4872 21.1508L8.90197 20.6817ZM8.67397 21.2391L7.92543 21.1903L7.92477 21.2044L8.67397 21.2391ZM8.4873 25.2697L7.73811 25.235C7.73638 25.2723 7.73744 25.3096 7.74126 25.3467L8.4873 25.2697ZM9.53664 26.1857L9.56116 26.9353C9.61117 26.9337 9.6609 26.9271 9.7096 26.9155L9.53664 26.1857ZM13.5366 25.2377L13.7096 25.9676L13.7213 25.9647L13.5366 25.2377ZM14.05 24.9124L14.6286 25.3897L14.6351 25.3816L14.05 24.9124ZM22.6884 15.3389C22.9475 15.0158 22.8957 14.5438 22.5725 14.2846C22.2494 14.0255 21.7773 14.0774 21.5182 14.4005L22.6884 15.3389ZM16.1849 10.4005C15.9257 10.7236 15.9776 11.1957 16.3007 11.4548C16.6239 11.714 17.0959 11.6621 17.355 11.339L16.1849 10.4005ZM18.8873 8.22973L19.4724 8.69898C19.4822 8.68669 19.4917 8.67409 19.5008 8.6612L18.8873 8.22973ZM21.0593 7.80307L21.5391 7.22663C21.5152 7.20675 21.4901 7.18837 21.464 7.1716L21.0593 7.80307ZM24.042 10.2857L24.5728 9.75589C24.5565 9.73958 24.5395 9.72404 24.5218 9.70929L24.042 10.2857ZM24.4912 11.3802L25.2412 11.3844V11.3844L24.4912 11.3802ZM24.03 12.4697L23.505 11.9341C23.4837 11.9549 23.4637 11.977 23.4451 12.0002L24.03 12.4697ZM21.5184 14.4002C21.2591 14.7232 21.3108 15.1953 21.6338 15.4546C21.9568 15.7139 22.4289 15.6623 22.6882 15.3392L21.5184 14.4002ZM17.5117 10.7586C17.4503 10.3489 17.0685 10.0666 16.6588 10.128C16.2492 10.1894 15.9669 10.5712 16.0283 10.9809L17.5117 10.7586ZM22.2043 15.6129C22.6147 15.5571 22.9022 15.1792 22.8465 14.7688C22.7907 14.3583 22.4128 14.0708 22.0023 14.1266L22.2043 15.6129ZM16.766 10.8697L16.1807 10.4007L8.31674 20.2127L8.90197 20.6817L9.4872 21.1508L17.3512 11.3388L16.766 10.8697ZM8.90197 20.6817L8.33394 20.192C8.09294 20.4715 7.94958 20.822 7.92556 21.1903L8.67397 21.2391L9.42238 21.2879C9.42518 21.2449 9.4419 21.2041 9.47 21.1715L8.90197 20.6817ZM8.67397 21.2391L7.92477 21.2044L7.73811 25.235L8.4873 25.2697L9.2365 25.3044L9.42317 21.2738L8.67397 21.2391ZM8.4873 25.2697L7.74126 25.3467C7.83669 26.2719 8.63151 26.9657 9.56116 26.9353L9.53664 26.1857L9.51212 25.4361C9.36971 25.4408 9.24796 25.3345 9.23335 25.1928L8.4873 25.2697ZM9.53664 26.1857L9.7096 26.9155L13.7096 25.9675L13.5366 25.2377L13.3637 24.508L9.36368 25.4559L9.53664 26.1857ZM13.5366 25.2377L13.7213 25.9647C14.0771 25.8743 14.3949 25.6729 14.6285 25.3897L14.05 24.9124L13.4714 24.4351C13.4407 24.4724 13.3989 24.4989 13.352 24.5108L13.5366 25.2377ZM14.05 24.9124L14.6351 25.3816L22.6884 15.3389L22.1033 14.8697L21.5182 14.4005L13.4649 24.4432L14.05 24.9124ZM16.77 10.8697L17.355 11.339L19.4724 8.69898L18.8873 8.22973L18.3022 7.76049L16.1849 10.4005L16.77 10.8697ZM18.8873 8.22973L19.5008 8.6612C19.7626 8.28886 20.2714 8.18892 20.6546 8.43453L21.0593 7.80307L21.464 7.1716C20.4043 6.49256 18.9979 6.76885 18.2738 7.79827L18.8873 8.22973ZM21.0593 7.80307L20.5795 8.37951L23.5622 10.8622L24.042 10.2857L24.5218 9.70929L21.5391 7.22663L21.0593 7.80307ZM24.042 10.2857L23.5112 10.8156C23.6596 10.9642 23.7424 11.1661 23.7412 11.3761L24.4912 11.3802L25.2412 11.3844C25.2446 10.7741 25.0039 10.1878 24.5728 9.75589L24.042 10.2857ZM24.4912 11.3802L23.7412 11.3761C23.7401 11.5862 23.655 11.7871 23.505 11.9341L24.03 12.4697L24.5549 13.0054C24.9908 12.5782 25.2379 11.9946 25.2412 11.3844L24.4912 11.3802ZM24.03 12.4697L23.4451 12.0002L21.5184 14.4002L22.1033 14.8697L22.6882 15.3392L24.6148 12.9392L24.03 12.4697ZM16.77 10.8697L16.0283 10.9809C16.4738 13.954 19.2253 16.0177 22.2043 15.6129L22.1033 14.8697L22.0023 14.1266C19.8363 14.4209 17.8356 12.9204 17.5117 10.7586L16.77 10.8697Z" fill="#111111"/>
</svg>
