<svg width="18" height="17" viewBox="0 0 18 17" fill="none" xmlns="http://www.w3.org/2000/svg">
<circle cx="8.66717" cy="8.4035" r="8.4035" fill="#02CCDA"/>
<path fill-rule="evenodd" clip-rule="evenodd" d="M5.23853 8.39758H8.66382H5.23853ZM8.66382 8.39758H12.0891H8.66382Z" fill="white"/>
<path d="M5.23853 7.88379C4.95476 7.88379 4.72473 8.11382 4.72473 8.39758C4.72473 8.68134 4.95476 8.91138 5.23853 8.91138V7.88379ZM8.66382 8.91138C8.94758 8.91138 9.17761 8.68134 9.17761 8.39758C9.17761 8.11382 8.94758 7.88379 8.66382 7.88379V8.91138ZM8.66382 7.88379C8.38006 7.88379 8.15002 8.11382 8.15002 8.39758C8.15002 8.68134 8.38006 8.91138 8.66382 8.91138V7.88379ZM12.0891 8.91138C12.3729 8.91138 12.6029 8.68134 12.6029 8.39758C12.6029 8.11382 12.3729 7.88379 12.0891 7.88379V8.91138ZM5.23853 8.91138H8.66382V7.88379H5.23853V8.91138ZM8.66382 8.91138H12.0891V7.88379H8.66382V8.91138Z" fill="white"/>
</svg>
