<svg width="33" height="33" viewBox="0 0 33 33" fill="none" xmlns="http://www.w3.org/2000/svg">
<path d="M25.7741 17.7712C26.2061 18.0246 26.7618 17.8799 27.0153 17.4479C27.2688 17.0158 27.124 16.4601 26.692 16.2066L25.7741 17.7712ZM9.49571 7.1689L9.02764 7.94581L9.03675 7.95115L9.49571 7.1689ZM8.13674 7.19989L7.63377 6.44517L7.63377 6.44517L8.13674 7.19989ZM7.58505 8.44223L6.68789 8.57519C6.69676 8.63505 6.7116 8.69387 6.73219 8.75078L7.58505 8.44223ZM9.82419 17.2974C9.99459 17.7685 10.5146 18.0122 10.9856 17.8418C11.4566 17.6714 11.7003 17.1514 11.5299 16.6803L9.82419 17.2974ZM26.692 17.7711C27.124 17.5176 27.2688 16.9619 27.0153 16.5298C26.7618 16.0978 26.2061 15.9531 25.7741 16.2066L26.692 17.7711ZM9.4957 26.8088L9.03671 26.0265L9.02766 26.0319L9.4957 26.8088ZM8.13673 26.7778L7.63376 27.5325H7.63376L8.13673 26.7778ZM7.58504 25.5355L6.73218 25.2269C6.71159 25.2838 6.69675 25.3427 6.68788 25.4025L7.58504 25.5355ZM11.5299 17.2974C11.7003 16.8263 11.4566 16.3064 10.9856 16.1359C10.5146 15.9655 9.99458 16.2092 9.82418 16.6803L11.5299 17.2974ZM26.2331 17.8958C26.734 17.8958 27.14 17.4897 27.14 16.9888C27.14 16.4879 26.734 16.0819 26.2331 16.0819V17.8958ZM10.6771 16.0819C10.1762 16.0819 9.77013 16.4879 9.77013 16.9888C9.77013 17.4897 10.1762 17.8958 10.6771 17.8958V16.0819ZM26.692 16.2066L9.95467 6.38664L9.03675 7.95115L25.7741 17.7712L26.692 16.2066ZM9.96376 6.39204C9.24226 5.95735 8.3347 5.97805 7.63377 6.44517L8.63971 7.9546C8.75642 7.87682 8.90754 7.87338 9.02767 7.94576L9.96376 6.39204ZM7.63377 6.44517C6.93284 6.9123 6.56441 7.74196 6.68789 8.57519L8.48221 8.30927C8.46165 8.17053 8.52299 8.03238 8.63971 7.9546L7.63377 6.44517ZM6.73219 8.75078L9.82419 17.2974L11.5299 16.6803L8.43791 8.13368L6.73219 8.75078ZM25.7741 16.2066L9.03674 26.0266L9.95467 27.5911L26.692 17.7711L25.7741 16.2066ZM9.02766 26.0319C8.90753 26.1043 8.75641 26.1009 8.6397 26.0231L7.63376 27.5325C8.33469 27.9997 9.24225 28.0204 9.96375 27.5857L9.02766 26.0319ZM8.6397 26.0231C8.52298 25.9453 8.46164 25.8072 8.4822 25.6684L6.68788 25.4025C6.5644 26.2357 6.93283 27.0654 7.63376 27.5325L8.6397 26.0231ZM8.4379 25.844L11.5299 17.2974L9.82418 16.6803L6.73218 25.2269L8.4379 25.844ZM26.2331 16.0819H10.6771V17.8958H26.2331V16.0819Z" fill="#111111"/>
</svg>
