<svg width="20" height="22" viewBox="0 0 20 22" fill="none" xmlns="http://www.w3.org/2000/svg">
<g id="Vector">
<path id="Vector-27" d="M18.3683 11.647C18.7256 11.8566 19.1851 11.7369 19.3947 11.3797C19.6043 11.0224 19.4846 10.5628 19.1274 10.3532L18.3683 11.647ZM3.0566 1.79387L2.66953 2.43633L2.67707 2.44075L3.0566 1.79387ZM1.78256 1.82292L1.36663 1.19882L1.36663 1.19882L1.78256 1.82292ZM1.26535 2.98762L0.523452 3.09757C0.530788 3.14707 0.54306 3.19571 0.560084 3.24277L1.26535 2.98762ZM3.45883 11.2553C3.59975 11.6448 4.02974 11.8463 4.41925 11.7054C4.80876 11.5645 5.01028 11.1345 4.86936 10.745L3.45883 11.2553ZM19.1274 11.6469C19.4846 11.4373 19.6043 10.9778 19.3947 10.6205C19.1851 10.2632 18.7256 10.1435 18.3683 10.3532L19.1274 11.6469ZM3.05659 20.2063L2.67703 19.5594L2.66955 19.5639L3.05659 20.2063ZM1.78255 20.1772L1.36663 20.8013H1.36663L1.78255 20.1772ZM1.26534 19.0125L0.560075 18.7574C0.543051 18.8044 0.530779 18.8531 0.523443 18.9026L1.26534 19.0125ZM4.86936 11.2552C5.01027 10.8657 4.80875 10.4357 4.41924 10.2948C4.02973 10.1539 3.59974 10.3554 3.45883 10.7449L4.86936 11.2552ZM18.7476 11.7499C19.1618 11.7499 19.4976 11.4141 19.4976 10.9999C19.4976 10.5857 19.1618 10.2499 18.7476 10.2499V11.7499ZM4.16384 10.2499C3.74962 10.2499 3.41384 10.5857 3.41384 10.9999C3.41384 11.4141 3.74962 11.7499 4.16384 11.7499V10.2499ZM18.7478 11.0001L19.1274 10.3532L3.43613 1.14699L3.0566 1.79387L2.67707 2.44075L18.3683 11.647L18.7478 11.0001ZM3.0566 1.79387L3.44364 1.15145C2.80048 0.763962 1.99146 0.782411 1.36663 1.19882L1.78256 1.82292L2.19848 2.44703C2.3402 2.35259 2.52369 2.3484 2.66956 2.43629L3.0566 1.79387ZM1.78256 1.82292L1.36663 1.19882C0.741805 1.61523 0.413377 2.35481 0.523452 3.09757L1.26535 2.98762L2.00725 2.87767C1.98228 2.70921 2.05677 2.54147 2.19848 2.44703L1.78256 1.82292ZM1.26535 2.98762L0.560084 3.24277L3.45883 11.2553L4.1641 11.0001L4.86936 10.745L1.97061 2.73247L1.26535 2.98762ZM18.7478 11L18.3683 10.3532L2.67706 19.5594L3.05659 20.2063L3.43612 20.8532L19.1274 11.6469L18.7478 11ZM3.05659 20.2063L2.66955 19.5639C2.52368 19.6518 2.34019 19.6476 2.19847 19.5531L1.78255 20.1772L1.36663 20.8013C1.99145 21.2177 2.80047 21.2362 3.44363 20.8487L3.05659 20.2063ZM1.78255 20.1772L2.19848 19.5531C2.05676 19.4587 1.98227 19.2909 2.00724 19.1225L1.26534 19.0125L0.523443 18.9026C0.413368 19.6453 0.741797 20.3849 1.36663 20.8013L1.78255 20.1772ZM1.26534 19.0125L1.97061 19.2677L4.86936 11.2552L4.16409 11L3.45883 10.7449L0.560075 18.7574L1.26534 19.0125ZM18.7476 10.9999V10.2499H4.16384V10.9999V11.7499H18.7476V10.9999Z" fill="#B3B3B3"/>
</g>
</svg>
