<svg width="33" height="32" viewBox="0 0 33 32" fill="none" xmlns="http://www.w3.org/2000/svg">
<path fill-rule="evenodd" clip-rule="evenodd" d="M19.2806 10.9966L16.626 5.9502L13.9714 10.9966C13.7839 11.3654 13.5124 11.685 13.1789 11.9298C12.8437 12.1759 12.4559 12.3405 12.0461 12.4108L6.57617 13.4832L10.3951 18.0502C10.9174 18.6225 11.1638 19.3944 11.0699 20.1635L10.3434 26.0498L15.3798 23.6091C15.7683 23.421 16.1943 23.3228 16.626 23.322C17.031 23.3232 17.4298 23.4217 17.7889 23.6091L22.943 25.8991L22.2165 20.0831C22.1247 19.3157 22.3716 18.5463 22.8927 17.9755L26.6758 13.4832L21.2058 12.4108C20.7955 12.3408 20.4072 12.1761 20.0716 11.9298C19.7386 11.6849 19.4677 11.3653 19.2806 10.9966Z" stroke="#111111" stroke-width="1.5" stroke-linecap="round" stroke-linejoin="round"/>
</svg>
