<svg width="33" height="33" viewBox="0 0 33 33" fill="none" xmlns="http://www.w3.org/2000/svg">
<path fill-rule="evenodd" clip-rule="evenodd" d="M22.3618 12.9888H11.2498C10.6364 12.9888 10.1392 13.486 10.1392 14.0994V22.9888C10.1392 24.8297 11.6315 26.3221 13.4725 26.3221H20.1392C21.0232 26.3221 21.8711 25.9709 22.4962 25.3458C23.1213 24.7207 23.4725 23.8728 23.4725 22.9888V14.0994C23.4725 13.486 22.9752 12.9888 22.3618 12.9888Z" stroke="#111111" stroke-width="1.5" stroke-linecap="round" stroke-linejoin="round"/>
<path fill-rule="evenodd" clip-rule="evenodd" d="M20.8057 10.3222L19.8403 8.39285C19.6146 7.94121 19.1532 7.65579 18.6483 7.65552H14.963C14.4581 7.65579 13.9967 7.94121 13.771 8.39285L12.8057 10.3222H20.8057Z" stroke="#111111" stroke-width="1.5" stroke-linecap="round" stroke-linejoin="round"/>
<path d="M15.3332 17.4329C15.3332 17.0187 14.9974 16.6829 14.5832 16.6829C14.1689 16.6829 13.8332 17.0187 13.8332 17.4329H15.3332ZM13.8332 21.8769C13.8332 22.2911 14.1689 22.6269 14.5832 22.6269C14.9974 22.6269 15.3332 22.2911 15.3332 21.8769H13.8332ZM19.7785 17.4329C19.7785 17.0187 19.4427 16.6829 19.0285 16.6829C18.6143 16.6829 18.2785 17.0187 18.2785 17.4329H19.7785ZM18.2785 21.8769C18.2785 22.2911 18.6143 22.6269 19.0285 22.6269C19.4427 22.6269 19.7785 22.2911 19.7785 21.8769H18.2785ZM20.8058 9.57227C20.3916 9.57227 20.0558 9.90805 20.0558 10.3223C20.0558 10.7365 20.3916 11.0723 20.8058 11.0723V9.57227ZM23.4725 11.0723C23.8867 11.0723 24.2225 10.7365 24.2225 10.3223C24.2225 9.90805 23.8867 9.57227 23.4725 9.57227V11.0723ZM12.8058 11.0723C13.22 11.0723 13.5558 10.7365 13.5558 10.3223C13.5558 9.90805 13.22 9.57227 12.8058 9.57227V11.0723ZM10.1392 9.57227C9.72495 9.57227 9.38916 9.90805 9.38916 10.3223C9.38916 10.7365 9.72495 11.0723 10.1392 11.0723V9.57227ZM13.8332 17.4329V21.8769H15.3332V17.4329H13.8332ZM18.2785 17.4329V21.8769H19.7785V17.4329H18.2785ZM20.8058 11.0723H23.4725V9.57227H20.8058V11.0723ZM12.8058 9.57227H10.1392V11.0723H12.8058V9.57227Z" fill="#111111"/>
</svg>
