<svg width="28" height="28" viewBox="0 0 28 28" fill="none" xmlns="http://www.w3.org/2000/svg">
<path fill-rule="evenodd" clip-rule="evenodd" d="M18.8612 10.5H9.13822C8.60149 10.5 8.16638 10.9351 8.16638 11.4718V19.25C8.16638 20.8608 9.47222 22.1667 11.083 22.1667H16.9164C17.6899 22.1667 18.4318 21.8594 18.9788 21.3124C19.5258 20.7654 19.833 20.0235 19.833 19.25V11.4718C19.833 10.9351 19.3979 10.5 18.8612 10.5Z" stroke="#02CCDA" stroke-width="1.5" stroke-linecap="round" stroke-linejoin="round"/>
<path fill-rule="evenodd" clip-rule="evenodd" d="M17.5 8.16683L16.6553 6.47866C16.4579 6.08348 16.0541 5.83373 15.6123 5.8335H12.3877C11.9459 5.83373 11.5421 6.08348 11.3447 6.47866L10.5 8.16683H17.5Z" stroke="#02CCDA" stroke-width="1.5" stroke-linecap="round" stroke-linejoin="round"/>
<path d="M12.8049 14.3887C12.8049 13.9744 12.4691 13.6387 12.0549 13.6387C11.6407 13.6387 11.3049 13.9744 11.3049 14.3887H12.8049ZM11.3049 18.2772C11.3049 18.6914 11.6407 19.0272 12.0549 19.0272C12.4691 19.0272 12.8049 18.6914 12.8049 18.2772H11.3049ZM16.6945 14.3887C16.6945 13.9744 16.3588 13.6387 15.9445 13.6387C15.5303 13.6387 15.1945 13.9744 15.1945 14.3887H16.6945ZM15.1945 18.2772C15.1945 18.6914 15.5303 19.0272 15.9445 19.0272C16.3588 19.0272 16.6945 18.6914 16.6945 18.2772H15.1945ZM17.5 7.41675C17.0858 7.41675 16.75 7.75253 16.75 8.16675C16.75 8.58096 17.0858 8.91675 17.5 8.91675V7.41675ZM19.8333 8.91675C20.2475 8.91675 20.5833 8.58096 20.5833 8.16675C20.5833 7.75253 20.2475 7.41675 19.8333 7.41675V8.91675ZM10.4997 8.91682C10.9139 8.91682 11.2497 8.58103 11.2497 8.16682C11.2497 7.75261 10.9139 7.41682 10.4997 7.41682V8.91682ZM8.16638 7.41682C7.75217 7.41682 7.41638 7.75261 7.41638 8.16682C7.41638 8.58103 7.75217 8.91682 8.16638 8.91682V7.41682ZM12.0549 14.3887H11.3049V18.2772H12.0549H12.8049V14.3887H12.0549ZM15.9445 14.3887H15.1945V18.2772H15.9445H16.6945V14.3887H15.9445ZM17.5 8.16675V8.91675H19.8333V8.16675V7.41675H17.5V8.16675ZM10.4997 8.16682V7.41682H8.16638V8.16682V8.91682H10.4997V8.16682Z" fill="#02CCDA"/>
</svg>
