<svg width="33" height="33" viewBox="0 0 33 33" fill="none" xmlns="http://www.w3.org/2000/svg">
<path fill-rule="evenodd" clip-rule="evenodd" d="M19.3856 19.3774H12.7803C10.8362 19.4739 9.11381 20.6614 8.33225 22.4441C7.38959 24.2948 9.27092 26.0441 11.4589 26.0441H20.7069C22.8963 26.0441 24.7776 24.2948 23.8336 22.4441C23.052 20.6614 21.3297 19.4739 19.3856 19.3774Z" stroke="#111111" stroke-width="1.81392" stroke-linecap="round" stroke-linejoin="round"/>
<path fill-rule="evenodd" clip-rule="evenodd" d="M20.083 11.9329C20.083 14.142 18.2921 15.9329 16.083 15.9329C13.8739 15.9329 12.083 14.142 12.083 11.9329C12.083 9.72372 13.8739 7.93286 16.083 7.93286C17.1439 7.93286 18.1613 8.35429 18.9114 9.10443C19.6616 9.85458 20.083 10.872 20.083 11.9329Z" stroke="#111111" stroke-width="1.81392" stroke-linecap="round" stroke-linejoin="round"/>
</svg>
