<svg width="119" height="120" viewBox="0 0 119 120" fill="none" xmlns="http://www.w3.org/2000/svg">
<g id="user">
<g id="Vector">
<path id="Vector-9" fill-rule="evenodd" clip-rule="evenodd" d="M69.1218 62.696H49.199C43.3353 62.9871 38.1403 66.5688 35.783 71.9456C32.9398 77.5276 38.6142 82.8039 45.2136 82.8039H73.1072C79.7106 82.8039 85.385 77.5276 82.5377 71.9456C80.1804 66.5688 74.9855 62.9871 69.1218 62.696Z" fill="#CACACA"/>
<path id="Vector-10" fill-rule="evenodd" clip-rule="evenodd" d="M71.2256 45.2488C71.2256 51.9119 65.824 57.3135 59.1609 57.3135C52.4977 57.3135 47.0962 51.9119 47.0962 45.2488C47.0962 38.5856 52.4977 33.1841 59.1609 33.1841C62.3606 33.1841 65.4293 34.4552 67.6919 36.7177C69.9545 38.9803 71.2256 42.049 71.2256 45.2488Z" fill="#CACACA"/>
</g>
</g>
</svg>
