<svg width="25" height="24" viewBox="0 0 25 24" fill="none" xmlns="http://www.w3.org/2000/svg">
<circle cx="12.7368" cy="12" r="12" fill="#E4E4E4"/>
<path fill-rule="evenodd" clip-rule="evenodd" d="M7.68555 12.0002H12.7368H7.68555ZM12.7368 12.0002H17.7881H12.7368ZM12.7368 12C12.7368 12 12.7368 12 12.7368 17.0513V12ZM12.7368 12V6.94873V12Z" fill="#909090"/>
<path d="M7.68555 11.2502C7.27133 11.2502 6.93555 11.586 6.93555 12.0002C6.93555 12.4144 7.27133 12.7502 7.68555 12.7502V11.2502ZM12.7368 12.7502C13.1511 12.7502 13.4868 12.4144 13.4868 12.0002C13.4868 11.586 13.1511 11.2502 12.7368 11.2502V12.7502ZM12.7368 11.2502C12.3226 11.2502 11.9868 11.586 11.9868 12.0002C11.9868 12.4144 12.3226 12.7502 12.7368 12.7502V11.2502ZM17.7881 12.7502C18.2023 12.7502 18.5381 12.4144 18.5381 12.0002C18.5381 11.586 18.2023 11.2502 17.7881 11.2502V12.7502ZM13.4868 12C13.4868 11.5858 13.151 11.25 12.7368 11.25C12.3226 11.25 11.9868 11.5858 11.9868 12H13.4868ZM11.9868 17.0513C11.9868 17.4655 12.3226 17.8013 12.7368 17.8013C13.151 17.8013 13.4868 17.4655 13.4868 17.0513H11.9868ZM11.9868 12C11.9868 12.4142 12.3226 12.75 12.7368 12.75C13.151 12.75 13.4868 12.4142 13.4868 12H11.9868ZM13.4868 6.94873C13.4868 6.53452 13.151 6.19873 12.7368 6.19873C12.3226 6.19873 11.9868 6.53452 11.9868 6.94873H13.4868ZM7.68555 12.7502H12.7368V11.2502H7.68555V12.7502ZM12.7368 12.7502H17.7881V11.2502H12.7368V12.7502ZM12.7368 12H11.9868C11.9868 12 11.9868 12 11.9868 12C11.9868 12 11.9868 12 11.9868 12C11.9868 12 11.9868 12 11.9868 12C11.9868 12 11.9868 12 11.9868 12C11.9868 12 11.9868 12 11.9868 12C11.9868 12 11.9868 12 11.9868 12C11.9868 12 11.9868 12 11.9868 12C11.9868 12.0001 11.9868 12.0001 11.9868 12.0001C11.9868 12.0001 11.9868 12.0001 11.9868 12.0001C11.9868 12.0001 11.9868 12.0001 11.9868 12.0001C11.9868 12.0001 11.9868 12.0001 11.9868 12.0001C11.9868 12.0001 11.9868 12.0001 11.9868 12.0001C11.9868 12.0001 11.9868 12.0001 11.9868 12.0001C11.9868 12.0002 11.9868 12.0002 11.9868 12.0002C11.9868 12.0002 11.9868 12.0002 11.9868 12.0002C11.9868 12.0002 11.9868 12.0002 11.9868 12.0002C11.9868 12.0003 11.9868 12.0003 11.9868 12.0003C11.9868 12.0003 11.9868 12.0003 11.9868 12.0003C11.9868 12.0003 11.9868 12.0004 11.9868 12.0004C11.9868 12.0004 11.9868 12.0004 11.9868 12.0004C11.9868 12.0004 11.9868 12.0005 11.9868 12.0005C11.9868 12.0005 11.9868 12.0005 11.9868 12.0005C11.9868 12.0006 11.9868 12.0006 11.9868 12.0006C11.9868 12.0006 11.9868 12.0007 11.9868 12.0007C11.9868 12.0007 11.9868 12.0007 11.9868 12.0008C11.9868 12.0008 11.9868 12.0008 11.9868 12.0008C11.9868 12.0009 11.9868 12.0009 11.9868 12.0009C11.9868 12.001 11.9868 12.001 11.9868 12.001C11.9868 12.0011 11.9868 12.0011 11.9868 12.0011C11.9868 12.0012 11.9868 12.0012 11.9868 12.0013C11.9868 12.0013 11.9868 12.0013 11.9868 12.0014C11.9868 12.0014 11.9868 12.0015 11.9868 12.0015C11.9868 12.0015 11.9868 12.0016 11.9868 12.0016C11.9868 12.0017 11.9868 12.0017 11.9868 12.0018C11.9868 12.0018 11.9868 12.0019 11.9868 12.0019C11.9868 12.002 11.9868 12.002 11.9868 12.0021C11.9868 12.0021 11.9868 12.0022 11.9868 12.0023C11.9868 12.0023 11.9868 12.0024 11.9868 12.0024C11.9868 12.0025 11.9868 12.0026 11.9868 12.0026C11.9868 12.0027 11.9868 12.0027 11.9868 12.0028C11.9868 12.0029 11.9868 12.0029 11.9868 12.003C11.9868 12.0031 11.9868 12.0032 11.9868 12.0032C11.9868 12.0033 11.9868 12.0034 11.9868 12.0035C11.9868 12.0035 11.9868 12.0036 11.9868 12.0037C11.9868 12.0038 11.9868 12.0038 11.9868 12.0039C11.9868 12.004 11.9868 12.0041 11.9868 12.0042C11.9868 12.0043 11.9868 12.0044 11.9868 12.0044C11.9868 12.0045 11.9868 12.0046 11.9868 12.0047C11.9868 12.0048 11.9868 12.0049 11.9868 12.005C11.9868 12.0051 11.9868 12.0052 11.9868 12.0053C11.9868 12.0054 11.9868 12.0055 11.9868 12.0056C11.9868 12.0057 11.9868 12.0058 11.9868 12.0059C11.9868 12.0061 11.9868 12.0062 11.9868 12.0063C11.9868 12.0064 11.9868 12.0065 11.9868 12.0066C11.9868 12.0067 11.9868 12.0069 11.9868 12.007C11.9868 12.0071 11.9868 12.0072 11.9868 12.0074C11.9868 12.0075 11.9868 12.0076 11.9868 12.0078C11.9868 12.0079 11.9868 12.008 11.9868 12.0082C11.9868 12.0083 11.9868 12.0084 11.9868 12.0086C11.9868 12.0087 11.9868 12.0088 11.9868 12.009C11.9868 12.0091 11.9868 12.0093 11.9868 12.0094C11.9868 12.0096 11.9868 12.0097 11.9868 12.0099C11.9868 12.01 11.9868 12.0102 11.9868 12.0104C11.9868 12.0105 11.9868 12.0107 11.9868 12.0108C11.9868 12.011 11.9868 12.0112 11.9868 12.0113C11.9868 12.0115 11.9868 12.0117 11.9868 12.0119C11.9868 12.012 11.9868 12.0122 11.9868 12.0124C11.9868 12.0126 11.9868 12.0127 11.9868 12.0129C11.9868 12.0131 11.9868 12.0133 11.9868 12.0135C11.9868 12.0137 11.9868 12.0139 11.9868 12.0141C11.9868 12.0143 11.9868 12.0145 11.9868 12.0147C11.9868 12.0149 11.9868 12.0151 11.9868 12.0153C11.9868 12.0155 11.9868 12.0157 11.9868 12.0159C11.9868 12.0161 11.9868 12.0163 11.9868 12.0165C11.9868 12.0168 11.9868 12.017 11.9868 12.0172C11.9868 12.0174 11.9868 12.0177 11.9868 12.0179C11.9868 12.0181 11.9868 12.0183 11.9868 12.0186C11.9868 12.0188 11.9868 12.019 11.9868 12.0193C11.9868 12.0195 11.9868 12.0198 11.9868 12.02C11.9868 12.0203 11.9868 12.0205 11.9868 12.0208C11.9868 12.021 11.9868 12.0213 11.9868 12.0215C11.9868 12.0218 11.9868 12.0221 11.9868 12.0223C11.9868 12.0226 11.9868 12.0229 11.9868 12.0231C11.9868 12.0234 11.9868 12.0237 11.9868 12.024C11.9868 12.0242 11.9868 12.0245 11.9868 12.0248C11.9868 12.0251 11.9868 12.0254 11.9868 12.0257C11.9868 12.026 11.9868 12.0263 11.9868 12.0266C11.9868 12.0269 11.9868 12.0272 11.9868 12.0275C11.9868 12.0278 11.9868 12.0281 11.9868 12.0284C11.9868 12.0287 11.9868 12.029 11.9868 12.0293C11.9868 12.0296 11.9868 12.03 11.9868 12.0303C11.9868 12.0306 11.9868 12.0309 11.9868 12.0313C11.9868 12.0316 11.9868 12.0319 11.9868 12.0323C11.9868 12.0326 11.9868 12.033 11.9868 12.0333C11.9868 12.0337 11.9868 12.034 11.9868 12.0344C11.9868 12.0347 11.9868 12.0351 11.9868 12.0354C11.9868 12.0358 11.9868 12.0362 11.9868 12.0365C11.9868 12.0369 11.9868 12.0373 11.9868 12.0377C11.9868 12.038 11.9868 12.0384 11.9868 12.0388C11.9868 12.0392 11.9868 12.0396 11.9868 12.04C11.9868 12.0404 11.9868 12.0407 11.9868 12.0411C11.9868 12.0415 11.9868 12.0419 11.9868 12.0424C11.9868 12.0428 11.9868 12.0432 11.9868 12.0436C11.9868 12.044 11.9868 12.0444 11.9868 12.0448C11.9868 12.0453 11.9868 12.0457 11.9868 12.0461C11.9868 12.0466 11.9868 12.047 11.9868 12.0474C11.9868 12.0479 11.9868 12.0483 11.9868 12.0488C11.9868 12.0492 11.9868 12.0497 11.9868 12.0501C11.9868 12.0506 11.9868 12.051 11.9868 12.0515C11.9868 12.052 11.9868 12.0524 11.9868 12.0529C11.9868 12.0534 11.9868 12.0538 11.9868 12.0543C11.9868 12.0548 11.9868 12.0553 11.9868 12.0558C11.9868 12.0563 11.9868 12.0568 11.9868 12.0573C11.9868 12.0578 11.9868 12.0583 11.9868 12.0588C11.9868 12.0593 11.9868 12.0598 11.9868 12.0603C11.9868 12.0608 11.9868 12.0613 11.9868 12.0619C11.9868 12.0624 11.9868 12.0629 11.9868 12.0634C11.9868 12.064 11.9868 12.0645 11.9868 12.0651C11.9868 12.0656 11.9868 12.0661 11.9868 12.0667C11.9868 12.0672 11.9868 12.0678 11.9868 12.0684C11.9868 12.0689 11.9868 12.0695 11.9868 12.0701C11.9868 12.0706 11.9868 12.0712 11.9868 12.0718C11.9868 12.0724 11.9868 12.0729 11.9868 12.0735C11.9868 12.0741 11.9868 12.0747 11.9868 12.0753C11.9868 12.0759 11.9868 12.0765 11.9868 12.0771C11.9868 12.0777 11.9868 12.0783 11.9868 12.0789C11.9868 12.0796 11.9868 12.0802 11.9868 12.0808C11.9868 12.0814 11.9868 12.0821 11.9868 12.0827C11.9868 12.0833 11.9868 12.084 11.9868 12.0846C11.9868 12.0853 11.9868 12.0859 11.9868 12.0866C11.9868 12.0872 11.9868 12.0879 11.9868 12.0886C11.9868 12.0892 11.9868 12.0899 11.9868 12.0906C11.9868 12.0913 11.9868 12.0919 11.9868 12.0926C11.9868 12.0933 11.9868 12.094 11.9868 12.0947C11.9868 12.0954 11.9868 12.0961 11.9868 12.0968C11.9868 12.0975 11.9868 12.0982 11.9868 12.0989C11.9868 12.0996 11.9868 12.1004 11.9868 12.1011C11.9868 12.1018 11.9868 12.1026 11.9868 12.1033C11.9868 12.104 11.9868 12.1048 11.9868 12.1055C11.9868 12.1063 11.9868 12.107 11.9868 12.1078C11.9868 12.1085 11.9868 12.1093 11.9868 12.1101C11.9868 12.1108 11.9868 12.1116 11.9868 12.1124C11.9868 12.1132 11.9868 12.114 11.9868 12.1148C11.9868 12.1155 11.9868 12.1163 11.9868 12.1171C11.9868 12.1179 11.9868 12.1188 11.9868 12.1196C11.9868 12.1204 11.9868 12.1212 11.9868 12.122C11.9868 12.1229 11.9868 12.1237 11.9868 12.1245C11.9868 12.1254 11.9868 12.1262 11.9868 12.127C11.9868 12.1279 11.9868 12.1287 11.9868 12.1296C11.9868 12.1305 11.9868 12.1313 11.9868 12.1322C11.9868 12.1331 11.9868 12.1339 11.9868 12.1348C11.9868 12.1357 11.9868 12.1366 11.9868 12.1375C11.9868 12.1384 11.9868 12.1393 11.9868 12.1402C11.9868 12.1411 11.9868 12.142 11.9868 12.1429C11.9868 12.1438 11.9868 12.1447 11.9868 12.1457C11.9868 12.1466 11.9868 12.1475 11.9868 12.1485C11.9868 12.1494 11.9868 12.1504 11.9868 12.1513C11.9868 12.1523 11.9868 12.1532 11.9868 12.1542C11.9868 12.1551 11.9868 12.1561 11.9868 12.1571C11.9868 12.1581 11.9868 12.159 11.9868 12.16C11.9868 12.161 11.9868 12.162 11.9868 12.163C11.9868 12.164 11.9868 12.165 11.9868 12.166C11.9868 12.167 11.9868 12.1681 11.9868 12.1691C11.9868 12.1701 11.9868 12.1711 11.9868 12.1722C11.9868 12.1732 11.9868 12.1743 11.9868 12.1753C11.9868 12.1764 11.9868 12.1774 11.9868 12.1785C11.9868 12.1795 11.9868 12.1806 11.9868 12.1817C11.9868 12.1828 11.9868 12.1838 11.9868 12.1849C11.9868 12.186 11.9868 12.1871 11.9868 12.1882C11.9868 12.1893 11.9868 12.1904 11.9868 12.1915C11.9868 12.1926 11.9868 12.1938 11.9868 12.1949C11.9868 12.196 11.9868 12.1971 11.9868 12.1983C11.9868 12.1994 11.9868 12.2006 11.9868 12.2017C11.9868 12.2029 11.9868 12.204 11.9868 12.2052C11.9868 12.2064 11.9868 12.2075 11.9868 12.2087C11.9868 12.2099 11.9868 12.2111 11.9868 12.2123C11.9868 12.2135 11.9868 12.2147 11.9868 12.2159C11.9868 12.2171 11.9868 12.2183 11.9868 12.2195C11.9868 12.2207 11.9868 12.222 11.9868 12.2232C11.9868 12.2244 11.9868 12.2257 11.9868 12.2269C11.9868 12.2282 11.9868 12.2294 11.9868 12.2307C11.9868 12.2319 11.9868 12.2332 11.9868 12.2345C11.9868 12.2357 11.9868 12.237 11.9868 12.2383C11.9868 12.2396 11.9868 12.2409 11.9868 12.2422C11.9868 12.2435 11.9868 12.2448 11.9868 12.2461C11.9868 12.2474 11.9868 12.2488 11.9868 12.2501C11.9868 12.2514 11.9868 12.2528 11.9868 12.2541C11.9868 12.2554 11.9868 12.2568 11.9868 12.2582C11.9868 12.2595 11.9868 12.2609 11.9868 12.2623C11.9868 12.2636 11.9868 12.265 11.9868 12.2664C11.9868 12.2678 11.9868 12.2692 11.9868 12.2706C11.9868 12.272 11.9868 12.2734 11.9868 12.2748C11.9868 12.2762 11.9868 12.2776 11.9868 12.2791C11.9868 12.2805 11.9868 12.2819 11.9868 12.2834C11.9868 12.2848 11.9868 12.2863 11.9868 12.2878C11.9868 12.2892 11.9868 12.2907 11.9868 12.2922C11.9868 12.2936 11.9868 12.2951 11.9868 12.2966C11.9868 12.2981 11.9868 12.2996 11.9868 12.3011C11.9868 12.3026 11.9868 12.3041 11.9868 12.3056C11.9868 12.3072 11.9868 12.3087 11.9868 12.3102C11.9868 12.3118 11.9868 12.3133 11.9868 12.3149C11.9868 12.3164 11.9868 12.318 11.9868 12.3195C11.9868 12.3211 11.9868 12.3227 11.9868 12.3243C11.9868 12.3258 11.9868 12.3274 11.9868 12.329C11.9868 12.3306 11.9868 12.3322 11.9868 12.3338C11.9868 12.3354 11.9868 12.3371 11.9868 12.3387C11.9868 12.3403 11.9868 12.342 11.9868 12.3436C11.9868 12.3452 11.9868 12.3469 11.9868 12.3486C11.9868 12.3502 11.9868 12.3519 11.9868 12.3536C11.9868 12.3552 11.9868 12.3569 11.9868 12.3586C11.9868 12.3603 11.9868 12.362 11.9868 12.3637C11.9868 12.3654 11.9868 12.3671 11.9868 12.3689C11.9868 12.3706 11.9868 12.3723 11.9868 12.3741C11.9868 12.3758 11.9868 12.3775 11.9868 12.3793C11.9868 12.3811 11.9868 12.3828 11.9868 12.3846C11.9868 12.3864 11.9868 12.3881 11.9868 12.3899C11.9868 12.3917 11.9868 12.3935 11.9868 12.3953C11.9868 12.3971 11.9868 12.3989 11.9868 12.4008C11.9868 12.4026 11.9868 12.4044 11.9868 12.4062C11.9868 12.4081 11.9868 12.4099 11.9868 12.4118C11.9868 12.4136 11.9868 12.4155 11.9868 12.4174C11.9868 12.4192 11.9868 12.4211 11.9868 12.423C11.9868 12.4249 11.9868 12.4268 11.9868 12.4287C11.9868 12.4306 11.9868 12.4325 11.9868 12.4344C11.9868 12.4364 11.9868 12.4383 11.9868 12.4402C11.9868 12.4422 11.9868 12.4441 11.9868 12.4461C11.9868 12.448 11.9868 12.45 11.9868 12.452C11.9868 12.454 11.9868 12.4559 11.9868 12.4579C11.9868 12.4599 11.9868 12.4619 11.9868 12.4639C11.9868 12.4659 11.9868 12.468 11.9868 12.47C11.9868 12.472 11.9868 12.474 11.9868 12.4761C11.9868 12.4781 11.9868 12.4802 11.9868 12.4822C11.9868 12.4843 11.9868 12.4864 11.9868 12.4884C11.9868 12.4905 11.9868 12.4926 11.9868 12.4947C11.9868 12.4968 11.9868 12.4989 11.9868 12.501C11.9868 12.5031 11.9868 12.5053 11.9868 12.5074C11.9868 12.5095 11.9868 12.5117 11.9868 12.5138C11.9868 12.516 11.9868 12.5181 11.9868 12.5203C11.9868 12.5225 11.9868 12.5246 11.9868 12.5268C11.9868 12.529 11.9868 12.5312 11.9868 12.5334C11.9868 12.5356 11.9868 12.5378 11.9868 12.54C11.9868 12.5423 11.9868 12.5445 11.9868 12.5467C11.9868 12.549 11.9868 12.5512 11.9868 12.5535C11.9868 12.5557 11.9868 12.558 11.9868 12.5603C11.9868 12.5626 11.9868 12.5649 11.9868 12.5672C11.9868 12.5694 11.9868 12.5718 11.9868 12.5741C11.9868 12.5764 11.9868 12.5787 11.9868 12.581C11.9868 12.5834 11.9868 12.5857 11.9868 12.5881C11.9868 12.5904 11.9868 12.5928 11.9868 12.5952C11.9868 12.5975 11.9868 12.5999 11.9868 12.6023C11.9868 12.6047 11.9868 12.6071 11.9868 12.6095C11.9868 12.6119 11.9868 12.6143 11.9868 12.6167C11.9868 12.6192 11.9868 12.6216 11.9868 12.6241C11.9868 12.6265 11.9868 12.629 11.9868 12.6314C11.9868 12.6339 11.9868 12.6364 11.9868 12.6389C11.9868 12.6413 11.9868 12.6438 11.9868 12.6463C11.9868 12.6489 11.9868 12.6514 11.9868 12.6539C11.9868 12.6564 11.9868 12.659 11.9868 12.6615C11.9868 12.664 11.9868 12.6666 11.9868 12.6692C11.9868 12.6717 11.9868 12.6743 11.9868 12.6769C11.9868 12.6795 11.9868 12.6821 11.9868 12.6847C11.9868 12.6873 11.9868 12.6899 11.9868 12.6925C11.9868 12.6951 11.9868 12.6978 11.9868 12.7004C11.9868 12.703 11.9868 12.7057 11.9868 12.7084C11.9868 12.711 11.9868 12.7137 11.9868 12.7164C11.9868 12.7191 11.9868 12.7217 11.9868 12.7245C11.9868 12.7272 11.9868 12.7299 11.9868 12.7326C11.9868 12.7353 11.9868 12.738 11.9868 12.7408C11.9868 12.7435 11.9868 12.7463 11.9868 12.7491C11.9868 12.7518 11.9868 12.7546 11.9868 12.7574C11.9868 12.7602 11.9868 12.763 11.9868 12.7658C11.9868 12.7686 11.9868 12.7714 11.9868 12.7742C11.9868 12.777 11.9868 12.7799 11.9868 12.7827C11.9868 12.7856 11.9868 12.7884 11.9868 12.7913C11.9868 12.7941 11.9868 12.797 11.9868 12.7999C11.9868 12.8028 11.9868 12.8057 11.9868 12.8086C11.9868 12.8115 11.9868 12.8144 11.9868 12.8174C11.9868 12.8203 11.9868 12.8232 11.9868 12.8262C11.9868 12.8291 11.9868 12.8321 11.9868 12.8351C11.9868 12.838 11.9868 12.841 11.9868 12.844C11.9868 12.847 11.9868 12.85 11.9868 12.853C11.9868 12.856 11.9868 12.8591 11.9868 12.8621C11.9868 12.8651 11.9868 12.8682 11.9868 12.8712C11.9868 12.8743 11.9868 12.8774 11.9868 12.8804C11.9868 12.8835 11.9868 12.8866 11.9868 12.8897C11.9868 12.8928 11.9868 12.8959 11.9868 12.899C11.9868 12.9022 11.9868 12.9053 11.9868 12.9084C11.9868 12.9116 11.9868 12.9147 11.9868 12.9179C11.9868 12.9211 11.9868 12.9242 11.9868 12.9274C11.9868 12.9306 11.9868 12.9338 11.9868 12.937C11.9868 12.9402 11.9868 12.9435 11.9868 12.9467C11.9868 12.9499 11.9868 12.9532 11.9868 12.9564C11.9868 12.9597 11.9868 12.9629 11.9868 12.9662C11.9868 12.9695 11.9868 12.9728 11.9868 12.9761C11.9868 12.9794 11.9868 12.9827 11.9868 12.986C11.9868 12.9893 11.9868 12.9926 11.9868 12.996C11.9868 12.9993 11.9868 13.0027 11.9868 13.006C11.9868 13.0094 11.9868 13.0128 11.9868 13.0162C11.9868 13.0196 11.9868 13.023 11.9868 13.0264C11.9868 13.0298 11.9868 13.0332 11.9868 13.0366C11.9868 13.0401 11.9868 13.0435 11.9868 13.047C11.9868 13.0504 11.9868 13.0539 11.9868 13.0574C11.9868 13.0608 11.9868 13.0643 11.9868 13.0678C11.9868 13.0713 11.9868 13.0748 11.9868 13.0784C11.9868 13.0819 11.9868 13.0854 11.9868 13.089C11.9868 13.0925 11.9868 13.0961 11.9868 13.0996C11.9868 13.1032 11.9868 13.1068 11.9868 13.1104C11.9868 13.114 11.9868 13.1176 11.9868 13.1212C11.9868 13.1248 11.9868 13.1285 11.9868 13.1321C11.9868 13.1357 11.9868 13.1394 11.9868 13.143C11.9868 13.1467 11.9868 13.1504 11.9868 13.1541C11.9868 13.1578 11.9868 13.1615 11.9868 13.1652C11.9868 13.1689 11.9868 13.1726 11.9868 13.1763C11.9868 13.1801 11.9868 13.1838 11.9868 13.1876C11.9868 13.1913 11.9868 13.1951 11.9868 13.1989C11.9868 13.2027 11.9868 13.2065 11.9868 13.2103C11.9868 13.2141 11.9868 13.2179 11.9868 13.2217C11.9868 13.2256 11.9868 13.2294 11.9868 13.2332C11.9868 13.2371 11.9868 13.241 11.9868 13.2448C11.9868 13.2487 11.9868 13.2526 11.9868 13.2565C11.9868 13.2604 11.9868 13.2643 11.9868 13.2683C11.9868 13.2722 11.9868 13.2761 11.9868 13.2801C11.9868 13.284 11.9868 13.288 11.9868 13.292C11.9868 13.2959 11.9868 13.2999 11.9868 13.3039C11.9868 13.3079 11.9868 13.3119 11.9868 13.316C11.9868 13.32 11.9868 13.324 11.9868 13.3281C11.9868 13.3321 11.9868 13.3362 11.9868 13.3403C11.9868 13.3443 11.9868 13.3484 11.9868 13.3525C11.9868 13.3566 11.9868 13.3607 11.9868 13.3648C11.9868 13.369 11.9868 13.3731 11.9868 13.3773C11.9868 13.3814 11.9868 13.3856 11.9868 13.3897C11.9868 13.3939 11.9868 13.3981 11.9868 13.4023C11.9868 13.4065 11.9868 13.4107 11.9868 13.4149C11.9868 13.4191 11.9868 13.4234 11.9868 13.4276C11.9868 13.4319 11.9868 13.4361 11.9868 13.4404C11.9868 13.4447 11.9868 13.449 11.9868 13.4533C11.9868 13.4576 11.9868 13.4619 11.9868 13.4662C11.9868 13.4705 11.9868 13.4749 11.9868 13.4792C11.9868 13.4836 11.9868 13.4879 11.9868 13.4923C11.9868 13.4967 11.9868 13.5011 11.9868 13.5055C11.9868 13.5099 11.9868 13.5143 11.9868 13.5187C11.9868 13.5232 11.9868 13.5276 11.9868 13.5321C11.9868 13.5365 11.9868 13.541 11.9868 13.5455C11.9868 13.5499 11.9868 13.5544 11.9868 13.5589C11.9868 13.5634 11.9868 13.568 11.9868 13.5725C11.9868 13.577 11.9868 13.5816 11.9868 13.5861C11.9868 13.5907 11.9868 13.5952 11.9868 13.5998C11.9868 13.6044 11.9868 13.609 11.9868 13.6136C11.9868 13.6182 11.9868 13.6229 11.9868 13.6275C11.9868 13.6321 11.9868 13.6368 11.9868 13.6414C11.9868 13.6461 11.9868 13.6508 11.9868 13.6555C11.9868 13.6602 11.9868 13.6649 11.9868 13.6696C11.9868 13.6743 11.9868 13.679 11.9868 13.6838C11.9868 13.6885 11.9868 13.6933 11.9868 13.698C11.9868 13.7028 11.9868 13.7076 11.9868 13.7124C11.9868 13.7172 11.9868 13.722 11.9868 13.7268C11.9868 13.7316 11.9868 13.7365 11.9868 13.7413C11.9868 13.7462 11.9868 13.751 11.9868 13.7559C11.9868 13.7608 11.9868 13.7657 11.9868 13.7706C11.9868 13.7755 11.9868 13.7804 11.9868 13.7853C11.9868 13.7903 11.9868 13.7952 11.9868 13.8002C11.9868 13.8051 11.9868 13.8101 11.9868 13.8151C11.9868 13.8201 11.9868 13.8251 11.9868 13.8301C11.9868 13.8351 11.9868 13.8401 11.9868 13.8452C11.9868 13.8502 11.9868 13.8553 11.9868 13.8604C11.9868 13.8654 11.9868 13.8705 11.9868 13.8756C11.9868 13.8807 11.9868 13.8858 11.9868 13.8909C11.9868 13.8961 11.9868 13.9012 11.9868 13.9063C11.9868 13.9115 11.9868 13.9167 11.9868 13.9218C11.9868 13.927 11.9868 13.9322 11.9868 13.9374C11.9868 13.9426 11.9868 13.9479 11.9868 13.9531C11.9868 13.9583 11.9868 13.9636 11.9868 13.9688C11.9868 13.9741 11.9868 13.9794 11.9868 13.9847C11.9868 13.99 11.9868 13.9953 11.9868 14.0006C11.9868 14.0059 11.9868 14.0113 11.9868 14.0166C11.9868 14.022 11.9868 14.0273 11.9868 14.0327C11.9868 14.0381 11.9868 14.0435 11.9868 14.0489C11.9868 14.0543 11.9868 14.0597 11.9868 14.0651C11.9868 14.0706 11.9868 14.076 11.9868 14.0815C11.9868 14.0869 11.9868 14.0924 11.9868 14.0979C11.9868 14.1034 11.9868 14.1089 11.9868 14.1144C11.9868 14.1199 11.9868 14.1255 11.9868 14.131C11.9868 14.1366 11.9868 14.1421 11.9868 14.1477C11.9868 14.1533 11.9868 14.1589 11.9868 14.1645C11.9868 14.1701 11.9868 14.1757 11.9868 14.1814C11.9868 14.187 11.9868 14.1927 11.9868 14.1983C11.9868 14.204 11.9868 14.2097 11.9868 14.2154C11.9868 14.2211 11.9868 14.2268 11.9868 14.2325C11.9868 14.2382 11.9868 14.244 11.9868 14.2497C11.9868 14.2555 11.9868 14.2612 11.9868 14.267C11.9868 14.2728 11.9868 14.2786 11.9868 14.2844C11.9868 14.2902 11.9868 14.2961 11.9868 14.3019C11.9868 14.3077 11.9868 14.3136 11.9868 14.3195C11.9868 14.3253 11.9868 14.3312 11.9868 14.3371C11.9868 14.343 11.9868 14.3489 11.9868 14.3549C11.9868 14.3608 11.9868 14.3668 11.9868 14.3727C11.9868 14.3787 11.9868 14.3847 11.9868 14.3906C11.9868 14.3966 11.9868 14.4026 11.9868 14.4087C11.9868 14.4147 11.9868 14.4207 11.9868 14.4268C11.9868 14.4328 11.9868 14.4389 11.9868 14.445C11.9868 14.4511 11.9868 14.4572 11.9868 14.4633C11.9868 14.4694 11.9868 14.4755 11.9868 14.4816C11.9868 14.4878 11.9868 14.4939 11.9868 14.5001C11.9868 14.5063 11.9868 14.5125 11.9868 14.5187C11.9868 14.5249 11.9868 14.5311 11.9868 14.5373C11.9868 14.5436 11.9868 14.5498 11.9868 14.5561C11.9868 14.5624 11.9868 14.5686 11.9868 14.5749C11.9868 14.5812 11.9868 14.5875 11.9868 14.5939C11.9868 14.6002 11.9868 14.6065 11.9868 14.6129C11.9868 14.6192 11.9868 14.6256 11.9868 14.632C11.9868 14.6384 11.9868 14.6448 11.9868 14.6512C11.9868 14.6576 11.9868 14.6641 11.9868 14.6705C11.9868 14.677 11.9868 14.6834 11.9868 14.6899C11.9868 14.6964 11.9868 14.7029 11.9868 14.7094C11.9868 14.7159 11.9868 14.7225 11.9868 14.729C11.9868 14.7355 11.9868 14.7421 11.9868 14.7487C11.9868 14.7553 11.9868 14.7619 11.9868 14.7685C11.9868 14.7751 11.9868 14.7817 11.9868 14.7883C11.9868 14.795 11.9868 14.8016 11.9868 14.8083C11.9868 14.815 11.9868 14.8216 11.9868 14.8283C11.9868 14.8351 11.9868 14.8418 11.9868 14.8485C11.9868 14.8552 11.9868 14.862 11.9868 14.8688C11.9868 14.8755 11.9868 14.8823 11.9868 14.8891C11.9868 14.8959 11.9868 14.9027 11.9868 14.9095C11.9868 14.9164 11.9868 14.9232 11.9868 14.9301C11.9868 14.9369 11.9868 14.9438 11.9868 14.9507C11.9868 14.9576 11.9868 14.9645 11.9868 14.9714C11.9868 14.9784 11.9868 14.9853 11.9868 14.9923C11.9868 14.9992 11.9868 15.0062 11.9868 15.0132C11.9868 15.0202 11.9868 15.0272 11.9868 15.0342C11.9868 15.0412 11.9868 15.0483 11.9868 15.0553C11.9868 15.0624 11.9868 15.0695 11.9868 15.0766C11.9868 15.0836 11.9868 15.0907 11.9868 15.0979C11.9868 15.105 11.9868 15.1121 11.9868 15.1193C11.9868 15.1264 11.9868 15.1336 11.9868 15.1408C11.9868 15.148 11.9868 15.1552 11.9868 15.1624C11.9868 15.1696 11.9868 15.1769 11.9868 15.1841C11.9868 15.1914 11.9868 15.1986 11.9868 15.2059C11.9868 15.2132 11.9868 15.2205 11.9868 15.2278C11.9868 15.2352 11.9868 15.2425 11.9868 15.2498C11.9868 15.2572 11.9868 15.2646 11.9868 15.2719C11.9868 15.2793 11.9868 15.2867 11.9868 15.2942C11.9868 15.3016 11.9868 15.309 11.9868 15.3165C11.9868 15.3239 11.9868 15.3314 11.9868 15.3389C11.9868 15.3464 11.9868 15.3539 11.9868 15.3614C11.9868 15.3689 11.9868 15.3764 11.9868 15.384C11.9868 15.3915 11.9868 15.3991 11.9868 15.4067C11.9868 15.4143 11.9868 15.4219 11.9868 15.4295C11.9868 15.4371 11.9868 15.4448 11.9868 15.4524C11.9868 15.4601 11.9868 15.4678 11.9868 15.4754C11.9868 15.4831 11.9868 15.4908 11.9868 15.4986C11.9868 15.5063 11.9868 15.514 11.9868 15.5218C11.9868 15.5295 11.9868 15.5373 11.9868 15.5451C11.9868 15.5529 11.9868 15.5607 11.9868 15.5685C11.9868 15.5764 11.9868 15.5842 11.9868 15.5921C11.9868 15.5999 11.9868 15.6078 11.9868 15.6157C11.9868 15.6236 11.9868 15.6315 11.9868 15.6394C11.9868 15.6474 11.9868 15.6553 11.9868 15.6633C11.9868 15.6712 11.9868 15.6792 11.9868 15.6872C11.9868 15.6952 11.9868 15.7032 11.9868 15.7113C11.9868 15.7193 11.9868 15.7273 11.9868 15.7354C11.9868 15.7435 11.9868 15.7516 11.9868 15.7597C11.9868 15.7678 11.9868 15.7759 11.9868 15.784C11.9868 15.7922 11.9868 15.8003 11.9868 15.8085C11.9868 15.8167 11.9868 15.8249 11.9868 15.8331C11.9868 15.8413 11.9868 15.8495 11.9868 15.8577C11.9868 15.866 11.9868 15.8742 11.9868 15.8825C11.9868 15.8908 11.9868 15.8991 11.9868 15.9074C11.9868 15.9157 11.9868 15.9241 11.9868 15.9324C11.9868 15.9407 11.9868 15.9491 11.9868 15.9575C11.9868 15.9659 11.9868 15.9743 11.9868 15.9827C11.9868 15.9911 11.9868 15.9996 11.9868 16.008C11.9868 16.0165 11.9868 16.0249 11.9868 16.0334C11.9868 16.0419 11.9868 16.0504 11.9868 16.059C11.9868 16.0675 11.9868 16.076 11.9868 16.0846C11.9868 16.0932 11.9868 16.1017 11.9868 16.1103C11.9868 16.1189 11.9868 16.1276 11.9868 16.1362C11.9868 16.1448 11.9868 16.1535 11.9868 16.1622C11.9868 16.1708 11.9868 16.1795 11.9868 16.1882C11.9868 16.1969 11.9868 16.2057 11.9868 16.2144C11.9868 16.2231 11.9868 16.2319 11.9868 16.2407C11.9868 16.2495 11.9868 16.2583 11.9868 16.2671C11.9868 16.2759 11.9868 16.2847 11.9868 16.2936C11.9868 16.3024 11.9868 16.3113 11.9868 16.3202C11.9868 16.3291 11.9868 16.338 11.9868 16.3469C11.9868 16.3558 11.9868 16.3648 11.9868 16.3738C11.9868 16.3827 11.9868 16.3917 11.9868 16.4007C11.9868 16.4097 11.9868 16.4187 11.9868 16.4277C11.9868 16.4368 11.9868 16.4458 11.9868 16.4549C11.9868 16.464 11.9868 16.4731 11.9868 16.4822C11.9868 16.4913 11.9868 16.5004 11.9868 16.5096C11.9868 16.5187 11.9868 16.5279 11.9868 16.5371C11.9868 16.5463 11.9868 16.5555 11.9868 16.5647C11.9868 16.5739 11.9868 16.5831 11.9868 16.5924C11.9868 16.6017 11.9868 16.6109 11.9868 16.6202C11.9868 16.6295 11.9868 16.6388 11.9868 16.6482C11.9868 16.6575 11.9868 16.6669 11.9868 16.6762C11.9868 16.6856 11.9868 16.695 11.9868 16.7044C11.9868 16.7138 11.9868 16.7232 11.9868 16.7327C11.9868 16.7421 11.9868 16.7516 11.9868 16.7611C11.9868 16.7706 11.9868 16.7801 11.9868 16.7896C11.9868 16.7991 11.9868 16.8087 11.9868 16.8182C11.9868 16.8278 11.9868 16.8374 11.9868 16.8469C11.9868 16.8565 11.9868 16.8662 11.9868 16.8758C11.9868 16.8854 11.9868 16.8951 11.9868 16.9048C11.9868 16.9144 11.9868 16.9241 11.9868 16.9338C11.9868 16.9436 11.9868 16.9533 11.9868 16.963C11.9868 16.9728 11.9868 16.9826 11.9868 16.9923C11.9868 17.0021 11.9868 17.0119 11.9868 17.0218C11.9868 17.0316 11.9868 17.0414 11.9868 17.0513H13.4868C13.4868 17.0414 13.4868 17.0316 13.4868 17.0218C13.4868 17.0119 13.4868 17.0021 13.4868 16.9923C13.4868 16.9826 13.4868 16.9728 13.4868 16.963C13.4868 16.9533 13.4868 16.9436 13.4868 16.9338C13.4868 16.9241 13.4868 16.9144 13.4868 16.9048C13.4868 16.8951 13.4868 16.8854 13.4868 16.8758C13.4868 16.8662 13.4868 16.8565 13.4868 16.8469C13.4868 16.8374 13.4868 16.8278 13.4868 16.8182C13.4868 16.8087 13.4868 16.7991 13.4868 16.7896C13.4868 16.7801 13.4868 16.7706 13.4868 16.7611C13.4868 16.7516 13.4868 16.7421 13.4868 16.7327C13.4868 16.7232 13.4868 16.7138 13.4868 16.7044C13.4868 16.695 13.4868 16.6856 13.4868 16.6762C13.4868 16.6669 13.4868 16.6575 13.4868 16.6482C13.4868 16.6388 13.4868 16.6295 13.4868 16.6202C13.4868 16.6109 13.4868 16.6017 13.4868 16.5924C13.4868 16.5831 13.4868 16.5739 13.4868 16.5647C13.4868 16.5555 13.4868 16.5463 13.4868 16.5371C13.4868 16.5279 13.4868 16.5187 13.4868 16.5096C13.4868 16.5004 13.4868 16.4913 13.4868 16.4822C13.4868 16.4731 13.4868 16.464 13.4868 16.4549C13.4868 16.4458 13.4868 16.4368 13.4868 16.4277C13.4868 16.4187 13.4868 16.4097 13.4868 16.4007C13.4868 16.3917 13.4868 16.3827 13.4868 16.3738C13.4868 16.3648 13.4868 16.3558 13.4868 16.3469C13.4868 16.338 13.4868 16.3291 13.4868 16.3202C13.4868 16.3113 13.4868 16.3024 13.4868 16.2936C13.4868 16.2847 13.4868 16.2759 13.4868 16.2671C13.4868 16.2583 13.4868 16.2495 13.4868 16.2407C13.4868 16.2319 13.4868 16.2231 13.4868 16.2144C13.4868 16.2057 13.4868 16.1969 13.4868 16.1882C13.4868 16.1795 13.4868 16.1708 13.4868 16.1622C13.4868 16.1535 13.4868 16.1448 13.4868 16.1362C13.4868 16.1276 13.4868 16.1189 13.4868 16.1103C13.4868 16.1017 13.4868 16.0932 13.4868 16.0846C13.4868 16.076 13.4868 16.0675 13.4868 16.059C13.4868 16.0504 13.4868 16.0419 13.4868 16.0334C13.4868 16.0249 13.4868 16.0165 13.4868 16.008C13.4868 15.9996 13.4868 15.9911 13.4868 15.9827C13.4868 15.9743 13.4868 15.9659 13.4868 15.9575C13.4868 15.9491 13.4868 15.9407 13.4868 15.9324C13.4868 15.9241 13.4868 15.9157 13.4868 15.9074C13.4868 15.8991 13.4868 15.8908 13.4868 15.8825C13.4868 15.8742 13.4868 15.866 13.4868 15.8577C13.4868 15.8495 13.4868 15.8413 13.4868 15.8331C13.4868 15.8249 13.4868 15.8167 13.4868 15.8085C13.4868 15.8003 13.4868 15.7922 13.4868 15.784C13.4868 15.7759 13.4868 15.7678 13.4868 15.7597C13.4868 15.7516 13.4868 15.7435 13.4868 15.7354C13.4868 15.7273 13.4868 15.7193 13.4868 15.7113C13.4868 15.7032 13.4868 15.6952 13.4868 15.6872C13.4868 15.6792 13.4868 15.6712 13.4868 15.6633C13.4868 15.6553 13.4868 15.6474 13.4868 15.6394C13.4868 15.6315 13.4868 15.6236 13.4868 15.6157C13.4868 15.6078 13.4868 15.5999 13.4868 15.5921C13.4868 15.5842 13.4868 15.5764 13.4868 15.5685C13.4868 15.5607 13.4868 15.5529 13.4868 15.5451C13.4868 15.5373 13.4868 15.5295 13.4868 15.5218C13.4868 15.514 13.4868 15.5063 13.4868 15.4986C13.4868 15.4908 13.4868 15.4831 13.4868 15.4754C13.4868 15.4678 13.4868 15.4601 13.4868 15.4524C13.4868 15.4448 13.4868 15.4371 13.4868 15.4295C13.4868 15.4219 13.4868 15.4143 13.4868 15.4067C13.4868 15.3991 13.4868 15.3915 13.4868 15.384C13.4868 15.3764 13.4868 15.3689 13.4868 15.3614C13.4868 15.3539 13.4868 15.3464 13.4868 15.3389C13.4868 15.3314 13.4868 15.3239 13.4868 15.3165C13.4868 15.309 13.4868 15.3016 13.4868 15.2942C13.4868 15.2867 13.4868 15.2793 13.4868 15.2719C13.4868 15.2646 13.4868 15.2572 13.4868 15.2498C13.4868 15.2425 13.4868 15.2352 13.4868 15.2278C13.4868 15.2205 13.4868 15.2132 13.4868 15.2059C13.4868 15.1986 13.4868 15.1914 13.4868 15.1841C13.4868 15.1769 13.4868 15.1696 13.4868 15.1624C13.4868 15.1552 13.4868 15.148 13.4868 15.1408C13.4868 15.1336 13.4868 15.1264 13.4868 15.1193C13.4868 15.1121 13.4868 15.105 13.4868 15.0979C13.4868 15.0907 13.4868 15.0836 13.4868 15.0766C13.4868 15.0695 13.4868 15.0624 13.4868 15.0553C13.4868 15.0483 13.4868 15.0412 13.4868 15.0342C13.4868 15.0272 13.4868 15.0202 13.4868 15.0132C13.4868 15.0062 13.4868 14.9992 13.4868 14.9923C13.4868 14.9853 13.4868 14.9784 13.4868 14.9714C13.4868 14.9645 13.4868 14.9576 13.4868 14.9507C13.4868 14.9438 13.4868 14.9369 13.4868 14.9301C13.4868 14.9232 13.4868 14.9164 13.4868 14.9095C13.4868 14.9027 13.4868 14.8959 13.4868 14.8891C13.4868 14.8823 13.4868 14.8755 13.4868 14.8688C13.4868 14.862 13.4868 14.8552 13.4868 14.8485C13.4868 14.8418 13.4868 14.8351 13.4868 14.8283C13.4868 14.8216 13.4868 14.815 13.4868 14.8083C13.4868 14.8016 13.4868 14.795 13.4868 14.7883C13.4868 14.7817 13.4868 14.7751 13.4868 14.7685C13.4868 14.7619 13.4868 14.7553 13.4868 14.7487C13.4868 14.7421 13.4868 14.7355 13.4868 14.729C13.4868 14.7225 13.4868 14.7159 13.4868 14.7094C13.4868 14.7029 13.4868 14.6964 13.4868 14.6899C13.4868 14.6834 13.4868 14.677 13.4868 14.6705C13.4868 14.6641 13.4868 14.6576 13.4868 14.6512C13.4868 14.6448 13.4868 14.6384 13.4868 14.632C13.4868 14.6256 13.4868 14.6192 13.4868 14.6129C13.4868 14.6065 13.4868 14.6002 13.4868 14.5939C13.4868 14.5875 13.4868 14.5812 13.4868 14.5749C13.4868 14.5686 13.4868 14.5624 13.4868 14.5561C13.4868 14.5498 13.4868 14.5436 13.4868 14.5373C13.4868 14.5311 13.4868 14.5249 13.4868 14.5187C13.4868 14.5125 13.4868 14.5063 13.4868 14.5001C13.4868 14.4939 13.4868 14.4878 13.4868 14.4816C13.4868 14.4755 13.4868 14.4694 13.4868 14.4633C13.4868 14.4572 13.4868 14.4511 13.4868 14.445C13.4868 14.4389 13.4868 14.4328 13.4868 14.4268C13.4868 14.4207 13.4868 14.4147 13.4868 14.4087C13.4868 14.4026 13.4868 14.3966 13.4868 14.3906C13.4868 14.3847 13.4868 14.3787 13.4868 14.3727C13.4868 14.3668 13.4868 14.3608 13.4868 14.3549C13.4868 14.3489 13.4868 14.343 13.4868 14.3371C13.4868 14.3312 13.4868 14.3253 13.4868 14.3195C13.4868 14.3136 13.4868 14.3077 13.4868 14.3019C13.4868 14.2961 13.4868 14.2902 13.4868 14.2844C13.4868 14.2786 13.4868 14.2728 13.4868 14.267C13.4868 14.2612 13.4868 14.2555 13.4868 14.2497C13.4868 14.244 13.4868 14.2382 13.4868 14.2325C13.4868 14.2268 13.4868 14.2211 13.4868 14.2154C13.4868 14.2097 13.4868 14.204 13.4868 14.1983C13.4868 14.1927 13.4868 14.187 13.4868 14.1814C13.4868 14.1757 13.4868 14.1701 13.4868 14.1645C13.4868 14.1589 13.4868 14.1533 13.4868 14.1477C13.4868 14.1421 13.4868 14.1366 13.4868 14.131C13.4868 14.1255 13.4868 14.1199 13.4868 14.1144C13.4868 14.1089 13.4868 14.1034 13.4868 14.0979C13.4868 14.0924 13.4868 14.0869 13.4868 14.0815C13.4868 14.076 13.4868 14.0706 13.4868 14.0651C13.4868 14.0597 13.4868 14.0543 13.4868 14.0489C13.4868 14.0435 13.4868 14.0381 13.4868 14.0327C13.4868 14.0273 13.4868 14.022 13.4868 14.0166C13.4868 14.0113 13.4868 14.0059 13.4868 14.0006C13.4868 13.9953 13.4868 13.99 13.4868 13.9847C13.4868 13.9794 13.4868 13.9741 13.4868 13.9688C13.4868 13.9636 13.4868 13.9583 13.4868 13.9531C13.4868 13.9479 13.4868 13.9426 13.4868 13.9374C13.4868 13.9322 13.4868 13.927 13.4868 13.9218C13.4868 13.9167 13.4868 13.9115 13.4868 13.9063C13.4868 13.9012 13.4868 13.8961 13.4868 13.8909C13.4868 13.8858 13.4868 13.8807 13.4868 13.8756C13.4868 13.8705 13.4868 13.8654 13.4868 13.8604C13.4868 13.8553 13.4868 13.8502 13.4868 13.8452C13.4868 13.8401 13.4868 13.8351 13.4868 13.8301C13.4868 13.8251 13.4868 13.8201 13.4868 13.8151C13.4868 13.8101 13.4868 13.8051 13.4868 13.8002C13.4868 13.7952 13.4868 13.7903 13.4868 13.7853C13.4868 13.7804 13.4868 13.7755 13.4868 13.7706C13.4868 13.7657 13.4868 13.7608 13.4868 13.7559C13.4868 13.751 13.4868 13.7462 13.4868 13.7413C13.4868 13.7365 13.4868 13.7316 13.4868 13.7268C13.4868 13.722 13.4868 13.7172 13.4868 13.7124C13.4868 13.7076 13.4868 13.7028 13.4868 13.698C13.4868 13.6933 13.4868 13.6885 13.4868 13.6838C13.4868 13.679 13.4868 13.6743 13.4868 13.6696C13.4868 13.6649 13.4868 13.6602 13.4868 13.6555C13.4868 13.6508 13.4868 13.6461 13.4868 13.6414C13.4868 13.6368 13.4868 13.6321 13.4868 13.6275C13.4868 13.6229 13.4868 13.6182 13.4868 13.6136C13.4868 13.609 13.4868 13.6044 13.4868 13.5998C13.4868 13.5952 13.4868 13.5907 13.4868 13.5861C13.4868 13.5816 13.4868 13.577 13.4868 13.5725C13.4868 13.568 13.4868 13.5634 13.4868 13.5589C13.4868 13.5544 13.4868 13.5499 13.4868 13.5455C13.4868 13.541 13.4868 13.5365 13.4868 13.5321C13.4868 13.5276 13.4868 13.5232 13.4868 13.5187C13.4868 13.5143 13.4868 13.5099 13.4868 13.5055C13.4868 13.5011 13.4868 13.4967 13.4868 13.4923C13.4868 13.4879 13.4868 13.4836 13.4868 13.4792C13.4868 13.4749 13.4868 13.4705 13.4868 13.4662C13.4868 13.4619 13.4868 13.4576 13.4868 13.4533C13.4868 13.449 13.4868 13.4447 13.4868 13.4404C13.4868 13.4361 13.4868 13.4319 13.4868 13.4276C13.4868 13.4234 13.4868 13.4191 13.4868 13.4149C13.4868 13.4107 13.4868 13.4065 13.4868 13.4023C13.4868 13.3981 13.4868 13.3939 13.4868 13.3897C13.4868 13.3856 13.4868 13.3814 13.4868 13.3773C13.4868 13.3731 13.4868 13.369 13.4868 13.3648C13.4868 13.3607 13.4868 13.3566 13.4868 13.3525C13.4868 13.3484 13.4868 13.3443 13.4868 13.3403C13.4868 13.3362 13.4868 13.3321 13.4868 13.3281C13.4868 13.324 13.4868 13.32 13.4868 13.316C13.4868 13.3119 13.4868 13.3079 13.4868 13.3039C13.4868 13.2999 13.4868 13.2959 13.4868 13.292C13.4868 13.288 13.4868 13.284 13.4868 13.2801C13.4868 13.2761 13.4868 13.2722 13.4868 13.2683C13.4868 13.2643 13.4868 13.2604 13.4868 13.2565C13.4868 13.2526 13.4868 13.2487 13.4868 13.2448C13.4868 13.241 13.4868 13.2371 13.4868 13.2332C13.4868 13.2294 13.4868 13.2256 13.4868 13.2217C13.4868 13.2179 13.4868 13.2141 13.4868 13.2103C13.4868 13.2065 13.4868 13.2027 13.4868 13.1989C13.4868 13.1951 13.4868 13.1913 13.4868 13.1876C13.4868 13.1838 13.4868 13.1801 13.4868 13.1763C13.4868 13.1726 13.4868 13.1689 13.4868 13.1652C13.4868 13.1615 13.4868 13.1578 13.4868 13.1541C13.4868 13.1504 13.4868 13.1467 13.4868 13.143C13.4868 13.1394 13.4868 13.1357 13.4868 13.1321C13.4868 13.1285 13.4868 13.1248 13.4868 13.1212C13.4868 13.1176 13.4868 13.114 13.4868 13.1104C13.4868 13.1068 13.4868 13.1032 13.4868 13.0996C13.4868 13.0961 13.4868 13.0925 13.4868 13.089C13.4868 13.0854 13.4868 13.0819 13.4868 13.0784C13.4868 13.0748 13.4868 13.0713 13.4868 13.0678C13.4868 13.0643 13.4868 13.0608 13.4868 13.0574C13.4868 13.0539 13.4868 13.0504 13.4868 13.047C13.4868 13.0435 13.4868 13.0401 13.4868 13.0366C13.4868 13.0332 13.4868 13.0298 13.4868 13.0264C13.4868 13.023 13.4868 13.0196 13.4868 13.0162C13.4868 13.0128 13.4868 13.0094 13.4868 13.006C13.4868 13.0027 13.4868 12.9993 13.4868 12.996C13.4868 12.9926 13.4868 12.9893 13.4868 12.986C13.4868 12.9827 13.4868 12.9794 13.4868 12.9761C13.4868 12.9728 13.4868 12.9695 13.4868 12.9662C13.4868 12.9629 13.4868 12.9597 13.4868 12.9564C13.4868 12.9532 13.4868 12.9499 13.4868 12.9467C13.4868 12.9435 13.4868 12.9402 13.4868 12.937C13.4868 12.9338 13.4868 12.9306 13.4868 12.9274C13.4868 12.9242 13.4868 12.9211 13.4868 12.9179C13.4868 12.9147 13.4868 12.9116 13.4868 12.9084C13.4868 12.9053 13.4868 12.9022 13.4868 12.899C13.4868 12.8959 13.4868 12.8928 13.4868 12.8897C13.4868 12.8866 13.4868 12.8835 13.4868 12.8804C13.4868 12.8774 13.4868 12.8743 13.4868 12.8712C13.4868 12.8682 13.4868 12.8651 13.4868 12.8621C13.4868 12.8591 13.4868 12.856 13.4868 12.853C13.4868 12.85 13.4868 12.847 13.4868 12.844C13.4868 12.841 13.4868 12.838 13.4868 12.8351C13.4868 12.8321 13.4868 12.8291 13.4868 12.8262C13.4868 12.8232 13.4868 12.8203 13.4868 12.8174C13.4868 12.8144 13.4868 12.8115 13.4868 12.8086C13.4868 12.8057 13.4868 12.8028 13.4868 12.7999C13.4868 12.797 13.4868 12.7941 13.4868 12.7913C13.4868 12.7884 13.4868 12.7856 13.4868 12.7827C13.4868 12.7799 13.4868 12.777 13.4868 12.7742C13.4868 12.7714 13.4868 12.7686 13.4868 12.7658C13.4868 12.763 13.4868 12.7602 13.4868 12.7574C13.4868 12.7546 13.4868 12.7518 13.4868 12.7491C13.4868 12.7463 13.4868 12.7435 13.4868 12.7408C13.4868 12.738 13.4868 12.7353 13.4868 12.7326C13.4868 12.7299 13.4868 12.7272 13.4868 12.7245C13.4868 12.7217 13.4868 12.7191 13.4868 12.7164C13.4868 12.7137 13.4868 12.711 13.4868 12.7084C13.4868 12.7057 13.4868 12.703 13.4868 12.7004C13.4868 12.6978 13.4868 12.6951 13.4868 12.6925C13.4868 12.6899 13.4868 12.6873 13.4868 12.6847C13.4868 12.6821 13.4868 12.6795 13.4868 12.6769C13.4868 12.6743 13.4868 12.6717 13.4868 12.6692C13.4868 12.6666 13.4868 12.664 13.4868 12.6615C13.4868 12.659 13.4868 12.6564 13.4868 12.6539C13.4868 12.6514 13.4868 12.6489 13.4868 12.6463C13.4868 12.6438 13.4868 12.6413 13.4868 12.6389C13.4868 12.6364 13.4868 12.6339 13.4868 12.6314C13.4868 12.629 13.4868 12.6265 13.4868 12.6241C13.4868 12.6216 13.4868 12.6192 13.4868 12.6167C13.4868 12.6143 13.4868 12.6119 13.4868 12.6095C13.4868 12.6071 13.4868 12.6047 13.4868 12.6023C13.4868 12.5999 13.4868 12.5975 13.4868 12.5952C13.4868 12.5928 13.4868 12.5904 13.4868 12.5881C13.4868 12.5857 13.4868 12.5834 13.4868 12.581C13.4868 12.5787 13.4868 12.5764 13.4868 12.5741C13.4868 12.5718 13.4868 12.5694 13.4868 12.5672C13.4868 12.5649 13.4868 12.5626 13.4868 12.5603C13.4868 12.558 13.4868 12.5557 13.4868 12.5535C13.4868 12.5512 13.4868 12.549 13.4868 12.5467C13.4868 12.5445 13.4868 12.5423 13.4868 12.54C13.4868 12.5378 13.4868 12.5356 13.4868 12.5334C13.4868 12.5312 13.4868 12.529 13.4868 12.5268C13.4868 12.5246 13.4868 12.5225 13.4868 12.5203C13.4868 12.5181 13.4868 12.516 13.4868 12.5138C13.4868 12.5117 13.4868 12.5095 13.4868 12.5074C13.4868 12.5053 13.4868 12.5031 13.4868 12.501C13.4868 12.4989 13.4868 12.4968 13.4868 12.4947C13.4868 12.4926 13.4868 12.4905 13.4868 12.4884C13.4868 12.4864 13.4868 12.4843 13.4868 12.4822C13.4868 12.4802 13.4868 12.4781 13.4868 12.4761C13.4868 12.474 13.4868 12.472 13.4868 12.47C13.4868 12.468 13.4868 12.4659 13.4868 12.4639C13.4868 12.4619 13.4868 12.4599 13.4868 12.4579C13.4868 12.4559 13.4868 12.454 13.4868 12.452C13.4868 12.45 13.4868 12.448 13.4868 12.4461C13.4868 12.4441 13.4868 12.4422 13.4868 12.4402C13.4868 12.4383 13.4868 12.4364 13.4868 12.4344C13.4868 12.4325 13.4868 12.4306 13.4868 12.4287C13.4868 12.4268 13.4868 12.4249 13.4868 12.423C13.4868 12.4211 13.4868 12.4192 13.4868 12.4174C13.4868 12.4155 13.4868 12.4136 13.4868 12.4118C13.4868 12.4099 13.4868 12.4081 13.4868 12.4062C13.4868 12.4044 13.4868 12.4026 13.4868 12.4008C13.4868 12.3989 13.4868 12.3971 13.4868 12.3953C13.4868 12.3935 13.4868 12.3917 13.4868 12.3899C13.4868 12.3881 13.4868 12.3864 13.4868 12.3846C13.4868 12.3828 13.4868 12.3811 13.4868 12.3793C13.4868 12.3775 13.4868 12.3758 13.4868 12.3741C13.4868 12.3723 13.4868 12.3706 13.4868 12.3689C13.4868 12.3671 13.4868 12.3654 13.4868 12.3637C13.4868 12.362 13.4868 12.3603 13.4868 12.3586C13.4868 12.3569 13.4868 12.3552 13.4868 12.3536C13.4868 12.3519 13.4868 12.3502 13.4868 12.3486C13.4868 12.3469 13.4868 12.3452 13.4868 12.3436C13.4868 12.342 13.4868 12.3403 13.4868 12.3387C13.4868 12.3371 13.4868 12.3354 13.4868 12.3338C13.4868 12.3322 13.4868 12.3306 13.4868 12.329C13.4868 12.3274 13.4868 12.3258 13.4868 12.3243C13.4868 12.3227 13.4868 12.3211 13.4868 12.3195C13.4868 12.318 13.4868 12.3164 13.4868 12.3149C13.4868 12.3133 13.4868 12.3118 13.4868 12.3102C13.4868 12.3087 13.4868 12.3072 13.4868 12.3056C13.4868 12.3041 13.4868 12.3026 13.4868 12.3011C13.4868 12.2996 13.4868 12.2981 13.4868 12.2966C13.4868 12.2951 13.4868 12.2936 13.4868 12.2922C13.4868 12.2907 13.4868 12.2892 13.4868 12.2878C13.4868 12.2863 13.4868 12.2848 13.4868 12.2834C13.4868 12.2819 13.4868 12.2805 13.4868 12.2791C13.4868 12.2776 13.4868 12.2762 13.4868 12.2748C13.4868 12.2734 13.4868 12.272 13.4868 12.2706C13.4868 12.2692 13.4868 12.2678 13.4868 12.2664C13.4868 12.265 13.4868 12.2636 13.4868 12.2623C13.4868 12.2609 13.4868 12.2595 13.4868 12.2582C13.4868 12.2568 13.4868 12.2554 13.4868 12.2541C13.4868 12.2528 13.4868 12.2514 13.4868 12.2501C13.4868 12.2488 13.4868 12.2474 13.4868 12.2461C13.4868 12.2448 13.4868 12.2435 13.4868 12.2422C13.4868 12.2409 13.4868 12.2396 13.4868 12.2383C13.4868 12.237 13.4868 12.2357 13.4868 12.2345C13.4868 12.2332 13.4868 12.2319 13.4868 12.2307C13.4868 12.2294 13.4868 12.2282 13.4868 12.2269C13.4868 12.2257 13.4868 12.2244 13.4868 12.2232C13.4868 12.222 13.4868 12.2207 13.4868 12.2195C13.4868 12.2183 13.4868 12.2171 13.4868 12.2159C13.4868 12.2147 13.4868 12.2135 13.4868 12.2123C13.4868 12.2111 13.4868 12.2099 13.4868 12.2087C13.4868 12.2075 13.4868 12.2064 13.4868 12.2052C13.4868 12.204 13.4868 12.2029 13.4868 12.2017C13.4868 12.2006 13.4868 12.1994 13.4868 12.1983C13.4868 12.1971 13.4868 12.196 13.4868 12.1949C13.4868 12.1938 13.4868 12.1926 13.4868 12.1915C13.4868 12.1904 13.4868 12.1893 13.4868 12.1882C13.4868 12.1871 13.4868 12.186 13.4868 12.1849C13.4868 12.1838 13.4868 12.1828 13.4868 12.1817C13.4868 12.1806 13.4868 12.1795 13.4868 12.1785C13.4868 12.1774 13.4868 12.1764 13.4868 12.1753C13.4868 12.1743 13.4868 12.1732 13.4868 12.1722C13.4868 12.1711 13.4868 12.1701 13.4868 12.1691C13.4868 12.1681 13.4868 12.167 13.4868 12.166C13.4868 12.165 13.4868 12.164 13.4868 12.163C13.4868 12.162 13.4868 12.161 13.4868 12.16C13.4868 12.159 13.4868 12.1581 13.4868 12.1571C13.4868 12.1561 13.4868 12.1551 13.4868 12.1542C13.4868 12.1532 13.4868 12.1523 13.4868 12.1513C13.4868 12.1504 13.4868 12.1494 13.4868 12.1485C13.4868 12.1475 13.4868 12.1466 13.4868 12.1457C13.4868 12.1447 13.4868 12.1438 13.4868 12.1429C13.4868 12.142 13.4868 12.1411 13.4868 12.1402C13.4868 12.1393 13.4868 12.1384 13.4868 12.1375C13.4868 12.1366 13.4868 12.1357 13.4868 12.1348C13.4868 12.1339 13.4868 12.1331 13.4868 12.1322C13.4868 12.1313 13.4868 12.1305 13.4868 12.1296C13.4868 12.1287 13.4868 12.1279 13.4868 12.127C13.4868 12.1262 13.4868 12.1254 13.4868 12.1245C13.4868 12.1237 13.4868 12.1229 13.4868 12.122C13.4868 12.1212 13.4868 12.1204 13.4868 12.1196C13.4868 12.1188 13.4868 12.1179 13.4868 12.1171C13.4868 12.1163 13.4868 12.1155 13.4868 12.1148C13.4868 12.114 13.4868 12.1132 13.4868 12.1124C13.4868 12.1116 13.4868 12.1108 13.4868 12.1101C13.4868 12.1093 13.4868 12.1085 13.4868 12.1078C13.4868 12.107 13.4868 12.1063 13.4868 12.1055C13.4868 12.1048 13.4868 12.104 13.4868 12.1033C13.4868 12.1026 13.4868 12.1018 13.4868 12.1011C13.4868 12.1004 13.4868 12.0996 13.4868 12.0989C13.4868 12.0982 13.4868 12.0975 13.4868 12.0968C13.4868 12.0961 13.4868 12.0954 13.4868 12.0947C13.4868 12.094 13.4868 12.0933 13.4868 12.0926C13.4868 12.0919 13.4868 12.0913 13.4868 12.0906C13.4868 12.0899 13.4868 12.0892 13.4868 12.0886C13.4868 12.0879 13.4868 12.0872 13.4868 12.0866C13.4868 12.0859 13.4868 12.0853 13.4868 12.0846C13.4868 12.084 13.4868 12.0833 13.4868 12.0827C13.4868 12.0821 13.4868 12.0814 13.4868 12.0808C13.4868 12.0802 13.4868 12.0796 13.4868 12.0789C13.4868 12.0783 13.4868 12.0777 13.4868 12.0771C13.4868 12.0765 13.4868 12.0759 13.4868 12.0753C13.4868 12.0747 13.4868 12.0741 13.4868 12.0735C13.4868 12.0729 13.4868 12.0724 13.4868 12.0718C13.4868 12.0712 13.4868 12.0706 13.4868 12.0701C13.4868 12.0695 13.4868 12.0689 13.4868 12.0684C13.4868 12.0678 13.4868 12.0672 13.4868 12.0667C13.4868 12.0661 13.4868 12.0656 13.4868 12.0651C13.4868 12.0645 13.4868 12.064 13.4868 12.0634C13.4868 12.0629 13.4868 12.0624 13.4868 12.0619C13.4868 12.0613 13.4868 12.0608 13.4868 12.0603C13.4868 12.0598 13.4868 12.0593 13.4868 12.0588C13.4868 12.0583 13.4868 12.0578 13.4868 12.0573C13.4868 12.0568 13.4868 12.0563 13.4868 12.0558C13.4868 12.0553 13.4868 12.0548 13.4868 12.0543C13.4868 12.0538 13.4868 12.0534 13.4868 12.0529C13.4868 12.0524 13.4868 12.052 13.4868 12.0515C13.4868 12.051 13.4868 12.0506 13.4868 12.0501C13.4868 12.0497 13.4868 12.0492 13.4868 12.0488C13.4868 12.0483 13.4868 12.0479 13.4868 12.0474C13.4868 12.047 13.4868 12.0466 13.4868 12.0461C13.4868 12.0457 13.4868 12.0453 13.4868 12.0448C13.4868 12.0444 13.4868 12.044 13.4868 12.0436C13.4868 12.0432 13.4868 12.0428 13.4868 12.0424C13.4868 12.0419 13.4868 12.0415 13.4868 12.0411C13.4868 12.0407 13.4868 12.0404 13.4868 12.04C13.4868 12.0396 13.4868 12.0392 13.4868 12.0388C13.4868 12.0384 13.4868 12.038 13.4868 12.0377C13.4868 12.0373 13.4868 12.0369 13.4868 12.0365C13.4868 12.0362 13.4868 12.0358 13.4868 12.0354C13.4868 12.0351 13.4868 12.0347 13.4868 12.0344C13.4868 12.034 13.4868 12.0337 13.4868 12.0333C13.4868 12.033 13.4868 12.0326 13.4868 12.0323C13.4868 12.0319 13.4868 12.0316 13.4868 12.0313C13.4868 12.0309 13.4868 12.0306 13.4868 12.0303C13.4868 12.03 13.4868 12.0296 13.4868 12.0293C13.4868 12.029 13.4868 12.0287 13.4868 12.0284C13.4868 12.0281 13.4868 12.0278 13.4868 12.0275C13.4868 12.0272 13.4868 12.0269 13.4868 12.0266C13.4868 12.0263 13.4868 12.026 13.4868 12.0257C13.4868 12.0254 13.4868 12.0251 13.4868 12.0248C13.4868 12.0245 13.4868 12.0242 13.4868 12.024C13.4868 12.0237 13.4868 12.0234 13.4868 12.0231C13.4868 12.0229 13.4868 12.0226 13.4868 12.0223C13.4868 12.0221 13.4868 12.0218 13.4868 12.0215C13.4868 12.0213 13.4868 12.021 13.4868 12.0208C13.4868 12.0205 13.4868 12.0203 13.4868 12.02C13.4868 12.0198 13.4868 12.0195 13.4868 12.0193C13.4868 12.019 13.4868 12.0188 13.4868 12.0186C13.4868 12.0183 13.4868 12.0181 13.4868 12.0179C13.4868 12.0177 13.4868 12.0174 13.4868 12.0172C13.4868 12.017 13.4868 12.0168 13.4868 12.0165C13.4868 12.0163 13.4868 12.0161 13.4868 12.0159C13.4868 12.0157 13.4868 12.0155 13.4868 12.0153C13.4868 12.0151 13.4868 12.0149 13.4868 12.0147C13.4868 12.0145 13.4868 12.0143 13.4868 12.0141C13.4868 12.0139 13.4868 12.0137 13.4868 12.0135C13.4868 12.0133 13.4868 12.0131 13.4868 12.0129C13.4868 12.0127 13.4868 12.0126 13.4868 12.0124C13.4868 12.0122 13.4868 12.012 13.4868 12.0119C13.4868 12.0117 13.4868 12.0115 13.4868 12.0113C13.4868 12.0112 13.4868 12.011 13.4868 12.0108C13.4868 12.0107 13.4868 12.0105 13.4868 12.0104C13.4868 12.0102 13.4868 12.01 13.4868 12.0099C13.4868 12.0097 13.4868 12.0096 13.4868 12.0094C13.4868 12.0093 13.4868 12.0091 13.4868 12.009C13.4868 12.0088 13.4868 12.0087 13.4868 12.0086C13.4868 12.0084 13.4868 12.0083 13.4868 12.0082C13.4868 12.008 13.4868 12.0079 13.4868 12.0078C13.4868 12.0076 13.4868 12.0075 13.4868 12.0074C13.4868 12.0072 13.4868 12.0071 13.4868 12.007C13.4868 12.0069 13.4868 12.0067 13.4868 12.0066C13.4868 12.0065 13.4868 12.0064 13.4868 12.0063C13.4868 12.0062 13.4868 12.0061 13.4868 12.0059C13.4868 12.0058 13.4868 12.0057 13.4868 12.0056C13.4868 12.0055 13.4868 12.0054 13.4868 12.0053C13.4868 12.0052 13.4868 12.0051 13.4868 12.005C13.4868 12.0049 13.4868 12.0048 13.4868 12.0047C13.4868 12.0046 13.4868 12.0045 13.4868 12.0044C13.4868 12.0044 13.4868 12.0043 13.4868 12.0042C13.4868 12.0041 13.4868 12.004 13.4868 12.0039C13.4868 12.0038 13.4868 12.0038 13.4868 12.0037C13.4868 12.0036 13.4868 12.0035 13.4868 12.0035C13.4868 12.0034 13.4868 12.0033 13.4868 12.0032C13.4868 12.0032 13.4868 12.0031 13.4868 12.003C13.4868 12.0029 13.4868 12.0029 13.4868 12.0028C13.4868 12.0027 13.4868 12.0027 13.4868 12.0026C13.4868 12.0026 13.4868 12.0025 13.4868 12.0024C13.4868 12.0024 13.4868 12.0023 13.4868 12.0023C13.4868 12.0022 13.4868 12.0021 13.4868 12.0021C13.4868 12.002 13.4868 12.002 13.4868 12.0019C13.4868 12.0019 13.4868 12.0018 13.4868 12.0018C13.4868 12.0017 13.4868 12.0017 13.4868 12.0016C13.4868 12.0016 13.4868 12.0015 13.4868 12.0015C13.4868 12.0015 13.4868 12.0014 13.4868 12.0014C13.4868 12.0013 13.4868 12.0013 13.4868 12.0013C13.4868 12.0012 13.4868 12.0012 13.4868 12.0011C13.4868 12.0011 13.4868 12.0011 13.4868 12.001C13.4868 12.001 13.4868 12.001 13.4868 12.0009C13.4868 12.0009 13.4868 12.0009 13.4868 12.0008C13.4868 12.0008 13.4868 12.0008 13.4868 12.0008C13.4868 12.0007 13.4868 12.0007 13.4868 12.0007C13.4868 12.0007 13.4868 12.0006 13.4868 12.0006C13.4868 12.0006 13.4868 12.0006 13.4868 12.0005C13.4868 12.0005 13.4868 12.0005 13.4868 12.0005C13.4868 12.0005 13.4868 12.0004 13.4868 12.0004C13.4868 12.0004 13.4868 12.0004 13.4868 12.0004C13.4868 12.0004 13.4868 12.0003 13.4868 12.0003C13.4868 12.0003 13.4868 12.0003 13.4868 12.0003C13.4868 12.0003 13.4868 12.0003 13.4868 12.0002C13.4868 12.0002 13.4868 12.0002 13.4868 12.0002C13.4868 12.0002 13.4868 12.0002 13.4868 12.0002C13.4868 12.0002 13.4868 12.0002 13.4868 12.0001C13.4868 12.0001 13.4868 12.0001 13.4868 12.0001C13.4868 12.0001 13.4868 12.0001 13.4868 12.0001C13.4868 12.0001 13.4868 12.0001 13.4868 12.0001C13.4868 12.0001 13.4868 12.0001 13.4868 12.0001C13.4868 12.0001 13.4868 12.0001 13.4868 12.0001C13.4868 12.0001 13.4868 12.0001 13.4868 12C13.4868 12 13.4868 12 13.4868 12C13.4868 12 13.4868 12 13.4868 12C13.4868 12 13.4868 12 13.4868 12C13.4868 12 13.4868 12 13.4868 12C13.4868 12 13.4868 12 13.4868 12C13.4868 12 13.4868 12 13.4868 12C13.4868 12 13.4868 12 13.4868 12H12.7368ZM13.4868 12V6.94873H11.9868V12H13.4868Z" fill="#909090"/>
</svg>
