<svg width="21" height="21" viewBox="0 0 21 21" fill="none" xmlns="http://www.w3.org/2000/svg">
<g id="CameraIcon">
<path id="Icon shape" d="M10.409 14.6202C11.4507 14.6202 12.3361 14.2556 13.0653 13.5264C13.7944 12.7973 14.159 11.9119 14.159 10.8702C14.159 9.82853 13.7944 8.94312 13.0653 8.21395C12.3361 7.48478 11.4507 7.1202 10.409 7.1202C9.36735 7.1202 8.48193 7.48478 7.75277 8.21395C7.0236 8.94312 6.65902 9.82853 6.65902 10.8702C6.65902 11.9119 7.0236 12.7973 7.75277 13.5264C8.48193 14.2556 9.36735 14.6202 10.409 14.6202ZM10.409 12.9535C9.82568 12.9535 9.33263 12.7521 8.92985 12.3494C8.52707 11.9466 8.32568 11.4535 8.32568 10.8702C8.32568 10.2869 8.52707 9.79381 8.92985 9.39103C9.33263 8.98825 9.82568 8.78687 10.409 8.78687C10.9924 8.78687 11.4854 8.98825 11.8882 9.39103C12.291 9.79381 12.4924 10.2869 12.4924 10.8702C12.4924 11.4535 12.291 11.9466 11.8882 12.3494C11.4854 12.7521 10.9924 12.9535 10.409 12.9535ZM3.74235 17.5369C3.28402 17.5369 2.89166 17.3737 2.56527 17.0473C2.23888 16.7209 2.07568 16.3285 2.07568 15.8702V5.8702C2.07568 5.41186 2.23888 5.0195 2.56527 4.69312C2.89166 4.36673 3.28402 4.20353 3.74235 4.20353H6.36735L7.40902 3.07853C7.56179 2.91187 7.74582 2.77992 7.9611 2.6827C8.17638 2.58548 8.40207 2.53687 8.63818 2.53687H12.1799C12.416 2.53687 12.6417 2.58548 12.8569 2.6827C13.0722 2.77992 13.2562 2.91187 13.409 3.07853L14.4507 4.20353H17.0757C17.534 4.20353 17.9264 4.36673 18.2528 4.69312C18.5792 5.0195 18.7423 5.41186 18.7423 5.8702V15.8702C18.7423 16.3285 18.5792 16.7209 18.2528 17.0473C17.9264 17.3737 17.534 17.5369 17.0757 17.5369H3.74235Z" fill="#CACACA"/>
</g>
</svg>
