<svg width="26" height="25" viewBox="0 0 26 25" fill="none" xmlns="http://www.w3.org/2000/svg">
<path fill-rule="evenodd" clip-rule="evenodd" d="M16.4528 5.79978L13.8537 0.858783C13.4789 0.146182 12.4585 0.146181 12.0837 0.858782L9.48455 5.79978C9.23841 6.2838 8.88214 6.70331 8.44439 7.0246C8.00451 7.34753 7.4955 7.56365 6.95765 7.65585L1.43796 8.73806C0.691578 8.8844 0.37532 9.77738 0.863233 10.3609L4.79066 15.0575C5.47613 15.8088 5.79958 16.8218 5.6763 17.8313L4.9479 23.7333C4.85085 24.5197 5.6634 25.1013 6.37647 24.7557L11.3331 22.3537C11.843 22.1067 12.4021 21.9779 12.9687 21.9768C13.5003 21.9784 14.0237 22.1077 14.495 22.3537L19.6421 24.6405C20.3532 24.9564 21.1368 24.3748 21.0404 23.6027L20.3063 17.7258C20.1858 16.7185 20.5098 15.7087 21.1938 14.9595L25.0653 10.3622C25.5563 9.77927 25.2407 8.8834 24.4928 8.73677L18.9797 7.65585C18.4412 7.56393 17.9315 7.3478 17.4911 7.0246C17.054 6.70309 16.6984 6.28359 16.4528 5.79978Z" fill="#E4E4E4"/>
</svg>
