<?xml version="1.0" encoding="utf-8"?>
<!-- Generator: Adobe Illustrator 24.1.1, SVG Export Plug-In . SVG Version: 6.00 Build 0)  -->
<svg version="1.1" id="Layer_1" xmlns="http://www.w3.org/2000/svg" xmlns:xlink="http://www.w3.org/1999/xlink" x="0px" y="0px"
	 viewBox="0 0 43 43" style="enable-background:new 0 0 43 43;" xml:space="preserve">
<style type="text/css">
	.st0{fill:#FFEA4C;}
	.st1{fill:#E4E4E4;}
</style>
<g>
	<path class="st0" d="M21.1,10.1L18.5,15c-0.2,0.5-0.6,0.9-1,1.2c-0.4,0.3-0.9,0.5-1.5,0.6l-5.5,1.1c-0.7,0.1-1.1,1-0.6,1.6l3.9,4.7
		c0.7,0.8,1,1.8,0.9,2.8L14,32.9c-0.1,0.8,0.7,1.4,1.4,1l5-2.4c0.5-0.2,1.1-0.4,1.6-0.4V9.5C21.6,9.5,21.3,9.7,21.1,10.1z"/>
	<path class="st1" d="M33.5,17.7l-5.5-1c-0.5-0.1-1-0.3-1.5-0.6c-0.4-0.3-0.8-0.7-1-1.2L22.9,10c-0.2-0.4-0.5-0.5-0.9-0.5V31l0,0
		c0.5,0,1.1,0.1,1.5,0.4l5.1,2.3c0.7,0.3,1.5-0.3,1.4-1l-0.7-5.9c-0.1-1,0.2-2,0.9-2.8l3.9-4.6C34.6,18.8,34.2,17.9,33.5,17.7z"/>
</g>
</svg>
