<svg width="21" height="22" viewBox="0 0 21 22" fill="none" xmlns="http://www.w3.org/2000/svg">
<path d="M2.03388 14.031C2.05719 13.5317 1.67134 13.1081 1.17207 13.0848C0.672795 13.0615 0.249159 13.4473 0.225853 13.9466L2.03388 14.031ZM6.87387 20.3261L6.82728 21.2299C6.8428 21.2307 6.85833 21.2311 6.87387 21.2311V20.3261ZM14.0525 20.3261V21.2311C14.0681 21.2311 14.0836 21.2307 14.0991 21.2299L14.0525 20.3261ZM20.7006 13.9466C20.6772 13.4473 20.2536 13.0615 19.7543 13.0848C19.2551 13.1081 18.8692 13.5317 18.8925 14.031L20.7006 13.9466ZM0.224932 13.989C0.224932 14.4888 0.630114 14.894 1.12993 14.894C1.62975 14.894 2.03493 14.4888 2.03493 13.989H0.224932ZM1.12993 12.1077H2.03493C2.03493 12.0935 2.0346 12.0794 2.03394 12.0653L1.12993 12.1077ZM6.87393 5.76902V4.86402C6.8584 4.86402 6.84287 4.86441 6.82736 4.86521L6.87393 5.76902ZM14.0526 5.76902L14.0992 4.86521C14.0837 4.86441 14.0681 4.86402 14.0526 4.86402V5.76902ZM19.7966 12.1077L18.8926 12.0653C18.8919 12.0794 18.8916 12.0935 18.8916 12.1077H19.7966ZM18.8916 13.989C18.8916 14.4888 19.2968 14.894 19.7966 14.894C20.2964 14.894 20.7016 14.4888 20.7016 13.989H18.8916ZM1.12963 13.0839C0.629809 13.0839 0.224627 13.4891 0.224627 13.9889C0.224627 14.4888 0.629809 14.8939 1.12963 14.8939V13.0839ZM5.79629 14.8939C6.29611 14.8939 6.70129 14.4888 6.70129 13.9889C6.70129 13.4891 6.29611 13.0839 5.79629 13.0839V14.8939ZM4.89177 13.9889C4.89177 14.4887 5.29695 14.8939 5.79677 14.8939C6.29659 14.8939 6.70177 14.4887 6.70177 13.9889H4.89177ZM6.70177 12.6182C6.70177 12.1184 6.29659 11.7132 5.79677 11.7132C5.29695 11.7132 4.89177 12.1184 4.89177 12.6182H6.70177ZM6.70177 13.9875C6.70177 13.4877 6.29659 13.0825 5.79677 13.0825C5.29695 13.0825 4.89177 13.4877 4.89177 13.9875H6.70177ZM4.89177 15.3568C4.89177 15.8567 5.29695 16.2618 5.79677 16.2618C6.29659 16.2618 6.70177 15.8567 6.70177 15.3568H4.89177ZM5.79631 13.0826C5.29649 13.0826 4.89131 13.4878 4.89131 13.9876C4.89131 14.4875 5.29649 14.8926 5.79631 14.8926V13.0826ZM15.1296 14.8926C15.6295 14.8926 16.0346 14.4875 16.0346 13.9876C16.0346 13.4878 15.6295 13.0826 15.1296 13.0826V14.8926ZM19.7963 14.8926C20.2962 14.8926 20.7013 14.4875 20.7013 13.9876C20.7013 13.4878 20.2962 13.0826 19.7963 13.0826V14.8926ZM15.1297 13.0826C14.6299 13.0826 14.2247 13.4878 14.2247 13.9876C14.2247 14.4875 14.6299 14.8926 15.1297 14.8926V13.0826ZM14.2251 13.9875C14.2251 14.4873 14.6303 14.8925 15.1301 14.8925C15.63 14.8925 16.0351 14.4873 16.0351 13.9875H14.2251ZM16.0351 12.6182C16.0351 12.1184 15.63 11.7132 15.1301 11.7132C14.6303 11.7132 14.2251 12.1184 14.2251 12.6182H16.0351ZM16.0351 13.9875C16.0351 13.4877 15.63 13.0825 15.1301 13.0825C14.6303 13.0825 14.2251 13.4877 14.2251 13.9875H16.0351ZM14.2251 15.3568C14.2251 15.8567 14.6303 16.2618 15.1301 16.2618C15.63 16.2618 16.0351 15.8567 16.0351 15.3568H14.2251ZM5.55817 5.78491C5.55817 6.28473 5.96335 6.68991 6.46317 6.68991C6.96298 6.68991 7.36817 6.28473 7.36817 5.78491H5.55817ZM6.46317 5.76891H5.55817H6.46317ZM13.7635 5.80491C13.7635 6.30473 14.1687 6.70991 14.6685 6.70991C15.1683 6.70991 15.5735 6.30473 15.5735 5.80491H13.7635ZM0.225853 13.9466C0.047028 17.7774 2.99742 21.0325 6.82728 21.2299L6.92045 19.4223C4.08548 19.2762 1.90151 16.8667 2.03388 14.031L0.225853 13.9466ZM6.87387 21.2311H14.0525V19.4211H6.87387V21.2311ZM14.0991 21.2299C17.929 21.0325 20.8794 17.7774 20.7006 13.9466L18.8925 14.031C19.0249 16.8667 16.8409 19.2762 14.006 19.4223L14.0991 21.2299ZM2.03493 13.989V12.1077H0.224932V13.989H2.03493ZM2.03394 12.0653C1.90092 9.2292 4.08507 6.81893 6.92051 6.67282L6.82736 4.86521C2.99687 5.06261 0.04623 8.31872 0.225925 12.1501L2.03394 12.0653ZM6.87393 6.67402H14.0526V4.86402H6.87393V6.67402ZM14.006 6.67282C16.8415 6.81893 19.0256 9.2292 18.8926 12.0653L20.7006 12.1501C20.8803 8.31872 17.9297 5.06261 14.0992 4.86521L14.006 6.67282ZM18.8916 12.1077V13.989H20.7016V12.1077H18.8916ZM1.12963 14.8939H5.79629V13.0839H1.12963V14.8939ZM6.70177 13.9889V12.6182H4.89177V13.9889H6.70177ZM4.89177 13.9875V15.3568H6.70177V13.9875H4.89177ZM5.79631 14.8926H15.1296V13.0826H5.79631V14.8926ZM19.7963 13.0826H15.1297V14.8926H19.7963V13.0826ZM16.0351 13.9875V12.6182H14.2251V13.9875H16.0351ZM14.2251 13.9875V15.3568H16.0351V13.9875H14.2251ZM7.36817 5.78491V5.76891H5.55817V5.78491H7.36817ZM7.36817 5.76891C7.36817 4.00289 8.79981 2.57124 10.5658 2.57124V0.761244C7.80018 0.761244 5.55817 3.00325 5.55817 5.76891H7.36817ZM10.5658 2.57124C12.3319 2.57124 13.7635 4.00289 13.7635 5.76891H15.5735C15.5735 3.00325 13.3315 0.761244 10.5658 0.761244V2.57124ZM13.7635 5.76891V5.80491H15.5735V5.76891H13.7635Z" fill="#02CCDA"/>
</svg>
