<svg width="23" height="22" viewBox="0 0 23 22" fill="none" xmlns="http://www.w3.org/2000/svg">
<path d="M20.7603 7.03526C20.7781 7.53584 21.1984 7.92719 21.6989 7.90937C22.1995 7.89154 22.5909 7.47129 22.573 6.97071L20.7603 7.03526ZM15.952 1.66965V2.57661C15.9621 2.57661 15.9722 2.57644 15.9823 2.5761L15.952 1.66965ZM7.38133 1.66965L7.35103 2.5761C7.36112 2.57644 7.37122 2.57661 7.38133 2.57661V1.66965ZM0.760274 6.97071C0.742449 7.47129 1.1338 7.89154 1.63438 7.90937C2.13496 7.92719 2.55522 7.53584 2.57304 7.03526L0.760274 6.97071ZM22.5736 7.00309C22.5736 6.50219 22.1675 6.09613 21.6666 6.09613C21.1657 6.09613 20.7596 6.50219 20.7596 7.00309H22.5736ZM21.6666 15.0031L22.573 15.0354C22.5734 15.0246 22.5736 15.0139 22.5736 15.0031H21.6666ZM15.9519 20.3364L15.9822 19.43C15.9721 19.4296 15.962 19.4295 15.9519 19.4295V20.3364ZM7.38127 20.3364V19.4295C7.37117 19.4295 7.36107 19.4296 7.35098 19.43L7.38127 20.3364ZM1.66661 15.0031H0.759649C0.759649 15.0139 0.75984 15.0246 0.760223 15.0354L1.66661 15.0031ZM2.57356 7.00309C2.57356 6.50219 2.16751 6.09613 1.66661 6.09613C1.16571 6.09613 0.759649 6.50219 0.759649 7.00309H2.57356ZM22.1241 7.78622C22.5566 7.53357 22.7024 6.97813 22.4497 6.54562C22.1971 6.11311 21.6416 5.96731 21.2091 6.21996L22.1241 7.78622ZM14.6479 11.1031L14.1904 10.3199L14.1829 10.3244L14.6479 11.1031ZM8.68527 11.1031L9.15032 10.3244L9.14274 10.32L8.68527 11.1031ZM2.12408 6.21996C1.69157 5.96731 1.13613 6.11311 0.883476 6.54562C0.630822 6.97813 0.776625 7.53357 1.20914 7.78622L2.12408 6.21996ZM22.573 6.97071C22.4467 3.42157 19.4711 0.644568 15.9217 0.7632L15.9823 2.5761C18.532 2.49088 20.6695 4.48574 20.7603 7.03526L22.573 6.97071ZM15.952 0.762694H7.38133V2.57661H15.952V0.762694ZM7.41162 0.7632C3.86222 0.644568 0.886656 3.42157 0.760274 6.97071L2.57304 7.03526C2.66383 4.48574 4.80132 2.49088 7.35103 2.5761L7.41162 0.7632ZM20.7596 7.00309V15.0031H22.5736V7.00309H20.7596ZM20.7602 14.9708C20.6694 17.5203 18.5319 19.5152 15.9822 19.43L15.9216 21.2429C19.471 21.3615 22.4466 18.5845 22.573 15.0354L20.7602 14.9708ZM15.9519 19.4295H7.38127V21.2434H15.9519V19.4295ZM7.35098 19.43C4.80127 19.5152 2.66378 17.5203 2.57299 14.9708L0.760223 15.0354C0.886604 18.5845 3.86217 21.3615 7.41157 21.2429L7.35098 19.43ZM2.57356 15.0031V7.00309H0.759649V15.0031H2.57356ZM21.2091 6.21996L14.1905 10.32L15.1054 11.8862L22.1241 7.78622L21.2091 6.21996ZM14.1829 10.3244C12.633 11.25 10.7002 11.25 9.15029 10.3244L8.22025 11.8818C10.343 13.1494 12.9903 13.1494 15.113 11.8818L14.1829 10.3244ZM9.14274 10.32L2.12408 6.21996L1.20914 7.78622L8.2278 11.8862L9.14274 10.32Z" fill="#CACACA"/>
</svg>
