<svg width="22" height="23" viewBox="0 0 22 23" fill="none" xmlns="http://www.w3.org/2000/svg">
<path fill-rule="evenodd" clip-rule="evenodd" d="M7.4105 1.33351H14.7718C14.8483 1.33351 14.9243 1.3384 14.9998 1.34817C17.9963 1.55772 20.323 4.04443 20.3332 7.04817V15.6202C20.3221 18.783 17.752 21.3394 14.5892 21.3335H7.4105C4.24718 21.3394 1.6768 18.7821 1.6665 15.6188V7.04817C1.6768 3.88486 4.24718 1.3276 7.4105 1.33351Z" stroke="#CACACA" stroke-width="1.81392" stroke-linecap="round" stroke-linejoin="round"/>
<path d="M20.3332 7.95509C20.8341 7.95509 21.2402 7.54904 21.2402 7.04814C21.2402 6.54724 20.8341 6.14118 20.3332 6.14118V7.95509ZM14.9999 7.04814H14.0929C14.0929 7.54904 14.499 7.95509 14.9999 7.95509V7.04814ZM15.9068 1.34814C15.9068 0.847237 15.5008 0.441178 14.9999 0.441178C14.499 0.441178 14.0929 0.847237 14.0929 1.34814H15.9068ZM9.66656 16.9068C10.1675 16.9068 10.5735 16.5007 10.5735 15.9998C10.5735 15.4989 10.1675 15.0929 9.66656 15.0929V16.9068ZM5.66656 15.0929C5.16566 15.0929 4.7596 15.4989 4.7596 15.9998C4.7596 16.5007 5.16566 16.9068 5.66656 16.9068V15.0929ZM14.9999 12.9068C15.5008 12.9068 15.9068 12.5007 15.9068 11.9998C15.9068 11.4989 15.5008 11.0929 14.9999 11.0929V12.9068ZM5.66656 11.0929C5.16566 11.0929 4.7596 11.4989 4.7596 11.9998C4.7596 12.5007 5.16566 12.9068 5.66656 12.9068V11.0929ZM20.3332 6.14118H14.9999V7.95509H20.3332V6.14118ZM15.9068 7.04814V1.34814H14.0929V7.04814H15.9068ZM9.66656 15.0929H5.66656V16.9068H9.66656V15.0929ZM14.9999 11.0929H5.66656V12.9068H14.9999V11.0929Z" fill="#CACACA"/>
</svg>
