<svg width="18" height="21" viewBox="0 0 18 21" fill="none" xmlns="http://www.w3.org/2000/svg">
<path fill-rule="evenodd" clip-rule="evenodd" d="M12.3304 12.8892H5.72508C3.781 12.9857 2.05863 14.1732 1.27708 15.9558C0.334412 17.8065 2.21575 19.5558 4.40375 19.5558H13.6517C15.8411 19.5558 17.7224 17.8065 16.7784 15.9558C15.9969 14.1732 14.2745 12.9857 12.3304 12.8892Z" stroke="#CACACA" stroke-width="1.81392" stroke-linecap="round" stroke-linejoin="round"/>
<path fill-rule="evenodd" clip-rule="evenodd" d="M13.0278 5.44434C13.0278 7.65347 11.237 9.44434 9.02783 9.44434C6.81869 9.44434 5.02783 7.65347 5.02783 5.44434C5.02783 3.2352 6.81869 1.44434 9.02783 1.44434C10.0887 1.44434 11.1061 1.86576 11.8563 2.61591C12.6064 3.36605 13.0278 4.38347 13.0278 5.44434Z" stroke="#CACACA" stroke-width="1.81392" stroke-linecap="round" stroke-linejoin="round"/>
</svg>
