<svg width="13" height="13" viewBox="0 0 13 13" fill="none" xmlns="http://www.w3.org/2000/svg">
<path d="M0.986027 10.9355C0.693134 11.2284 0.693134 11.7033 0.986027 11.9962C1.27892 12.289 1.75379 12.289 2.04669 11.9962L0.986027 10.9355ZM7.04669 6.99615C7.33958 6.70326 7.33958 6.22838 7.04669 5.93549C6.75379 5.6426 6.27892 5.6426 5.98603 5.93549L7.04669 6.99615ZM5.98603 5.93549C5.69313 6.22838 5.69313 6.70326 5.98603 6.99615C6.27892 7.28904 6.75379 7.28904 7.04669 6.99615L5.98603 5.93549ZM12.0467 1.99615C12.3396 1.70326 12.3396 1.22838 12.0467 0.93549C11.7538 0.642597 11.2789 0.642597 10.986 0.93549L12.0467 1.99615ZM7.04669 5.93549C6.75379 5.6426 6.27892 5.6426 5.98603 5.93549C5.69313 6.22838 5.69313 6.70326 5.98603 6.99615L7.04669 5.93549ZM10.986 11.9962C11.2789 12.289 11.7538 12.289 12.0467 11.9962C12.3396 11.7033 12.3396 11.2284 12.0467 10.9355L10.986 11.9962ZM5.98603 6.99615C6.27892 7.28904 6.75379 7.28904 7.04669 6.99615C7.33958 6.70326 7.33958 6.22838 7.04669 5.93549L5.98603 6.99615ZM2.04669 0.93549C1.75379 0.642597 1.27892 0.642597 0.986027 0.93549C0.693134 1.22838 0.693134 1.70326 0.986027 1.99615L2.04669 0.93549ZM2.04669 11.9962L7.04669 6.99615L5.98603 5.93549L0.986027 10.9355L2.04669 11.9962ZM7.04669 6.99615L12.0467 1.99615L10.986 0.93549L5.98603 5.93549L7.04669 6.99615ZM5.98603 6.99615L10.986 11.9962L12.0467 10.9355L7.04669 5.93549L5.98603 6.99615ZM7.04669 5.93549L2.04669 0.93549L0.986027 1.99615L5.98603 6.99615L7.04669 5.93549Z" fill="#909090"/>
</svg>
