<svg width="13" height="13" viewBox="0 0 13 13" fill="none" xmlns="http://www.w3.org/2000/svg">
<g id="LocationIcon">
<path id="Vector" d="M6.39597 11.3659C6.27833 11.3659 6.1607 11.3449 6.04306 11.3029C5.92543 11.2609 5.8204 11.1979 5.72797 11.1139C5.18181 10.6097 4.69867 10.1182 4.27855 9.63922C3.85843 9.16028 3.50763 8.69605 3.22614 8.24652C2.94466 7.79699 2.7304 7.36426 2.58336 6.94834C2.43631 6.53242 2.36279 6.1354 2.36279 5.75729C2.36279 4.49693 2.76821 3.49283 3.57905 2.74502C4.38988 1.9972 5.32886 1.62329 6.39597 1.62329C7.46308 1.62329 8.40205 1.9972 9.21288 2.74502C10.0237 3.49283 10.4291 4.49693 10.4291 5.75729C10.4291 6.1354 10.3556 6.53242 10.2086 6.94834C10.0615 7.36426 9.84727 7.79699 9.56579 8.24652C9.28431 8.69605 8.9335 9.16028 8.51338 9.63922C8.09326 10.1182 7.61012 10.6097 7.06396 11.1139C6.97153 11.1979 6.8665 11.2609 6.74887 11.3029C6.63123 11.3449 6.5136 11.3659 6.39597 11.3659ZM6.39597 6.66476C6.67325 6.66476 6.91062 6.56603 7.10807 6.36857C7.30553 6.17111 7.40426 5.93374 7.40426 5.65646C7.40426 5.37918 7.30553 5.14181 7.10807 4.94436C6.91062 4.7469 6.67325 4.64817 6.39597 4.64817C6.11869 4.64817 5.88132 4.7469 5.68386 4.94436C5.4864 5.14181 5.38767 5.37918 5.38767 5.65646C5.38767 5.93374 5.4864 6.17111 5.68386 6.36857C5.88132 6.56603 6.11869 6.66476 6.39597 6.66476Z" fill="#02CCDA"/>
</g>
</svg>
